<svg width="25" height="24" viewBox="0 0 25 24" fill="none" xmlns="http://www.w3.org/2000/svg">
<g id="hospital-location-map_svgrepo.com">
<path id="Vector" fill-rule="evenodd" clip-rule="evenodd" d="M12.4461 18.6031C12.7086 18.7936 13.0641 18.7936 13.3266 18.6031C13.3266 18.6031 15.5819 16.9696 17.3856 14.5509C18.6344 12.8761 19.6514 10.8301 19.6514 8.69261C19.6514 4.70636 17.0541 1.49561 12.8864 1.49561C8.71861 1.49561 6.12061 4.70636 6.12061 8.69261C6.12061 10.8301 7.13835 12.8761 8.3871 14.5509C10.1909 16.9696 12.4461 18.6031 12.4461 18.6031ZM12.8864 17.0461C12.1874 16.4806 10.7819 15.2529 9.58936 13.6539C8.52811 12.2311 7.62061 10.5091 7.62061 8.69261C7.62061 5.56211 9.61336 2.99561 12.8864 2.99561C16.1594 2.99561 18.1514 5.56211 18.1514 8.69261C18.1514 10.5091 17.2446 12.2311 16.1834 13.6539C14.9909 15.2529 13.5854 16.4806 12.8864 17.0461Z" fill="#B3B3B3"/>
<path id="Vector_2" fill-rule="evenodd" clip-rule="evenodd" d="M17.7787 17.5591C18.381 17.9041 18.8152 18.2753 18.8152 18.7456C18.8152 19.1888 18.4215 19.5436 17.8747 19.8758C16.7362 20.5666 14.895 20.9956 12.8242 20.9956C10.7535 20.9956 8.91223 20.5666 7.77448 19.8758C7.22698 19.5436 6.83398 19.1888 6.83398 18.7456C6.83398 18.5461 6.92998 18.3616 7.07773 18.1853C7.29373 17.9251 7.61248 17.6933 8.00398 17.4848C8.36923 17.2906 8.50873 16.8361 8.31373 16.4708C8.11948 16.1048 7.66498 15.9661 7.29973 16.1611C6.01873 16.8428 5.33398 17.7886 5.33398 18.7456C5.33398 19.6283 5.90548 20.4961 6.99598 21.1583C8.31148 21.9571 10.431 22.4956 12.8242 22.4956C15.2182 22.4956 17.337 21.9571 18.6525 21.1583C19.743 20.4961 20.3152 19.6283 20.3152 18.7456C20.3152 17.8306 19.6957 16.9291 18.525 16.2578C18.1657 16.0523 17.7067 16.1761 17.5012 16.5353C17.295 16.8946 17.4195 17.3536 17.7787 17.5591Z" fill="#B3B3B3"/>
<path id="Vector_3" fill-rule="evenodd" clip-rule="evenodd" d="M12.1514 7.49561H10.6514C10.2381 7.49561 9.90137 7.83161 9.90137 8.24561C9.90137 8.65961 10.2381 8.99561 10.6514 8.99561H12.1514L12.1506 10.4956C12.1506 10.9096 12.4866 11.2456 12.9006 11.2456C13.3146 11.2456 13.6506 10.9096 13.6506 10.4956L13.6514 8.99561H15.1514C15.5654 8.99561 15.9014 8.65961 15.9014 8.24561C15.9014 7.83161 15.5654 7.49561 15.1514 7.49561H13.6514V5.99561C13.6521 5.58236 13.3161 5.24561 12.9021 5.24561C12.4881 5.24561 12.1521 5.58161 12.1514 5.99561V7.49561Z" fill="#B3B3B3"/>
</g>
</svg>
