<svg width="25" height="24" viewBox="0 0 25 24" fill="none" xmlns="http://www.w3.org/2000/svg">
<g id="2 - Regular / user">
<path id="user-Regular" d="M12.7067 12.7495C15.6017 12.7495 17.9567 10.3945 17.9567 7.49951C17.9567 4.60451 15.6017 2.24951 12.7067 2.24951C9.81173 2.24951 7.45673 4.60451 7.45673 7.49951C7.45673 10.3945 9.81173 12.7495 12.7067 12.7495ZM12.7067 3.74951C14.7747 3.74951 16.4567 5.43151 16.4567 7.49951C16.4567 9.56751 14.7747 11.2495 12.7067 11.2495C10.6387 11.2495 8.95673 9.56751 8.95673 7.49951C8.95673 5.43151 10.6387 3.74951 12.7067 3.74951ZM20.4567 17.9666V18.9775C20.4567 19.9125 20.1157 20.8085 19.4957 21.4995C19.3477 21.6655 19.1427 21.7495 18.9367 21.7495C18.7587 21.7495 18.5797 21.6865 18.4367 21.5585C18.1277 21.2825 18.1027 20.8085 18.3787 20.4995C18.7517 20.0825 18.9577 19.5425 18.9577 18.9785V17.9675C18.9577 16.4535 17.9537 15.1435 16.5147 14.7825C16.2617 14.7185 15.9897 14.7535 15.7687 14.8785C13.8677 15.9365 11.5417 15.9325 9.65271 14.8815C9.42671 14.7525 9.15473 14.7155 8.90173 14.7815C7.46273 15.1435 6.4577 16.4535 6.4577 17.9675V18.9785C6.4577 19.5435 6.66374 20.0835 7.03674 20.4995C7.31274 20.8085 7.2867 21.2825 6.9787 21.5585C6.6687 21.8355 6.19474 21.8085 5.91974 21.5005C5.29974 20.8085 4.95874 19.9125 4.95874 18.9785V17.9675C4.95874 15.7655 6.42971 13.8575 8.53571 13.3275C9.15871 13.1695 9.83571 13.2596 10.3897 13.5756C11.8197 14.3716 13.5918 14.3745 15.0338 13.5725C15.5808 13.2605 16.2578 13.1715 16.8828 13.3285C18.9858 13.8555 20.4567 15.7636 20.4567 17.9666Z" fill="#B3B3B3"/>
</g>
</svg>
