<svg width="21" height="20" viewBox="0 0 21 20" fill="none" xmlns="http://www.w3.org/2000/svg">
<path d="M14.6794 4C14.5873 4 14.5127 4.07462 14.5127 4.16667V5.83333C14.5127 5.92538 14.5873 6 14.6794 6H16.346C16.4381 6 16.5127 5.92538 16.5127 5.83333V4.16667C16.5127 4.07462 16.4381 4 16.346 4H14.6794ZM14.5127 16V15.5C14.5127 15.2239 14.7366 15 15.0127 15C15.2888 15 15.5127 15.2239 15.5127 15.5V16H16.5127V15.5C16.5127 15.2239 16.7366 15 17.0127 15C17.2888 15 17.5127 15.2239 17.5127 15.5V16.5C17.5127 16.7761 17.2888 17 17.0127 17H13.0127C12.7366 17 12.5127 16.7761 12.5127 16.5V15.5C12.5127 15.2239 12.7366 15 13.0127 15C13.2888 15 13.5127 15.2239 13.5127 15.5V16H14.5127ZM11.5127 9H12.0127C12.2888 9 12.5127 9.22386 12.5127 9.5C12.5127 9.77614 12.2888 10 12.0127 10H10.0127C9.73655 10 9.5127 9.77614 9.5127 9.5C9.5127 9.22386 9.73655 9 10.0127 9H10.5127V8H9.0127C8.73655 8 8.5127 7.77614 8.5127 7.5C8.5127 7.22386 8.73655 7 9.0127 7H12.0127C12.2888 7 12.5127 7.22386 12.5127 7.5C12.5127 7.77614 12.2888 8 12.0127 8H11.5127V9ZM16.5127 10H16.0127C15.7366 10 15.5127 9.77614 15.5127 9.5C15.5127 9.22386 15.7366 9 16.0127 9H16.5127V8.5C16.5127 8.22386 16.7366 8 17.0127 8C17.2888 8 17.5127 8.22386 17.5127 8.5V10.5C17.5127 10.7761 17.2888 11 17.0127 11C16.7366 11 16.5127 10.7761 16.5127 10.5V10ZM11.5127 12H11.0127C10.7366 12 10.5127 11.7761 10.5127 11.5C10.5127 11.2239 10.7366 11 11.0127 11H12.0127C12.2888 11 12.5127 11.2239 12.5127 11.5V13.5C12.5127 13.7761 12.2888 14 12.0127 14H9.0127C8.73655 14 8.5127 13.7761 8.5127 13.5C8.5127 13.2239 8.73655 13 9.0127 13H11.5127V12ZM14.6794 3H16.346C16.9904 3 17.5127 3.52233 17.5127 4.16667V5.83333C17.5127 6.47767 16.9904 7 16.346 7H14.6794C14.035 7 13.5127 6.47767 13.5127 5.83333V4.16667C13.5127 3.52233 14.035 3 14.6794 3ZM4.67936 3H6.34603C6.99036 3 7.5127 3.52233 7.5127 4.16667V5.83333C7.5127 6.47767 6.99036 7 6.34603 7H4.67936C4.03503 7 3.5127 6.47767 3.5127 5.83333V4.16667C3.5127 3.52233 4.03503 3 4.67936 3ZM4.67936 4C4.58731 4 4.5127 4.07462 4.5127 4.16667V5.83333C4.5127 5.92538 4.58731 6 4.67936 6H6.34603C6.43808 6 6.5127 5.92538 6.5127 5.83333V4.16667C6.5127 4.07462 6.43808 4 6.34603 4H4.67936ZM4.67936 13H6.34603C6.99036 13 7.5127 13.5223 7.5127 14.1667V15.8333C7.5127 16.4777 6.99036 17 6.34603 17H4.67936C4.03503 17 3.5127 16.4777 3.5127 15.8333V14.1667C3.5127 13.5223 4.03503 13 4.67936 13ZM4.67936 14C4.58731 14 4.5127 14.0746 4.5127 14.1667V15.8333C4.5127 15.9254 4.58731 16 4.67936 16H6.34603C6.43808 16 6.5127 15.9254 6.5127 15.8333V14.1667C6.5127 14.0746 6.43808 14 6.34603 14H4.67936ZM11.5127 4H9.0127C8.73655 4 8.5127 3.77614 8.5127 3.5C8.5127 3.22386 8.73655 3 9.0127 3H12.0127C12.2888 3 12.5127 3.22386 12.5127 3.5V5.5C12.5127 5.77614 12.2888 6 12.0127 6C11.7366 6 11.5127 5.77614 11.5127 5.5V4ZM9.0127 6C8.73655 6 8.5127 5.77614 8.5127 5.5C8.5127 5.22386 8.73655 5 9.0127 5H10.0127C10.2888 5 10.5127 5.22386 10.5127 5.5C10.5127 5.77614 10.2888 6 10.0127 6H9.0127ZM4.0127 12C3.73655 12 3.5127 11.7761 3.5127 11.5C3.5127 11.2239 3.73655 11 4.0127 11H6.0127C6.28884 11 6.5127 11.2239 6.5127 11.5C6.5127 11.7761 6.28884 12 6.0127 12H4.0127ZM8.0127 12C7.73655 12 7.5127 11.7761 7.5127 11.5C7.5127 11.2239 7.73655 11 8.0127 11H9.0127C9.28884 11 9.5127 11.2239 9.5127 11.5C9.5127 11.7761 9.28884 12 9.0127 12H8.0127ZM9.5127 16V16.5C9.5127 16.7761 9.28884 17 9.0127 17C8.73655 17 8.5127 16.7761 8.5127 16.5V15.5C8.5127 15.2239 8.73655 15 9.0127 15H11.0127C11.2888 15 11.5127 15.2239 11.5127 15.5C11.5127 15.7761 11.2888 16 11.0127 16H9.5127ZM7.5127 9H8.0127C8.28884 9 8.5127 9.22386 8.5127 9.5C8.5127 9.77614 8.28884 10 8.0127 10H7.0127C6.73655 10 6.5127 9.77614 6.5127 9.5V9H6.0127C5.73655 9 5.5127 8.77614 5.5127 8.5C5.5127 8.22386 5.73655 8 6.0127 8H7.0127C7.28884 8 7.5127 8.22386 7.5127 8.5V9ZM3.5127 8.5C3.5127 8.22386 3.73655 8 4.0127 8C4.28884 8 4.5127 8.22386 4.5127 8.5V9.5C4.5127 9.77614 4.28884 10 4.0127 10C3.73655 10 3.5127 9.77614 3.5127 9.5V8.5ZM13.5127 8.5C13.5127 8.22386 13.7366 8 14.0127 8C14.2888 8 14.5127 8.22386 14.5127 8.5V10.5C14.5127 10.7761 14.2888 11 14.0127 11C13.7366 11 13.5127 10.7761 13.5127 10.5V8.5ZM15.5127 13V12.5C15.5127 12.2239 15.7366 12 16.0127 12H17.0127C17.2888 12 17.5127 12.2239 17.5127 12.5C17.5127 12.7761 17.2888 13 17.0127 13H16.5127V13.5C16.5127 13.7761 16.2888 14 16.0127 14H14.0127C13.7366 14 13.5127 13.7761 13.5127 13.5V12.5C13.5127 12.2239 13.7366 12 14.0127 12C14.2888 12 14.5127 12.2239 14.5127 12.5V13H15.5127ZM1.5127 4.5C1.5127 4.77614 1.28884 5 1.0127 5C0.736553 5 0.512695 4.77614 0.512695 4.5V2.5C0.512695 1.11929 1.63198 0 3.0127 0H5.0127C5.28884 0 5.5127 0.223858 5.5127 0.5C5.5127 0.776142 5.28884 1 5.0127 1H3.0127C2.18427 1 1.5127 1.67157 1.5127 2.5V4.5ZM16.0127 1C15.7366 1 15.5127 0.776142 15.5127 0.5C15.5127 0.223858 15.7366 0 16.0127 0H18.0127C19.3934 0 20.5127 1.11929 20.5127 2.5V4.5C20.5127 4.77614 20.2888 5 20.0127 5C19.7366 5 19.5127 4.77614 19.5127 4.5V2.5C19.5127 1.67157 18.8411 1 18.0127 1H16.0127ZM5.0127 19C5.28884 19 5.5127 19.2239 5.5127 19.5C5.5127 19.7761 5.28884 20 5.0127 20H3.0127C1.63198 20 0.512695 18.8807 0.512695 17.5V15.5C0.512695 15.2239 0.736553 15 1.0127 15C1.28884 15 1.5127 15.2239 1.5127 15.5V17.5C1.5127 18.3284 2.18427 19 3.0127 19H5.0127ZM19.5127 15.5C19.5127 15.2239 19.7366 15 20.0127 15C20.2888 15 20.5127 15.2239 20.5127 15.5V17.5C20.5127 18.8807 19.3934 20 18.0127 20H16.0127C15.7366 20 15.5127 19.7761 15.5127 19.5C15.5127 19.2239 15.7366 19 16.0127 19H18.0127C18.8411 19 19.5127 18.3284 19.5127 17.5V15.5Z" fill="#B3B3B3"/>
</svg>
