<svg width="25" height="24" viewBox="0 0 25 24" fill="none" xmlns="http://www.w3.org/2000/svg">
<path d="M12.7078 2.25C7.33176 2.25 2.95776 6.624 2.95776 12C2.95776 17.376 7.33176 21.75 12.7078 21.75C18.0838 21.75 22.4578 17.376 22.4578 12C22.4578 6.624 18.0838 2.25 12.7078 2.25ZM12.7078 20.25C8.15876 20.25 4.45776 16.549 4.45776 12C4.45776 7.451 8.15876 3.75 12.7078 3.75C17.2568 3.75 20.9578 7.451 20.9578 12C20.9578 16.549 17.2568 20.25 12.7078 20.25ZM15.9098 6.677L11.8538 7.69104C10.1488 8.11704 8.82477 9.44097 8.39777 11.147L7.38376 15.202C7.23376 15.804 7.40475 16.425 7.84375 16.864C8.17775 17.198 8.61777 17.3781 9.07477 17.3781C9.21777 17.3781 9.36176 17.36 9.50476 17.324L13.5608 16.3101C15.2658 15.8841 16.5898 14.56 17.0168 12.854L18.0308 8.79895C18.1808 8.19695 18.0098 7.57596 17.5708 7.13696C17.1318 6.69796 16.5118 6.526 15.9098 6.677ZM15.5618 12.49C15.2698 13.657 14.3638 14.563 13.1968 14.855L9.14175 15.869C9.02175 15.899 8.94275 15.841 8.90475 15.803C8.86675 15.766 8.80878 15.685 8.83878 15.566L9.85275 11.511C10.1448 10.344 11.0508 9.438 12.2178 9.146L16.2728 8.13196C16.2958 8.12596 16.3168 8.12402 16.3368 8.12402C16.4208 8.12402 16.4798 8.168 16.5088 8.198C16.5468 8.235 16.6048 8.31606 16.5748 8.43506L15.5618 12.49ZM13.7078 12C13.7078 12.552 13.2598 13 12.7078 13C12.1558 13 11.7078 12.552 11.7078 12C11.7078 11.448 12.1558 11 12.7078 11C13.2598 11 13.7078 11.448 13.7078 12Z" fill="#B3B3B3"/>
</svg>
