<svg width="270" height="270" viewBox="0 0 270 270" fill="none" xmlns="http://www.w3.org/2000/svg">
<path d="M56.5785 195.75C56.5888 197.548 57.1968 199.291 58.3065 200.705C64.0305 208.332 69.201 210.398 67.365 219.605C67.1085 220.955 66.744 222.21 66.42 223.506C65.07 228.636 60.156 227.408 51.111 229.379C46.3204 230.33 41.3892 230.33 36.5985 229.379C34.3305 228.974 32.022 228.677 29.7405 228.218C27.459 227.759 26.3925 226.395 26.865 223.965C28.5255 215.339 19.7775 220.374 10.5436 199.665C6.29105 190.188 14.8501 178.389 22.8421 171.45C28.1206 166.914 39.042 160.434 45.6165 159.638C48.1483 159.25 50.7275 159.296 53.244 159.773C54.1565 160.022 54.9716 160.543 55.5815 161.266C56.1914 161.99 56.5673 162.881 56.6595 163.823C57.3615 171.815 56.484 189.729 56.5785 195.75Z" fill="#FEF0BB"/>
<path d="M236.871 191.849C233.766 191.849 233.496 191.282 232.997 189.041C232.335 186.111 233.402 184.383 235.791 182.979C236.735 182.277 237.636 181.519 238.491 180.711C240.111 179.469 240.206 177.66 240.368 175.878C240.399 175.494 240.3 175.111 240.087 174.79C239.874 174.469 239.559 174.23 239.193 174.11C233.915 171.68 231.782 173.462 229.946 170.384C216.203 147.609 217.688 151.632 215.987 148.055C215.878 147.88 215.841 147.67 215.884 147.468C215.927 147.267 216.046 147.09 216.216 146.975C216.594 146.732 216.905 146.975 217.175 147.204C217.445 147.434 217.904 147.906 218.147 147.38C218.903 145.787 220.59 145.746 221.886 145.125C223.648 144.093 225.591 143.405 227.61 143.1C236.156 142.439 243.594 144.45 248.846 151.808C254.732 160.11 258.174 170.627 253.274 179.563C251.877 182.171 250.288 184.67 248.522 187.043C247.39 188.689 245.695 189.865 243.756 190.35C241.205 190.823 238.734 191.7 236.871 191.849Z" fill="#FEF0BB"/>
<path d="M216.986 247.712C213.827 237.857 207.347 229.514 201.879 220.833C201.55 220.229 201.058 219.731 200.458 219.394C199.859 219.057 199.177 218.896 198.491 218.93C187.461 220.428 175.217 217.661 146.988 226.382C147.636 226.625 147.218 227.138 146.988 227.583C144.626 232.983 141.264 240.435 141.332 246.483C141.051 246.238 140.822 245.94 140.657 245.606C140.49 246.172 140.15 246.672 139.685 247.037C140.928 248.547 142.069 250.139 143.1 251.802C147.326 255.852 147.569 260.334 153.36 261.05C168.035 262.832 179.483 261.05 187.637 260.807C190.161 260.712 209.075 260.712 217.107 259.268C219.983 258.741 219.51 257.378 218.903 254.718C218.134 252.42 217.494 250.081 216.986 247.712Z" fill="#FEF0BB"/>
<path d="M100.521 204.35C103.396 199.085 104.031 197.37 105.759 197.37C107.109 197.37 107.743 198.369 108.081 199.598C110.106 206.996 108.081 215.798 110.484 221.103C110.97 222.197 111.334 222.21 112.023 221.238C113.76 218.408 115.058 215.331 115.87 212.112C117.045 208.413 117.112 206.523 118.678 206.645C120.595 206.793 120.19 209.831 122.485 217.512C126.265 206.915 122.202 198.477 125.955 196.884C127.399 196.277 128.533 197.262 129.559 198.14C131.531 199.92 133.076 202.121 134.082 204.579C135.378 207.182 135.937 210.09 135.699 212.989C135.461 215.887 134.435 218.665 132.732 221.022C129.154 226.233 135.432 225.666 131.571 237.222C131.058 239.489 130.173 241.656 128.952 243.635C128.776 243.878 128.655 250.385 120.771 254.435C119.308 255.045 117.683 255.15 116.154 254.732C107.203 253.179 101.128 247.239 93.3794 249.494C90.4904 250.331 88.8435 249.575 87.237 247.05C86.3766 245.79 85.8402 244.338 85.6754 242.821C85.5106 241.305 85.7223 239.771 86.2919 238.356C87.2069 236.419 87.7692 234.334 87.9525 232.2C87.9525 225.45 81.2025 225.153 84.186 214.556C85.6843 209.101 87.7853 203.831 90.4499 198.842C91.348 197.051 92.6915 195.521 94.3514 194.4C94.6449 194.149 95.0183 194.011 95.4044 194.011C95.7906 194.011 96.164 194.149 96.4574 194.4C97.1594 195.156 97.8074 194.94 98.5904 194.846C102.883 194.292 100.359 199.611 100.534 202.527C100.548 202.986 100.521 203.459 100.521 204.35Z" fill="#FFC7D6"/>
<path d="M116.991 66.933C117.036 65.1302 116.964 63.3264 116.775 61.533C116.775 61.2765 116.883 61.0335 116.559 60.858C113.427 59.3325 112.32 56.349 111.388 53.3385C111.082 52.1902 110.505 51.1318 109.707 50.2512C108.908 49.3707 107.911 48.6935 106.798 48.276C105.587 47.7775 104.493 47.0327 103.585 46.089C101.344 43.821 102.532 40.5405 104.935 39.015C106.123 38.2725 108.432 39.474 108.837 40.8915C108.858 41.0226 108.911 41.1466 108.991 41.2525C109.071 41.3585 109.175 41.4431 109.296 41.499C109.908 41.7303 110.581 41.7409 111.199 41.5289C111.818 41.317 112.343 40.8958 112.684 40.338C113.533 38.8622 114.538 37.4818 115.681 36.2205C115.911 35.937 116.14 35.6265 116.559 35.694C119.758 36.1665 122.296 34.452 124.78 32.994C128.655 30.645 132.367 28.053 134.878 24.111C135 23.9186 135.169 23.7601 135.368 23.6503C135.568 23.5405 135.791 23.4829 136.019 23.4829C136.247 23.4829 136.471 23.5405 136.67 23.6503C136.87 23.7601 137.038 23.9186 137.16 24.111C138.996 26.9055 141.885 28.296 144.679 29.781C147.474 31.266 147.663 31.887 147.258 34.7895C146.151 42.8085 146.785 45.5895 143.95 53.7705C143.592 54.6934 143.035 55.5262 142.319 56.2097C141.602 56.8933 140.745 57.411 139.806 57.726C137.566 58.6571 135.158 59.1167 132.732 59.076C130.719 59.1574 128.722 59.4653 126.778 59.994C124.929 60.3585 125.82 62.316 124.078 62.883C123.579 63.045 123.7 63.3825 123.781 63.747C124.208 66.0837 124.353 68.4632 124.213 70.8345C124.213 71.334 124.213 71.928 123.579 71.982C122.944 72.036 122.89 71.4285 122.796 70.956C122.527 68.5945 122.459 66.2144 122.593 63.8415C122.593 62.316 121.797 62.343 120.339 62.046C117.787 61.533 117.801 61.533 118.017 64.179C121.203 105.718 122.269 105.57 121.027 105.637C120.366 105.637 120.258 104.935 120.19 104.436C119.853 101.425 116.586 70.875 116.991 66.933ZM119.245 46.683C119.826 46.694 120.387 46.4766 120.809 46.0776C121.231 45.6787 121.479 45.1301 121.5 44.55C121.462 43.9896 121.222 43.4619 120.825 43.0648C120.428 42.6676 119.9 42.4279 119.34 42.39C116.518 42.2955 116.613 46.6155 119.245 46.656V46.683ZM141.655 50.868C143.923 51.003 143.923 46.818 141.804 46.9665C140.616 46.9665 140.292 47.925 140.143 48.8835C140.094 49.1137 140.096 49.3519 140.148 49.5815C140.2 49.8111 140.302 50.0265 140.445 50.2129C140.589 50.3992 140.772 50.5519 140.981 50.6604C141.19 50.7689 141.42 50.8305 141.655 50.841V50.868Z" fill="#FFC7D6"/>
<path d="M81.9721 31.05C78.7924 29.301 75.4681 27.8285 72.0361 26.649C70.5511 26.055 70.9831 27.4455 70.8346 28.2555C70.5511 30.0915 69.6061 30.483 68.1346 29.322C65.1046 26.9466 62.2902 24.3083 59.7241 21.438C59.4148 21.1391 59.2324 20.7325 59.2148 20.3027C59.1972 19.8728 59.3457 19.4527 59.6296 19.1295C60.9796 17.361 62.2486 15.606 63.6796 13.9185C64.7596 12.5685 65.6506 12.6495 66.7846 13.9185C68.4721 15.7815 68.4586 18.711 69.7681 17.2935C75.4921 11.0295 74.0881 18.1035 83.5921 29.1195C84.6991 30.2805 83.9296 32.0895 81.9721 31.05Z" fill="#FFC7D6"/>
<path d="M70.0652 41.9445C70.077 42.1564 70.0306 42.3674 69.9309 42.5546C69.8313 42.7419 69.6822 42.8983 69.4999 43.0068C69.3177 43.1154 69.1091 43.1719 68.897 43.1702C68.6849 43.1686 68.4772 43.1089 68.2967 42.9975C64.0712 41.0265 59.4002 40.149 55.3502 37.881C54.4052 37.368 53.8517 37.3545 53.8517 38.637C53.8224 38.9026 53.7681 39.1647 53.6897 39.42C53.3387 41.3505 52.6232 41.661 50.9897 40.5675C48.1412 38.7045 45.2927 36.8686 42.4307 35.0191C41.2157 34.2361 41.2832 33.9931 42.2822 33.0076C43.4151 31.7368 44.3731 30.3202 45.1307 28.7956C47.1017 25.4341 47.7227 25.3936 49.9367 28.6066C51.3812 30.7261 51.3812 30.726 53.1767 28.9981C55.8767 26.4061 55.7282 29.4571 64.2602 36.909C67.5002 39.825 69.9302 40.9185 70.0652 41.9445Z" fill="#FFC7D6"/>
<path d="M69.66 68.85C68.6396 68.9782 67.6033 68.8434 66.6495 68.4585C65.9745 68.229 65.6775 68.256 65.2995 69.012C64.368 71.2395 62.7615 73.1295 61.938 75.4245C61.5465 76.5315 60.669 76.3965 59.8185 75.978C59.6293 75.9195 59.4552 75.82 59.3087 75.6866C59.1621 75.5533 59.0468 75.3893 58.9708 75.2063C58.8948 75.0233 58.8599 74.8259 58.8688 74.628C58.8777 74.43 58.93 74.2365 59.022 74.061C61.371 68.1885 63.585 67.6755 61.6005 67.311C59.13 66.933 56.673 66.42 54.2025 66.0555C53.0292 65.7705 51.889 65.3633 50.8005 64.8405C49.869 64.476 50.0445 63.585 50.193 62.8425C51.1072 59.1938 52.4013 55.651 54.054 52.272C54.783 50.5575 55.404 50.2605 57.051 51.138C59.5215 52.488 62.019 53.838 64.341 55.431C65.5724 56.4588 67.0533 57.1434 68.634 57.4155C70.2915 57.6714 71.8037 58.5089 72.9 59.778C75.7215 62.694 73.5345 68.1075 69.66 68.85ZM59.4 65.2185C60.75 65.556 60.4935 63.99 63.8955 58.3065C64.476 57.3615 64.287 56.9565 63.3825 56.484C60.9184 55.3596 58.5285 54.079 56.2275 52.65C55.7955 52.326 55.674 52.4745 55.5255 52.947C52.218 63.1125 51.0165 63.261 53.595 64.0035C55.5255 64.503 57.4965 64.8 59.4 65.2185ZM69.255 67.9185C70.605 68.175 71.2395 67.176 71.82 66.0555C72.63 64.503 73.2645 62.8695 72.09 61.2765C71.0516 59.9233 69.5783 58.9697 67.9185 58.5765C67.808 58.5252 67.6874 58.499 67.5656 58.4999C67.4437 58.5008 67.3235 58.5287 67.2137 58.5816C67.104 58.6346 67.0073 58.7112 66.9308 58.8061C66.8542 58.9009 66.7996 59.0116 66.771 59.13C64.1655 65.7585 63.639 65.88 64.26 66.1095C65.853 66.7035 67.2165 67.9455 69.282 67.932L69.255 67.9185Z" fill="#FFC7D6"/>
<path d="M113.643 80.5275C113.13 80.5275 112.995 80.163 112.901 79.7445C112.172 76.6935 111.645 65.232 110.835 60.21C110.821 60.0303 110.821 59.8497 110.835 59.67C110.835 59.211 110.835 58.698 111.362 58.5765C111.888 58.455 112.266 58.941 112.361 59.427C113.184 63.153 112.982 61.4655 114.17 74.979C114.278 76.4505 114.75 80.433 113.643 80.5275Z" fill="#FFC7D6"/>
<path d="M38.043 53.865C38.2068 52.262 38.7077 50.7117 39.5127 49.3158C40.3177 47.9198 41.4086 46.7098 42.714 45.765C43.0525 45.5422 43.4435 45.4119 43.848 45.387C44.334 45.306 45.0765 46.1295 44.415 46.548C41.5935 48.303 40.608 51.165 39.771 54.135C39.5685 54.891 39.5415 56.187 38.745 56.0925C37.9485 55.998 38.0565 54.7155 38.043 53.865Z" fill="#FFC7D6"/>
<path d="M126.981 64.638C126.981 61.263 126.819 60.156 127.697 60.183C128.21 60.183 128.237 60.6825 128.291 61.101C128.626 63.7906 128.626 66.5114 128.291 69.201C128.291 69.5115 128.291 69.9165 127.913 69.984C127.535 70.0515 127.373 69.5655 127.265 69.255C126.91 67.743 126.814 66.182 126.981 64.638Z" fill="#FFC7D6"/>
<path d="M42.4982 53.7165C42.6291 52.8285 42.9502 51.9792 43.4395 51.2266C43.9288 50.4741 44.5747 49.836 45.3332 49.356C45.428 49.278 45.5373 49.2194 45.6548 49.1837C45.7723 49.1479 45.8957 49.1356 46.0179 49.1475C46.1401 49.1594 46.2588 49.1953 46.3672 49.2531C46.4755 49.3109 46.5714 49.3894 46.6494 49.4843C46.7275 49.5791 46.786 49.6884 46.8218 49.8059C46.8576 49.9234 46.8698 50.0467 46.8579 50.1689C46.846 50.2912 46.8102 50.4099 46.7524 50.5182C46.6946 50.6266 46.616 50.7225 46.5212 50.8005C43.8212 52.9065 44.9012 55.809 43.2677 55.485C42.5657 55.35 42.4037 54.3105 42.4982 53.7165Z" fill="#FFC7D6"/>
<path d="M201.042 66.366C202.27 68.3775 202.54 65.5695 207.373 65.7855C209.52 65.88 211.68 65.853 213.826 65.7855C215.311 65.783 216.787 65.5508 218.2 65.097C213.502 62.6535 211.774 63.747 211.977 62.181C212.139 60.831 213.718 61.722 218.187 61.4385C219.448 61.4555 220.705 61.3057 221.926 60.993C221.894 60.7963 221.805 60.6133 221.67 60.4665C221.521 60.4048 221.368 60.3552 221.211 60.318C218.194 59.5948 215.075 59.3939 211.99 59.724C211.356 59.724 210.64 59.724 210.559 58.9275C210.478 58.131 211.261 57.996 211.909 57.9015C216.999 57.159 218.416 57.2265 220.347 56.5515C220.295 56.4549 220.226 56.3681 220.144 56.295C219.405 56.0865 218.652 55.9331 217.89 55.836H213.07C209.695 56.214 208.372 57.105 208.062 55.836C207.819 54.945 209.074 54.7695 209.533 54.621C211.822 53.9898 214.075 53.2373 216.283 52.3665C214.855 51.9246 213.333 51.8826 211.882 52.245C208.955 52.5638 206.163 53.6437 203.782 55.377C203.583 55.5967 203.305 55.7285 203.009 55.7437C202.713 55.7589 202.423 55.6562 202.203 55.458C200.488 54.2295 205.186 51.489 205.861 49.626C205.198 49.7009 204.558 49.9173 203.985 50.2605C200.793 51.9597 197.876 54.1307 195.331 56.7C194.952 57.0953 194.641 57.5517 194.413 58.05C194.143 58.536 194.116 58.7925 194.629 59.2245C197.139 61.2428 199.304 63.6546 201.042 66.366Z" fill="#FFC7D6"/>
<path d="M90.0585 109.444C94.8645 109.606 95.2695 110.025 95.4585 109.444C95.6475 108.864 95.0535 108.702 94.6755 108.499C91.3545 106.623 88.3035 107.797 88.5195 106.11C88.7355 104.422 91.476 106.596 96.6195 105.367C96.7736 105.347 96.9212 105.293 97.052 105.209C97.1827 105.125 97.2931 105.013 97.3755 104.881C96.4592 104.033 95.2624 103.553 94.014 103.531C91.7486 103.359 89.4949 103.057 87.264 102.627C86.6835 102.532 86.0895 102.438 86.1975 101.722C86.3055 101.007 86.94 101.034 87.5475 101.101C89.7897 101.197 92.0202 101.477 94.2165 101.938C94.4809 101.972 94.7485 101.972 95.013 101.938C95.3235 101.938 95.688 101.938 95.796 101.574C95.904 101.209 95.607 101.101 95.418 100.912C94.7279 100.299 93.9223 99.8286 93.0485 99.5296C92.1746 99.2306 91.25 99.1087 90.3285 99.171C87.8212 98.9708 85.2994 99.0478 82.809 99.4005C82.35 99.4815 81.864 99.4005 81.648 98.9685C81.432 98.5365 81.837 98.064 82.242 97.7805C84.096 96.6811 85.8173 95.372 87.372 93.879C89.127 91.8405 81.1215 94.0815 75.222 99.279C73.386 100.885 72.8055 103.329 71.8875 105.408C71.0568 107.239 70.5979 109.217 70.5375 111.226C70.1771 111.129 69.8641 110.904 69.6558 110.594C69.4476 110.284 69.358 109.91 69.4035 109.539C69.201 109.755 68.5665 110.052 69.1065 111.537C69.363 112.252 69.984 111.834 70.4565 111.753C74.4766 111.108 78.536 110.738 82.6065 110.646C88.8165 110.376 89.424 110.956 86.9265 110.227C87.837 109.586 88.9535 109.307 90.0585 109.444Z" fill="#FFC7D6"/>
<path d="M202.689 12.15C210.317 12.7035 220.239 14.5125 224.627 20.736C231.039 29.6865 219.983 35.964 209.075 37.044C202.797 37.6785 199.868 36.234 197.235 37.5705C193.605 39.2631 189.548 39.8139 185.598 39.15C183.897 38.5965 184.032 37.044 185.598 36.6255C187.291 36.2059 188.941 35.6274 190.526 34.8975C194.819 32.886 184.599 33.183 179.726 28.2285C179.2 27.7648 178.779 27.1946 178.49 26.5557C178.202 25.9168 178.053 25.2238 178.053 24.5228C178.053 23.8218 178.202 23.1288 178.49 22.4898C178.779 21.8509 179.2 21.2807 179.726 20.817C182.331 18.3333 185.438 16.4367 188.838 15.255C193.293 13.419 197.762 11.718 202.689 12.15Z" fill="#A6EEF8"/>
<path d="M200.421 95.1885C198.819 94.5614 197.281 93.7792 195.831 92.853C192.834 90.828 192.308 87.9255 194.481 85.023C195.413 83.7483 196.615 82.6952 198.001 81.9391C199.388 81.183 200.924 80.7424 202.5 80.649C210.857 80.136 219.132 80.541 226.989 83.9295C233.982 86.9535 234.077 92.0295 229.986 94.23C224.357 97.2675 215.879 97.6725 209.52 97.5375C207.617 97.5375 206.915 96.8895 205.268 97.983C202.73 99.684 199.868 99.5625 196.965 99.333C195.777 99.252 195.399 97.713 196.722 97.0245C197.843 96.4575 198.977 95.85 200.421 95.1885Z" fill="#A6EEF8"/>
<path d="M22.9502 248.994C22.9502 246.388 22.9502 246.415 20.7227 246.213C19.5218 246.093 18.3278 245.913 17.1452 245.673C16.6457 245.578 16.1192 245.416 16.2002 244.755C16.2812 244.093 16.8887 243.918 17.4152 243.945C26.1092 244.201 22.0187 246.861 24.7457 235.251C24.9347 234.414 25.0022 233.671 23.7737 233.712C23.5036 233.7 23.2361 233.655 22.9772 233.577C21.9917 233.374 22.3697 232.132 23.0447 232.227C25.4207 232.753 25.7447 231.147 26.0417 229.446C26.1497 228.852 26.0417 227.772 26.9867 227.974C27.9317 228.177 27.4862 229.189 27.3782 229.824C26.7977 233.091 26.3792 232.294 35.8832 233.874C36.7472 234.009 37.2332 233.752 37.3547 232.834C37.5842 231.484 37.9217 230.134 38.2457 228.784C38.3537 228.271 38.4887 227.596 39.2042 227.772C39.9197 227.947 39.8792 228.528 39.7847 229.122C39.5687 230.472 39.4337 231.822 39.1502 233.077C38.9747 233.928 39.2582 234.238 40.0412 234.319L46.5752 234.967C47.9252 235.102 49.2752 235.156 50.7332 235.264C51.3812 235.264 51.6917 235.129 51.7457 234.4C51.8537 232.969 52.0967 231.565 52.2587 230.148C52.2587 229.648 52.3397 229.068 53.0147 229.068C53.6897 229.068 53.8382 229.716 53.8382 230.229C53.7437 234.832 53.0822 235.44 54.5672 235.629C61.3172 236.358 62.7887 237.546 62.6672 235.507C62.5592 234.157 64.3007 234.373 64.1522 235.588C64.0037 236.803 64.8407 237.073 65.7857 237.168C66.6815 237.255 67.5621 237.459 68.4047 237.775C68.6262 237.84 68.8158 237.985 68.9368 238.181C69.0577 238.378 69.1014 238.612 69.0594 238.839C69.0174 239.066 68.8926 239.269 68.7093 239.41C68.526 239.55 68.2972 239.617 68.0672 239.598C67.0952 239.53 66.1097 239.436 65.1242 239.341C63.7742 239.22 64.4087 239.598 63.5447 246.24C63.4637 246.982 63.6662 247.306 64.3817 247.387C65.0972 247.468 66.5282 247.536 66.4877 248.589C66.4472 249.642 65.1377 249.466 64.3007 249.52C63.7472 249.52 63.3827 249.642 63.3152 250.317C63.2885 250.533 63.1839 250.731 63.021 250.875C62.8581 251.019 62.6483 251.099 62.4309 251.099C62.2136 251.099 62.0037 251.019 61.8409 250.875C61.678 250.731 61.5734 250.533 61.5467 250.317C61.4657 249.642 61.0607 249.615 60.5207 249.547C57.9827 249.277 55.4177 249.399 52.8932 248.94C51.9077 248.764 52.2047 249.79 51.7322 251.451C51.6242 251.842 51.3812 252.22 50.9087 252.193C50.4362 252.166 50.2472 251.856 50.0987 251.424C49.5317 249.844 50.5712 248.643 49.0862 248.535C45.4277 248.251 41.7827 247.941 38.1242 247.603C37.2332 247.509 37.5707 248.076 36.8822 250.776C36.6257 251.68 35.6267 251.626 35.4107 250.708C35.1355 249.897 35.0659 249.029 35.2082 248.184C35.6267 246.672 34.0877 247.59 25.7582 246.712C24.7187 246.591 25.4072 248.359 24.9212 250.195C24.7862 250.695 24.7052 251.208 24.0842 251.221C23.4632 251.235 23.2067 250.654 23.0987 250.141C23.0082 249.765 22.9585 249.381 22.9502 248.994ZM37.8002 244.039C37.5707 244.836 37.9757 245.308 38.9342 245.389L49.5047 246.24C49.9637 246.24 50.3957 246.24 50.4632 245.632C50.7197 243.189 51.0167 240.745 51.3002 238.302C51.4622 236.682 50.3552 237.856 39.7037 236.317C39.2312 236.25 38.7182 236.182 38.6372 236.952C38.3402 239.26 38.0432 241.569 37.8002 244.039ZM32.7917 244.917C32.7917 245.052 32.7242 244.917 34.8167 244.917C35.3567 244.917 35.5862 244.741 35.6672 244.161C35.9777 241.731 36.3422 239.314 36.7067 236.884C36.8012 236.209 36.5312 235.831 35.8832 235.777C28.5932 235.129 26.7437 233.374 26.5142 235.048C26.1497 237.829 25.7987 240.624 25.4207 243.405C25.3127 244.242 25.5692 244.593 26.5007 244.606C28.5662 244.674 30.6587 244.809 32.7512 244.917H32.7917ZM58.4417 247.063H60.9257C61.6547 247.063 61.7087 246.901 61.7762 246.307C62.0057 244.215 62.2757 242.149 62.5592 240.07C62.6807 239.233 62.3972 238.72 61.5332 238.72C51.1652 238.005 53.9057 234.67 52.5962 245.254C52.4612 246.402 53.0417 246.726 53.9462 246.739C55.5122 246.753 57.1052 247.212 58.4012 247.05L58.4417 247.063Z" fill="#A6EEF8"/>
<path d="M109.985 126.225C110.76 123.159 112.137 120.277 114.035 117.747C114.48 117.032 115.115 116.478 116.06 117.059C117.005 117.639 116.694 118.314 116.33 119.057C112.725 126.387 112.28 128.223 110.754 127.629C110.228 127.413 109.971 127.008 109.985 126.225Z" fill="#A6EEF8"/>
<path d="M65.2725 188.514C65.2725 186.529 66.231 185.112 67.581 185.152C68.4432 185.288 69.2342 185.711 69.8251 186.353C70.4159 186.995 70.7717 187.819 70.8345 188.689C70.8264 189.442 70.5499 190.167 70.055 190.733C69.56 191.3 68.879 191.672 68.1345 191.781C67.3503 191.658 66.6343 191.263 66.1112 190.666C65.5882 190.069 65.2913 189.308 65.2725 188.514Z" fill="#A6EEF8"/>
<path d="M142.344 211.194C142.53 210.125 143.033 209.138 143.789 208.359C144.909 207.266 146.057 206.213 147.258 205.2C147.947 204.606 148.784 204.296 149.499 205.2C150.215 206.105 149.715 206.672 149.121 207.306C145.071 211.761 144.855 212.288 143.991 212.558C143.788 212.64 143.566 212.665 143.35 212.632C143.133 212.598 142.93 212.507 142.761 212.367C142.592 212.227 142.464 212.044 142.391 211.838C142.318 211.631 142.301 211.409 142.344 211.194Z" fill="#A6EEF8"/>
<path d="M127.467 158.193C127.386 159.044 127.157 159.84 126.117 159.786C125.078 159.732 124.848 158.895 124.902 158.045C125.037 155.669 125.226 153.32 125.402 150.944C125.402 150.026 125.699 149.202 126.86 149.27C128.439 149.351 128.25 150.458 127.467 158.193Z" fill="#A6EEF8"/>
<path d="M72.2253 115.695C73.4808 115.911 73.8723 116.829 76.9908 124.132C77.5308 125.482 75.4383 126.832 74.2908 124.429C73.1433 122.026 72.1983 119.974 71.2128 117.679C70.7943 116.694 71.3613 115.668 72.2253 115.695Z" fill="#A6EEF8"/>
<path d="M83.1333 153.67C83.1333 154.494 82.9173 155.196 82.0398 155.331C81.1623 155.466 80.7708 154.804 80.5683 154.075C79.9608 151.834 79.3533 149.593 78.8133 147.325C78.6108 146.461 78.4218 145.381 79.5963 145.057C80.7708 144.733 81.2703 145.651 81.5133 146.637C82.0803 148.972 82.5933 151.321 83.1333 153.67Z" fill="#A6EEF8"/>
<path d="M123.053 176.216C121.5 176.121 119.799 175.028 117.099 173.516C116.892 173.451 116.703 173.338 116.549 173.185C116.395 173.032 116.28 172.845 116.214 172.638C116.147 172.432 116.132 172.212 116.169 171.998C116.205 171.784 116.293 171.582 116.424 171.41C117.086 170.195 117.774 169.884 118.881 170.465C119.583 170.843 123.404 173.529 123.849 173.867C124.128 174.021 124.336 174.278 124.427 174.584C124.518 174.889 124.485 175.218 124.335 175.5C124.235 175.747 124.053 175.953 123.82 176.083C123.586 176.213 123.316 176.26 123.053 176.216Z" fill="#A6EEF8"/>
<path d="M94.3786 128.439C94.0006 129.884 94.6216 128.264 91.4761 134.757C91.0576 135.594 90.4231 136.107 89.5321 135.729C88.6411 135.351 88.8166 134.501 89.0596 133.839C89.7787 131.625 90.7575 129.504 91.9756 127.521C92.3806 126.914 92.9071 126.455 93.6496 126.698C94.3921 126.941 94.3246 127.656 94.3786 128.439Z" fill="#A6EEF8"/>
<path d="M137.822 194.251C135.675 194.251 133.394 190.296 132.422 188.352C132.044 187.636 131.922 186.826 132.773 186.367C133.623 185.908 134.123 186.502 134.663 187.137C138.713 192.334 139.401 192.537 138.794 193.644C138.709 193.829 138.572 193.986 138.399 194.094C138.226 194.202 138.025 194.257 137.822 194.251Z" fill="#A6EEF8"/>
<path d="M80.5952 207.117C79.5287 210.775 80.1362 208.683 78.7457 214.164C78.5702 214.825 78.1922 215.325 77.3957 215.19C77.2339 215.177 77.0764 215.131 76.9328 215.055C76.7893 214.979 76.6625 214.875 76.5603 214.749C76.4581 214.623 76.3826 214.477 76.3382 214.321C76.2938 214.165 76.2816 214.001 76.3022 213.84C76.4319 211.158 77.1314 208.535 78.3542 206.145C78.4804 205.912 78.6854 205.731 78.9326 205.634C79.1799 205.538 79.4533 205.532 79.7042 205.618C80.2982 205.794 80.5817 206.253 80.5952 207.117Z" fill="#A6EEF8"/>
<path d="M134.258 129.128C135.716 129.695 137.187 130.221 138.645 130.788C138.955 130.89 139.213 131.107 139.367 131.394C139.521 131.682 139.558 132.017 139.472 132.331C139.385 132.645 139.18 132.914 138.901 133.082C138.621 133.249 138.288 133.303 137.97 133.232C135.638 132.694 133.374 131.897 131.22 130.856C130.942 130.749 130.717 130.539 130.591 130.27C130.465 130 130.449 129.692 130.545 129.411C130.95 127.98 132.84 128.574 134.258 129.128Z" fill="#A6EEF8"/>
<path d="M179.928 144.977C179.736 145.099 179.507 145.152 179.281 145.125C179.054 145.098 178.844 144.993 178.686 144.828C174.461 140.576 172.152 138.848 173.732 137.43C174.42 136.809 175.082 137.336 175.622 137.822C177.265 139.467 178.815 141.202 180.266 143.019C180.379 143.167 180.461 143.337 180.506 143.518C180.551 143.699 180.558 143.888 180.526 144.072C180.494 144.256 180.425 144.431 180.322 144.587C180.219 144.743 180.085 144.875 179.928 144.977Z" fill="#A6EEF8"/>
<path d="M157.113 128.925C157.113 127.71 156.965 126.563 158.166 126.401C158.476 126.365 158.788 126.448 159.039 126.633C159.289 126.819 159.46 127.093 159.516 127.4C160.041 129.567 160.38 131.776 160.529 134.001C160.718 136.026 158.274 136.364 157.937 134.366C157.542 132.572 157.267 130.755 157.113 128.925Z" fill="#A6EEF8"/>
<path d="M98.6448 168.44C98.6448 169.682 98.8608 171.018 97.6188 171.14C97.3255 171.2 97.0202 171.144 96.768 170.982C96.5157 170.821 96.3366 170.567 96.2688 170.276C95.845 168.001 95.5699 165.701 95.4453 163.391C95.4453 162.635 95.5398 161.784 96.5658 161.73C97.5918 161.676 97.9158 162.419 98.0373 163.188C98.3854 164.919 98.5886 166.675 98.6448 168.44Z" fill="#A6EEF8"/>
<path d="M163.026 146.394C163.026 145.476 163.188 144.882 163.85 144.774C164.781 144.625 164.7 145.125 167.522 152.644C167.859 153.549 167.873 154.426 166.86 154.777C165.848 155.128 165.348 154.291 165.065 153.427C164.7 152.239 163.229 147.636 163.026 146.394Z" fill="#A6EEF8"/>
<path d="M109.985 148.365C109.445 149.499 108.864 150.606 108.284 151.713C107.838 152.536 107.163 153.063 106.218 152.671C105.273 152.28 105.543 151.322 105.813 150.687C106.447 148.806 107.275 146.997 108.284 145.287C108.594 144.801 108.864 144.207 109.553 144.261C109.958 144.342 111.335 145.638 109.985 148.365Z" fill="#A6EEF8"/>
<path d="M149.715 145.921C148.095 146.523 146.517 147.231 144.99 148.041C143.046 148.81 142.115 146.826 143.465 145.935C145.157 144.846 146.867 143.802 148.595 142.803C150.971 141.453 151.605 145.435 149.715 145.921Z" fill="#A6EEF8"/>
<path d="M89.8698 182.452C90.6393 182.452 91.0173 182.655 91.2198 183.1C91.3563 183.338 91.4092 183.615 91.37 183.887C91.3309 184.159 91.202 184.409 91.0038 184.599C89.3166 186.078 87.3527 187.206 85.2258 187.92C84.3213 188.271 83.5923 187.285 83.8758 186.34C84.6318 184.383 88.5603 183.019 89.8698 182.452Z" fill="#A6EEF8"/>
<path d="M143.384 119.704C143.384 122.917 143.667 124.173 142.196 124.2C142.021 124.21 141.847 124.182 141.686 124.115C141.524 124.049 141.38 123.947 141.263 123.818C141.146 123.688 141.06 123.534 141.011 123.366C140.962 123.199 140.952 123.022 140.981 122.85C141.129 117.774 139.941 115.141 141.291 114.655C143.343 113.926 143.357 119.569 143.384 119.704Z" fill="#A6EEF8"/>
<path d="M164.93 112.401C166.01 110.923 167.246 109.566 168.615 108.351C168.728 108.224 168.866 108.123 169.021 108.053C169.176 107.984 169.343 107.948 169.513 107.948C169.683 107.948 169.85 107.984 170.005 108.053C170.16 108.123 170.298 108.224 170.411 108.351C170.529 108.459 170.624 108.59 170.689 108.736C170.754 108.883 170.788 109.041 170.788 109.202C170.788 109.362 170.754 109.52 170.689 109.667C170.624 109.813 170.529 109.944 170.411 110.052C169.182 111.483 167.9 112.847 166.604 114.224C166.404 114.405 166.155 114.523 165.888 114.561C165.62 114.6 165.348 114.557 165.105 114.44C164.457 114.129 164.511 112.968 164.93 112.401Z" fill="#A6EEF8"/>
<path d="M99.7112 113.873C99.8192 111.416 103.883 115.02 103.761 116.897C103.761 117.707 103.235 118.139 102.411 117.909C101.062 116.925 100.106 115.495 99.7112 113.873Z" fill="#A6EEF8"/>
<path d="M179.118 129.856C178.362 129.721 177.161 129.708 177.147 128.682C177.134 127.656 179.024 127.332 180.185 127.548C180.752 127.642 181.346 127.845 181.346 128.614C181.346 129.721 180.212 129.735 179.118 129.856Z" fill="#A6EEF8"/>
<path d="M109.175 49.815C108.327 49.9803 107.45 49.8959 106.65 49.572C102.438 47.898 102.681 45.522 102.236 44.9955C101.827 44.581 101.595 44.0248 101.588 43.443C101.372 40.176 103.464 38.313 105.84 36.7875C107.852 35.4375 108.284 35.208 108.729 37.935C108.729 38.07 108.729 38.205 108.824 38.34C109.516 38.885 110.118 39.5367 110.606 40.2705C110.992 40.3877 111.404 40.3955 111.795 40.293C112.185 40.1906 112.54 39.9819 112.82 39.69C112.073 39.6322 111.38 39.2831 110.889 38.718C110.761 38.6072 110.673 38.4571 110.639 38.2911C110.605 38.1251 110.626 37.9525 110.7 37.8C111.105 37.1385 111.672 37.9485 113.657 38.3805C114.052 37.3456 114.394 36.2913 114.683 35.2215C113.571 34.874 112.496 34.422 111.47 33.8715C111.24 33.75 110.903 33.642 111.024 33.3045C111.51 31.86 115.331 35.7615 122.405 33.1155C124.052 32.4138 125.618 31.5357 127.076 30.4965C127.076 29.7675 125.591 29.7675 124.983 29.7135C124.145 29.5284 123.27 29.6023 122.474 29.9253C121.679 30.2483 121 30.8053 120.528 31.5225C120.326 31.8195 120.137 32.0355 119.772 31.8195C119.408 31.6035 119.502 31.185 119.61 30.8475C119.993 30.0845 120.567 29.4343 121.277 28.9609C121.987 28.4874 122.809 28.2071 123.66 28.1475C126.968 27.918 127.818 29.187 128.682 29.295C132.3 26.487 132.867 26.0685 136.782 19.9665C136.965 19.7465 137.086 19.4819 137.134 19.1997C137.181 18.9175 137.153 18.6278 137.052 18.36C136.742 17.712 136.08 17.8065 135.5 17.874C134.15 18.0495 132.165 20.0745 131.207 20.277C131.018 20.277 130.869 20.3445 131.112 20.1285C131.585 19.6965 131.193 19.8045 131.949 18.7785C132.177 18.5325 132.331 18.2272 132.393 17.8976C132.455 17.568 132.423 17.2276 132.3 16.9155C132.03 16.227 131.369 16.1595 130.707 16.1865C125.874 16.3755 121.001 19.224 117.072 22.005C115.531 23.3638 113.803 24.4958 111.942 25.3665C111.794 23.7195 113.94 21.1815 112.631 20.1825C112.36 20.0131 112.044 19.9313 111.725 19.9482C111.406 19.9651 111.1 20.0799 110.849 20.277C105.314 23.4225 105.948 23.8815 105.098 21.8025C104.598 20.5605 103.869 19.9395 102.965 19.9665C102.081 20.3215 101.294 20.8813 100.67 21.6L99.7651 22.599C98.5921 23.7272 97.7543 25.158 97.3444 26.733C96.9346 28.308 96.9687 29.9657 97.4431 31.5225C97.9187 32.9304 98.0219 34.4374 97.7428 35.8969C97.4637 37.3565 96.8116 38.719 95.8501 39.852C95.3787 40.5065 94.9675 41.2024 94.6216 41.931C94.2339 42.6186 93.9929 43.3791 93.9139 44.1644C93.8349 44.9498 93.9196 45.743 94.1626 46.494C94.5287 47.083 95.0127 47.5898 95.5843 47.9824C96.1558 48.3751 96.8025 48.6451 97.4836 48.7755C99.8191 49.4505 101.264 49.221 102.992 50.4495C103.448 50.5412 103.881 50.7268 104.262 50.9946C104.644 51.2624 104.965 51.6065 105.206 52.0051C105.447 52.4037 105.603 52.848 105.663 53.31C105.724 53.7719 105.687 54.2414 105.557 54.6885C106.151 56.1465 106.637 57.3885 108.257 56.781C108.916 56.5102 109.492 56.0701 109.927 55.5052C110.362 54.9403 110.64 54.2707 110.733 53.5639C110.826 52.8572 110.731 52.1383 110.458 51.4801C110.184 50.8218 109.741 50.2475 109.175 49.815Z" fill="#A6EEF8"/>
<path d="M138.47 22.734C138.47 24.5295 139.725 25.434 140.981 26.2845C145.8 29.5785 151.713 31.9545 151.443 37.0035C151.443 39.1635 150.66 42.0525 149.351 43.254C147.591 45.3939 146.695 48.1147 146.84 50.8815C146.876 52.7398 146.227 54.5464 145.017 55.9575C144.126 57.0375 142.682 58.6575 143.667 59.5755C145.032 59.332 146.427 59.3092 147.798 59.508C148.112 59.4914 148.419 59.4024 148.693 59.2478C148.967 59.0932 149.201 58.8773 149.378 58.617C150.604 57.2254 151.668 55.6992 152.55 54.0675C152.726 53.6895 152.928 53.271 153.428 53.46C153.927 53.649 153.927 54.162 153.806 54.621C153.666 55.1167 153.486 55.5999 153.266 56.0655C152.847 56.943 154.062 60.1155 156.263 58.401C160.313 55.296 164.214 49.464 160.313 46.251C157.91 44.28 158.22 41.526 158.247 38.2725C158.247 34.5735 157.397 29.673 154.589 27.2565C153.576 26.379 152.766 26.5815 152.334 27.81C151.902 29.0385 151.335 28.5525 150.863 27.9585C148.565 25.433 145.753 23.4303 142.614 22.086C141.386 21.4785 139.752 21.924 138.834 20.574C138.834 20.493 138.348 20.574 138.227 20.6685C138.044 20.8352 137.914 21.0522 137.854 21.2925C137.794 21.5327 137.806 21.7853 137.889 22.0185L137.97 22.2345C138.119 22.0725 138.483 22.2075 138.47 22.734Z" fill="#A6EEF8"/>
<path d="M215.028 149.85C214.448 149.85 214.461 149.985 213.854 150.322C213.603 150.704 213.277 151.03 212.895 151.281C209.918 153.595 207.132 156.146 204.566 158.908C202.622 162.459 204.161 164.713 201.974 166.887C201.98 166.986 201.98 167.085 201.974 167.184C202.203 168.534 200.813 168.709 199.733 169.249C199.149 169.463 198.631 169.823 198.229 170.297C197.827 170.77 197.554 171.339 197.438 171.949C198.788 173.92 201.42 173.893 200.921 177.43C200.919 177.462 200.919 177.493 200.921 177.525C201.191 179.037 200.678 177.214 201.528 187.974C201.583 188.666 201.761 189.343 202.055 189.972C203.227 191.229 204.835 191.992 206.55 192.105C209.104 192.582 211.69 192.871 214.286 192.969C216 192.969 216.837 193.401 217.377 194.535C217.83 195.182 218.053 195.961 218.012 196.749C218.264 198.25 218.422 199.765 218.484 201.285C218.783 201.45 219.124 201.521 219.463 201.49C219.802 201.459 220.125 201.326 220.388 201.109C230 195.223 232.538 196.587 232.295 193.779C231.809 187.447 231.579 187.393 231.768 186.367C231.546 186.2 231.287 186.089 231.012 186.043C230.911 186.022 230.816 185.978 230.734 185.916C230.652 185.853 230.585 185.773 230.537 185.682C230.49 185.59 230.463 185.489 230.458 185.386C230.454 185.283 230.473 185.18 230.513 185.085C230.891 184.086 231.93 185.004 233.996 184.95C237.546 183.357 240.26 176.85 237.87 174.42C236.85 174.22 235.795 174.299 234.817 174.648C233.838 174.997 232.971 175.604 232.308 176.404C232.133 176.62 232.052 177.079 231.62 176.823C230.769 176.35 231.62 175.068 232.362 174.474C231.161 175.095 230.634 175.608 230.405 174.393C229.662 170.424 227.826 168.183 223.29 158.935C222.05 156.364 220.47 153.971 218.592 151.821C217.801 150.839 216.894 149.955 215.892 149.188C215.909 149.287 215.909 149.387 215.892 149.485C215.825 150.106 215.339 149.85 215.028 149.85ZM211.977 175.5C208.683 175.5 208.94 170.667 212.18 170.626C212.809 170.588 213.428 170.794 213.908 171.202C214.389 171.609 214.693 172.187 214.758 172.813C214.707 173.523 214.389 174.186 213.868 174.669C213.346 175.153 212.661 175.421 211.95 175.419L211.977 175.5Z" fill="#A6EEF8"/>
<path d="M257.094 219.091C256.177 218.936 255.327 218.511 254.652 217.872C253.977 217.232 253.506 216.407 253.3 215.5C253.03 214.15 246.429 203.107 244.93 200.34C244.498 199.53 242.824 197.937 242.473 197.343C239.233 191.943 241.123 192.159 234.279 194.751C234.243 194.582 234.198 194.415 234.144 194.251C233.86 193.563 234.063 192.267 232.969 192.483C231.876 192.699 232.578 193.833 232.632 194.535C232.753 196.249 233.658 194.332 219.415 202.068C218.74 202.432 218.457 202.324 218.457 201.271C218.065 194.008 217.107 192.969 214.258 192.955C211.663 192.851 209.078 192.562 206.523 192.091C204.802 191.962 203.2 191.168 202.054 189.877C199.678 186.988 200.394 181.143 200.92 177.43V177.322C201.42 173.812 198.868 173.893 197.437 171.922C196.479 170.572 197.91 170.019 201.487 167.359C201.969 166.997 202.374 166.544 202.68 166.025C202.986 165.506 203.186 164.932 203.269 164.335C203.647 161.865 203.269 161.284 204.619 158.935C206.766 154.885 210.384 152.185 214.447 150.025C215.244 149.593 215.865 150.322 215.892 149.553C215.919 148.783 214.542 148.689 213.745 149.067C209.829 150.576 206.438 153.194 203.985 156.6C201.474 160.461 202.203 161.095 202.203 162.999C202.203 166.509 199.732 167.643 197.734 169.033C195.736 170.424 195.655 171.733 197.356 173.434C197.623 173.738 197.932 174.002 198.274 174.217C198.878 174.538 199.347 175.064 199.595 175.701C199.843 176.338 199.853 177.043 199.624 177.687C199.213 179.848 199.077 182.053 199.219 184.248C199.476 189.54 201.825 192.28 206.968 193.401C209.28 193.974 211.639 194.34 214.015 194.494C214.262 194.474 214.511 194.505 214.745 194.585C214.979 194.665 215.195 194.793 215.377 194.96C215.56 195.128 215.706 195.331 215.806 195.557C215.906 195.784 215.958 196.029 215.959 196.276C216.364 200.124 217.147 202.014 216.675 203.31C216.202 204.606 214.515 204.903 213.421 205.726C211.706 206.739 210.305 208.206 209.371 209.965C204.903 220.765 206.374 222.021 205.321 222.291C205.146 222.061 204.97 221.872 204.822 221.643C202.972 218.781 200.61 217.161 196.992 217.876C195.344 218.082 193.685 218.186 192.024 218.187C191.389 218.187 191.133 218.052 191.025 217.323C190.705 215.003 189.998 212.753 188.932 210.667C187.582 207.967 182.871 208.372 180.022 208.494C179.482 208.494 178.861 208.818 178.578 207.981C178.024 206.347 177.39 204.727 176.769 203.067C178.699 203.256 178.672 203.242 179.158 201.393C180.279 197.248 181.453 193.131 182.547 188.986C182.607 188.713 182.74 188.462 182.933 188.26C183.126 188.057 183.371 187.912 183.64 187.839C191.673 184.693 192.051 176.647 186.408 175.567C187.636 171.436 188.662 168.412 187.92 165.712C186.74 161.055 184.742 156.644 182.02 152.685C181.318 151.713 180.819 151.659 180.036 152.55C180.036 148.257 180.724 150.768 182.007 125.388C182.074 124.375 181.507 123.079 182.169 122.404C182.83 121.729 184.207 122.121 185.274 122.053C187.042 121.932 187.596 121.257 187.123 119.515C186.151 115.789 185.112 112.063 184.14 108.324C184.106 108.046 184.015 107.779 183.874 107.537C183.734 107.295 183.545 107.085 183.32 106.918C183.096 106.751 182.839 106.632 182.567 106.567C182.295 106.503 182.013 106.494 181.737 106.542C176.499 106.839 154.737 107.892 149.188 108.202C148.662 108.202 148.189 108.202 148.162 107.514C147.992 106.044 148.206 104.556 148.783 103.194C150.537 100.028 151.884 96.6532 152.793 93.15C152.982 92.2185 153.468 92.313 154.035 92.6505C155.877 93.6386 157.824 94.4174 159.84 94.9725C166.05 96.984 168.75 98.55 171.45 98.307C171.787 98.307 172.111 98.199 172.152 97.821C172.192 97.443 171.652 97.4565 168.574 96.255C163.975 94.2517 159.254 92.5384 154.44 91.125C153.4 90.8685 153.09 90.423 153.09 89.4375C152.916 87.4395 152.293 85.5067 151.267 83.7837C150.24 82.0607 148.838 80.5921 147.163 79.488C146.639 79.0603 146.01 78.7806 145.341 78.678C145.003 78.678 144.571 78.5565 144.423 79.0155C144.274 79.4745 144.639 79.623 144.976 79.7985C146.882 80.83 148.461 82.3744 149.535 84.2568C150.608 86.1392 151.134 88.2845 151.051 90.45C151.051 100.845 145.449 102.316 146.502 107.554C146.596 108 146.502 108.364 145.935 108.405L140.791 108.688C142.573 105.84 138.982 104.976 134.352 100.413C134.076 100.226 133.879 99.9425 133.799 99.6184C133.719 99.2943 133.762 98.9522 133.92 98.658C134.865 96.201 135.729 93.7035 136.62 91.2465C137.97 87.669 137.97 87.534 134.932 85.2525C133.015 83.8215 132.124 83.5785 132.624 82.6875C132.867 82.2555 133.164 82.6875 133.42 82.6875C133.92 82.89 134.379 83.1735 134.892 83.349C136.566 83.97 137.079 83.6325 137.2 81.837C137.497 77.9085 138.429 64.125 138.753 61.182C138.753 60.858 138.982 60.399 138.429 60.3315C137.875 60.264 137.902 60.6015 137.808 60.912C136.903 63.612 136.782 66.717 135.688 81.0675C135.688 81.4185 135.688 81.7965 135.121 81.783C134.461 81.6991 133.84 81.4207 133.337 80.9833C132.835 80.5458 132.474 79.969 132.3 79.326C131.611 76.626 131.652 73.71 130.288 71.145C129.897 70.47 131.274 69.579 131.085 62.6535C131.004 60.3045 132.259 62.505 140.211 58.995C141.576 58.4392 142.795 57.5785 143.775 56.4787C144.756 55.3788 145.471 54.0692 145.867 52.65C147.392 47.0192 148.502 41.2844 149.188 35.4915C149.269 34.83 149.283 34.1415 148.567 34.1415C147.852 34.1415 147.73 34.641 147.636 35.208C147.636 35.559 147.46 35.91 147.393 36.2475C143.977 51.4215 145.057 55.674 138.766 57.8475C134.932 59.1975 131.085 59.9805 127.035 58.8465C126.211 58.6035 125.388 58.59 125.266 59.805C125.2 59.9733 125.076 60.1122 124.915 60.1965C121.446 62.5725 118.611 63.2205 115.762 59.265C114.279 57.4731 113.189 55.3896 112.563 53.1495C112.328 52.2871 112.006 51.4504 111.604 50.652C111.415 50.193 111.145 49.653 110.524 49.9095C109.903 50.166 110.254 50.814 110.767 52.6095C111.059 53.6842 111.406 54.7431 111.807 55.782C112.927 58.6305 109.282 56.16 103.707 60.561C100.575 63.0315 97.281 65.2995 94.0815 67.7025C90.882 70.1055 88.6815 69.741 84.8205 72.5355C82.7685 74.007 81.189 75.7485 81.189 78.4755C81.189 80.082 77.652 80.6895 76.302 92.313C76.032 94.608 75.87 96.8625 73.953 98.604C72.6764 99.9363 71.6559 101.492 70.9425 103.194C69.8863 105.131 69.3078 107.293 69.255 109.498C69.1973 109.881 69.2805 110.271 69.4891 110.596C69.6978 110.922 70.0176 111.16 70.389 111.267C70.4365 109.256 70.8959 107.275 71.739 105.448C72.6435 103.302 73.2375 100.926 75.0735 99.306C78.4082 96.3135 82.4352 94.1979 86.7915 93.15C86.901 93.1217 87.0153 93.1167 87.1269 93.1353C87.2385 93.1539 87.345 93.1957 87.4395 93.258C87.6555 93.501 87.4395 93.7575 87.2235 93.933C85.6661 95.4228 83.9452 96.7317 82.0935 97.8345C81.675 98.118 81.216 98.442 81.486 99.0225C81.756 99.603 82.2015 99.5355 82.6605 99.4545C85.1515 99.1088 87.6725 99.0319 90.18 99.225C91.1015 99.1619 92.0264 99.2834 92.9003 99.5825C93.7743 99.8815 94.5798 100.352 95.2695 100.966C95.4585 101.155 95.7285 101.317 95.6475 101.628C95.5665 101.938 95.175 101.992 94.8645 101.992C94.6006 102.034 94.3319 102.034 94.068 101.992C91.8714 101.533 89.641 101.253 87.399 101.155C86.8455 101.155 86.211 101.155 86.049 101.776C85.887 102.397 86.535 102.586 87.102 102.681C89.3332 103.109 91.5868 103.411 93.852 103.585C95.1043 103.607 96.3051 104.088 97.227 104.935C97.1432 105.069 97.0306 105.182 96.8974 105.266C96.7643 105.35 96.6139 105.403 96.4575 105.421C91.395 106.65 88.6545 104.341 88.3575 106.164C88.0605 107.986 91.206 106.663 94.5135 108.54C94.8915 108.756 95.445 108.999 95.2965 109.498C95.148 109.998 94.5945 109.755 94.23 109.741C90.0315 109.552 88.3035 109.012 86.616 110.403C87.1155 110.538 88.965 111.064 89.505 111.199C89.3254 111.304 89.1354 111.39 88.938 111.456C83.916 111.793 78.8805 112.266 73.845 112.414C70.0785 112.536 66.2985 112.603 62.532 112.779C60.7365 112.86 60.3315 113.602 61.182 115.182C61.614 116.059 63.3825 122.863 63.558 123.579C63.6247 124.007 63.8512 124.394 64.1919 124.662C64.5325 124.93 64.962 125.059 65.394 125.023H68.094C69.552 125.023 68.445 125.577 70.659 140.859C71.7525 148.405 70.7805 145.111 74.4525 171.301C73.2268 170.661 71.823 170.446 70.4618 170.69C69.1007 170.935 67.8593 171.625 66.933 172.651C66.42 173.178 66.2445 172.732 66.015 172.449C64.4266 170.545 62.4528 168.999 60.2235 167.913C58.401 166.981 59.6835 166.563 57.186 161.257C56.4975 159.813 56.1465 158.071 53.784 158.314C52.7985 158.436 51.759 157.68 50.6655 157.666C44.9577 157.689 39.3088 158.821 34.0335 161.001C30.3885 162.445 27.432 164.983 24.2595 167.116C19.0155 170.581 14.6333 175.198 11.448 180.616C10.0959 182.808 8.97392 185.133 8.09998 187.555C3.92848 200.07 10.53 206.55 13.365 210.721C19.5885 219.861 26.9865 219.037 25.164 223.047C24.0975 225.409 24.705 226.327 27.1485 227.299C31.509 229.027 36.1395 228.879 40.6485 229.135C45.9675 229.446 51.327 229.446 56.6325 230.121C60.0075 230.539 60.561 231.471 68.4585 240.286C68.877 240.759 69.255 241.488 70.254 241.339C67.7371 237.366 64.5963 233.824 60.9525 230.85C66.7035 230.85 67.176 229.5 68.5395 225.841C69.6089 222.789 70.2892 219.614 70.5645 216.391C70.6725 215.338 71.199 213.394 70.0785 213.246C69.8963 213.214 69.7087 213.254 69.5552 213.357C69.4017 213.46 69.2941 213.619 69.255 213.799C69.0022 214.611 68.8171 215.442 68.7015 216.283C68.369 219.901 67.5797 223.462 66.3525 226.881C64.395 232.119 60.48 228.933 51.057 228.231C48.357 228.055 45.36 226.584 42.687 227.988C41.9445 228.366 40.473 228.325 37.422 227.542C36.072 227.178 34.6005 226.3 33.372 226.597C31.347 227.097 29.7675 226.3 28.053 225.747C26.3385 225.193 26.2305 225.072 27.054 223.29C27.4765 222.664 27.6382 221.897 27.5046 221.153C27.371 220.41 26.9526 219.748 26.3385 219.307C22.9365 215.973 16.4025 215.554 10.233 202.621C6.58798 194.967 7.96498 184.572 17.5905 176.283C21.276 173.11 25.002 170.032 28.6605 166.833C36.045 160.393 44.6715 158.409 54.216 159.543C54.5458 159.549 54.8663 159.654 55.1359 159.844C55.4055 160.034 55.6118 160.301 55.728 160.609C56.9588 163.413 57.7642 166.384 58.1175 169.425C59.724 184.005 56.4165 194.778 52.4205 207.967C52.326 208.278 52.029 208.588 52.542 209.088C54.594 205.767 55.431 202.027 56.781 198.288C58.6725 202.808 61.9109 206.636 66.0555 209.25C66.582 209.574 67.4055 210.046 67.77 209.533C68.1345 209.02 67.2165 208.575 66.7845 208.183C62.9847 205.438 59.8972 201.823 57.78 197.64C57.5858 197.272 57.4667 196.868 57.4296 196.453C57.3925 196.039 57.4382 195.62 57.564 195.223C59.8305 187.124 60.5901 178.677 59.805 170.302C59.805 169.938 59.5485 169.506 59.967 169.128C63.8045 171.377 66.6353 175.009 67.878 179.28C68.256 180.36 69.228 181.602 69.012 182.452C68.796 183.303 67.284 184.018 66.312 184.747C63.7398 186.562 61.4318 188.725 59.454 191.173C59.178 191.415 58.9757 191.729 58.8706 192.08C58.7655 192.431 58.7618 192.805 58.86 193.158C61.9524 189.804 65.4019 186.799 69.147 184.194C69.525 183.924 69.8625 183.424 70.389 184.005C71.4264 185.041 72.687 185.826 74.0745 186.3C75.2258 186.672 76.219 187.419 76.8946 188.423C77.5703 189.427 77.8893 190.628 77.8005 191.835C77.8005 195.264 77.9085 197.086 73.2105 195.682C72.684 195.574 72.225 195.385 72.0495 195.898C71.874 196.411 72.3465 196.587 72.6975 196.776C73.3389 197.134 74.0456 197.361 74.776 197.442C75.5063 197.523 76.2455 197.457 76.95 197.248C76.8533 198.139 76.5924 199.004 76.1805 199.8C74.8305 203.229 72.279 205.888 69.9975 208.723C69.4645 209.447 68.7258 209.992 67.878 210.289C67.4714 210.424 67.1027 210.653 66.8022 210.958C66.5017 211.264 66.2782 211.636 66.15 212.044C65.2925 214.308 64.5535 216.616 63.936 218.956C63.8145 219.483 63.369 220.306 63.936 220.522C64.503 220.738 64.881 219.834 65.124 219.321C66.025 217.266 66.7521 215.139 67.2975 212.962C67.473 212.314 67.6215 211.612 68.31 211.288C69.5899 210.553 70.762 209.645 71.793 208.588C75.6909 205.466 78.2306 200.958 78.8805 196.006C79.65 190.228 78.1515 186.448 73.2375 184.639C72.6062 184.379 72.0462 183.972 71.604 183.451C71.2395 183.073 71.1045 182.749 71.604 182.385C73.089 181.359 74.574 180.292 76.167 179.172C76.491 180.717 76.491 182.312 76.167 183.856C76.167 184.072 75.8295 184.383 76.167 184.545C76.8015 184.801 77.0175 183.762 77.1255 183.06C77.4989 180.201 77.1842 177.295 76.2075 174.582C76.113 174.258 75.735 173.893 76.059 173.596C77.139 172.597 76.3965 171.936 75.87 166.414C75.384 161.541 74.1015 156.789 74.169 151.834C74.0674 149.772 73.7919 147.722 73.3455 145.705C72.3735 139.279 71.604 132.813 70.362 126.427C70.146 125.28 70.254 124.888 71.5635 124.861C83.5515 124.618 155.007 122.836 178.753 122.242C180.441 122.242 180.441 122.242 180.211 123.822C179.698 127.642 179.82 130.572 179.631 133.596C179.509 135.769 177.997 152.158 177.795 154.318C177.314 153.81 176.97 153.187 176.796 152.509C175.959 150.781 174.771 150.633 173.596 152.091C173.151 152.631 172.665 153.157 172.071 153.819C171.288 150.849 171.247 149.769 170.167 149.769C169.087 149.769 169.02 150.984 168.345 153.454C167.562 152.104 166.995 150.943 166.158 149.85C164.146 146.974 163.309 150.241 160.758 154.993C160.528 155.412 160.407 156.006 159.759 156.154C159.475 154.116 159.489 152.577 158.409 152.361C157.693 152.212 157.329 152.698 157.059 153.225C156.573 154.156 156.114 155.115 155.614 156.127C155.29 155.668 155.479 155.25 155.412 154.885C155.29 154.278 155.304 153.535 154.629 153.265C153.954 152.995 153.589 153.657 153.198 154.035C149.472 157.585 149.404 160.569 148.108 158.706C147.528 157.855 146.866 157.045 146.232 156.249C145.894 155.803 145.489 155.412 144.882 155.614C144.634 155.72 144.423 155.897 144.276 156.123C144.129 156.349 144.053 156.614 144.058 156.883C143.856 159.124 143.586 161.338 143.437 163.633C143.378 165.618 143.166 167.595 142.803 169.546C142.114 172.503 141.183 175.54 141.628 178.686C141.723 179.428 141.52 179.563 140.764 179.496C140.34 179.423 139.904 179.435 139.484 179.531C139.064 179.628 138.667 179.807 138.316 180.058C137.966 180.309 137.669 180.628 137.442 180.995C137.216 181.362 137.065 181.77 136.998 182.196C136.733 183.034 136.657 183.92 136.776 184.791C136.896 185.662 137.206 186.495 137.686 187.231C139.001 189.554 141.067 191.358 143.545 192.348C144.571 192.739 144.031 192.348 151.645 204.849C151.78 205.105 151.929 205.551 152.307 205.362C153.657 204.727 153.913 205.794 154.278 206.604C155.289 208.938 156.471 211.194 157.815 213.354C156.86 213.782 155.882 214.156 154.885 214.474C154.433 214.53 153.997 214.677 153.604 214.906C153.211 215.136 152.868 215.443 152.598 215.81C152.327 216.176 152.135 216.594 152.031 217.038C151.928 217.481 151.916 217.941 151.996 218.389C151.996 219.199 151.996 220.023 152.145 220.833C152.145 221.386 152.145 222.547 152.644 222.453C153.144 222.358 152.995 221.359 153.063 220.806C153.163 219.62 153.163 218.428 153.063 217.242C153.778 217.832 154.463 218.459 155.115 219.118C155.479 219.523 156.384 219.726 156.019 220.468C155.655 221.211 155.601 222.601 154.089 222.885C151.823 223.23 149.629 223.946 147.595 225.004C147.271 225.18 146.704 225.382 146.961 225.868C147.217 226.354 147.636 225.963 147.946 225.868C160.308 222.254 173.076 220.213 185.949 219.793C190.364 219.817 194.777 219.582 199.165 219.091C200.103 219.164 200.986 219.56 201.663 220.212C202.027 220.55 202.336 220.941 202.581 221.373C209.007 231.376 211.14 235.278 214.231 237.573C215.298 238.356 214.623 238.18 216.931 247.86C217.448 250.248 218.097 252.605 218.875 254.92C219.616 256.312 220.747 257.456 222.129 258.214C222.412 257.715 222.129 257.458 221.899 257.161C220.333 254.461 220.549 254.731 216.351 239.26C216.054 238.18 216.108 238.869 211.585 231.714C211.329 231.268 211.693 230.634 210.978 222.858C210.829 222.245 210.862 221.603 211.072 221.008C212.152 219.348 212.179 217.35 212.922 215.608C213.138 215.055 213.138 214.393 213.691 213.867C215.041 219.456 214.717 219.523 216.58 218.403C221.008 215.703 225.409 213.07 229.837 210.411C231.012 209.709 232.321 208.156 233.361 208.575C234.4 208.993 234.711 210.856 235.197 212.139C241.731 228.231 241.056 227.677 242.176 227.853C240.182 221.289 237.63 214.907 234.549 208.777C234.171 208.008 234.225 207.697 234.967 207.238C237.91 205.402 241.15 203.998 243.702 201.474C246.159 206.739 249.21 211.653 251.734 216.85C252.056 217.568 252.537 218.204 253.141 218.709C253.744 219.214 254.454 219.576 255.217 219.766C259.011 220.698 259.821 223.816 262.129 230.404C262.332 230.985 262.332 231.754 263.209 231.903V227.853C261.792 223.978 260.779 220.05 257.094 219.091ZM185.544 177.903C185.637 177.599 185.834 177.338 186.101 177.165C186.367 176.992 186.687 176.919 187.002 176.958C187.362 176.942 187.717 177.051 188.005 177.268C188.293 177.485 188.497 177.795 188.581 178.146C188.853 178.909 188.931 179.728 188.809 180.529C188.686 181.33 188.367 182.089 187.879 182.736C186.699 184.301 185.137 185.537 183.343 186.327C183.894 183.48 184.611 180.667 185.49 177.903H185.544ZM73.494 179.766C73.1585 179.995 72.8116 180.207 72.4545 180.4C71.8335 180.697 71.2395 181.669 70.659 181.264C70.0785 180.859 69.93 179.685 69.633 178.848C69.471 178.402 69.8895 178.227 70.1325 177.984C70.9345 177.07 71.5368 175.999 71.901 174.838C72.063 174.42 72.2655 173.839 71.82 173.61C70.821 173.124 70.47 175.783 69.12 177.295C67.6485 174.406 66.933 173.691 68.0535 172.732C68.5528 172.23 69.1692 171.859 69.8473 171.653C70.5255 171.447 71.2441 171.413 71.9386 171.553C72.6332 171.694 73.282 172.005 73.8268 172.458C74.3716 172.911 74.7954 173.493 75.06 174.15C76.572 177.565 76.491 177.822 73.4265 179.766H73.494ZM139.023 108.432L138.901 108.81C131.719 109.161 131.625 109.363 131.53 108.702C131.53 108.391 131.395 107.959 131.746 107.865C133.663 107.352 132.853 105.597 133.353 104.436C133.412 104.102 133.439 103.763 133.434 103.423C135.018 105.355 136.879 107.043 138.955 108.432H139.023ZM131.76 84.7125C132.138 84.3885 132.354 84.7125 132.786 85.023C134.034 85.7365 135.115 86.7075 135.958 87.8715C136.714 89.2215 135.189 90.3555 134.797 91.6245C134.311 93.1905 133.65 94.716 133.042 96.255C133.042 96.255 132.921 96.363 132.705 96.5655C132.151 92.8935 132.057 89.316 131.193 85.7655C131.071 85.3065 131.409 85.05 131.76 84.7125ZM130.95 81.378C131.571 84.9825 127.966 81.918 122.85 84.4965C122.039 81.3978 121.488 78.2368 121.203 75.0465C121.203 74.5875 121.203 74.2365 121.702 73.9665C123.578 72.9913 125.663 72.4863 127.777 72.495C128.157 72.4451 128.541 72.5479 128.844 72.7808C129.148 73.0137 129.347 73.3576 129.397 73.737C129.978 76.2885 130.545 78.8265 130.95 81.378ZM129.006 108.742C129.006 109.525 128.371 109.336 127.926 109.363L121.756 109.701C123.106 107.338 124.456 105.259 125.712 103.167L126.036 103.248C126.184 104.031 126.333 104.787 126.427 105.556C126.792 108.486 129.1 106.65 129.006 108.742ZM112.657 58.536C113.778 58.077 113.602 58.941 114.534 60.4665C115.072 61.5 115.863 62.3808 116.833 63.0267C117.803 63.6727 118.92 64.063 120.081 64.1614C121.242 64.2597 122.41 64.0629 123.474 63.5892C124.539 63.1155 125.467 62.3803 126.171 61.452C126.427 61.155 126.765 60.345 127.264 60.8175C127.534 61.074 127.264 61.182 127.075 61.317C122.715 64.8 120.46 69.8895 117.085 67.2705C114.385 65.2725 113.4 62.2755 112.131 59.4135C111.888 58.887 112.266 58.698 112.657 58.536ZM109.566 59.4C110.808 59.076 110.403 59.8725 112.387 64.3815C113.145 66.1802 114.394 67.7289 115.992 68.85C116.801 69.5524 117.841 69.9313 118.913 69.9139C119.984 69.8964 121.011 69.4839 121.797 68.7555C128.331 63.3555 127.318 60.966 129.195 61.236C130.248 61.3845 129.883 61.371 129.613 69.957C129.613 70.5375 129.397 70.767 128.817 70.686C125.55 70.2 122.85 71.4555 120.15 72.9C119.664 73.17 119.677 73.6425 119.704 74.0745C119.802 77.206 120.145 80.3251 120.73 83.403C121.041 84.753 121.459 86.2515 123.363 86.292C123.876 86.292 123.808 86.805 123.835 87.1155C124.119 89.424 124.537 94.662 125.104 97.5105C125.238 97.9994 125.259 98.5122 125.165 99.0103C125.072 99.5084 124.866 99.9788 124.564 100.386C123.633 101.736 122.836 103.086 121.864 104.584C116.694 88.776 112.981 78.3 109.12 61.182C109.097 60.9132 109.052 60.6468 108.985 60.3855C108.81 59.8185 109.066 59.535 109.566 59.4ZM121.135 105.921C120.811 106.555 120.46 107.176 120.069 107.878C116.95 102.64 110.389 95.7285 108.391 94.4595C107.959 94.176 107.851 93.96 108.148 93.5145C109.957 90.8145 111.78 87.9795 113.886 85.158C119.637 103.707 119.961 104.814 121.095 105.165C121.608 105.3 121.257 105.678 121.135 105.921ZM102.235 64.4355C104.058 63.0855 105.786 61.587 107.635 60.0885C108.634 64.4895 109.566 68.7015 110.592 72.9C112.873 82.161 113.994 82.674 112.144 83.052C109.653 83.6284 107.26 84.5701 105.043 85.8465C104.098 86.3595 103.923 86.1435 103.801 85.1175C103.072 78.9345 102.532 72.7515 101.439 66.609C101.317 66.2094 101.328 65.7808 101.472 65.3884C101.616 64.9961 101.884 64.6614 102.235 64.4355ZM97.5375 106.717C99.306 105.948 99.522 104.638 97.983 103.477C97.389 103.032 96.633 102.775 97.2 101.763C97.4565 101.263 96.9975 100.737 96.6735 100.318C94.365 97.2405 89.397 97.497 85.5765 97.443C86.4945 96.336 87.615 95.85 88.2765 94.8915C88.938 93.933 89.532 93.3255 88.9245 92.34C88.317 91.3545 87.3045 91.584 86.4 91.8C83.8388 92.2803 81.3781 93.1934 79.1235 94.5C78.7725 94.689 78.408 95.1075 77.7735 94.959C77.578 90.1195 78.8842 85.338 81.513 81.27C82.2839 80.2812 82.7105 79.0676 82.728 77.814C82.7408 77.1611 82.8932 76.5185 83.175 75.9294C83.4567 75.3403 83.8613 74.8183 84.3615 74.3985C89.073 69.7815 92.637 72.036 98.9415 67.0005C100.899 65.4345 99.9 65.1105 102.424 86.724C102.573 88.074 103.18 88.344 104.368 87.7365C108.418 85.6575 108.715 85.293 112.684 84.294C110.482 87.1727 108.467 90.1893 106.65 93.3255C106.312 93.933 106.015 94.581 106.812 95.094C110.551 97.5105 114.912 103.41 117.963 107.244C118.246 107.581 118.611 107.851 118.894 108.189C119.178 108.526 119.907 108.189 119.637 109.012C119.57 109.294 119.403 109.543 119.167 109.711C118.932 109.88 118.643 109.958 118.354 109.93C116.694 109.93 103.261 110.673 98.199 110.956C97.3485 110.956 96.849 110.956 97.1325 109.863C97.416 108.769 96.687 108.108 95.931 107.433C96.309 106.879 96.9975 106.96 97.5375 106.717ZM66.9195 122.85C66.7119 122.895 66.497 122.895 66.2896 122.849C66.0822 122.803 65.8871 122.713 65.7178 122.585C65.5485 122.457 65.4089 122.293 65.3088 122.106C65.2086 121.919 65.1502 121.712 65.1375 121.5C63.693 116.1 62.343 115.209 64.1925 115.114C65.664 115.114 179.739 109.12 180.144 109.039C181.386 108.796 181.966 109.228 182.25 110.538C183.964 118.638 185.395 119.488 183.127 119.515C182.965 119.583 71.415 122.647 66.9195 122.85ZM139.927 180.738C141.277 180.319 141.858 180.643 142.101 182.088C142.627 185.26 143.383 188.365 144.234 191.538C139.32 189.526 136.12 181.885 139.927 180.711V180.738ZM188.284 212.544C188.622 213.988 189.526 215.149 189.283 216.594C189.378 214.974 186.462 215.028 188.284 212.517V212.544ZM154.858 204.849C154.858 204.322 155.29 204.417 155.479 204.376C157.5 203.991 159.542 203.734 161.595 203.607C157.18 204.727 157.005 204.606 157.194 205.24C157.383 205.875 156.883 204.957 171.099 203.769C171.558 203.769 172.152 203.688 172.125 203.161C172.098 202.635 171.49 202.635 171.045 202.635H168.345C170.667 202.338 172.921 201.717 175.189 202.432C175.756 202.608 175.743 202.851 175.689 203.364C175.486 205.146 175.23 202.014 157.531 206.685C157.233 206.743 156.926 206.741 156.629 206.678C156.331 206.615 156.05 206.493 155.8 206.32C155.551 206.146 155.339 205.924 155.177 205.666C155.016 205.409 154.907 205.122 154.858 204.822V204.849ZM156.627 208.251C176.877 204.052 165.834 206.442 174.865 204.903C175.689 204.768 176.026 205.038 176.215 205.753C176.499 206.739 177.268 207.886 176.971 208.629C176.674 209.371 175.203 209.047 174.271 209.223C169.479 210.141 164.713 211.18 160.015 212.557C157.801 213.178 159.3 210.978 156.6 208.224L156.627 208.251ZM154.008 216C155.938 215.352 157.72 214.758 159.772 214.096C158.733 215.716 157.855 217.08 156.91 218.524L154.008 216ZM160.096 221.292C159.529 221.427 159.084 221.427 158.868 220.873C158.652 220.32 157.518 219.82 158.085 218.808C158.652 217.795 159.3 216.742 159.894 215.703C160.15 215.257 160.393 215.122 160.785 215.581C162.135 217.12 163.363 218.632 164.835 220.32C163.053 220.671 161.554 220.941 160.096 221.305V221.292ZM160.933 213.745C162.742 213.313 164.43 212.949 166.09 212.49C166.981 212.247 167.089 213.07 167.548 213.394C168.007 213.718 167.751 214.096 167.548 214.447C166.819 215.797 166.09 217.309 165.348 218.767C163.903 217.134 162.486 215.527 160.933 213.759V213.745ZM171.625 219.28C169.992 219.523 168.358 219.726 166.536 219.955C167.332 218.214 168.048 216.661 168.831 214.906C169.911 216.175 170.883 217.35 171.868 218.497C172.26 218.943 172.233 219.213 171.625 219.294V219.28ZM175.891 217.053C175.806 217.257 175.743 217.47 175.702 217.687C175.554 218.106 176.013 218.74 175.216 218.902C174.929 218.951 174.634 218.915 174.368 218.797C174.101 218.679 173.875 218.486 173.718 218.241C172.462 216.796 171.153 215.365 169.897 213.907C169.768 213.71 169.684 213.486 169.651 213.252C169.619 213.019 169.638 212.781 169.707 212.555C169.777 212.329 169.895 212.122 170.054 211.947C170.213 211.773 170.408 211.635 170.626 211.545C171.49 211.302 172.368 211.18 173.326 211.005C173.947 210.816 174.271 211.518 174.676 211.869C176.445 213.3 177.349 214.92 175.891 217.066V217.053ZM175.419 210.694C176.59 210.312 177.82 210.142 179.05 210.195C179.05 210.316 179.118 210.37 179.05 210.411C177.835 213.3 177.43 213.3 175.419 210.708V210.694ZM176.958 218.794C176.958 218.646 176.836 218.538 176.863 218.497C177.376 217.66 177.579 215.973 178.213 216.067C179.226 216.229 179.914 217.417 180.765 218.578L176.958 218.794ZM184.963 217.444C184.801 218.335 184.356 218.7 183.613 218.551C182.547 218.74 182.547 218.254 179.253 214.744C178.956 214.434 178.74 214.177 178.956 213.705C179.401 212.692 179.806 211.653 180.306 210.627C181.143 208.683 182.088 211.396 185.53 214.434C186.138 214.92 185.22 216 184.95 217.35L184.963 217.444ZM183.006 209.898C185.26 209.668 188.136 209.452 187.056 211.504C186.799 212.004 186.624 212.571 186.381 213.192C185.166 212.151 184.038 211.013 183.006 209.79V209.898ZM189.931 218.119C189.783 218.578 189.148 218.308 188.73 218.376C188.332 218.433 187.931 218.469 187.528 218.484C186.097 218.578 186.178 218.565 186.543 217.134C186.84 216.108 187.137 215.784 188.014 216.715C188.257 216.972 188.919 218.065 189.283 216.715C189.516 216.833 189.705 217.023 189.822 217.256C189.939 217.49 189.977 217.755 189.931 218.011V218.119ZM238.95 202.189C231.457 206.874 216.256 216.513 216 216.621C215.419 213.583 214.893 210.613 214.312 207.657C214.204 207.117 214.474 206.941 214.839 206.725C222.327 202.315 230.176 198.548 238.302 195.466C239.193 195.075 239.787 195.048 240.016 196.195C240.111 196.708 240.448 197.181 240.597 197.694C240.914 198.63 241.369 199.512 241.947 200.313C241.036 201.07 240.028 201.701 238.95 202.189Z" fill="#471280"/>
<path d="M158.044 68.7285C152.847 63.234 153.454 61.344 150.97 60.4125C148.81 59.6025 152.59 59.0625 153.751 54.621C153.886 54.162 153.886 53.676 153.373 53.4735C152.86 53.271 152.671 53.6895 152.509 54.0675C151.654 55.6927 150.622 57.2185 149.431 58.617C147.906 60.588 147.717 58.4145 141.682 60.048C141.237 60.1695 140.697 60.345 140.778 60.858C140.926 61.7355 142.236 60.993 144.193 61.047C147.177 61.047 150.309 60.804 152.374 63.747C153.802 65.593 155.335 67.3554 156.964 69.0255C158.265 70.528 160.08 71.4908 162.054 71.7255C163.096 71.7611 164.097 72.1426 164.899 72.8098C165.701 73.4771 166.258 74.3923 166.482 75.411C166.776 76.5029 167.231 77.5449 167.832 78.5025C168.102 78.9345 168.345 79.7175 168.912 79.488C169.479 79.2585 169.303 78.5025 169.222 77.922C169.226 77.787 169.198 77.653 169.141 77.5305C168.588 76.626 169.02 76.0185 169.708 75.4515C171.058 74.3175 172.408 73.1295 173.691 72.0225C179.55 67.23 186.192 63.612 192.591 59.7105C193.536 59.13 193.104 59.5755 199.341 66.8925C200.029 67.7025 201.244 69.5925 201.717 69.4845C202.113 69.3923 202.498 69.2565 202.864 69.0795C205.289 67.9888 207.949 67.5247 210.6 67.7295C213.328 67.8933 216.065 67.606 218.7 66.879C220.36 66.2175 220.522 64.9485 219.172 63.8145C218.97 63.639 218.551 63.5985 218.619 63.1125C219.993 63.1084 221.359 62.8944 222.669 62.478C223.026 62.4042 223.351 62.2173 223.594 61.945C223.837 61.6728 223.986 61.3295 224.019 60.966C224.086 59.616 222.412 59.238 220.279 58.4145C221.629 57.7935 222.628 57.4695 222.561 56.43C222.493 55.3905 221.616 55.242 217.161 54.216L218.362 53.649C219.051 53.352 219.712 52.9875 219.712 52.137C219.712 51.2865 218.835 51.084 218.146 50.9085C212.679 49.5585 208.386 51.6105 206.199 52.2585C207.225 50.9085 208.588 49.5585 207.657 48.2085C207.049 47.385 206.131 47.601 205.308 47.9385C200.245 49.977 196.047 52.6635 193.158 57.267C192.658 58.0635 193.158 57.105 187.056 60.5745C177.241 66.1095 172.476 70.2 168.048 74.9115C167.628 73.6507 166.813 72.5589 165.723 71.7978C164.634 71.0367 163.328 70.6468 162 70.686C160.483 70.5511 159.072 69.8527 158.044 68.7285ZM194.494 57.9285C194.735 57.437 195.044 56.9824 195.412 56.5785C197.982 54.0693 200.913 51.958 204.106 50.3145C204.678 49.9576 205.325 49.7402 205.996 49.68C205.294 51.516 200.596 54.2835 202.338 55.512C202.546 55.7001 202.819 55.8019 203.099 55.7969C203.38 55.7919 203.648 55.6804 203.85 55.485C206.205 53.75 208.975 52.6652 211.882 52.3395C213.335 51.9883 214.855 52.0349 216.283 52.4745C214.074 53.339 211.821 54.087 209.533 54.7155C208.98 54.9045 207.832 55.0395 208.062 55.9305C208.548 57.888 213.111 54.189 220.698 56.457C218.745 57.0123 216.742 57.374 214.717 57.537C212.112 57.996 210.519 57.6855 210.573 58.887C210.573 59.751 211.369 59.7375 212.004 59.6835C215.089 59.3598 218.206 59.5606 221.224 60.2775C221.627 60.3506 221.999 60.5435 222.291 60.831C220.981 61.2386 219.613 61.4301 218.241 61.398C213.799 61.6815 212.193 60.8445 212.031 62.1405C211.842 63.7605 213.57 62.613 218.268 65.0565C216.854 65.5084 215.379 65.7406 213.894 65.745C211.747 65.8125 209.587 65.8395 207.427 65.745C202.594 65.529 202.311 68.337 201.096 66.3255C199.372 63.5885 197.216 61.1493 194.71 59.103C194.13 58.698 194.157 58.428 194.4 57.942L194.494 57.9285Z" fill="#471280"/>
<path d="M96.8353 188.257C96.2278 188.743 96.0118 189.607 95.2558 189.823C93.4365 190.511 91.9009 191.79 90.8953 193.455C86.9398 198.986 84.0425 205.202 82.3498 211.788C80.7298 217.89 80.6353 223.735 84.6178 229.122C86.1298 231.147 85.7653 233.361 84.9958 235.656C84.8371 236.38 84.4679 237.04 83.9346 237.554C83.4012 238.068 82.7277 238.413 81.9988 238.545C76.0452 240.303 70.716 243.722 66.6358 248.4C65.8761 249.19 65.2554 250.103 64.7998 251.1C64.3488 251.809 64.1846 252.664 64.3408 253.489C65.8532 250.728 67.9774 248.35 70.5508 246.537C74.0816 243.596 78.1094 241.311 82.4443 239.787C82.9438 239.611 83.7943 238.963 83.7943 240.367C83.6479 242.48 84.3346 244.566 85.7073 246.178C87.08 247.791 89.0295 248.801 91.1383 248.994C91.7863 249.088 92.3668 249.115 92.7988 248.373C89.4238 246.834 86.2243 245.983 85.4413 241.947C85.0689 240.31 85.2346 238.596 85.9138 237.06C86.6649 235.442 86.9369 233.642 86.6976 231.874C86.4584 230.106 85.7179 228.444 84.5638 227.083C84.3239 226.706 84.1075 226.313 83.9158 225.909C82.5293 223.412 82.0522 220.511 82.5658 217.701C83.9967 209.222 87.2937 201.166 92.2183 194.116C93.089 192.714 94.3514 191.597 95.8498 190.903C96.3493 190.741 97.7398 191.443 96.6463 189.931C96.4303 189.648 96.8893 189.553 97.0783 189.432C102.735 185.679 108.769 186.583 111.685 186.016C114.291 185.517 111.685 185.098 109.188 185.044C104.773 184.95 100.48 185.314 96.8353 188.257Z" fill="#471280"/>
<path d="M95.148 49.8555C97.767 51.84 98.874 51.3675 102.168 51.7185C102.488 51.6998 102.807 51.7646 103.095 51.9065C103.382 52.0485 103.628 52.2626 103.807 52.5281C103.987 52.7935 104.095 53.1011 104.12 53.4207C104.145 53.7403 104.086 54.0609 103.95 54.351C103.707 55.3201 103.103 56.1601 102.262 56.7C102.139 56.7975 102.048 56.9312 102.004 57.0825C101.96 57.2338 101.964 57.395 102.017 57.5438C102.069 57.6925 102.166 57.8212 102.295 57.912C102.423 58.0028 102.577 58.051 102.735 58.05C104.249 57.6629 105.787 57.3788 107.338 57.1995C107.147 57.0148 106.917 56.8744 106.665 56.7881C106.413 56.7018 106.145 56.6717 105.88 56.7C104.422 56.781 105.205 55.8765 105.516 54.729C106.191 52.029 104.085 50.301 101.344 50.2605C100.315 50.2717 99.2867 50.1676 98.28 49.95C97.4223 49.8131 96.6116 49.4672 95.9192 48.9429C95.2269 48.4185 94.6742 47.7318 94.31 46.9434C93.9458 46.1549 93.7812 45.289 93.8308 44.4219C93.8805 43.5548 94.1427 42.7133 94.5945 41.9715C94.9375 41.2187 95.3583 40.5038 95.85 39.8385C96.8196 38.7101 97.4788 37.3487 97.7629 35.8883C98.0469 34.4278 97.946 32.9186 97.47 31.509C97.0034 29.9505 96.9745 28.2936 97.3864 26.7198C97.7984 25.1459 98.6352 23.7157 99.8055 22.5855C100.608 21.4381 101.684 20.5099 102.937 19.8855C103.876 19.521 104.903 19.4549 105.88 19.6965C106.826 19.9387 107.825 19.8607 108.721 19.4747C109.618 19.0888 110.361 18.4167 110.835 17.5635C112.576 14.958 113.683 12.6225 117.909 11.124C121.534 9.88294 125.398 9.50392 129.195 10.017C137.511 11.0295 138.564 13.662 139.671 14.067C139.981 14.1885 140.319 14.58 140.616 14.2155C140.913 13.851 140.71 13.446 140.427 13.1355C137.929 10.4355 136.377 8.937 129.883 8.2485C122.053 7.3845 115.141 9.0045 110.308 15.876C109.908 16.6095 109.271 17.1854 108.501 17.5092C107.731 17.833 106.873 17.8854 106.069 17.658C104.858 17.3636 103.588 17.4262 102.412 17.8382C101.235 18.2503 100.204 18.9942 99.441 19.98C90.504 29.862 100.372 32.2785 95.391 38.88C94.6733 39.8549 94.0324 40.884 93.474 41.958C93.0566 42.5837 92.7686 43.2866 92.6268 44.0252C92.485 44.7639 92.4923 45.5234 92.6483 46.2592C92.8042 46.995 93.1057 47.6922 93.535 48.3097C93.9643 48.9273 94.5127 49.4529 95.148 49.8555Z" fill="#471280"/>
<path d="M143.829 252.909C142.628 250.866 141.274 248.916 139.779 247.077C136.229 242.744 135.54 243.027 136.04 241.934C138.157 237.415 138.658 232.305 137.457 227.462C136.652 224.131 136.912 220.633 138.2 217.458C139.874 213.125 140.441 210.587 138.038 203.094C135.486 195.183 130.815 189.216 122.756 186.354C122.252 186.186 121.738 186.051 121.217 185.949C121.101 185.916 120.976 185.928 120.869 185.984C120.762 186.039 120.68 186.134 120.64 186.248C120.6 186.362 120.606 186.487 120.655 186.597C120.705 186.707 120.794 186.794 120.906 186.84C123.026 188.285 133.704 190.89 138.213 207.306C139.104 210.519 139.334 212.639 136.485 218.795C133.475 225.315 137.16 228.785 135.662 236.345C134.028 244.661 127.913 248.913 126.401 251.532C126.252 251.802 125.969 252.113 126.212 252.383C126.455 252.653 126.873 252.491 127.184 252.302C129.863 250.332 132.225 247.965 134.19 245.282C135.257 243.729 135.27 243.702 136.404 245.282C139.172 248.815 141.698 252.531 143.964 256.406C144.099 256.649 144.153 257.094 144.572 256.986C144.99 256.878 144.828 256.473 144.842 256.176C144.848 255.009 144.494 253.868 143.829 252.909Z" fill="#471280"/>
<path d="M230.432 171.599C230.864 171.41 230.648 170.991 230.54 170.667C229.775 168.041 228.767 165.492 227.529 163.053C224.744 157.829 221.326 152.968 217.35 148.581C216.621 147.784 216.621 147.541 217.728 147.231C222.021 146.272 226.328 145.422 230.675 144.842C233.433 144.571 236.216 144.989 238.775 146.057C240.987 147.071 243.053 148.378 244.917 149.945C250.116 153.486 253.906 158.742 255.623 164.795C257.229 170.194 256.878 175.176 253.813 179.915C249.007 187.407 245.714 189.148 244.85 191.524C245.846 191.339 246.776 190.897 247.55 190.242C251.522 187.014 254.615 182.835 256.541 178.092C259.484 171.22 255.96 163.634 254.259 158.544C253.694 157.064 252.876 155.694 251.843 154.494C248.211 149.85 243.338 147.083 237.951 145.044C235.619 143.993 233.065 143.529 230.513 143.694C225.896 144.194 218.16 145.044 213.975 147.056C213.611 147.218 213.111 147.339 213.26 147.865C213.408 148.392 213.881 148.338 214.272 148.203C215.501 147.825 215.946 148.473 218.565 151.807C228.92 164.956 228.96 172.166 230.432 171.599Z" fill="#471280"/>
<path d="M148.365 18.711C152.182 20.1539 155.337 22.9452 157.235 26.5572C159.133 30.1691 159.642 34.3514 158.665 38.313C156.411 47.142 164.322 45.0631 162.432 51.8131C161.311 55.7686 159.435 58.9546 154.912 59.6026C154.783 59.6242 154.656 59.6604 154.534 59.7106C154.143 59.8321 153.643 59.8726 153.643 60.3721C153.643 60.8716 154.143 60.8311 154.453 60.9526C160.353 63.1801 165.726 54.2025 164.727 49.0725C164.466 48.0939 164.012 47.177 163.394 46.3751C162.775 45.5732 162.003 44.9024 161.122 44.4016C160.327 43.9295 159.729 43.1858 159.439 42.3075C159.148 41.4293 159.185 40.4757 159.543 39.6226C160.736 36.1639 160.877 32.4289 159.948 28.89C157.95 19.9665 149.85 16.2 144.274 15.876C143.883 15.876 143.275 15.606 143.14 16.2405C142.924 17.2395 144.085 17.01 148.365 18.711Z" fill="#471280"/>
<path d="M198.599 70.2C194.292 74.5335 189.54 78.3945 185.099 82.62C180.657 86.8455 176.999 91.503 173.07 96.039C172.733 96.417 172.166 96.9975 172.625 97.389C173.084 97.7805 173.57 97.173 173.975 96.8625C179.834 91.989 179.28 90.477 189.581 80.9055C193.144 77.8239 196.516 74.5283 199.679 71.037C201.15 69.363 199.949 68.85 198.599 70.2Z" fill="#471280"/>
<path d="M127.926 32.0895C128.109 31.9523 128.308 31.8389 128.52 31.752C128.979 32.2785 129.748 32.967 130.167 32.67C130.585 32.373 130.41 31.482 130.086 30.888C130.391 30.4211 130.797 30.0289 131.274 29.7405C133.475 28.3147 135.208 26.2722 136.255 23.868C136.363 23.544 136.525 23.0985 136.147 22.896C135.769 22.6935 135.553 23.1795 135.378 23.4495C133.566 25.9016 131.233 27.9212 128.547 29.3625C128.101 28.9575 126.954 27.864 123.633 28.0935C120.69 28.35 118.8 31.131 119.758 31.752C120.717 32.373 120.325 29.241 124.969 29.646C125.727 29.634 126.464 29.8925 127.048 30.375C126.588 30.865 126.05 31.2755 125.455 31.59C118.057 35.9235 113.575 33.1965 111.807 32.94C111.051 32.8185 110.619 33.3855 111.456 33.8445C116.356 36.45 121.135 36.693 127.926 32.0895Z" fill="#471280"/>
<path d="M231.336 175.757C231.174 176.148 231.093 176.553 231.565 176.81C232.038 177.066 232.078 176.607 232.254 176.405C232.912 175.598 233.778 174.987 234.758 174.638C235.739 174.288 236.796 174.213 237.816 174.42C239.422 174.731 240.111 175.878 239.746 177.768C239.448 179.203 238.9 180.574 238.126 181.818C236.317 184.761 234.954 185.355 231.579 184.626C230.094 184.302 230.229 185.868 230.958 185.976C232.713 186.3 231.822 187.623 232.038 189.513C232.105 190.121 232.173 190.958 232.942 190.863C233.712 190.769 233.226 188.555 233.374 187.596C233.523 186.638 233.941 186.098 235.372 186.003C235.895 185.869 236.365 185.583 236.722 185.18C239.209 182.996 240.776 179.953 241.11 176.661C241.228 175.781 241.002 174.89 240.479 174.173C239.956 173.456 239.176 172.969 238.302 172.814C237.138 172.544 235.929 172.544 234.765 172.814C234.954 171.558 235.129 170.451 235.278 169.358C235.296 169.292 235.3 169.223 235.289 169.156C235.279 169.088 235.254 169.024 235.218 168.967C235.181 168.909 235.132 168.86 235.075 168.823C235.018 168.786 234.954 168.761 234.886 168.75C234.535 168.75 234.468 168.953 234.4 169.236C233.617 172.22 234.684 172.787 233.482 173.448C232.522 173.947 231.764 174.763 231.336 175.757Z" fill="#471280"/>
<path d="M128.763 57.51C129.547 58.0862 130.526 58.3324 131.49 58.1962C132.454 58.06 133.326 57.552 133.92 56.781C134.428 56.1001 134.983 55.4551 135.58 54.8505C136.512 53.8515 136.485 53.7705 135.256 53.2575C132.975 52.3125 130.504 51.9075 128.277 50.841C127.53 50.4392 126.723 50.161 125.887 50.0175C124.537 49.842 123.957 50.5305 124.389 51.7455C125.1 54.1339 126.654 56.1826 128.763 57.51ZM133.285 54.27C133.677 54.3645 133.839 54.54 133.582 55.026C133.445 55.3784 133.228 55.6939 132.947 55.9475C132.667 56.201 132.331 56.3856 131.967 56.4866C131.602 56.5875 131.219 56.602 130.848 56.5289C130.477 56.4558 130.128 56.2971 129.829 56.0655C128.188 55.0927 126.956 53.5579 126.36 51.7455C128.598 52.7684 130.914 53.6125 133.285 54.27Z" fill="#471280"/>
<path d="M111.969 43.2C112.212 42.957 112.05 42.714 111.969 42.4575C110.187 39.015 107.5 35.7075 104.638 38.4075C103.681 39.2183 102.965 40.2772 102.57 41.4679C102.175 42.6585 102.115 43.9351 102.397 45.1575C102.657 46.1987 103.187 47.1529 103.933 47.9233C104.68 48.6938 105.617 49.2533 106.65 49.545C107.713 49.9845 108.908 49.9845 109.971 49.545C109.048 49.1819 108.147 48.7672 107.271 48.303C104.571 46.656 103.558 44.6715 104.301 42.066C104.411 41.4492 104.684 40.8732 105.092 40.3983C105.501 39.9233 106.029 39.5668 106.623 39.366C107.77 39.069 108.364 40.257 109.08 40.9455C109.795 41.634 111.267 43.956 111.969 43.2Z" fill="#471280"/>
<path d="M27.8235 227.948C26.4735 227.786 24.246 229.905 23.4225 230.985C19.1392 236.624 15.789 242.914 13.5 249.615C13.5 250.128 13.5 250.546 13.9455 250.614C14.391 250.681 14.3235 250.236 14.445 249.966C16.5105 245.592 23.355 230.553 27.945 228.812C28.188 228.717 28.539 228.811 28.458 228.393C28.377 227.974 28.107 227.988 27.8235 227.948Z" fill="#471280"/>
<path d="M138.469 22.7341C138.469 21.9646 137.659 21.9781 137.592 22.7341C136.984 28.8631 150.66 30.0781 150.079 37.4356C149.914 39.2737 149.43 41.069 148.648 42.7411C148.527 42.9841 148.108 43.2541 148.459 43.5511C148.81 43.8481 149.134 43.4566 149.364 43.2406C150.789 41.4757 151.532 39.2572 151.456 36.9901C151.74 31.9546 145.84 29.5921 141.007 26.2711C139.725 25.4206 138.456 24.5296 138.469 22.7341Z" fill="#471280"/>
<path d="M147.15 226.422C146.664 226.246 146.462 226.705 146.219 227.164C143.121 232.179 141.137 237.8 140.4 243.648C140.297 244.168 140.329 244.706 140.495 245.21C140.66 245.714 140.953 246.166 141.345 246.523C141.264 240.381 144.72 232.807 146.988 227.623C147.15 227.245 147.65 226.678 147.15 226.422Z" fill="#471280"/>
<path d="M209.466 155.817C209.318 156.06 209.021 156.33 209.331 156.654C209.642 156.978 209.723 156.748 209.966 156.546C214.016 153.144 217.404 156.748 217.958 162.256C218.295 165.685 218.214 166.306 218.754 166.306C219.294 166.306 219.402 165.267 219.551 162.985C219.551 162.405 219.551 161.824 219.443 161.244C219.024 158.449 218.093 155.844 215.393 154.494C214.397 154.028 213.276 153.905 212.204 154.145C211.131 154.384 210.169 154.972 209.466 155.817Z" fill="#471280"/>
<path d="M232.645 171.896C232.578 166.725 230.188 162.338 227.637 158.031C227.536 157.887 227.423 157.751 227.299 157.626C227.07 157.356 226.773 157.221 226.476 157.424C225.855 157.815 226.732 158.558 227.637 160.353C232.47 169.911 230.796 173.529 232.146 173.462C232.983 173.462 232.524 172.557 232.645 172.044C232.652 171.995 232.652 171.945 232.645 171.896Z" fill="#471280"/>
<path d="M253.139 224.478C248.94 225.531 237.992 231.673 235.845 233.442C235.602 233.658 235.386 233.914 235.71 234.238C236.25 234.751 235.805 233.509 253.26 225.288C253.49 225.166 253.8 225.207 253.827 224.802C253.854 224.397 253.395 224.424 253.139 224.478Z" fill="#471280"/>
<path d="M248.036 238.855C247.077 238.734 247.32 240.205 245.876 241.555C242.681 244.695 239.324 247.664 235.818 250.452C235.548 250.695 235.062 250.992 235.454 251.424C235.845 251.856 236.102 251.424 236.385 251.235C239.328 248.886 245.282 244.485 247.779 240.691C248.099 240.305 248.304 239.838 248.373 239.341C248.4 239.112 248.319 238.95 248.036 238.855Z" fill="#471280"/>
<path d="M58.05 221.197C56.3895 220.968 54.729 220.779 53.0685 220.59C47.142 219.928 41.013 219.24 35.262 217.053C35.1831 217.022 35.0951 217.022 35.0169 217.055C34.9386 217.088 34.8763 217.15 34.8435 217.228C34.8061 217.305 34.8008 217.394 34.8286 217.475C34.8565 217.556 34.9152 217.623 34.992 217.66C41.85 221.143 49.086 221.859 57.8205 221.859H58.05C58.135 221.859 58.217 221.827 58.2796 221.77C58.3421 221.712 58.3807 221.633 58.3875 221.548C58.3914 221.503 58.3854 221.456 58.37 221.413C58.3546 221.369 58.3301 221.33 58.2982 221.297C58.2662 221.263 58.2276 221.237 58.1848 221.22C58.142 221.203 58.096 221.195 58.05 221.197Z" fill="#471280"/>
<path d="M123.944 41.364C124.997 41.526 125.294 40.635 125.523 39.879C125.956 38.464 126.089 36.9744 125.915 35.505C125.793 34.6275 125.442 34.3845 124.686 34.965C124.058 35.4562 123.561 36.0957 123.241 36.8261C122.92 37.5565 122.786 38.355 122.85 39.15C122.85 40.1625 122.85 41.202 123.944 41.364Z" fill="#471280"/>
<path d="M138.78 48.9375C138.748 48.267 138.55 47.6149 138.204 47.0399C137.857 46.4649 137.373 45.9851 136.796 45.6435C136.472 45.5625 136.134 45.5355 135.945 45.8325C135.756 46.1295 136.026 46.4265 136.323 46.6425C136.625 46.8717 136.87 47.1676 137.039 47.5072C137.207 47.8468 137.295 48.2208 137.295 48.6C137.376 50.6385 135.945 50.382 134.055 49.734C133.704 49.626 133.34 49.3965 133.097 49.734C132.854 50.0715 133.218 50.328 133.38 50.5845C133.777 51.1033 134.325 51.4867 134.949 51.6824C135.572 51.8781 136.241 51.8766 136.863 51.678C137.43 51.4799 137.92 51.1087 138.264 50.6169C138.608 50.1251 138.788 49.5376 138.78 48.9375Z" fill="#471280"/>
<path d="M209.79 179.645C206.955 181.44 204.997 183.695 203.715 181.197C203.539 180.86 203.458 180.455 203.013 180.59C202.567 180.725 202.567 181.197 202.608 181.589C202.741 182.089 203 182.548 203.36 182.921C203.72 183.294 204.169 183.569 204.665 183.72C205.161 183.872 205.687 183.894 206.194 183.786C206.701 183.677 207.172 183.441 207.562 183.101C208.694 182.37 209.698 181.458 210.532 180.401C210.789 180.077 211.423 179.726 211.099 179.334C210.775 178.943 210.181 179.415 209.79 179.645Z" fill="#471280"/>
<path d="M145.22 35.4915C145.356 36.0027 145.464 36.5209 145.544 37.044C145.544 37.179 145.625 38.475 146.448 37.1925C146.794 36.527 146.918 35.7682 146.801 35.0272C146.685 34.2862 146.334 33.602 145.8 33.075C145.2 32.4682 144.397 32.1039 143.546 32.0516C142.694 31.9993 141.853 32.2627 141.183 32.7915C140.724 33.264 140.4 33.8175 140.846 34.4655C141.035 34.749 141.197 34.911 141.561 34.4655C142.938 33.048 144.666 33.507 145.22 35.4915Z" fill="#471280"/>
<path d="M127.008 241.772C126.711 240.773 125.982 241.853 125.82 242.582C125.309 245.777 123.588 248.653 121.014 250.614C121.333 250.637 121.653 250.637 121.972 250.614C125.077 249.872 127.939 244.836 127.008 241.772Z" fill="#471280"/>
<path d="M240.111 189.918C238.632 189.835 237.148 189.944 235.696 190.242C235.143 190.363 234.346 190.377 234.468 191.173C234.589 191.97 235.305 191.808 235.818 191.767C236.844 191.7 241.853 191.349 243.324 191.214C243.581 191.214 244.026 191.214 244.04 190.782C244.053 190.35 243.675 190.336 243.378 190.242C242.314 189.956 241.21 189.847 240.111 189.918Z" fill="#471280"/>
<path d="M210.37 167.279C211.086 165.713 212.152 164.174 211.045 162.324C210.897 162.054 210.924 161.717 210.505 161.69C210.373 161.692 210.243 161.733 210.133 161.807C210.023 161.881 209.937 161.986 209.884 162.108C209.182 163.524 208.651 165.02 208.305 166.563C208.305 167.184 208.467 167.657 209.007 167.913C209.138 167.966 209.278 167.992 209.419 167.989C209.56 167.985 209.699 167.953 209.827 167.893C209.955 167.834 210.069 167.748 210.163 167.642C210.256 167.537 210.327 167.413 210.37 167.279Z" fill="#471280"/>
<path d="M142.911 40.1085C141.966 39.8655 141.453 40.5945 141.075 41.337C140.704 42.1891 140.511 43.1078 140.508 44.037C140.508 44.631 140.589 45.2385 141.277 45.387C141.966 45.5355 142.371 45.1575 142.722 44.6715C143.314 43.7662 143.567 42.6809 143.437 41.607C143.302 41.229 143.856 40.338 142.911 40.1085Z" fill="#471280"/>
<path d="M248.292 183.087C248.535 182.655 249.17 182.196 248.427 181.737C247.685 181.278 247.442 181.94 247.077 182.358C246.362 183.357 246.119 184.005 243.54 189.419C245.12 189.311 245.268 188.514 248.292 183.087Z" fill="#471280"/>
<path d="M92.1644 241.448C92.0564 241.083 92.4344 240.408 91.6919 240.435C90.9494 240.462 91.0304 241.056 91.0304 241.556C91.0304 244.809 95.8769 248.765 97.6859 247.199C94.5674 246.47 93.0689 244.256 92.1644 241.448Z" fill="#471280"/>
<path d="M107.879 44.55C107.817 44.5748 107.762 44.6115 107.715 44.6578C107.668 44.7041 107.63 44.7593 107.605 44.8201C107.579 44.8809 107.565 44.9461 107.565 45.0121C107.564 45.0781 107.577 45.1436 107.602 45.2048C107.627 45.2659 107.663 45.3216 107.71 45.3686C107.756 45.4156 107.811 45.453 107.872 45.4787C107.933 45.5044 107.998 45.5179 108.064 45.5184C108.13 45.5189 108.195 45.5063 108.257 45.4815C109.094 45.2655 109.904 45.0495 110.538 45.9135C110.567 45.9477 110.603 45.9751 110.644 45.994C110.685 46.0128 110.729 46.0225 110.774 46.0225C110.819 46.0225 110.864 46.0128 110.904 45.994C110.945 45.9751 110.981 45.9477 111.011 45.9135C111.915 44.928 108.311 41.472 106.961 41.4855C106.488 41.4855 106.043 41.58 105.962 42.147C105.881 42.714 106.367 42.714 106.772 42.7275C107.172 42.7945 107.538 42.9943 107.811 43.2945C108.203 43.7265 109.067 44.1045 107.879 44.55Z" fill="#471280"/>
<path d="M248.832 247.05C248.786 246.989 248.722 246.945 248.648 246.926C248.575 246.906 248.497 246.912 248.427 246.942C245.247 248.258 242.322 250.122 239.787 252.45C239.736 252.511 239.709 252.587 239.709 252.666C239.709 252.745 239.736 252.821 239.787 252.882C239.819 252.927 239.861 252.965 239.911 252.99C239.96 253.016 240.015 253.03 240.07 253.03C240.119 253.044 240.17 253.044 240.219 253.03L241.393 252.45C244.169 251.29 246.701 249.618 248.859 247.523C248.914 247.455 248.942 247.368 248.937 247.281C248.932 247.194 248.895 247.111 248.832 247.05Z" fill="#471280"/>
<path d="M113.184 39.7169C113.643 39.5549 114.534 39.7169 114.534 38.9744C114.534 38.4884 114.115 38.3939 113.697 38.3129C111.807 37.9349 111.159 37.0709 110.74 37.7324C110.654 37.89 110.624 38.0726 110.656 38.2496C110.687 38.4266 110.779 38.5872 110.916 38.7044C111.207 39.0165 111.558 39.2669 111.947 39.4408C112.337 39.6147 112.757 39.7086 113.184 39.7169Z" fill="#471280"/>
<path d="M171.963 80.0415C171.707 78.6915 172.841 78.867 173.124 79.731C173.396 80.5666 173.564 81.4327 173.624 82.3095C173.705 83.2545 172.571 83.079 172.503 82.512C172.436 81.945 172.098 80.757 171.963 80.0415Z" fill="#471280"/>
</svg>
