<svg width="270" height="270" viewBox="0 0 270 270" fill="none" xmlns="http://www.w3.org/2000/svg">
<path d="M236.628 124.268C232.999 126.823 229.062 128.91 224.91 130.478C219.105 132.975 212.962 134.528 206.955 136.404C205.699 136.809 204.417 137.201 203.134 137.538C203.863 143.046 204.484 148.014 205.321 156.641C207.569 156.019 209.755 155.197 211.855 154.184C212.332 153.961 212.784 153.689 213.205 153.374C211.666 152.537 211.005 152.294 211.005 150.674C210.763 150.342 210.655 149.931 210.703 149.523C210.751 149.115 210.95 148.741 211.261 148.473C211.302 148.367 211.378 148.277 211.476 148.218C211.574 148.16 211.688 148.135 211.801 148.149C212.385 148.064 212.981 148.168 213.502 148.446C214.281 148.789 215.031 149.196 215.743 149.661C216.945 150.417 218.106 150.903 219.402 149.796C220.698 148.689 227.772 147.461 240.867 139.469C241.078 139.387 241.257 139.239 241.377 139.046C241.496 138.854 241.549 138.628 241.528 138.402C240.273 133.556 238.828 128.736 237.478 123.917C237.33 123.89 237.019 123.971 236.628 124.268Z" fill="#FEF0BB"/>
<path d="M228.528 163.742C229.567 162.756 230.661 161.852 231.781 160.974C231.973 160.372 232.339 159.841 232.834 159.449C239.746 153.306 241.758 153.333 243.634 151.538C244.039 151.146 244.35 150.755 244.107 150.188C243.282 147.984 242.773 145.675 242.595 143.33C242.446 141.98 242.055 141.98 241.002 142.506C238.126 143.856 235.602 145.76 232.672 146.975C228.811 148.595 225.22 150.782 220.981 151.97C221.251 152.183 221.504 152.418 221.737 152.672C222.553 153.057 223.266 153.63 223.816 154.346C224.14 154.832 223.816 155.223 223.506 155.021C222.426 154.359 222.615 155.358 222.52 155.817C222.183 157.451 222.048 157.559 220.536 156.884C219.024 156.209 217.431 155.534 215.892 154.778C210.883 157.478 212.935 156.681 205.524 158.922C205.699 161.028 205.875 163.161 206.01 165.281C206.118 166.779 206.455 168.251 206.671 169.736C206.806 170.6 206.671 171.086 205.578 171.369L204.484 171.558C212.328 171.194 221.022 167.508 227.677 164.984C227.461 164.444 228.15 164.066 228.528 163.742Z" fill="#FEF0BB"/>
<path d="M193.185 160.34C183.235 160.029 186.664 160.232 180.657 159.26C180.306 159.26 179.86 159.03 179.955 158.544C180.049 158.058 180.454 158.18 180.765 158.18C184.815 158.18 188.865 158.058 192.915 158.274C192.078 151.214 192.415 152.415 190.984 139.28C187.586 139.146 184.202 138.762 180.859 138.132C174.231 137.12 167.643 135.945 161.109 134.447C160.096 137.147 159.124 139.712 158.301 142.412C158.452 142.479 158.597 142.56 158.733 142.655C172.354 150.93 173.65 151.524 176.58 153.995C177.106 154.44 177.484 154.589 177.997 154.062C178.588 153.515 179.22 153.014 179.887 152.564C180.724 151.808 181.089 151.511 181.237 151.214C181.926 150.35 182.979 150.242 183.775 151.484C184.815 152.564 184.99 153.212 183.924 154.103C180.677 156.976 177.636 160.075 174.825 163.377C174.312 163.971 173.907 163.985 173.65 163.134C172.206 158.369 171.895 159.611 174.649 157.289C174.807 157.154 174.951 157.004 175.081 156.843C175.743 156.087 175.648 155.858 174.892 155.277C170.117 151.682 165.126 148.381 159.948 145.395C159.053 144.996 158.307 144.325 157.815 143.478C156.789 146.07 155.007 146.61 155.263 147.393C157.085 148.852 158.817 150.421 160.447 152.091C163.404 154.791 166.266 157.626 169.182 160.394C169.385 160.584 169.538 160.822 169.625 161.086C169.712 161.35 169.732 161.632 169.681 161.906C169.644 163.892 169.765 165.879 170.046 167.846C170.114 168.069 170.226 168.277 170.377 168.456C170.528 168.635 170.714 168.781 170.923 168.885C172.387 169.495 173.927 169.904 175.5 170.1C179.456 170.883 183.454 171.437 187.474 171.761C191.061 172.203 194.688 172.203 198.274 171.761C196.803 170.667 195.413 169.466 194.116 168.17C193.468 167.306 193.981 167.562 193.185 160.34Z" fill="#FEF0BB"/>
<path d="M197.397 138.713C197.74 139.032 198.012 139.42 198.196 139.852C198.379 140.283 198.469 140.749 198.46 141.218C198.451 141.686 198.343 142.148 198.144 142.573C197.944 142.997 197.658 143.374 197.302 143.681C196.885 143.95 196.378 144.043 195.892 143.94C195.406 143.836 194.981 143.544 194.71 143.127C194.508 142.835 194.37 142.504 194.305 142.155C193.99 141.711 193.807 141.187 193.779 140.643C193.745 140.506 193.745 140.362 193.779 140.225C194.116 139.347 193.711 139.185 192.928 139.226C192.533 139.246 192.136 139.246 191.74 139.226C192.415 145.571 193.081 151.92 193.738 158.274C197.4 158.545 201.077 158.053 204.538 156.83C202.932 139.199 202.5 138.591 202.5 137.7C200.789 138.137 199.047 138.444 197.289 138.618L197.397 138.713Z" fill="#FEF0BB"/>
<path d="M200.394 160.65C200.608 161.251 200.678 161.894 200.596 162.527C200.488 163.566 200.407 164.673 199.111 164.916C198.288 165.078 197.302 163.782 197.181 162.5C197.141 162.249 197.141 161.994 197.181 161.744C197.289 160.826 196.938 160.542 195.993 160.515H193.995C194.242 161.984 194.395 163.468 194.454 164.957C194.332 167.414 195.966 168.602 197.545 170.06C198.276 170.844 199.211 171.41 200.245 171.693H201.339C201.847 171.579 202.328 171.368 202.756 171.072C202.926 170.985 203.108 170.926 203.296 170.897C205.807 170.181 205.78 170.181 205.551 167.643C205.308 164.862 205.056 162.081 204.795 159.3C203.958 159.557 203.134 159.8 202.297 160.029C201.622 160.08 200.969 160.293 200.394 160.65Z" fill="#FEF0BB"/>
<path d="M160.65 57.9555C160.366 58.374 159.718 58.752 160.272 59.4135C160.272 59.4135 160.353 59.643 160.272 59.67C158.058 61.5195 158.409 64.3545 157.572 66.7305C156.903 68.9483 156.535 71.2459 156.478 73.5615C156.406 74.4051 156.599 75.2502 157.032 75.978C159.586 80.4904 162.768 84.6175 166.482 88.236C167.656 89.183 168.887 90.0577 170.167 90.855C170.68 91.233 171.787 91.4355 171.382 92.205C170.977 92.9745 170.424 91.7595 169.722 91.9215C170.685 93.2156 171.863 94.3344 173.205 95.229C175.378 95.229 177.552 95.5665 180.063 95.553C182.274 95.5503 184.471 95.1948 186.57 94.5L186.448 93.2985C186.364 92.9776 186.366 92.6403 186.454 92.3204C186.542 92.0005 186.712 91.7093 186.948 91.476C188.473 90.126 190.039 88.857 191.592 87.5475C191.781 87.399 191.997 87.3045 192.402 87.5475C191.232 88.8466 189.954 90.0435 188.581 91.125C188.085 91.4384 187.701 91.9016 187.485 92.4476C187.269 92.9937 187.232 93.5942 187.38 94.1625C193.914 91.8945 189.945 93.3795 195.871 91.6785V91.5975C195.183 86.7645 194.643 86.562 195.223 86.0355C195.709 86.265 195.655 86.724 195.75 87.156C196.033 88.587 196.303 90.0315 196.546 91.476C203.09 89.4475 209.295 86.4584 214.96 82.6065C214.203 80.5998 213.192 78.6987 211.95 76.95C211.855 76.7966 211.747 76.652 211.626 76.518C211.369 76.6125 210.856 77.1525 210.276 76.869C210.187 77.0261 210.073 77.1675 209.938 77.2875C209.668 77.5575 209.371 77.895 208.98 77.5845C208.588 77.274 208.98 76.977 209.074 76.707C210.87 73.656 210.883 73.683 212.436 71.172C214.953 66.3634 217.171 61.404 219.078 56.322C219.353 55.7785 219.455 55.1638 219.371 54.5604C219.286 53.9571 219.019 53.3941 218.605 52.947C217.869 52.0832 217.031 51.3125 216.108 50.652C207.738 44.793 195.952 41.31 185.814 40.4325C182.884 40.1895 179.914 39.9735 177.16 41.634C175.122 42.876 173.11 44.145 171.18 45.522C167.247 49.2891 163.718 53.4561 160.65 57.9555ZM172.03 50.949C177.153 53.1017 182.077 55.6991 186.745 58.7115C192.363 62.5372 197.554 66.9545 202.23 71.8875C204.066 73.7505 204.12 76.1805 203.917 78.6375C203.917 78.867 203.823 79.1235 203.526 79.137C202.999 79.137 203.31 78.732 203.256 78.5295C202.999 77.2605 203.391 74.4795 201.487 72.5895C201.768 73.4657 201.945 74.372 202.014 75.2895C202.014 76.194 201.838 77.031 202.014 77.0175C202.324 77.6925 201.892 78.2325 201.555 78.6645C197.329 84.1995 192.105 88.1145 184.842 88.398C182.486 88.509 180.126 88.3459 177.808 87.912C176.259 87.5545 174.806 86.8663 173.548 85.8947C172.289 84.923 171.256 83.6908 170.518 82.2825C170.302 81.9315 170.073 81.594 169.83 81.2565L169.681 81.1485C168.417 80.4215 167.326 79.4278 166.484 78.2365C165.643 77.0451 165.071 75.6848 164.808 74.25C164.592 73.1835 164.43 73.467 163.687 71.9415C163.081 71.0535 162.726 70.0179 162.661 68.9445C162.276 66.4891 162.276 63.9885 162.661 61.533C162.094 62.667 160.501 64.557 160.056 66.7305C160.056 67.0545 159.867 67.284 159.516 67.23C159.433 67.2191 159.354 67.1896 159.285 67.144C159.215 67.0983 159.157 67.0375 159.114 66.9661C159.071 66.8948 159.045 66.8147 159.038 66.7318C159.03 66.649 159.041 66.5655 159.07 66.4875C159.15 66.1196 159.258 65.7584 159.394 65.4075C161.476 60.6292 164.46 56.2974 168.183 52.65C168.409 52.427 168.658 52.228 168.925 52.056C169.803 51.2055 170.41 50.814 171.139 50.868C171.45 50.517 171.72 50.8275 172.003 50.949H172.03Z" fill="#FEF0BB"/>
<path d="M108.58 165.74C109.12 166.82 109.809 167.238 110.916 166.442C112.023 165.645 113.022 165.915 112.617 164.727C111.012 160.008 110.165 155.064 110.106 150.08C109.889 148.74 109.763 147.386 109.728 146.03C109.422 146.009 109.116 146.065 108.837 146.192C106.366 148.055 105.246 148.433 104.787 148.892C104.899 148.902 105.003 148.956 105.076 149.041C105.149 149.127 105.186 149.238 105.178 149.351C105.016 153.198 106.083 156.857 106.771 160.583C107.137 162.376 107.745 164.111 108.58 165.74Z" fill="#FEF0BB"/>
<path d="M91.9619 165.848C91.5974 164.498 91.3274 163.377 89.7884 163.904C87.3044 163.782 87.2774 163.62 87.8984 165.254C88.7219 167.495 89.5859 169.736 90.4094 172.004C91.5164 175.001 90.6119 174.339 93.8789 173.988C95.8499 173.786 93.7304 172.8 91.9619 165.848Z" fill="#FEF0BB"/>
<path d="M113.602 171.328C113.346 170.667 113.116 170.194 112.171 170.518C108.058 171.874 104.04 173.502 100.143 175.392C99.4139 175.756 99.3059 176.04 99.6974 176.742C100.976 179.101 102.121 181.531 103.126 184.018C103.936 186.124 103.963 186.111 106.204 185.962C107.136 185.962 108.081 185.8 109.012 185.8C110.27 185.938 111.54 185.71 112.671 185.142C113.802 184.574 114.744 183.692 115.384 182.601C115.824 182.059 116.116 181.412 116.232 180.724C116.347 180.035 116.284 179.329 116.046 178.672C115.101 176.296 114.561 173.745 113.602 171.328Z" fill="#FEF0BB"/>
<path d="M123.214 172.625C124.895 176.871 126.249 181.24 127.264 185.693C129.1 192.821 126.589 197.843 124.47 207.293C124.146 208.643 124.632 208.643 125.604 208.643C125.775 208.68 125.952 208.68 126.124 208.644C126.295 208.607 126.457 208.535 126.598 208.432C126.74 208.329 126.858 208.196 126.945 208.044C127.032 207.892 127.085 207.723 127.102 207.549C127.521 206.05 129.991 199.57 130.504 193.914C131.125 186.867 128.452 180.671 124.902 174.785C124.497 174.15 124.375 173.111 123.214 172.625Z" fill="#FEF0BB"/>
<path d="M109.35 209.493C113.665 208.836 118.027 208.543 122.391 208.616C122.547 208.653 122.709 208.657 122.866 208.625C123.023 208.593 123.171 208.527 123.3 208.432C123.429 208.337 123.535 208.214 123.611 208.073C123.687 207.932 123.732 207.776 123.741 207.617C124.659 203.567 126.009 199.584 126.711 195.467C127.144 193.782 127.362 192.049 127.359 190.31C127.062 186.044 125.617 182.061 124.551 177.984C123.484 173.907 121.716 170.262 117.936 167.927C117.139 167.427 115.992 165.146 113.089 166.658C110.187 168.17 109.201 169.358 107.77 166.725C107.149 165.618 106.569 165.686 105.637 166.158C102.787 167.508 99.787 168.518 96.7004 169.169C94.2974 169.776 94.2839 169.709 95.1884 171.977C95.8904 173.745 95.4584 174.555 93.5684 174.947C93.2437 175.014 92.9142 175.054 92.5829 175.068C91.7054 175.068 91.4624 175.365 91.7999 176.27C92.4614 177.971 93.1499 179.685 93.7304 181.4C99.6974 193.253 102.276 195.534 103.504 200.003C104.274 202.77 105.3 205.403 106.11 208.211C106.167 208.409 106.249 208.599 106.353 208.778C107.028 206.294 107.595 204.053 108.283 201.866C108.585 200.327 109.038 198.821 109.633 197.37C110.997 195.111 112.841 193.18 115.033 191.714C115.654 191.295 115.654 191.309 116.518 191.646C113.683 193.617 111.375 195.804 110.43 199.368C109.674 202.311 108.526 205.173 107.73 208.103C107.487 208.94 107.46 209.331 107.73 209.453C108.269 209.499 108.81 209.513 109.35 209.493ZM107.716 187.124C103.356 187.353 103.342 187.407 102.316 184.923C101.169 182.223 100.008 179.523 98.7254 176.823C98.2394 175.824 98.3879 175.284 99.3059 174.771C103.632 172.573 108.118 170.704 112.725 169.182C113.71 168.818 113.994 169.52 114.304 170.127C115.357 172.139 115.857 174.407 117.76 180.414C118.017 181.224 117.76 181.481 117.328 182.088C113.94 186.759 113.859 186.8 107.703 187.124H107.716Z" fill="#FEF0BB"/>
<path d="M190.228 125.334C190.485 127.386 191.362 135.648 191.578 137.74C194.616 137.538 197.1 136.836 199.678 136.525C200.556 136.414 201.427 136.247 202.284 136.026C201.757 132.057 201.177 128.101 200.596 124.146C197.198 124.94 193.719 125.339 190.228 125.334Z" fill="#FEF0BB"/>
<path d="M183.208 124.74C179.367 123.674 175.427 123 171.45 122.729C169.55 122.762 167.661 122.427 165.888 121.743C164.997 124.227 162.202 131.76 161.703 133.029C166.657 134.123 185.841 137.997 190.876 137.768C190.782 136.904 189.891 128.628 189.526 125.348C187.402 125.458 185.273 125.254 183.208 124.74Z" fill="#FEF0BB"/>
<path d="M226.071 126.9C229.405 125.226 232.416 122.985 235.858 121.5C235.983 121.469 236.099 121.411 236.198 121.329C236.297 121.247 236.376 121.144 236.429 121.027C236.483 120.91 236.509 120.782 236.506 120.654C236.503 120.525 236.471 120.399 236.412 120.285C235.575 117.734 234.751 115.169 233.955 112.617C233.428 110.916 232.821 112.401 226.233 115.074C218.902 118.071 211.383 120.366 203.917 123.174C203.026 123.498 202.149 123.768 201.217 124.011C201.784 127.962 202.338 131.918 202.878 135.878C205.47 135.162 207.981 134.136 210.6 133.488C216.148 132.098 221.076 129.398 226.071 126.9Z" fill="#FEF0BB"/>
<path d="M231.835 109.35C231.976 109.294 232.103 109.21 232.21 109.104C232.317 108.997 232.4 108.869 232.456 108.729C232.512 108.589 232.538 108.438 232.533 108.288C232.529 108.137 232.493 107.988 232.429 107.852C228.501 95.8905 228.811 94.8915 227.245 95.877C223.938 97.956 220.428 99.684 216.931 101.439C211.209 104.333 205.188 106.596 198.976 108.189C199.125 109.391 200.448 118.503 200.947 121.865C204.997 120.65 208.926 119.165 212.962 117.909C219.588 115.859 225.928 112.984 231.835 109.35Z" fill="#FEF0BB"/>
<path d="M173.394 108.932C172.41 108.917 171.434 108.744 170.505 108.419C169.11 112.559 167.679 116.69 166.212 120.812C167.845 120.812 169.479 121.041 171.126 121.136C174.452 121.256 177.762 121.653 181.021 122.324C183.114 122.81 185.166 123.674 186.934 123.39L189.27 123.296C188.595 117.18 188.419 115.196 187.92 109.796C185.787 109.728 184.95 109.458 173.394 108.932Z" fill="#FEF0BB"/>
<path d="M188.743 109.768C189.27 116.41 189.297 117.193 189.999 123.268C191.254 123.268 192.429 123.16 193.59 123.012C195.404 122.915 197.209 122.684 198.99 122.323C199.408 122.215 199.813 122.08 200.218 121.959C198.045 107.23 198.45 108.202 198.18 108.27C195.099 109.115 191.934 109.617 188.743 109.768ZM195.669 120.568C195.223 121.338 194.67 122.026 193.671 121.918C193.199 121.85 192.763 121.628 192.431 121.286C192.099 120.944 191.89 120.502 191.835 120.028C191.549 118.773 191.721 117.456 192.321 116.316C192.766 115.074 193.671 114.885 194.71 115.722C195.452 116.276 195.961 117.086 196.138 117.994C196.315 118.902 196.148 119.844 195.669 120.636V120.568Z" fill="#FEF0BB"/>
<path d="M184.761 173.111C171.517 172.058 170.451 169.506 170.545 171.761C170.64 173.489 170.734 175.23 170.815 176.972C170.768 178.905 170.85 180.84 171.058 182.763C171.069 183.037 171.162 183.301 171.326 183.52C171.49 183.74 171.717 183.904 171.976 183.992C178.503 186.419 185.376 187.786 192.334 188.042C196.87 188.231 201.177 187.029 205.537 186.057C215.865 183.749 225.693 180.252 234.4 174.056C235.224 173.489 235.602 173.043 235.075 172.017C234.519 170.824 234.036 169.598 233.631 168.345C232.915 166.32 232.969 166.415 230.931 166.995C226.881 168.251 222.939 169.506 218.889 170.519C213.88 171.761 208.885 173.219 203.634 172.962C198.949 172.8 198.45 174.218 184.761 173.111Z" fill="#FEF0BB"/>
<path d="M174.15 96.579C174.219 97.0987 174.159 97.6273 173.974 98.118C172.975 101.205 171.958 104.283 170.923 107.352C173.286 107.825 181.359 107.663 185.625 108.081C186.384 108.149 187.147 108.149 187.906 108.081C187.785 106.502 187.083 98.631 186.84 96.363C181.966 97.47 179.293 97.065 174.15 96.579Z" fill="#FEF0BB"/>
<path d="M196.83 93.15C197.532 97.416 198.099 101.709 198.679 105.989C213.3 102.6 216.81 97.7131 225.814 93.5821C226.188 93.451 226.503 93.193 226.705 92.8531C223.825 89.5437 220.663 86.4903 217.255 83.7271C217.093 83.8216 217.255 83.7271 216.661 84.1321C216.707 84.2532 216.735 84.3807 216.742 84.5101C216.742 84.9961 216.742 85.5226 216.135 85.6306C215.527 85.7386 215.527 85.2796 215.5 84.9286C208.912 89.4106 204.214 92.664 196.83 93.15Z" fill="#FEF0BB"/>
<path d="M187.555 96.093C187.933 100.035 188.271 103.991 188.595 107.946C190.066 107.757 194.454 107.001 197.964 106.205L196.101 93.285C193.934 93.5463 191.832 94.1908 189.891 95.1885C189.148 95.5754 188.365 95.8788 187.555 96.093ZM190.053 99.036C190.072 98.7979 190.072 98.5587 190.053 98.3205V97.632C189.983 97.2388 190.06 96.8336 190.271 96.4941C190.481 96.1546 190.809 95.9048 191.193 95.7927C191.576 95.6805 191.987 95.7139 192.348 95.8865C192.708 96.059 192.992 96.3585 193.144 96.7275C193.671 97.4778 193.91 98.3924 193.819 99.3044C193.727 100.216 193.31 101.065 192.645 101.696C191.713 102.398 191.038 101.939 190.498 101.196C190.083 100.558 189.924 99.7864 190.053 99.036Z" fill="#FEF0BB"/>
<path d="M203.026 198.369C206.088 198.287 209.131 197.861 212.098 197.1C214.933 194.94 217.809 192.861 220.671 190.728C225.558 186.449 229.608 183.749 232.2 181.278C233.093 180.459 234.065 179.731 235.102 179.104C235.642 178.672 236.182 178.227 236.736 177.755C237.289 177.282 237.532 177.188 237.127 176.634C236.722 176.081 236.425 176.634 236.088 176.81C235.44 177.039 226.732 183.56 215.919 185.693C210.721 186.705 205.497 187.637 200.259 188.393C196.473 189.097 192.613 189.324 188.77 189.068C183.1 188.674 177.498 187.6 172.084 185.868C170.262 185.234 171.531 187.218 171.531 191.079C171.511 191.412 171.559 191.745 171.673 192.059C171.787 192.372 171.964 192.659 172.192 192.901C173.804 193.175 175.38 193.628 176.89 194.252C187.65 198.45 195.129 197.95 203.026 198.369Z" fill="#FEF0BB"/>
<path d="M215.338 250.142C215.041 250.614 214.636 251.114 214.96 251.708C215.284 252.302 215.973 252.288 216.594 252.261C217.907 252.131 219.199 251.841 220.441 251.397C224.182 250.294 227.844 248.941 231.403 247.347C237.272 244.882 242.996 242.088 248.548 238.977C251.113 237.627 250.938 237.627 250.735 236.034C250.533 235.292 250.209 234.509 250.182 234.374C249.817 232.605 249.952 233.469 247.063 224.384C246.712 223.263 246.334 223.236 245.47 224.006C241.138 227.794 236.526 231.251 231.673 234.347C230.944 234.819 229.999 234.765 229.419 235.44C225.558 239.882 218.565 245.106 215.338 250.142Z" fill="#FEF0BB"/>
<path d="M174.487 251.303C177.336 250.749 180.09 249.71 182.938 249.143C188.336 248.088 193.598 246.431 198.625 244.202C198.724 243.194 198.905 242.196 199.165 241.218C199.314 240.233 198.922 240.084 198.031 240.084C193.341 240.129 188.741 238.796 184.801 236.25C184.198 235.731 183.434 235.434 182.638 235.41C181.842 235.385 181.062 235.634 180.427 236.115C179.995 236.412 179.523 236.642 179.077 236.939C173.99 240.538 169.1 244.409 164.43 248.535C163.115 249.539 161.978 250.758 161.068 252.14C160.798 252.585 160.272 253.098 160.393 253.584C161.001 253.584 170.802 252.005 174.487 251.303Z" fill="#FEF0BB"/>
<path d="M47.3984 51.6916C48.8969 51.8536 50.3684 52.1371 51.8669 52.2181C52.2188 52.1878 52.5685 52.2967 52.8411 52.5213C53.1136 52.7459 53.2873 53.0684 53.3249 53.4196C53.7569 54.9181 54.2969 56.3626 54.7694 57.8476C55.0259 58.6576 55.3499 59.4271 56.2814 59.5081C57.2129 59.5891 57.3749 58.7386 57.6314 58.1581C58.4819 56.3626 59.3594 54.5941 60.1289 52.7581C60.2208 52.4629 60.3981 52.2015 60.6383 52.0069C60.8786 51.8123 61.171 51.6932 61.4789 51.6646C63.3689 51.3676 65.2589 50.9491 67.1489 50.5576C67.8239 50.4091 68.4989 50.1121 68.4989 49.3696C68.4989 48.6271 68.1344 48.2761 67.6079 47.9251C66.2579 46.9531 64.9079 45.9406 63.4634 44.9821C63.3394 44.9296 63.2281 44.8512 63.1369 44.7522C63.0457 44.6532 62.9767 44.5359 62.9346 44.4081C62.8924 44.2802 62.878 44.1449 62.8924 44.0111C62.9067 43.8772 62.9495 43.748 63.0179 43.6321C63.5984 42.1606 64.0169 40.6216 64.3679 39.4201C64.3679 37.9756 63.7739 37.5706 62.5319 37.9756C61.1902 38.4145 59.8741 38.9283 58.5899 39.5146C58.1924 39.7134 57.7509 39.8078 57.3069 39.7889C56.8629 39.77 56.431 39.6384 56.0519 39.4066C54.2159 38.4616 52.3124 37.6111 50.4494 36.7066C50.1764 36.5176 49.8561 36.4086 49.5246 36.3919C49.193 36.3752 48.8634 36.4515 48.5729 36.6121C47.9114 37.1116 48.2624 37.8136 48.4919 38.4346C49.1264 40.1896 49.8419 41.9581 50.4494 43.7131C50.5523 43.8656 50.6229 44.0376 50.6569 44.2185C50.691 44.3994 50.6876 44.5853 50.6472 44.7648C50.6067 44.9443 50.53 45.1137 50.4217 45.2625C50.3134 45.4113 50.1758 45.5364 50.0174 45.6301C48.7432 46.7465 47.5266 47.927 46.3724 49.1671C45.9809 49.5586 45.5354 49.9501 45.8459 50.6386C45.9667 50.9512 46.1801 51.2195 46.4575 51.4077C46.735 51.5958 47.0632 51.6949 47.3984 51.6916Z" fill="#FEF0BB"/>
<path d="M24.2999 39.7575C25.6925 39.7854 27.0764 39.5305 28.3677 39.0083C29.659 38.4861 30.831 37.7074 31.8128 36.7193C32.7946 35.7312 33.5658 34.5542 34.0797 33.2596C34.5937 31.9649 34.8397 30.5795 34.8029 29.187C34.9514 24.0435 29.9834 18.9 23.8949 18.792C18.0224 18.6975 13.0949 24.516 13.3514 29.592C13.4001 30.9793 13.7222 32.3432 14.2994 33.6057C14.8765 34.8681 15.6972 36.0041 16.7144 36.9486C17.7316 37.8931 18.9254 38.6274 20.2271 39.1094C21.5288 39.5915 22.9129 39.8117 24.2999 39.7575ZM18.0224 23.5575C19.6507 22.2954 21.6524 21.6104 23.7126 21.6104C25.7728 21.6104 27.7746 22.2954 29.4029 23.5575C30.7264 24.5665 31.6927 25.9723 32.1605 27.5695C32.6283 29.1666 32.5732 30.8716 32.0033 32.4352C31.4333 33.9989 30.3783 35.3393 28.9924 36.2608C27.6065 37.1822 25.9623 37.6364 24.2999 37.557C23.1523 37.5898 22.0099 37.3906 20.9412 36.9714C19.8724 36.5522 18.8992 35.9217 18.0799 35.1175C17.2606 34.3133 16.612 33.352 16.173 32.2913C15.7339 31.2305 15.5135 30.092 15.5249 28.944C15.5141 27.9187 15.737 26.9044 16.1768 25.9781C16.6165 25.0518 17.2616 24.2378 18.0629 23.598L18.0224 23.5575Z" fill="#FEF0BB"/>
<path d="M19.7908 32.5216C20.2633 32.2111 20.0608 31.8061 19.8718 31.4011C19.6828 30.9961 19.5883 30.6046 19.4263 30.2131C19.3127 29.9259 19.2829 29.6124 19.3402 29.3089C19.3976 29.0055 19.5398 28.7245 19.7503 28.4986C20.2228 27.9451 20.7898 28.4986 21.2893 28.6876C21.4243 28.6876 22.4233 29.4166 22.8283 28.8091C23.0443 28.4581 22.8283 28.1881 22.5448 27.9451C21.1948 26.3521 18.8728 26.1766 17.9683 28.0531C17.6761 28.7532 17.6088 29.5269 17.7756 30.267C17.9425 31.0072 18.3354 31.6771 18.8998 32.1841C19.1158 32.4001 19.3588 32.8051 19.7908 32.5216Z" fill="#FEF0BB"/>
<path d="M27.4589 29.7001C27.3644 31.0501 27.2699 32.1436 25.4069 31.9006C25.0829 31.9006 24.7724 31.7386 24.4484 31.6846C23.6114 31.5496 23.2064 32.4811 24.0704 32.8726C24.6252 33.1814 25.2435 33.3589 25.8777 33.3917C26.5118 33.4245 27.1451 33.3115 27.7289 33.0616C28.2322 32.832 28.6462 32.4434 28.9072 31.9556C29.1682 31.4678 29.2617 30.9077 29.1734 30.3616C29.1734 29.2816 29.2544 28.2421 28.2014 28.2961C27.1484 28.3501 27.4994 29.0386 27.4589 29.7001Z" fill="#FEF0BB"/>
<path d="M24.3 27.2161C25.0695 26.9866 24.219 26.2981 24.192 25.8661C24.165 25.4341 24.03 25.0021 24.4215 24.7051C25.164 24.1651 25.7715 24.9211 26.838 25.6906C27.432 26.1631 27.783 25.8526 27.783 25.1641C27.783 24.0976 26.271 23.0581 24.84 23.0986C23.409 23.1391 22.95 23.7196 22.95 25.2586C23.0175 26.1901 23.3955 27.4591 24.3 27.2161Z" fill="#FEF0BB"/>
<path d="M74.1287 66.447C74.1287 66.15 74.1287 65.7045 73.6427 65.7585C73.1567 65.8125 73.3187 66.177 73.3187 66.447C73.3187 67.1895 73.0757 72.792 73.1297 73.197C73.1297 73.872 72.6032 75.087 73.5347 75.1005C74.4662 75.114 74.0477 73.8585 74.1017 73.197C74.3132 70.9523 74.3222 68.6932 74.1287 66.447Z" fill="#FFC7D6"/>
<path d="M38.0026 110.241C41.7826 107.541 45.6436 105.151 50.3956 104.841C52.6769 104.887 54.8974 105.585 56.7946 106.852C57.5776 107.271 57.8476 107.136 57.9826 106.312C59.2368 99.0525 61.7593 92.0699 65.4346 85.6845C66.8656 83.079 68.4721 80.595 70.0516 78.084C70.1475 77.8868 70.2835 77.7117 70.4509 77.5699C70.6182 77.4281 70.8133 77.3227 71.0236 77.2605C71.3341 77.7195 71.0236 78.03 70.7671 78.354C64.8946 87.264 60.2371 96.0795 58.6171 106.987C58.5338 107.317 58.5672 107.665 58.7116 107.973C62.3188 106.37 66.1231 105.253 70.0246 104.652C73.0081 103.842 75.8701 103.072 79.0696 104.652C82.1881 105.502 82.4716 106.866 84.7396 106.002C87.7004 104.841 90.808 104.096 93.9736 103.788C99.2926 102.91 102.074 102.667 108.338 105.354C109.904 106.042 110.93 106.069 111.038 106.704C111.519 106.729 111.994 106.591 112.388 106.312C111.944 104.745 111.494 103.179 111.038 101.614C109.629 98.4825 107.688 95.6185 105.3 93.15C102.866 90.5872 100.219 88.2344 97.3891 86.1165C93.4337 83.5176 89.3119 81.1816 85.0501 79.1235C81.0351 77.0804 76.5196 76.2279 72.0361 76.6665C70.2586 76.8793 68.5589 77.5184 67.0816 78.5295C59.9931 82.9024 53.4726 88.1351 47.6686 94.1085C43.2297 98.6143 39.66 103.9 37.1386 109.701C36.9588 110.04 36.8926 110.428 36.9496 110.808C38.0701 110.281 37.5706 110.538 38.0026 110.241ZM79.0426 78.057C84.9323 80.9127 90.4126 84.545 95.3371 88.857C99.4659 92.5142 103.178 96.616 106.407 101.088C106.644 101.38 106.856 101.692 107.042 102.019C107.271 102.492 108 103.126 107.447 103.477C106.893 103.828 106.65 102.937 106.394 102.546C101.494 95.4264 95.3473 89.2519 88.2496 84.321C85.5496 82.4175 82.6336 80.703 79.7311 79.0695C79.0852 78.8258 78.5034 78.438 78.0301 77.9355C78.4891 77.652 78.7591 77.922 79.0426 78.057Z" fill="#FFC7D6"/>
<path d="M94.8241 168.453C98.4963 167.6 102.077 166.393 105.516 164.848C106.542 164.349 106.421 163.93 106.205 162.864C101.98 164.502 97.6502 165.855 93.2446 166.914C93.6631 167.994 93.6901 168.75 94.8241 168.453Z" fill="#FFC7D6"/>
<path d="M126.819 156.6C126.927 156.532 127.089 156.478 127.238 156.384C126.644 155.574 126.023 154.777 125.402 153.994C124.943 153.903 124.467 153.97 124.052 154.183C121.757 155.533 115.533 158.814 112.631 160.164C112.833 161.109 113.036 162.054 113.265 162.985C118.53 160.96 122.135 159.718 126.819 156.6Z" fill="#FFC7D6"/>
<path d="M83.4976 168.75C83.6215 169.432 83.5892 170.134 83.4031 170.802C85.1986 170.559 86.9401 170.248 88.6546 169.911L88.0201 168.007C83.8216 168.817 84.2806 168.561 83.4976 168.75Z" fill="#FFC7D6"/>
<path d="M195.196 237.344C199.017 223.844 204.97 208.994 207.495 200.556C206.226 200.381 206.212 200.394 205.848 201.569C205.24 203.486 204.606 205.403 204.039 207.333C201.582 215.892 198.207 224.141 195.547 232.632C195.152 234.111 194.614 235.549 193.941 236.925C193.63 237.519 194.319 238.653 195.196 237.344Z" fill="#FFC7D6"/>
<path d="M117.45 147.15C116.479 146.97 115.495 146.866 114.507 146.839C113.264 147.381 112.082 148.055 110.984 148.851C110.984 150.106 111.146 151.335 111.267 152.577C112.592 151.828 113.872 151.003 115.101 150.106C116.154 149.369 116.97 148.342 117.45 147.15Z" fill="#FFC7D6"/>
<path d="M104.787 155.817C104.625 154.764 104.504 153.711 104.436 152.644C102.708 153.522 100.967 154.359 99.1981 155.128C98.6645 155.56 98.0174 155.827 97.3351 155.898C96.3361 156.303 95.2966 156.667 94.2571 156.991C94.6486 157.882 95.0671 158.719 95.4856 159.556C98.6649 158.516 101.772 157.267 104.787 155.817Z" fill="#FFC7D6"/>
<path d="M75.4785 39.636C76.302 40.041 76.8285 39.636 76.68 38.5965C76.5513 37.9112 76.524 37.2107 76.599 36.5175C77.409 31.1175 80.0415 28.1205 78.4755 24.192C78.3563 23.7593 78.1369 23.3608 77.8353 23.0286C77.5336 22.6963 77.158 22.4397 76.7388 22.2794C76.3196 22.1191 75.8686 22.0596 75.4222 22.1057C74.9759 22.1519 74.5466 22.3023 74.169 22.545C72.2385 23.5845 71.685 25.4745 71.226 27.6075C70.8615 27.2835 70.6725 27.081 70.4565 26.9055C69.174 25.9065 68.094 24.597 66.2985 24.381C63.018 23.9895 62.7075 27.6615 64.4895 30.429C67.2228 34.4622 71.029 37.6512 75.4785 39.636ZM65.124 25.866C65.7585 25.3125 66.474 25.6635 67.122 25.9605C68.6263 26.8464 69.9241 28.043 70.929 29.4705C71.334 29.9565 71.712 30.699 72.495 30.375C73.278 30.051 72.873 29.3355 72.819 28.755C72.6827 27.9521 72.7415 27.1281 72.9906 26.3528C73.2396 25.5774 73.6716 24.8733 74.25 24.3C75.492 23.1795 76.734 23.517 77.2605 25.1235C78.354 28.4985 74.9925 32.6835 74.979 38.1915C70.767 35.3835 66.609 32.8995 64.7865 27.999C64.5946 27.6573 64.5235 27.2609 64.5848 26.8738C64.646 26.4868 64.836 26.1317 65.124 25.866Z" fill="#FFC7D6"/>
<path d="M40.2436 16.8615C41.9858 18.1349 43.8875 19.1742 45.9001 19.953C47.5606 20.682 49.5181 20.682 50.9086 22.032C51.2191 22.329 51.5566 22.6935 52.0021 22.3695C52.4476 22.0455 52.3396 21.1275 52.1371 20.871C49.5316 17.5635 49.7881 12.771 47.8036 9.23398C47.6836 8.91934 47.4764 8.64548 47.2061 8.4446C46.9359 8.24372 46.6139 8.12416 46.2781 8.09998C45.5761 8.09998 45.1711 8.63998 44.8336 9.27448C44.2201 10.6357 44.0092 12.1442 44.2261 13.6215C43.1458 12.9996 41.9945 12.5101 40.7971 12.1635C40.4392 12.0442 40.0535 12.0371 39.6915 12.1433C39.3296 12.2495 39.0088 12.4638 38.7721 12.7575C38.4935 13.0259 38.3231 13.3872 38.2933 13.7729C38.2634 14.1586 38.3762 14.5419 38.6101 14.85C39.012 15.6246 39.5679 16.3091 40.2436 16.8615ZM40.0546 13.662C40.4461 13.1625 41.0536 13.662 41.4046 13.851C42.4711 14.3235 43.4836 14.9445 44.5096 15.5115C44.9011 15.7275 45.2656 16.2 45.7651 15.8085C46.2646 15.417 46.1566 14.877 45.9676 14.3775C45.4021 13.0678 45.3778 11.5875 45.9001 10.26C46.2106 9.58498 46.3591 9.26098 47.0206 10.7055C47.2636 11.2185 47.0206 10.5975 49.3831 18.8055C49.4911 19.197 49.7881 19.818 48.9511 19.521C45.9676 18.4545 42.8491 17.55 40.5001 15.1065C40.1896 14.688 39.6091 14.229 40.0546 13.662Z" fill="#FFC7D6"/>
<path d="M140.049 163.782C139.314 163.116 138.492 162.552 137.605 162.108C137.497 163.957 134.406 172.273 133.744 174.001C133.606 174.306 133.541 174.639 133.555 174.973C134.544 175.021 135.523 175.189 136.471 175.473C138.392 171.837 139.606 167.87 140.049 163.782Z" fill="#FFC7D6"/>
<path d="M193.671 73.062C193.292 72.7311 192.821 72.5239 192.321 72.468C191.465 72.521 190.66 72.8902 190.061 73.5039C189.462 74.1177 189.113 74.9321 189.081 75.789C190.013 75.7534 190.921 75.4853 191.723 75.009C192.524 74.5327 193.194 73.8633 193.671 73.062Z" fill="#FFC7D6"/>
<path d="M189 76.95C189.085 77.7682 189.465 78.5276 190.068 79.0866C190.672 79.6455 191.458 79.9657 192.281 79.9875C193.11 79.9531 193.902 79.6311 194.52 79.077C195.138 78.5228 195.544 77.7709 195.669 76.95C195.64 75.8815 195.261 74.8521 194.589 74.0205C193.967 74.9272 193.132 75.668 192.158 76.1786C191.184 76.6891 190.1 76.954 189 76.95Z" fill="#FFC7D6"/>
<path d="M132.3 163.741C132.686 162.862 133.02 161.96 133.299 161.041C132.716 160.889 132.151 160.676 131.612 160.407C131.464 160.555 131.345 160.729 131.261 160.92C129.492 164.673 125.01 170.37 124.632 172.111L126.212 173.461C126.387 173.34 126.549 173.164 126.738 173.002C129.384 170.437 130.68 167.008 132.3 163.741Z" fill="#FFC7D6"/>
<path d="M172.517 81.594C172.789 82.0872 173.177 82.5071 173.647 82.8175C174.117 83.1278 174.656 83.3195 175.217 83.376C178.025 83.376 179.267 79.056 176.958 77.301C176.929 77.5012 176.889 77.6995 176.837 77.895C176.04 80.5545 175.244 81.3375 172.517 81.594Z" fill="#FFC7D6"/>
<path d="M172.071 80.541C172.721 80.7137 173.412 80.6378 174.008 80.3282C174.605 80.0186 175.065 79.4976 175.298 78.867C175.596 78.199 175.787 77.4883 175.865 76.761C175.34 76.615 174.786 76.6107 174.26 76.7486C173.733 76.8865 173.252 77.1616 172.867 77.5459C172.481 77.9302 172.204 78.4098 172.065 78.936C171.925 79.4622 171.927 80.016 172.071 80.541Z" fill="#FFC7D6"/>
<path d="M81.2565 183.6C81.378 183.802 81.459 184.059 81.6885 184.113C82.2285 183.519 82.7685 182.925 83.295 182.317C83.4004 182.094 83.4469 181.848 83.43 181.602C82.8588 179.601 81.9453 177.715 80.73 176.026C79.6632 176.599 78.5015 176.974 77.301 177.133C78.786 179.158 79.9335 181.426 81.2565 183.6Z" fill="#FFC7D6"/>
<path d="M90.936 139.158C90.9302 139.546 91.0036 139.931 91.1518 140.289C91.3 140.648 91.5199 140.972 91.798 141.243C92.0761 141.513 92.4065 141.724 92.769 141.863C93.1315 142.001 93.5184 142.064 93.906 142.047C94.6015 142.048 95.2705 141.78 95.7735 141.3C96.2765 140.819 96.5747 140.163 96.606 139.468C96.5956 138.647 96.2655 137.862 95.6859 137.28C95.1062 136.697 94.3225 136.364 93.501 136.35C93.1439 136.352 92.7912 136.429 92.465 136.574C92.1388 136.719 91.8461 136.93 91.6052 137.194C91.3644 137.457 91.1806 137.768 91.0655 138.106C90.9503 138.444 90.9063 138.802 90.936 139.158Z" fill="#FFC7D6"/>
<path d="M106.718 135.715C106.895 136.21 107.213 136.642 107.633 136.959C108.053 137.276 108.556 137.463 109.08 137.497C109.721 137.462 110.325 137.185 110.77 136.722C111.214 136.26 111.467 135.646 111.478 135.004C111.488 134.362 111.255 133.74 110.825 133.264C110.395 132.787 109.8 132.491 109.161 132.435C108.64 132.451 108.134 132.617 107.705 132.914C107.276 133.211 106.943 133.626 106.745 134.109C106.934 134.335 107.035 134.622 107.03 134.917C107.025 135.212 106.914 135.496 106.718 135.715Z" fill="#FFC7D6"/>
<path d="M141.305 239.8C142.101 239.382 142.344 238.896 141.602 238.18C141.122 237.802 140.571 237.523 139.983 237.358C139.394 237.194 138.779 237.148 138.173 237.222C137.45 237.185 136.726 237.257 136.026 237.438C135.639 238.227 135.098 238.929 134.433 239.503C134.691 239.681 134.998 239.771 135.311 239.76C140.481 239.787 140.238 240.3 141.305 239.8Z" fill="#FFC7D6"/>
<path d="M140.4 235.21C141.115 235.21 142.195 235.291 142.249 234.441C142.303 233.59 141.277 233.185 140.413 233.091C139.965 233.044 139.514 233.022 139.063 233.023C138.387 232.987 137.717 233.177 137.16 233.563C136.973 234.528 136.725 235.479 136.417 236.412C137.214 236.398 138.523 235.116 140.4 235.21Z" fill="#FFC7D6"/>
<path d="M84.6721 162.54C83.7619 161.997 82.7035 161.756 81.6481 161.851C80.8246 161.851 79.6636 161.689 79.2586 162.405C79.1101 162.675 78.9751 162.958 78.8401 163.255C78.9751 163.228 77.5981 163.485 84.6721 162.54Z" fill="#FFC7D6"/>
<path d="M75.0872 169.222C74.9691 169.464 74.9077 169.73 74.9077 169.999C74.9077 170.268 74.9691 170.533 75.0872 170.775C75.1263 170.996 75.0932 171.223 74.9927 171.423C75.496 171.459 76.0013 171.459 76.5047 171.423C77.3483 171.424 78.1897 171.338 79.0157 171.166H79.2587C79.5127 170.807 79.7001 170.404 79.8122 169.978C79.9067 169.614 80.1632 169.195 79.6772 168.993C79.4612 168.993 79.2047 168.993 79.0292 169.074C77.6252 169.047 76.3562 169.168 75.0872 169.222Z" fill="#FFC7D6"/>
<path d="M92.6101 244.417C95.4046 246.699 95.9176 247.482 96.5386 246.996C97.8886 245.956 96.1336 243.985 94.7026 243.108C93.9196 243.445 93.1501 243.81 92.3806 244.188L92.6101 244.417Z" fill="#FFC7D6"/>
<path d="M94.0411 248.562C94.0411 247.401 92.3536 245.606 90.9091 244.958L89.6401 245.673C90.6796 246.861 91.7731 247.995 92.8666 249.143C93.2581 249.548 94.0006 249.615 94.0411 248.562Z" fill="#FFC7D6"/>
<path d="M79.947 159.3C78.597 156.424 78.3135 153.265 77.5035 150.255C77.2125 149.28 76.9826 148.288 76.815 147.285C76.518 145.03 77.112 146.137 77.3685 147.136C78.219 150.633 79.11 154.129 79.9875 157.639C80.487 159.705 81.3374 161.284 83.8754 161.298C84.8879 161.298 84.969 161.298 84.7665 160.339C83.8215 155.979 81.6749 145.719 83.2274 141.574C83.6594 142.56 83.2274 143.518 83.2949 144.49C83.4413 148.515 83.8925 152.522 84.645 156.478C84.8439 158.394 85.2699 160.279 85.9139 162.094C86.5485 163.444 86.7375 162.945 89.667 162.999C90.666 162.999 91.0169 162.796 90.5174 161.649C89.1223 158.709 88.0365 155.633 87.2775 152.469C87.1298 152.068 87.0691 151.641 87.0994 151.215C87.1296 150.789 87.2502 150.374 87.453 149.998C88.2648 154.142 89.5748 158.171 91.3545 162C91.7055 162.796 92.0835 163.147 92.9475 162.823C93.8115 162.499 95.85 162.702 94.9455 160.974C90.0855 151.699 87.345 140.724 87.1695 135.067C87.1695 134.73 87.048 134.19 87.5475 134.149C88.047 134.109 87.993 134.554 87.993 134.878V135.148C88.6319 134.915 89.2157 134.552 89.7075 134.082C89.5725 134.19 89.451 134.311 89.289 134.419C91.3005 130.761 91.3949 126.657 91.9889 122.647C92.7584 123.282 92.853 124.335 92.259 126.927C92.0208 128.673 91.6278 130.394 91.0845 132.07C91.4278 131.866 91.8089 131.733 92.205 131.679C92.34 130.923 92.5289 130.977 92.9609 130.909C96.738 130.119 100.431 128.971 103.99 127.48C105.003 127.102 105.651 125.874 106.893 125.995C107.085 125.897 107.298 125.846 107.514 125.847C107.509 125.647 107.482 125.447 107.433 125.253C106.839 122.202 106.164 119.556 102.897 117.733C98.4689 115.135 93.2226 114.306 88.209 115.411C84.1891 116.099 80.4583 117.948 77.4765 120.73C75.5268 122.41 74.2552 124.743 73.899 127.291C73.494 133.029 73.5345 138.807 73.413 144.558C73.413 145.125 73.305 145.192 73.6155 145.651C74.4569 146.704 75.0022 147.963 75.195 149.296C75.9171 152.549 76.9805 155.717 78.3675 158.746C79.8525 161.716 80.2575 159.975 79.947 159.3Z" fill="#A6EEF8"/>
<path d="M165.578 59.6969C164.654 61.2099 164.048 62.8947 163.795 64.649C163.542 66.4033 163.648 68.1907 164.106 69.9029C164.309 70.7534 164.457 71.9144 165.456 71.6714C165.362 70.7399 164.349 67.4459 165.456 67.3244C166.199 67.3244 165.902 70.3484 166.55 71.2259C167.144 71.2259 171.95 69.8759 177.35 69.3089C175.138 65.6903 173.597 61.7025 172.8 57.5369C172.8 57.2264 172.463 56.8349 172.908 56.6999C173.354 56.5649 173.381 57.0914 173.489 57.4289C174.555 60.9254 176.351 66.2579 178.619 69.1604C180.468 68.9039 181.562 68.3504 183.789 68.1479C185.173 67.8526 186.587 67.7257 188.001 67.7699C187.083 66.9059 187.691 67.3514 182.601 61.3979C180.684 59.1434 182.25 59.7644 182.912 60.4799C184.788 62.5319 186.692 64.5299 188.501 66.6764C188.766 67.0605 189.141 67.3552 189.578 67.5215C190.014 67.6878 190.49 67.7179 190.944 67.6079C191.839 67.4939 192.743 67.4578 193.644 67.4999C194.751 67.2029 194.765 67.0139 193.82 66.0419C190.527 62.613 186.758 59.6759 182.628 57.3209C180.306 55.9709 176.351 54.3914 173.178 52.3799C171.828 51.5159 171.261 51.3134 170.478 51.8129C169.261 52.9305 168.102 54.1111 167.009 55.3499C166.367 56.4411 165.808 57.5782 165.335 58.7519C165.427 58.7825 165.51 58.8358 165.576 58.9067C165.642 58.9777 165.689 59.0642 165.714 59.1582C165.738 59.2522 165.738 59.3508 165.714 59.4449C165.69 59.539 165.643 59.6256 165.578 59.6969Z" fill="#A6EEF8"/>
<path d="M20.412 66.1499C23.112 67.3514 20.5065 68.0804 25.7175 76.9499C26.2845 77.9219 26.0415 77.4224 30.375 73.8989C31.0905 73.3184 31.2255 72.8189 30.5775 72.0629C29.3694 70.6548 28.6704 68.8811 28.593 67.0274C28.6253 66.7579 28.5755 66.4849 28.4503 66.2441C28.3251 66.0033 28.1302 65.8058 27.891 65.6774C27.0914 65.2662 26.4072 64.662 25.9003 63.9193C25.3935 63.1767 25.08 62.3193 24.9885 61.4249C24.7936 60.395 24.2206 59.4752 23.382 58.8464C22.8857 58.3347 22.2479 57.983 21.5504 57.8363C20.8528 57.6895 20.1274 57.7545 19.467 58.0229C18.8171 58.3499 18.2673 58.8459 17.8753 59.4588C17.4834 60.0717 17.2637 60.7788 17.2395 61.5059C17.2907 62.4967 17.6138 63.4543 18.1734 64.2735C18.7331 65.0928 19.5076 65.742 20.412 66.1499Z" fill="#A6EEF8"/>
<path d="M29.7811 56.5514C30.4718 56.5515 31.1378 56.8087 31.6494 57.2728C32.161 57.737 32.4815 58.3749 32.5486 59.0624C32.6566 59.5079 32.7646 59.9669 32.8591 60.4124C32.9941 61.1279 33.1561 61.5059 34.1146 61.3709C35.0955 61.1938 36.1047 61.2559 37.0566 61.552C38.0084 61.8481 38.8747 62.3695 39.5821 63.0719C40.1221 63.6389 40.4596 63.4904 40.9321 63.0719C41.7636 62.11 42.701 61.2451 43.7266 60.4934C45.1441 59.6024 45.0766 58.6169 43.6186 57.7934C41.6347 56.4282 39.2766 55.7114 36.8686 55.7414C36.7165 55.7783 36.5577 55.7773 36.406 55.7386C36.2544 55.6999 36.1145 55.6246 35.9987 55.5194C35.8828 55.4142 35.7945 55.2823 35.7414 55.135C35.6883 54.9878 35.672 54.8299 35.6941 54.6749C35.6385 53.5295 35.4389 52.3955 35.1001 51.2999C34.0201 46.8179 26.2711 48.8024 27.3376 53.2574C27.6346 54.6884 28.3501 56.3894 29.7811 56.5514Z" fill="#A6EEF8"/>
<path d="M28.3501 64.9484C28.9441 65.2184 29.4706 65.4749 29.4436 66.2984C29.5231 68.238 30.283 70.0877 31.5901 71.523C32.1571 72.3195 32.6026 72.0765 32.9401 71.523C33.5701 70.6479 34.3251 69.8701 35.1811 69.2144C38.9206 65.6099 40.1221 65.1644 37.9621 63.8144C34.8706 61.8569 33.3856 63.5174 32.2651 61.3574C31.927 60.6422 31.4402 60.0073 30.8373 59.4952C30.2343 58.983 29.5291 58.6054 28.7686 58.3874C28.1292 58.341 27.4917 58.5008 26.9499 58.8435C26.408 59.1861 25.9903 59.6934 25.7581 60.2909C25.639 61.242 25.8261 62.2062 26.2922 63.0437C26.7583 63.8812 27.4791 64.5484 28.3501 64.9484Z" fill="#A6EEF8"/>
<path d="M114.601 145.179C114.129 143.653 113.602 142.141 113.022 140.359C112.189 141.936 111.179 143.412 110.011 144.76C111.279 145.351 112.663 145.647 114.061 145.624C114.318 145.665 114.75 145.8 114.601 145.179Z" fill="#A6EEF8"/>
<path d="M159.556 175.244C155.425 176.408 151.09 176.657 146.853 175.973C146.423 175.892 146 175.783 145.584 175.649C143.329 175.028 143.68 176.162 145.03 176.54C150.378 177.952 156.028 177.702 161.23 175.824C161.743 175.635 162.378 175.271 162.067 174.731C161.487 173.691 162.297 173.381 162.81 172.989C164.308 171.639 164.322 170.64 162.688 169.466C162.575 169.412 162.475 169.334 162.396 169.238C162.316 169.141 162.259 169.028 162.228 168.907C162.197 168.786 162.193 168.659 162.217 168.537C162.24 168.414 162.291 168.298 162.364 168.197C163.279 165.993 164.068 163.739 164.727 161.447C165.51 158.855 165.496 158.841 167.562 160.61C168.115 161.082 168.912 161.366 168.912 162.284C169.114 165.375 169.425 168.467 169.546 171.558C170.248 189.837 169.776 190.04 170.626 191.079C171.166 190.809 170.91 191.079 170.788 182.979C170.763 176.738 170.425 170.502 169.776 164.295C169.573 161.744 170.086 161.244 169.249 160.448C165.199 156.56 160.312 151.713 155.844 148.055C155.088 147.461 155.169 147.123 155.844 146.529C156.892 145.563 157.685 144.352 158.152 143.006C160.42 135.432 164.632 126.698 173.92 98.145C174.973 94.8645 171.814 95.202 169.87 91.989C170.572 91.827 171.22 92.8935 171.544 92.2725C171.868 91.6515 170.842 91.2465 170.316 90.9225C169.04 90.1187 167.809 89.2443 166.63 88.3035C162.893 84.6895 159.688 80.5622 157.113 76.0455C156.673 75.3205 156.479 74.4731 156.559 73.629C156.617 71.3134 156.984 69.0158 157.653 66.798C157.95 65.9475 158.652 61.0065 160.677 58.023C164.929 51.7725 171.747 43.74 178.227 40.3785C182.277 38.232 185.368 37.9755 191.322 39.1095C200.583 40.8915 205.659 44.5095 212.611 47.709C214.656 48.6054 216.625 49.6664 218.497 50.8815C218.555 50.9186 218.624 50.9346 218.692 50.9266C218.76 50.9187 218.824 50.8875 218.871 50.8382C218.919 50.7889 218.948 50.7245 218.954 50.6562C218.96 50.5878 218.941 50.5195 218.902 50.463C217.728 48.762 214.555 47.4525 212.76 46.602C190.363 35.9235 179.82 31.4955 163.93 51.8535C161.338 55.161 159.246 57.4695 158.449 60.534C157.342 64.8135 155.952 69.0255 155.749 73.494C155.641 75.627 156.411 77.0985 163.053 85.8195C164.7 88.0605 167.4 89.3835 169.02 91.8C170.37 93.96 169.101 93.15 172.327 95.7015C172.641 95.909 172.864 96.229 172.95 96.5956C173.035 96.9622 172.977 97.3476 172.786 97.6725C171.979 99.5036 171.315 101.395 170.802 103.329C167.778 113.144 159.61 135.23 158.233 139.671C157.491 142.034 156.883 144.45 154.804 146.124C153.751 147.15 153.238 147.312 154.804 148.649C157.882 151.173 160.663 154.049 163.579 156.681C164.538 157.559 165.429 158.355 164.214 159.678C163.088 163.415 161.703 167.069 160.069 170.613C159.88 171.018 159.799 171.518 159.205 171.72C158.575 169.147 158.881 166.433 160.069 164.066C160.258 163.647 160.434 163.188 159.894 162.999C159.354 162.81 159.3 163.31 159.165 163.674C158.663 164.839 158.279 166.051 158.017 167.292C158.017 167.711 157.909 168.44 157.207 167.994C156.016 167.472 154.794 167.021 153.549 166.644C154.791 165.078 155.979 163.62 157.126 162.122C158.274 160.623 159.381 162.216 161.325 160.461C161.404 160.39 161.458 160.294 161.477 160.189C161.497 160.084 161.481 159.976 161.433 159.881C161.383 159.785 161.303 159.709 161.205 159.663C161.108 159.616 160.999 159.603 160.893 159.624C159.722 159.882 158.568 160.211 157.437 160.61C155.142 161.433 154.21 164.133 152.293 165.902C153.106 162.396 154.592 159.081 156.667 156.141C156.883 155.831 157.437 155.466 156.991 155.075C156.546 154.683 156.289 155.291 155.979 155.534C155.731 155.752 155.513 156.001 155.331 156.276C150.633 162.837 152.145 165.254 149.931 165.173C148.807 165.103 147.679 165.226 146.596 165.537C145.815 165.766 144.984 165.761 144.206 165.521C143.428 165.281 142.738 164.817 142.222 164.187C141.029 163.034 139.627 162.117 138.091 161.487C136.518 160.913 134.874 160.555 133.204 160.421C129.775 159.611 129.721 157.721 124.969 151.484C122.809 148.703 120.582 145.949 116.572 145.922C115.816 145.922 115.992 145.733 114.183 140.9C112.954 137.714 115.047 133.34 111.01 131.45C110.511 131.207 110.403 130.748 110.254 130.316C109.305 127.709 108.507 125.049 107.865 122.351C107.542 120.788 106.728 119.369 105.543 118.301C105.178 117.95 104.692 118.031 104.301 117.828C103.518 117.41 103.261 115.506 98.0504 114.507C91.3004 113.157 85.1984 115.29 79.2719 118.206C77.7194 118.8 76.9499 120.15 74.1689 123.849C74.1689 119.381 74.6009 109.458 74.7089 106.88C74.7089 106.286 74.1689 105.53 74.7089 105.179C75.01 105.042 75.3368 104.971 75.6674 104.971C75.998 104.971 76.3248 105.042 76.6259 105.179C81.1079 106.38 81.4454 108.851 84.3749 107.69C88.5615 106.075 92.941 105.013 97.4024 104.531C100.607 104.129 103.859 104.673 106.758 106.097C107.821 106.608 108.946 106.975 110.106 107.19C110.659 107.285 110.997 107.123 110.997 106.556C110.997 105.989 109.984 105.935 108.297 105.206C105.029 103.573 101.384 102.846 97.7399 103.1C93.1797 103.546 88.6965 104.58 84.4019 106.178C81.8369 107.163 81.2699 105.557 79.0019 104.504C75.8834 103.032 73.0754 103.707 69.9569 104.571C60.4799 107.204 59.3999 108.986 58.7519 108C58.6002 107.699 58.5665 107.352 58.6574 107.028C60.2774 96.147 64.8944 87.345 70.8074 78.381C71.0234 78.0705 71.3744 77.76 71.0504 77.2875C70.8403 77.3542 70.6458 77.4628 70.4788 77.6066C70.3117 77.7505 70.1755 77.9266 70.0784 78.1245C68.5124 80.6355 66.9059 83.1195 65.4749 85.725C56.1194 102.735 59.3999 108.23 56.8349 106.839C54.9377 105.571 52.7172 104.873 50.4359 104.828C45.6839 105.152 41.7554 107.528 38.0429 110.228C37.6109 110.565 37.3544 110.876 37.7324 111.281C37.8033 111.361 37.8906 111.425 37.9883 111.47C38.0861 111.514 38.1921 111.536 38.2994 111.536C38.4066 111.536 38.5127 111.514 38.6104 111.47C38.7082 111.425 38.7954 111.361 38.8664 111.281C40.5224 109.756 42.4504 108.556 44.5499 107.744C48.3704 106.016 51.7724 105.206 55.7144 107.649C56.3894 108.068 57.1454 108.392 57.7934 108.851C58.3126 109.222 58.9289 109.434 59.5667 109.46C60.2046 109.487 60.8363 109.326 61.3844 108.999C64.0503 107.792 66.8202 106.83 69.6599 106.124C70.8344 105.813 71.1584 105.935 71.1719 107.244C71.1719 117.248 70.7129 127.251 70.5914 137.268C70.5239 142.601 70.5104 147.933 70.3619 153.266C70.3619 154.832 70.6319 156.762 68.3234 157.316C68.1344 157.316 67.8374 157.613 67.8374 157.761C67.8374 159.557 66.9734 161.231 67.0949 163.053C67.2164 164.876 67.7564 165.375 69.4574 165.753C72.5894 166.361 74.5739 165.078 74.6279 166.374C74.6279 167.076 74.6279 167.94 73.6694 168.21C72.6286 168.442 71.5424 168.361 70.5478 167.976C69.5532 167.592 68.6946 166.922 68.0804 166.05C67.9319 165.821 67.8104 165.51 67.4594 165.645C67.4033 165.668 67.3532 165.704 67.3128 165.749C67.2723 165.794 67.2426 165.848 67.2257 165.907C67.2089 165.965 67.2053 166.026 67.2154 166.086C67.2255 166.146 67.2489 166.203 67.2839 166.253C68.7824 168.359 67.2839 170.829 69.4844 171.653C69.7886 171.773 70.0585 171.967 70.2704 172.216C70.4823 172.466 70.6296 172.764 70.6994 173.084C71.9144 176.513 73.6154 177.728 77.0984 177.134C79.7039 176.81 82.0124 175.865 82.7279 173.367C83.7674 169.79 84.6584 167.427 80.8514 167.657C80.628 167.704 80.4106 167.777 80.2034 167.873C79.6364 168.021 77.6249 166.914 77.7464 166.523C79.4474 161.123 79.3124 162.108 81.6749 161.892C82.73 161.8 83.7874 162.041 84.6989 162.581C86.7374 163.782 87.1829 165.551 88.0469 167.981C90.2204 174.326 91.9889 180.468 94.7969 186.219C96.3494 189.378 97.3889 192.794 99.4274 195.737C100.238 196.762 100.906 197.893 101.412 199.098C102.478 202.271 103.585 205.416 104.895 208.548C105.394 209.736 105.705 211.491 107.784 211.14C109.35 210.897 106.204 212.747 98.8874 238.856C98.6444 239.747 99.0494 241.488 97.0379 240.867C91.3949 243 82.8494 246.672 82.0664 252.72C82.0253 252.9 82.0217 253.087 82.0559 253.269C82.0901 253.451 82.1613 253.624 82.2651 253.777C82.3689 253.93 82.5031 254.061 82.6594 254.16C82.8156 254.259 82.9906 254.325 83.1734 254.354C84.2405 254.558 85.3298 254.622 86.4134 254.543C93.2984 254.354 99.9134 252.639 106.501 250.83C106.726 250.78 106.931 250.663 107.088 250.494C107.244 250.326 107.346 250.113 107.379 249.885C108.037 247.81 108.316 245.633 108.202 243.459C107.797 240.651 108.945 238.356 109.957 235.967C111.469 232.349 115.06 223.952 117.639 218.633C118.672 219.422 119.609 220.328 120.433 221.333C124.933 225.211 130.263 228.005 136.012 229.5C136.984 229.77 137.227 230.094 136.917 231.026C136.404 232.538 135.945 234.063 135.567 235.589C134.554 239.031 132.205 238.788 129.816 241.785C128.871 242.987 128.088 244.31 128.709 245.835C129.33 247.361 130.896 247.374 132.246 247.388C137.016 247.455 141.751 246.574 146.178 244.796C146.819 244.553 147.396 244.166 147.864 243.665C148.332 243.164 148.679 242.562 148.878 241.907C150.781 236.345 149.728 230.81 148.878 225.288C148.812 224.835 148.589 224.42 148.249 224.114C147.909 223.808 147.472 223.631 147.015 223.614C146.125 223.421 145.205 223.421 144.315 223.614C143.266 223.958 142.144 224.014 141.066 223.777C139.988 223.539 138.993 223.017 138.186 222.264C127.804 214.083 126.036 212.639 125.037 210.762C127.615 210.695 127.615 210.695 128.128 208.454C129.216 205.605 130.078 202.676 130.707 199.692C131.139 197.181 131.76 194.724 132.057 192.173C132.057 188.514 131.773 187.961 130.261 183.56C129.046 180.036 130.045 181.778 126.657 175.23C127.317 175.646 128.056 175.92 128.828 176.034C129.6 176.148 130.387 176.099 131.139 175.892C134.392 175.325 139.644 177.242 140.589 177.566C142.614 178.187 143.046 178.052 143.532 175.986C143.896 174.434 144.045 172.814 144.436 171.275C144.828 169.736 143.559 167.751 144.922 166.874C145.989 166.185 147.528 166.361 150.322 166.253C150.552 166.253 150.822 166.253 150.889 166.523C151.2 167.684 152.145 167.603 153.049 167.67C154.035 167.787 154.993 168.07 155.884 168.507C156.492 168.777 157.356 169.007 157.113 169.938C156.87 170.87 156.1 170.775 155.371 170.775C154.162 170.585 152.98 170.254 151.848 169.79C151.416 169.682 150.903 169.466 150.727 169.952C149.836 172.503 147.393 174.312 148.027 174.866C148.311 175.109 148.567 174.866 148.783 174.677C151.483 172.328 150.619 170.397 152.496 171.248C154.372 172.098 156.249 172.49 158.085 171.072C158.544 173.678 158.341 172.733 154.035 172.787C153.697 172.787 153.184 172.692 153.13 173.219C153.076 173.745 153.603 173.745 153.94 173.759C155.335 173.963 156.747 174.013 158.152 173.907C158.456 173.851 158.769 173.863 159.068 173.943C159.367 174.022 159.644 174.167 159.88 174.366C160.204 174.677 160.326 175.028 159.556 175.244ZM72.1034 171.194C69.7139 170.789 69.4034 171.045 68.9039 169.412C68.7284 168.804 68.9039 168.669 69.5384 168.845C72.8864 169.763 74.0474 168.615 73.9394 170.087C73.8314 171.315 73.2644 171.167 72.1034 171.167V171.194ZM112.603 164.754C112.995 165.915 112.117 165.618 110.902 166.469C109.431 167.535 108.85 166.469 108.202 164.889C107.594 163.513 107.141 162.073 106.852 160.596C106.339 157.896 105.637 155.196 105.34 152.253C105.043 148.838 105.651 149.094 104.611 148.865C105.825 147.877 107.159 147.047 108.58 146.394C110.025 145.787 110.214 146.178 110.187 147.002C109.922 152.998 110.741 158.994 112.603 164.7V164.754ZM93.5279 155.304C94.7409 155.771 96.036 155.987 97.3349 155.939C98.2567 155.81 99.1063 155.369 99.7406 154.687C100.375 154.006 100.755 153.128 100.818 152.199C101.358 149.391 101.452 149.297 104.49 148.905C104.112 154.575 105.192 157.869 106.258 163.175C106.447 164.079 106.393 164.444 105.502 164.876C102.068 166.422 98.4915 167.634 94.8239 168.494C94.1894 168.642 93.8789 168.494 93.6629 168.062C93.1035 166.75 92.652 165.396 92.3129 164.012C99.1979 162.54 96.5789 163.35 93.5279 155.25V155.304ZM106.488 142.992C106.488 143.424 106.393 143.883 106.38 144.342C106.366 144.801 106.798 145.436 106.015 145.773C105.687 145.957 105.313 146.044 104.938 146.022C104.562 146 104.201 145.872 103.896 145.652C102.589 144.63 101.712 143.156 101.439 141.521C101.4 141.421 101.386 141.314 101.397 141.208C101.408 141.102 101.444 140.999 101.502 140.91C101.56 140.82 101.638 140.746 101.73 140.692C101.823 140.639 101.926 140.608 102.033 140.603C102.397 140.522 102.748 140.373 103.113 140.279C107.244 139.307 106.366 139.415 106.488 142.938V142.992ZM110.011 144.815C111.181 143.464 112.191 141.982 113.022 140.4C114.79 145.8 115.047 145.8 113.994 145.665C112.616 145.665 111.255 145.355 110.011 144.761V144.815ZM109.35 130.829C108.299 129.966 107.606 128.744 107.406 127.4C107.338 127.157 107.514 126.954 107.784 126.9C108.202 126.779 108.121 127.062 109.35 130.829ZM76.3694 156.789C75.3569 156.479 74.6144 156.303 73.9124 156.02C72.8324 155.601 73.2239 154.508 73.2104 153.833C73.2104 151.794 73.3859 149.783 73.4939 147.731C74.7629 150.566 75.0734 153.657 76.3694 156.789ZM69.6194 157.775C71.3734 157.265 73.2216 157.168 75.0194 157.491C75.8159 157.68 76.5314 158.139 76.5314 158.936C76.5314 159.732 75.6269 159.854 74.9384 159.962C73.814 160.184 72.6623 160.234 71.5229 160.11C70.0109 160.11 68.8229 160.313 68.6879 159.192C68.6285 158.891 68.6843 158.578 68.8442 158.315C69.0042 158.053 69.2567 157.86 69.5519 157.775H69.6194ZM74.0879 164.363C73.1699 164.552 72.2249 164.592 71.3879 164.7C70.7317 164.674 70.0779 164.607 69.4304 164.498C69.1223 164.368 68.8429 164.179 68.6081 163.941C68.3734 163.703 68.188 163.421 68.0626 163.111C67.9371 162.801 67.8741 162.469 67.8772 162.135C67.8802 161.801 67.9493 161.471 68.0804 161.163C68.2964 160.826 68.5529 160.961 68.8229 161.028C70.3968 161.295 71.9991 161.354 73.5884 161.204C74.2094 161.204 75.0329 160.745 75.0599 161.838C75.0869 162.932 75.5999 164.052 74.0204 164.363H74.0879ZM79.5959 168.939C80.1224 169.209 79.9469 169.425 79.7984 169.965C79.5269 170.875 78.957 171.666 78.1807 172.212C77.4043 172.758 76.4667 173.027 75.5189 172.976C73.1024 172.976 75.3839 171.72 75.0869 170.789C74.4524 168.872 76.0319 168.534 77.2199 167.886C77.8949 167.4 78.7184 168.548 79.5284 168.939H79.5959ZM78.2459 161.96C77.6878 163.75 76.9459 165.479 76.0319 167.117C75.7955 166.686 75.6716 166.203 75.6716 165.713C75.6716 165.222 75.7955 164.739 76.0319 164.309C76.3612 163.521 76.4089 162.643 76.1669 161.825C76.0859 161.406 75.9644 160.988 76.4639 160.704C76.6583 160.557 76.8953 160.478 77.1389 160.478C77.3825 160.478 77.6194 160.557 77.8139 160.704C78.0072 160.851 78.1437 161.06 78.2002 161.297C78.2568 161.533 78.23 161.781 78.1244 162L78.2459 161.96ZM79.5959 160.421C79.1641 159.989 78.8403 159.462 78.6509 158.882C77.2658 155.851 76.2025 152.684 75.4784 149.432C74.3714 144.815 73.6289 146.732 73.7099 144.693C73.8314 138.929 73.7774 133.151 74.1959 127.427C74.54 124.874 75.8139 122.538 77.7734 120.866C80.7502 118.076 84.4833 116.226 88.5059 115.547C93.5151 114.44 98.7574 115.27 103.18 117.869C106.461 119.691 107.136 122.337 107.73 125.388C107.919 126.482 107.73 126.171 107.19 126.131C105.948 126.009 105.3 127.238 104.287 127.616C100.69 129.08 96.9603 130.197 93.1499 130.95C92.7449 130.95 92.5154 130.95 92.3939 131.706C92.1914 133.056 92.8799 135.419 93.7439 135.851C94.6079 136.283 94.9454 135.986 95.0939 135.122C95.5259 132.354 93.8789 131.787 95.2964 131.517C98.1132 130.916 100.856 130.011 103.477 128.817C103.95 128.615 104.301 128.412 104.422 129.222C104.544 130.032 105.043 131.274 105.961 131.045C107.122 130.761 106.42 129.56 106.38 128.723C106.38 128.399 105.975 128.169 106.285 127.656C106.555 128.399 106.812 129.006 107.014 129.641C107.133 130.214 107.417 130.74 107.833 131.153C108.248 131.566 108.776 131.847 109.35 131.963C114.75 132.894 113.872 141.413 107.541 145.382V140.427C107.541 138.794 107.433 138.564 105.826 138.659C104.234 138.832 102.664 139.171 101.142 139.671C100.291 139.901 100.075 140.427 100.183 141.278C100.342 142.546 100.8 143.76 101.518 144.818C102.236 145.876 103.194 146.749 104.314 147.366C102.073 148.595 100.264 148.338 93.9464 149.148C93.5414 149.148 92.9474 149.148 92.9879 149.756C93.0284 150.363 93.5819 150.269 94.0139 150.228C95.6069 150.134 97.2134 150.107 98.7929 149.904C99.5894 149.81 99.8594 149.904 99.6974 150.728C99.1439 153.428 98.4689 155.156 95.6474 154.67C94.7333 154.541 93.8786 154.141 93.193 153.523C92.5074 152.905 92.0223 152.096 91.7999 151.2C90.1934 145.976 88.4114 140.805 88.1009 135.284C88.1009 134.838 88.1009 134.244 87.6284 134.285C87.1559 134.325 87.2234 134.865 87.2504 135.203C87.4261 138.4 87.9513 141.569 88.8164 144.653C92.8664 160.475 97.2539 162.203 94.2164 162.689C93.7998 162.749 93.389 162.844 92.9879 162.972C92.1239 163.296 91.7324 162.972 91.3949 162.149C89.6172 158.319 88.3072 154.29 87.4934 150.147C87.3023 150.515 87.1903 150.919 87.1647 151.333C87.1391 151.747 87.2005 152.161 87.3449 152.55C89.6669 161.919 92.3669 163.08 89.7479 163.026C86.8319 163.026 86.6294 163.485 85.9949 162.122C85.3498 160.307 84.9238 158.421 84.7259 156.506C83.9724 152.55 83.5211 148.542 83.3759 144.518C83.3759 143.559 83.7269 142.601 83.3084 141.602C81.7424 145.652 83.9159 156.033 84.8339 160.367C85.0499 161.325 84.9554 161.339 83.9429 161.325C81.3914 161.325 80.5679 159.732 80.0549 157.667C79.2044 154.157 78.2999 150.66 77.4359 147.164C77.4211 146.929 77.3583 146.701 77.2515 146.492C77.1446 146.283 76.996 146.098 76.8149 145.949C76.8537 147.422 77.1084 148.882 77.5709 150.282C78.3809 153.293 78.7049 156.452 80.0279 159.327C80.1221 159.517 80.1557 159.732 80.1244 159.942C80.093 160.152 79.9981 160.347 79.8524 160.502C79.6499 160.65 79.7714 160.65 79.4744 160.421H79.5959ZM90.5309 172.017C90.2474 171.261 88.3304 166.145 88.0199 165.267C87.3854 163.566 87.4664 163.755 89.9099 163.917C91.4489 163.391 91.7189 164.471 92.0834 165.861C93.7844 172.611 95.9984 173.786 94.0004 173.961C90.6119 174.353 91.5029 175.014 90.4499 172.017H90.5309ZM107.892 209.493C107.055 209.075 109.242 204.593 110.592 199.382C111.4 196.522 113.199 194.043 115.668 192.389C115.71 192.358 115.746 192.319 115.772 192.274C115.799 192.23 115.817 192.18 115.825 192.129C115.832 192.077 115.829 192.025 115.816 191.974C115.803 191.924 115.78 191.876 115.749 191.835C115.689 191.749 115.597 191.689 115.494 191.669C115.391 191.649 115.284 191.67 115.195 191.727C112.979 193.188 111.112 195.119 109.728 197.384C109.138 198.836 108.686 200.342 108.378 201.879C107.703 203.999 107.176 206.051 106.353 209.102C103.99 202.797 102.532 198.194 99.8189 194.076C96.2549 188.676 94.2299 182.385 91.8944 176.297C91.3409 174.825 92.4074 175.23 93.6494 174.947C95.5529 174.555 95.9849 173.745 95.2694 171.963C94.3649 169.695 94.3919 169.749 96.7814 169.169C99.8734 168.516 102.878 167.501 105.732 166.145C106.65 165.672 107.244 165.605 107.851 166.712C109.296 169.304 110.308 168.143 113.251 166.712C116.194 165.281 117.301 167.495 118.098 167.981C121.864 170.303 123.633 173.934 124.699 178.038C125.766 182.142 127.21 186.138 127.521 190.364C127.764 193.968 124.699 204.093 123.889 207.657C123.7 208.494 123.309 208.697 122.539 208.656C115.897 208.278 108.567 209.912 107.77 209.493H107.892ZM106.393 248.913C106.285 249.453 105.921 249.575 105.516 249.696C99.3207 251.933 92.8192 253.208 86.2379 253.476C85.3334 253.476 83.9834 254.07 83.4569 253.125C82.9304 252.18 83.7674 251.249 84.3074 250.425C86.5484 247.077 91.1384 244.701 94.8239 243.108C98.0504 241.758 97.9694 241.637 98.4014 242.069C101.331 244.971 103.018 245.147 106.407 243C106.596 242.879 106.798 242.771 107.217 242.541C107.151 244.695 106.833 246.833 106.272 248.913H106.393ZM112.455 227.232C110.389 231.714 108.405 236.237 106.623 240.867C106.148 241.534 105.531 242.089 104.817 242.49C104.103 242.891 103.309 243.13 102.492 243.189C101.43 243 100.454 242.486 99.6974 241.718C99.4004 241.461 99.5354 241.137 99.6299 240.8C102.492 230.958 105.273 221.09 109.35 211.667C109.498 211.343 109.498 210.978 110.038 210.938C113.37 210.67 116.715 210.598 120.055 210.722C120.663 210.722 120.973 210.884 120.501 211.545C116.95 216.392 114.75 221.886 112.333 227.232H112.455ZM143.505 224.924C144.733 223.979 147.73 225.113 147.919 226.638C148.108 228.164 148.486 232.511 148.486 234.738C148.566 237.146 148.205 239.548 147.42 241.826C147.285 242.252 147.062 242.644 146.764 242.977C146.466 243.31 146.1 243.575 145.692 243.756C141.516 245.47 137.056 246.386 132.543 246.456C131.463 246.456 130.153 246.456 129.694 245.309C129.235 244.161 130.086 243.149 130.882 242.339C131.622 241.558 132.457 240.873 133.366 240.3C136.498 238.545 136.971 234.981 137.74 231.093C137.756 230.841 137.861 230.603 138.037 230.422C138.213 230.241 138.448 230.13 138.699 230.108C143.262 229.068 142.857 225.342 143.383 224.924H143.505ZM138.253 223.925C140.643 225.842 142.465 224.303 141.723 226.26C141.465 226.954 141.031 227.568 140.463 228.042C139.894 228.515 139.212 228.832 138.483 228.96C131.841 226.8 124.767 224.735 118.8 218.295C118.561 218.119 118.4 217.858 118.35 217.566C118.3 217.274 118.364 216.974 118.53 216.729C119.461 214.866 120.528 213.098 121.621 211.329C121.757 211.112 121.944 210.931 122.167 210.804C122.389 210.678 122.64 210.609 122.896 210.603C123.152 210.598 123.405 210.656 123.633 210.774C123.861 210.891 124.056 211.063 124.2 211.275C127.98 216.405 133.218 220.05 138.132 223.925H138.253ZM130.626 193.928C130.14 199.557 127.656 206.078 127.224 207.576C127.205 207.75 127.15 207.917 127.062 208.068C126.975 208.219 126.857 208.351 126.716 208.453C126.575 208.556 126.414 208.629 126.243 208.666C126.073 208.703 125.896 208.704 125.725 208.67C124.753 208.589 124.281 208.67 124.591 207.32C126.697 198.018 129.235 192.861 127.399 185.72C126.411 181.26 125.056 176.889 123.349 172.652C124.51 173.124 124.699 174.137 125.05 174.839C128.466 180.684 131.125 186.881 130.504 193.928H130.626ZM142.317 176.148C142.141 177.269 142.155 176.769 135.378 175.19C133.85 174.933 132.289 174.933 130.761 175.19C128.061 175.473 127.534 174.488 124.699 172.206C122.296 170.262 119.866 168.332 117.625 166.158C116.856 165.402 116.073 164.282 114.561 164.471C113.737 164.579 113.508 163.755 113.332 163.026C112.199 158.604 111.494 154.083 111.226 149.526C111.091 146.124 110.835 146.043 113.427 146.556C114.226 146.785 115.052 146.908 115.884 146.921C117.264 146.992 118.609 147.379 119.816 148.05C121.023 148.722 122.061 149.661 122.85 150.795C124.2 152.483 126.022 154.71 127.237 156.398C128.339 158.073 129.825 159.461 131.571 160.448C134.946 162.203 136.093 160.299 140.062 163.755C144.558 167.684 143.464 168.318 142.195 176.148H142.317ZM162.027 169.911C162.326 170.12 162.602 170.359 162.85 170.627C162.965 170.781 163.019 170.973 163.002 171.164C162.984 171.356 162.897 171.535 162.756 171.666C162.189 172.233 161.595 172.746 160.987 173.273C160.38 173.799 160.137 173.151 160.258 172.949C161.797 169.587 161.568 170.1 161.905 169.911H162.027Z" fill="#471280"/>
<path d="M252.76 167.116C253.368 167.035 253.989 167.643 254.407 166.968C255.757 164.902 252.45 163.188 250.357 160.987C248.521 159.03 246.037 157.41 246.537 154.143C244.687 145.921 242.865 137.7 240.3 129.6C237.694 121.284 235.804 112.765 232.956 104.517C232.739 103.893 232.643 103.233 232.672 102.573C232.825 99.8134 231.89 97.1039 230.067 95.0265C226.558 90.7349 222.592 86.8375 218.241 83.403C214.744 80.487 214.663 78.786 212.125 75.6675C211.923 75.4752 211.802 75.2129 211.787 74.9343C211.772 74.6557 211.864 74.3819 212.044 74.169C216.094 67.932 219.402 61.9245 221.238 55.1745C221.344 54.8336 221.399 54.4786 221.4 54.1215C221.397 54.0173 221.355 53.9181 221.282 53.8432C221.21 53.7683 221.112 53.7231 221.008 53.7165C220.905 53.7047 220.801 53.7332 220.718 53.796C220.635 53.8589 220.58 53.9512 220.563 54.054C220.387 54.8621 220.153 55.6562 219.861 56.43C217.323 64.098 212.787 70.3755 209.061 76.68C208.912 76.95 208.602 77.274 208.966 77.5575C209.331 77.841 209.668 77.5575 209.925 77.2605C210.056 77.1368 210.169 76.996 210.262 76.842C210.87 75.708 211.275 76.086 211.896 76.9365C213.151 78.894 215.365 82.3365 215.365 84.9015C215.365 85.2525 215.433 85.725 216.013 85.617C216.594 85.509 216.607 84.969 216.621 84.483C216.634 83.997 216.216 83.7135 216.621 83.295C220.217 86.1855 223.559 89.3787 226.611 92.8395C229.932 96.7005 231.309 98.388 231.376 100.939C231.484 105.61 232.213 105.165 233.401 109.39C239.098 129.64 241.96 139.239 244.201 150.214C244.342 150.581 244.35 150.986 244.224 151.358C244.098 151.73 243.847 152.046 243.513 152.253C241.339 153.778 239.247 155.385 237.073 156.897C234.028 158.956 231.119 161.211 228.366 163.647C227.961 164.025 227.124 164.47 227.65 165.091C228.177 165.712 228.447 165.091 229.851 164.011C232.24 162.148 231.444 162.661 231.727 162.499C233.442 161.149 232.024 164.686 236.007 171.706C236.654 172.909 237.188 174.17 237.6 175.473C237.781 175.874 237.803 176.33 237.66 176.746C237.517 177.163 237.22 177.509 236.83 177.714C235.15 178.77 233.54 179.933 232.011 181.197C226.354 186.718 216.283 193.644 210.546 198.058C207.603 200.34 201.744 198.207 196.195 198.058C181.845 197.667 175.621 192.996 171.261 192.847C170.856 192.847 170.302 192.537 170.154 193.063C170.005 193.59 170.68 193.752 171.085 193.873C171.747 194.089 172.435 194.143 173.124 194.359C177.633 196.149 182.303 197.505 187.069 198.409C188.149 198.571 188.014 199.273 187.866 199.962C185.733 210.208 183.303 217.849 181.885 230.728C181.183 237.019 176.958 234.022 160.825 249.979C160.34 250.459 159.93 251.01 159.61 251.613C158.665 253.395 158.26 254.947 160.258 255.015C166.752 255.285 170.572 253.57 175.392 252.517C182.601 250.938 189.958 250.033 196.992 247.468C199.894 246.402 199.962 246.577 200.205 243.418C200.306 242.765 200.306 242.101 200.205 241.447C199.854 240.205 200.205 239.652 201.555 239.625C201.935 239.631 202.303 239.497 202.59 239.248C202.876 238.998 203.061 238.652 203.107 238.275C206.644 224.181 207.832 220.968 212.26 207.576C224.842 226.665 221.521 222.844 228.46 233.982C229.122 235.048 228.312 234.954 222.061 240.934C219.3 243.301 216.826 245.983 214.69 248.926C214.015 249.966 213.232 251.059 214.069 252.301C214.879 253.435 216.175 253.273 217.39 253.219C218.605 253.165 226.206 250.708 226.759 250.519C233.725 248.4 239.962 244.512 246.942 242.419C248.591 241.809 250.085 240.841 251.316 239.584C251.706 239.261 252.006 238.843 252.188 238.37C252.37 237.898 252.428 237.386 252.355 236.884C252.299 235.797 252.099 234.721 251.761 233.685C250.087 228.987 248.643 224.235 246.699 219.591C243.432 211.95 240.786 204.066 236.925 196.641C235.035 193.05 232.996 189.553 231.012 186.003C230.863 185.733 230.782 185.314 230.323 185.503C229.864 185.692 230.121 186.043 230.242 186.327C230.526 186.975 230.809 187.677 231.133 188.244C241.218 206.847 239.368 206.428 244.363 217.471C244.93 218.727 246.28 220.05 246.051 221.089C245.821 222.129 244.12 222.925 243.054 223.789C238.894 227.346 234.526 230.65 229.972 233.685C229.248 232.82 228.606 231.889 228.055 230.904C223.773 222.864 218.928 215.136 213.556 207.778C211.72 205.294 213.799 204.147 215.325 198.463C215.733 196.602 216.815 194.958 218.362 193.846C224.829 189.324 230.877 184.288 236.871 179.158C238.693 177.606 239.922 176.458 238.518 174.204C239.773 174.757 241.488 174.973 241.744 172.597C242.678 173.832 243.722 174.98 244.863 176.026C245.195 176.334 245.598 176.554 246.037 176.665C246.476 176.776 246.935 176.775 247.373 176.662C247.811 176.549 248.214 176.328 248.545 176.019C248.875 175.709 249.122 175.322 249.264 174.892C251.397 176.04 253.138 174.73 252.639 172.53C254.556 173.218 255.406 172.53 255.339 170.626C255.15 169.627 254.232 168.75 252.76 167.116ZM231.66 234.387C245.632 225.49 246.172 221.616 247.05 224.41C250.101 234.049 250.938 235.885 250.816 237.33C250.793 237.82 250.606 238.289 250.285 238.66C249.965 239.032 249.529 239.286 249.048 239.382C245.97 240.327 236.898 246.483 220.414 251.383C219.064 251.802 215.662 252.949 214.947 251.694C214.609 251.113 215.028 250.6 215.325 250.141C218.551 245.092 225.517 239.895 229.392 235.467C229.986 234.805 230.931 234.9 231.66 234.387ZM198.801 245.092C198.949 245.511 198.477 245.646 198.099 245.781C191.694 248.029 185.09 249.661 178.375 250.654C172.597 251.532 169.02 253.746 162.067 253.881C161.527 253.881 160.555 254.313 160.42 253.597C160.299 253.111 160.839 252.598 161.095 252.153C162.001 250.764 163.138 249.54 164.457 248.535C169.13 244.413 174.02 240.542 179.104 236.938C179.523 236.655 179.995 236.425 180.454 236.128C181.088 235.646 181.867 235.395 182.663 235.417C183.459 235.439 184.223 235.733 184.828 236.25C188.762 238.809 193.366 240.143 198.058 240.084C200.65 240.057 197.95 242.824 198.801 245.092ZM202.122 237.33C201.906 238.234 201.595 238.545 200.704 238.68C195.304 239.436 190.107 237.748 185.301 235.156C184.383 234.761 183.644 234.041 183.226 233.134C182.807 232.227 182.738 231.197 183.033 230.242C184.207 223.492 185.287 216.58 186.853 209.844C189.337 199.044 188.595 198.693 189.823 198.855C194.683 199.476 199.597 199.53 204.457 200.353C205.375 200.502 205.321 200.758 205.105 201.514C203.202 208.089 200.866 215.46 197.343 225.288C195.993 229.068 194.886 232.956 193.293 236.695C193.265 236.771 193.266 236.854 193.296 236.929C193.325 237.004 193.382 237.065 193.455 237.1C193.529 237.135 193.613 237.14 193.691 237.115C193.768 237.09 193.833 237.036 193.873 236.965C194.546 235.585 195.084 234.143 195.48 232.659C198.45 223.209 198.18 225.99 205.78 201.609C206.145 200.448 206.158 200.421 207.427 200.61C207.981 200.61 198.936 223.641 195.169 237.168C195.145 237.246 195.152 237.331 195.189 237.404C195.226 237.477 195.29 237.533 195.368 237.559C195.445 237.586 195.53 237.581 195.604 237.545C195.678 237.51 195.735 237.447 195.763 237.37C196.352 235.683 196.853 233.966 197.262 232.227C198.18 228.798 204.498 211.194 207.778 201.69C207.877 201.331 208.082 201.01 208.366 200.769C208.65 200.528 209.001 200.378 209.371 200.34C211.099 199.908 212.139 198.787 214.677 197.059C210.276 209.898 204.7 226.003 202.122 237.33ZM253.921 171.585C253.206 172.273 252.652 171.031 252.099 170.586C250.303 169.155 249.399 167.4 248.616 168.156C248.197 168.561 248.616 168.939 248.778 169.29C249.688 170.434 250.483 171.664 251.154 172.962C251.343 173.38 251.829 173.893 251.154 174.312C250.479 174.73 250.182 174.312 249.804 173.907C248.251 172.32 246.804 170.633 245.47 168.858C245.173 168.453 244.849 167.805 244.269 168.237C243.229 169.02 245.187 169.587 247.441 174.406C247.603 174.757 247.981 175.162 247.644 175.567C247.306 175.972 246.847 175.783 246.429 175.783C244.795 175.783 242.19 171.166 240.003 168.466C239.733 168.156 239.422 167.697 238.963 167.953C238.504 168.21 238.653 168.777 238.842 169.209C239.773 171.315 241.42 173.772 238.99 173.151C238.415 172.946 237.935 172.538 237.64 172.003C235.763 168.893 234.396 165.502 233.59 161.959C233.428 161.365 233.698 161.095 234.09 160.798C236.898 158.652 239.908 156.748 242.608 154.48C244.08 153.13 242.311 156.141 253.53 165.577C252.687 165.506 251.884 165.186 251.221 164.659C250.83 164.443 250.411 164.295 250.047 164.659C249.682 165.024 249.939 165.456 250.155 165.807C252.301 169.263 254.988 170.559 253.921 171.585Z" fill="#471280"/>
<path d="M36.1665 109.202C35.7615 110.066 35.478 110.862 36.234 111.55C36.666 111.969 37.422 111.956 37.0305 111.065C36.9473 110.846 36.9138 110.611 36.9325 110.377C36.9512 110.144 37.0216 109.917 37.1385 109.715C39.6629 103.911 43.2321 98.6215 47.6685 94.1085C53.4598 88.1468 59.9615 82.9191 67.0275 78.543C68.5028 77.5281 70.2035 76.8886 71.982 76.68C76.4834 76.231 81.0191 77.0838 85.05 79.137C89.3446 81.1804 93.4983 83.5075 97.4835 86.103C102.33 89.4105 109.715 95.7825 111.119 101.507C111.645 103.64 112.469 106.637 112.698 107.231C112.928 107.825 112.968 108.216 113.603 108.054C114.237 107.892 114.156 107.379 114.048 106.907C112.833 101.817 111.348 96.876 107.379 93.0825C103.734 89.559 100.251 85.293 86.805 78.867C83.4165 77.2605 80.055 75.411 76.167 75.2895C75.4515 75.2895 75.357 74.8305 75.357 74.25V70.4295C75.357 66.825 75.8565 64.1655 73.278 64.422C72.3735 64.5165 72.198 65.1375 72.198 65.9475C72.198 68.7285 72.1035 71.5095 72.198 74.2905C72.198 76.1265 70.5645 74.8845 67.7565 76.6665C62.4475 79.9101 57.4372 83.6192 52.785 87.75C42.066 97.5645 39.8115 101.439 36.1665 109.202ZM73.1295 73.2105C73.1295 72.6705 72.9945 65.8125 73.656 65.7585C74.1015 65.7585 74.1015 66.1635 74.142 66.4605C74.3378 68.7062 74.3378 70.9648 74.142 73.2105C74.142 73.872 74.682 75.141 73.5885 75.1275C72.495 75.114 73.2105 73.872 73.1295 73.2105Z" fill="#471280"/>
<path d="M69.579 248.791C65.6793 248.18 61.7406 247.851 57.7935 247.806C45.9135 247.266 44.4285 243.756 35.7885 244.512C30.159 244.957 24.867 246.874 19.494 248.44C16.5375 249.318 14.175 251.653 10.989 252.112C10.1517 252.256 9.33843 252.515 8.57248 252.882C7.77598 253.219 6.76348 253.435 6.65548 254.542C6.54748 255.649 7.35748 256.243 8.16748 256.743C16.2675 261.805 24.4755 257.134 37.7325 259.888C43.7048 261.178 49.7937 261.852 55.9035 261.9C59.9413 261.871 63.9415 261.121 67.716 259.686C68.5125 259.389 69.3225 258.997 69.39 257.985C69.4575 256.972 68.7285 256.635 68.04 256.108C65.0835 253.908 64.3815 253.773 64.503 253.206C64.6245 252.639 65.043 252.895 65.34 252.828C66.69 252.49 68.175 252.733 69.5655 252.517C70.5915 252.369 71.9955 252.396 72.1575 251.046C72.3195 249.696 70.875 248.994 69.579 248.791ZM32.94 253.3C32.5755 256.081 33.345 258.7 31.1715 258.228C21.816 257.377 15.633 260.293 8.70748 256.216C8.08648 255.865 7.35748 255.447 7.35748 254.691C7.35748 253.935 8.27548 253.692 8.92348 253.449C12.0285 252.315 14.5665 252.22 17.0235 250.398C17.7476 249.864 18.5681 249.474 19.44 249.25C23.787 248.035 28.0935 246.739 32.4945 245.74C33.7095 245.47 33.6015 245.875 33.534 246.82C33.4395 248.913 33.21 251.208 32.94 253.3ZM36.801 258.079C36.801 258.565 36.6525 258.714 36.153 258.754C34.506 258.876 33.912 258.363 33.912 256.729C33.912 250.465 34.4925 249.52 34.4655 246.051C34.4655 244.957 35.7075 245.47 36.369 245.227C37.0305 244.984 37.2465 245.403 37.233 245.97C37.152 250.6 36.936 254.191 36.801 258.079ZM70.8345 251.329C70.1329 251.598 69.3845 251.722 68.634 251.694C67.5 251.802 66.3795 251.937 65.2455 252.018C64.5435 252.018 63.8955 252.193 63.6525 252.922C63.4095 253.651 64.044 254.056 64.503 254.434C67.6755 256.986 68.553 256.918 68.472 257.836C68.391 258.754 67.5135 258.835 66.879 259.038C63.9077 260.085 60.8036 260.707 57.6585 260.887C51.1987 261.042 44.7418 260.476 38.4075 259.2C37.692 259.065 37.665 258.835 37.7055 257.944C37.908 253.894 38.1105 249.925 38.043 245.875C38.043 245.052 38.421 245.011 38.88 245.092C39.96 245.268 41.5125 245.497 42.579 245.7C42.714 245.7 50.544 248.197 53.0415 248.292C58.158 248.508 63.261 249.021 68.364 249.426C70.011 249.534 72.3735 250.519 70.8345 251.329Z" fill="#471280"/>
<path d="M186.584 94.5C186.584 95.121 193.658 164.997 193.725 167.305C193.734 167.638 193.875 167.954 194.117 168.183C195.886 169.945 197.821 171.531 199.895 172.921C200.03 173.002 200.57 173.232 200.678 173.124C203.135 170.653 207.063 172.557 206.672 169.762C205.511 161.878 205.538 156.262 203.661 141.642C203.499 140.292 196.02 88.6545 195.737 87.21C195.642 86.778 195.737 86.319 195.197 86.103C195.08 86.2041 194.998 86.3391 194.962 86.4891C194.925 86.6391 194.937 86.7967 194.994 86.94C194.994 87.075 195.858 91.314 195.858 91.7325C202.608 139.819 202.608 134.338 205.511 167.521C205.74 170.073 205.767 170.073 203.27 170.788C201.92 171.139 200.705 172.948 197.492 169.965C195.912 168.493 194.279 167.265 194.4 164.848C194.4 164.7 187.488 95.823 187.326 93.8925C187.11 91.5705 188.271 91.881 191.876 88.1415C192.713 87.264 191.876 87.318 191.565 87.5475C190.013 88.8975 188.46 90.153 186.921 91.476C186.084 92.124 186.449 93.2175 186.584 94.5Z" fill="#471280"/>
<path d="M201.474 78.624C201.812 78.1785 202.244 77.652 201.933 76.977H201.65C199.751 79.1149 197.688 81.101 195.48 82.917C191.358 86.1934 186.15 87.7897 180.9 87.3855C176.85 87.129 174.245 86.265 171.45 81.675C175.136 81.4995 175.973 80.838 176.85 77.895C177.35 76.2075 176.486 73.7505 179.55 73.2105C179.847 73.2105 180.468 73.4535 180.347 72.8055C180.289 72.5957 180.154 72.4158 179.968 72.3029C179.782 72.1899 179.56 72.1523 179.348 72.198C178.596 72.3522 177.875 72.6305 177.215 73.0215C176.985 71.0505 176.891 69.7275 175.73 69.822C173.476 70.1445 171.248 70.6226 169.061 71.253C166.604 71.82 165.74 71.388 165.983 67.851C165.983 67.527 165.983 67.284 165.47 67.3245C164.957 67.365 165.011 67.689 164.997 68.067C164.997 70.254 165.686 71.307 165.443 72.414C165.052 72.1661 164.725 71.8287 164.49 71.4296C164.256 71.0305 164.119 70.5812 164.093 70.119C163.861 68.7548 163.761 67.3713 163.796 65.988C163.958 60.48 166.617 59.6565 165.551 58.833C164.066 57.645 161.123 68.364 163.809 71.982C164.606 73.035 164.943 72.6705 165.294 74.1015C166.455 78.7995 168.629 79.5015 169.871 81.2295C170.816 82.458 172.76 86.8725 177.836 87.885C180.153 88.3247 182.514 88.4878 184.869 88.371C192.092 88.0875 197.235 84.159 201.474 78.624ZM170.208 78.9075C168.089 73.8315 166.307 72.8595 168.183 72.4815C175.487 71.037 175.865 70.4025 175.865 71.631V74.5875C176.121 77.4225 175.46 80.649 172.638 80.6085C172.102 80.6354 171.571 80.4827 171.131 80.1747C170.691 79.8667 170.366 79.4208 170.208 78.9075Z" fill="#471280"/>
<path d="M194.184 65.8395C194.508 66.1365 194.953 66.2985 194.724 66.96C194.494 67.6215 194.049 67.4865 193.603 67.4865C192.702 67.443 191.799 67.4791 190.903 67.5945C190.448 67.7056 189.969 67.676 189.53 67.5098C189.092 67.3435 188.714 67.0483 188.446 66.663C186.637 64.557 184.734 62.5185 182.857 60.48C182.479 60.0615 182.088 59.6025 181.386 60.0075C183.262 62.2485 185.179 64.4355 186.961 66.7575C188.311 68.4045 189.661 69.2685 191.659 68.796C192.36 68.6857 193.071 68.6495 193.779 68.688C194.103 68.688 194.386 68.688 194.481 69.147C194.673 70.5383 194.363 71.9526 193.606 73.1354C192.848 74.3183 191.694 75.1922 190.35 75.6C188.537 75.9727 186.651 75.6797 185.037 74.7747C183.423 73.8697 182.189 72.4134 181.561 70.6725C181.305 69.8085 181.44 69.201 182.547 69.1605C183.654 69.12 185.085 69.012 186.34 68.904C186.691 68.904 187.258 68.904 187.258 68.472C187.258 68.04 186.624 67.959 186.246 67.9725C184.815 67.9725 183.195 68.202 183.033 68.229C181.967 68.3588 180.917 68.5986 179.901 68.9445C179.644 69.1065 179.442 69.4035 179.901 69.498C180.616 69.6735 180.481 70.119 180.589 70.497C180.954 72.0477 181.754 73.4621 182.894 74.5741C184.035 75.6861 185.469 76.4494 187.029 76.7745C190.269 77.571 194.319 76.0185 195.25 72.5625C195.696 70.875 195.412 68.31 196.141 67.932C196.533 67.743 196.776 68.2155 197.032 68.4585C198.061 69.691 199.22 70.8089 200.488 71.793C203.526 73.6695 202.959 77.058 203.188 78.543C203.188 78.7725 202.932 79.1775 203.458 79.1505C203.769 79.1505 203.836 78.8805 203.85 78.651C204.052 76.221 204.012 73.791 202.162 71.901C197.497 66.9572 192.305 62.5389 186.678 58.725C182.029 55.6744 177.102 53.0707 171.963 50.949C171.598 50.8005 171.247 50.436 171.045 50.949C170.842 51.462 171.369 51.4215 171.666 51.5565C179.86 55.6605 186.583 59.049 194.184 65.8395Z" fill="#471280"/>
<path d="M89.5724 174.798C88.8029 174.271 89.3294 175.392 83.3084 182.29C80.4059 185.625 78.9074 187.69 75.3839 184.909C74.0339 183.856 71.0504 179.158 69.9839 173.11C69.9839 172.773 70.0784 172.084 69.4574 172.179C68.8364 172.273 69.2009 172.8 69.2144 173.421C70.2944 181.615 75.9644 191.308 81.8909 185.571C82.9304 184.572 83.4974 183.289 84.4694 182.277C86.2298 180.374 87.8241 178.323 89.2349 176.148C89.5454 175.729 90.1664 175.189 89.5724 174.798Z" fill="#471280"/>
<path d="M106.394 102.6C106.65 102.978 106.826 103.95 107.447 103.531C108.068 103.113 107.271 102.546 107.042 102.073C103.674 97.2348 99.7451 92.812 95.3371 88.8975C90.4017 84.5998 84.9234 80.9688 79.0426 78.0975C78.7591 77.9625 78.4891 77.679 78.0166 78.003C79.3396 79.7445 94.1626 84.7935 106.394 102.6Z" fill="#471280"/>
<path d="M183.884 151.51C183.476 151.1 183.023 150.738 182.534 150.43C182.248 150.576 181.977 150.748 181.724 150.943C175.662 156.343 176.486 155.844 174.771 157.302C172.071 159.61 172.314 158.382 173.759 163.147C174.015 163.998 174.407 163.971 174.933 163.404C177.737 160.096 180.778 156.996 184.032 154.129C185.139 153.211 184.95 152.55 183.884 151.51ZM183.033 153.846C180.068 156.456 177.289 159.271 174.717 162.27C173.057 158.503 173.111 160.299 181.562 152.131C182.318 151.389 182.736 151.618 183.371 152.28C184.005 152.941 183.6 153.414 183.033 153.9V153.846Z" fill="#471280"/>
<path d="M213.3 153.4C215.649 154.75 217.539 155.547 220.59 156.87C222.102 157.545 222.237 157.437 222.574 155.803C222.669 155.344 222.48 154.332 223.56 155.007C223.87 155.209 224.221 154.818 223.87 154.332C222.331 152.104 216.904 150.849 213.61 148.999C212.773 148.527 211.693 147.838 211.356 148.567C211.175 149.286 211.093 150.027 211.113 150.768C211.045 152.307 211.666 152.55 213.3 153.4ZM211.734 149.539C211.734 149.08 212.017 148.972 212.395 149.202C215.298 151.146 218.754 151.902 221.764 153.657C222.169 153.886 222.804 154.129 222.277 154.44C221.751 154.75 222.183 156.316 221.076 156.087C219.969 155.857 214.11 152.928 212.895 152.293C211.68 151.659 211.639 150.646 211.68 149.539H211.734Z" fill="#471280"/>
<path d="M184.099 85.6575C187.663 86.6025 188.149 85.8195 188.325 82.0665C188.325 79.623 188.055 79.191 186.057 79.6635C184.101 80.3213 182.196 81.1245 180.36 82.0665C179.739 82.323 180.022 82.728 180.225 83.079C180.666 83.7454 181.236 84.3168 181.902 84.7596C182.567 85.2024 183.314 85.5077 184.099 85.6575ZM185.962 80.8245C186.718 80.622 187.137 80.622 187.15 81.675C187.15 85.158 186.691 85.536 183.465 84.24C182.602 83.9196 181.812 83.4283 181.143 82.7955C182.686 81.993 184.299 81.3333 185.962 80.8245Z" fill="#471280"/>
<path d="M74.3174 78.2055C78.8534 86.724 79.7174 96.336 82.2419 105.435C81.7694 96.1605 77.0309 80.136 74.3174 78.2055Z" fill="#471280"/>
<path d="M169.925 52.191C169.971 52.1335 169.996 52.0621 169.996 51.9885C169.996 51.9149 169.971 51.8434 169.925 51.786C169.884 51.7271 169.824 51.6842 169.755 51.6645C169.686 51.6449 169.612 51.6496 169.547 51.678C169.042 51.8954 168.584 52.207 168.197 52.596C164.445 56.2625 161.442 60.6227 159.354 65.4345C159.202 65.7787 159.098 66.142 159.044 66.5145C159.012 66.5913 158.998 66.6744 159.004 66.7573C159.009 66.8403 159.034 66.9208 159.076 66.9927C159.118 67.0646 159.175 67.1258 159.245 67.1716C159.314 67.2175 159.393 67.2467 159.476 67.257C159.827 67.257 159.948 67.0815 160.016 66.7575C160.591 64.9149 161.462 63.1779 162.594 61.614C164.598 58.1541 167.064 54.9839 169.925 52.191Z" fill="#471280"/>
<path d="M149.566 163.809C151.252 159.575 153.379 155.529 155.911 151.74C156.087 151.456 156.6 151.146 156.141 150.795C155.682 150.444 155.412 150.916 155.142 151.213C152.537 154.672 150.433 158.48 148.891 162.526C148.203 164.403 148.824 165.483 149.566 163.809Z" fill="#471280"/>
<path d="M173.408 57.429C173.3 57.105 173.408 56.565 172.827 56.7C172.247 56.835 172.652 57.2265 172.719 57.537C173.515 61.6267 175.047 65.5377 177.242 69.0795C178.065 70.4295 180.023 71.226 178.308 68.85C176.067 65.7315 174.474 60.831 173.408 57.429Z" fill="#471280"/>
<path d="M194.711 115.735C193.631 114.912 192.767 115.087 192.321 116.329C191.977 117.156 191.763 118.03 191.687 118.921C191.822 120.055 191.849 121.621 193.671 121.932C195.494 122.242 197.627 117.963 194.711 115.735ZM193.739 121.027C192.726 120.852 192.537 119.92 192.591 118.894C192.659 117.639 192.591 116.316 193.631 116.194C194.67 116.073 194.913 117.261 195.197 118.125C195.521 119.313 194.765 121.176 193.739 121.027Z" fill="#471280"/>
<path d="M193.441 97.065C192.861 96.1335 192.01 96.282 191.173 96.12C190.336 95.958 190.485 96.9705 190.269 97.47C190.143 97.9693 190.07 98.4807 190.053 98.9955C189.939 99.7491 190.107 100.518 190.525 101.155C192.429 103.828 194.953 99.495 193.441 97.065ZM191.7 101.047C190.714 101.047 190.903 99.8595 190.836 99.0495C190.839 98.7716 190.875 98.4951 190.944 98.226C191.119 97.767 190.755 96.876 191.605 96.876C192.456 96.876 192.645 97.5915 192.847 98.226C192.902 98.5023 192.902 98.7866 192.847 99.063C192.82 99.9 192.699 101.074 191.7 101.047Z" fill="#471280"/>
<path d="M195.925 138.82C198.031 139.347 198.247 142.654 196.465 143.1C195.439 143.329 195.21 142.479 194.98 141.466C194.751 140.454 194.98 139.995 195.736 137.727C194.988 138.384 194.482 139.274 194.299 140.252C194.115 141.231 194.265 142.243 194.724 143.127C194.856 143.336 195.028 143.516 195.23 143.658C195.432 143.8 195.66 143.9 195.901 143.953C196.143 144.005 196.392 144.01 196.635 143.965C196.878 143.921 197.109 143.829 197.316 143.694C197.666 143.384 197.947 143.006 198.143 142.582C198.339 142.158 198.445 141.698 198.454 141.231C198.463 140.764 198.374 140.3 198.195 139.869C198.015 139.438 197.748 139.049 197.41 138.726C196.83 138.24 196.398 138.118 195.925 138.82Z" fill="#471280"/>
<path d="M197.181 162.405C197.181 163.202 198.099 165.105 199.125 164.849C200.475 164.592 200.543 163.391 200.637 162.027C200.637 160.88 200.003 159.084 199.058 159.03C198.113 158.976 197.1 161.217 197.181 162.405ZM198.248 160.434C198.275 160.317 198.337 160.212 198.427 160.132C198.516 160.052 198.628 160.002 198.747 159.989C199.098 159.921 199.247 160.178 199.368 160.434C199.763 161.135 199.878 161.96 199.692 162.743C199.692 163.242 199.517 163.796 199.031 163.863C198.545 163.931 198.423 163.553 198.248 163.188C197.964 162.292 197.964 161.33 198.248 160.434Z" fill="#471280"/>
<path d="M184.721 69.849C182.736 69.849 184.532 73.8045 185.733 73.7505C186.611 73.7505 186.53 72.9945 186.597 72.495C186.584 71.361 185.504 69.849 184.721 69.849Z" fill="#471280"/>
<path d="M179.077 75.465C179.077 75.222 179.239 74.844 178.821 74.8035C178.402 74.763 178.321 75.033 178.281 75.33C178.213 75.9375 178.186 76.545 178.132 77.139C178.051 77.949 177.943 78.84 178.915 79.1505C179.378 79.3001 179.878 79.285 180.331 79.1079C180.784 78.9307 181.161 78.6023 181.399 78.1785C181.249 78.0933 181.079 78.0485 180.907 78.0485C180.734 78.0485 180.564 78.0933 180.414 78.1785C178.47 78.9345 179.023 77.139 179.077 75.465Z" fill="#471280"/>
<path d="M83.2949 160.65C83.6189 159.732 80.0279 151.767 78.8264 145.206C77.7194 139.198 76.1264 133.231 77.4764 126.603C76.9503 127.007 76.5978 127.596 76.4909 128.25C76.2102 130.162 76.1377 132.1 76.2749 134.028C77.3232 142.984 79.5051 151.771 82.7684 160.177C82.7958 160.301 82.8613 160.414 82.9557 160.498C83.0502 160.583 83.1688 160.636 83.2949 160.65Z" fill="#471280"/>
<path d="M92.4344 126.994C93.0149 124.402 92.9204 123.349 92.1644 122.715C91.5299 126.765 91.4219 130.815 89.4644 134.487C91.8944 132.637 91.7999 129.87 92.4344 126.994Z" fill="#471280"/>
<path d="M83.3625 136.782C85.7264 134.268 87.4086 131.192 88.2495 127.845C86.4629 130.735 84.8316 133.718 83.3625 136.782Z" fill="#471280"/>
<path d="M105.907 134.757C106.042 135.58 105.084 135.756 104.557 136.107C104.405 136.252 104.261 136.405 104.125 136.566C104.59 136.743 105.102 136.753 105.573 136.592C106.044 136.432 106.444 136.112 106.704 135.688C106.899 135.476 107.014 135.202 107.028 134.913C107.043 134.625 106.957 134.341 106.785 134.109C106.488 133.758 106.111 133.483 105.686 133.307C105.261 133.131 104.8 133.058 104.341 133.096C104.222 133.088 104.105 133.126 104.012 133.201C103.919 133.276 103.859 133.383 103.842 133.501C103.747 134.244 105.732 133.65 105.907 134.757Z" fill="#471280"/>
<path d="M93.6225 162C93.0555 160.96 92.502 159.921 91.8675 158.733C91.71 159.398 91.8016 160.098 92.125 160.7C92.4483 161.302 92.9811 161.764 93.6225 162Z" fill="#471280"/>
<path d="M117.612 181.575C117.73 181.401 117.804 181.199 117.825 180.99C117.846 180.78 117.815 180.568 117.733 180.373C116.776 176.887 115.622 173.457 114.277 170.1C113.967 169.479 113.683 168.75 112.698 169.155C108.091 170.68 103.606 172.548 99.2789 174.744C98.3474 175.27 98.2124 175.797 98.6984 176.796C103.747 187.38 102.168 187.15 105.448 187.245C113.521 186.853 113.764 187.299 117.612 181.575ZM115.384 182.628C113.886 185.166 111.699 185.854 109.012 185.827C101.533 185.76 105.907 188.393 99.6974 176.769C99.3194 176.04 99.4139 175.77 100.143 175.419C104.04 173.529 108.058 171.901 112.171 170.546C113.116 170.222 113.332 170.694 113.602 171.355C114.561 173.772 115.114 176.323 116.046 178.726C116.279 179.379 116.34 180.08 116.224 180.764C116.108 181.447 115.819 182.089 115.384 182.628Z" fill="#471280"/>
<path d="M263.25 43.6319C263.215 43.6056 263.172 43.5914 263.128 43.5914C263.085 43.5914 263.042 43.6056 263.007 43.6319C260.604 44.9819 240.259 75.0869 240.057 77.4764C240.052 77.5229 240.063 77.5698 240.088 77.6091C240.113 77.6483 240.152 77.6776 240.196 77.6919C240.241 77.7063 240.289 77.7047 240.332 77.6876C240.376 77.6704 240.412 77.6388 240.435 77.5979C243.634 73.0079 246.726 68.2829 249.723 63.7064C263.169 43.1999 263.601 43.9694 263.25 43.6319Z" fill="#471280"/>
<path d="M239.193 48.411C243.648 40.0815 254.408 24.8265 254.921 24.2055C255.434 23.5845 255.731 21.033 254.124 23.328C253.598 24.0975 252.707 25.3665 251.195 27.4995C246.119 34.668 241.326 41.445 237.762 49.221C237.746 49.2554 237.74 49.2938 237.744 49.3316C237.749 49.3694 237.764 49.4052 237.788 49.4348C237.812 49.4644 237.844 49.4866 237.88 49.499C237.916 49.5113 237.954 49.5132 237.992 49.5045C238.266 49.4347 238.519 49.2984 238.729 49.1077C238.938 48.9171 239.098 48.6778 239.193 48.411Z" fill="#471280"/>
<path d="M123.917 43.1999C120.461 48.0329 117.275 53.1629 114.197 58.0499C107.771 68.4044 105.705 71.1989 105.152 72.0359C104.855 72.4949 105.152 72.6029 105.354 72.4409C112.725 63.4769 118.166 53.0819 124.254 43.3484C124.403 43.1999 124.065 43.0109 123.917 43.1999Z" fill="#471280"/>
<path d="M57.6855 186.084C56.862 186.34 56.5245 187.056 56.1735 187.582C42.5385 208.251 39.7845 212.341 39.4335 213.826C39.2715 214.515 39.4335 215.406 40.149 214.299C45.8595 204.849 52.434 195.912 57.9285 186.381C57.951 186.345 57.9617 186.303 57.959 186.261C57.9564 186.218 57.9405 186.178 57.9137 186.145C57.8868 186.112 57.8504 186.089 57.8095 186.078C57.7685 186.067 57.7252 186.069 57.6855 186.084Z" fill="#471280"/>
<path d="M144.963 68.067C144.929 68.0384 144.886 68.0228 144.842 68.0228C144.797 68.0228 144.754 68.0384 144.72 68.067C143.019 69.255 129.182 97.3755 129.303 99.414C129.311 99.4561 129.331 99.495 129.361 99.5256C129.391 99.5562 129.43 99.5772 129.472 99.5859C129.514 99.5946 129.557 99.5906 129.597 99.5744C129.637 99.5582 129.671 99.5306 129.695 99.495C132.044 94.8645 134.325 90.045 136.539 85.482C145.247 67.284 145.233 68.2965 144.963 68.067Z" fill="#471280"/>
<path d="M40.5 170.708C40.8915 170.708 40.5 169.803 49.248 155.682C51.2561 151.983 53.4784 148.404 55.9035 144.963C56.0038 144.856 56.0573 144.713 56.0522 144.566C56.0471 144.419 55.9839 144.28 55.8765 144.18C55.7691 144.08 55.6263 144.026 55.4794 144.031C55.3326 144.036 55.1938 144.1 55.0935 144.207C54.7879 144.518 54.5122 144.857 54.27 145.22C39.6225 169.344 39.7575 169.601 40.3245 170.6C40.3387 170.634 40.3632 170.663 40.3948 170.682C40.4263 170.701 40.4631 170.71 40.5 170.708Z" fill="#471280"/>
<path d="M87.75 212.679L87.3315 212.395C87.2922 212.361 87.2419 212.342 87.1898 212.342C87.1377 212.342 87.0873 212.361 87.048 212.395C81.1485 220.657 75.519 229.243 70.7805 236.56C70.7434 236.598 70.7227 236.649 70.7227 236.702C70.7227 236.755 70.7434 236.806 70.7805 236.844L71.2935 237.181C71.5365 237.343 71.2935 237.627 79.6635 225.031C88.0335 212.436 87.966 212.854 87.75 212.679Z" fill="#471280"/>
<path d="M146.259 129.276L145.773 128.952C145.733 128.92 145.683 128.903 145.631 128.903C145.58 128.903 145.53 128.92 145.489 128.952C142.654 133.164 139.495 137.254 137.025 141.736C136.992 141.774 136.973 141.822 136.973 141.871C136.973 141.921 136.992 141.969 137.025 142.006C137.416 142.276 137.443 142.33 137.538 142.33C137.632 142.33 137.362 142.749 142.074 135.742C146.515 129.141 146.326 129.492 146.299 129.357C146.291 129.328 146.277 129.3 146.259 129.276Z" fill="#471280"/>
<path d="M231.107 84.672C230.256 86.238 231.701 89.856 233.483 90.7335C233.523 90.7487 233.567 90.7514 233.609 90.7412C233.651 90.7311 233.689 90.7085 233.718 90.6766C233.747 90.6446 233.766 90.6046 233.772 90.5618C233.778 90.519 233.772 90.4753 233.753 90.4365C232.62 89.0185 232.006 87.2563 232.011 85.4415C233.048 86.2486 233.872 87.2957 234.414 88.4925C234.437 88.5317 234.472 88.5623 234.513 88.5793C234.555 88.5963 234.602 88.5988 234.645 88.5864C234.689 88.574 234.727 88.5473 234.753 88.5107C234.78 88.4741 234.794 88.4297 234.792 88.3845C234.9 86.2245 232.119 82.7415 231.107 84.672Z" fill="#471280"/>
<path d="M192.537 31.536C192.232 31.2319 191.876 30.9849 191.484 30.807C190.66 30.375 188.905 29.2545 188.527 30.2265C188.149 31.1985 190.647 32.427 191.457 32.9265C191.884 33.2571 192.417 33.4203 192.955 33.3855C193.212 33.3184 193.434 33.1582 193.579 32.936C193.724 32.7139 193.781 32.4458 193.738 32.184C193.549 31.725 192.739 31.779 192.537 31.536Z" fill="#471280"/>
<path d="M98.361 73.5075C97.5375 73.5075 97.011 74.0745 97.011 75.0195C97.011 76.248 98.685 78.0435 99.9 77.895C100.872 77.787 100.899 76.194 100.521 75.303C100.143 74.412 99.2385 73.44 98.361 73.5075ZM99.9 76.68C99.5355 77.706 97.6995 75.4785 97.9155 74.871C98.361 73.5615 100.278 75.6 99.9 76.68Z" fill="#471280"/>
<path d="M130.95 143.559C129.91 143.788 129.6 144.531 130.167 145.449C130.8 146.386 131.765 147.047 132.867 147.298C132.908 147.312 132.952 147.313 132.993 147.3C133.034 147.287 133.07 147.262 133.095 147.227C133.121 147.193 133.135 147.151 133.135 147.108C133.135 147.065 133.122 147.023 133.096 146.988C132.138 145.638 130.99 145.246 131.179 144.828C131.179 144.679 131.26 144.666 131.517 144.828C131.616 144.841 131.715 144.841 131.814 144.828C132.316 144.882 132.8 145.043 133.234 145.302C133.667 145.561 134.039 145.91 134.325 146.326C134.344 146.351 134.369 146.371 134.397 146.385C134.425 146.399 134.456 146.406 134.487 146.407C134.519 146.409 134.55 146.402 134.578 146.388C134.607 146.373 134.631 146.352 134.649 146.326C134.772 146.203 134.853 146.044 134.879 145.871C134.906 145.699 134.877 145.523 134.797 145.368C134.317 144.816 133.727 144.369 133.064 144.058C132.402 143.746 131.682 143.576 130.95 143.559Z" fill="#471280"/>
<path d="M199.908 30.969L199.557 31.05C198.787 31.2255 197.721 31.455 197.964 32.8995C197.969 32.9422 197.987 32.9822 198.016 33.0137C198.045 33.0453 198.084 33.0667 198.126 33.075C198.706 33.156 198.733 32.7375 198.855 32.6025C199.327 32.0895 200.097 31.7655 200.583 32.184C200.839 32.4 200.691 32.562 200.367 32.913C200.212 33.0771 200.076 33.2582 199.962 33.453C199.962 33.588 199.395 33.7905 199.638 34.3035C199.663 34.3472 199.702 34.3813 199.748 34.4009C199.794 34.4204 199.846 34.4241 199.894 34.4115C201.042 34.0065 202.297 32.7375 201.919 31.806C201.844 31.6177 201.732 31.4463 201.589 31.3019C201.447 31.1576 201.277 31.043 201.089 30.9651C200.902 30.8871 200.701 30.8474 200.498 30.848C200.295 30.8487 200.095 30.8899 199.908 30.969Z" fill="#471280"/>
<path d="M238.599 89.424C238.582 89.4619 238.579 89.5043 238.588 89.5447C238.598 89.585 238.621 89.621 238.653 89.6471C238.685 89.6732 238.725 89.6879 238.767 89.6891C238.808 89.6902 238.849 89.6777 238.883 89.6535C239.49 89.343 240.597 89.1405 240.638 89.775C240.678 90.4095 239.099 90.8415 238.275 91.314C238.238 91.3343 238.208 91.3659 238.19 91.4041C238.171 91.4424 238.165 91.4855 238.173 91.5272C238.18 91.569 238.201 91.6074 238.231 91.637C238.262 91.6665 238.301 91.6858 238.343 91.692C238.908 91.7599 239.482 91.6843 240.01 91.4719C240.539 91.2595 241.005 90.9173 241.367 90.477C242.919 88.911 239.153 87.75 238.599 89.424Z" fill="#471280"/>
<path d="M140.103 145.098C139.388 146.029 138.416 146.448 137.633 147.798C137.612 147.833 137.603 147.873 137.605 147.913C137.608 147.953 137.623 147.992 137.647 148.024C137.672 148.056 137.706 148.079 137.744 148.092C137.782 148.105 137.823 148.106 137.862 148.095C138.995 147.628 140.003 146.902 140.805 145.975C141.48 145.327 140.535 144.558 140.103 145.098Z" fill="#471280"/>
<path d="M107.163 79.2315C106.691 79.8795 105.624 80.0415 105.138 81.108C105.124 81.1391 105.119 81.1731 105.122 81.2069C105.125 81.2407 105.136 81.2731 105.155 81.3014C105.174 81.3296 105.2 81.3526 105.23 81.3684C105.26 81.3841 105.293 81.3921 105.327 81.3915C106.256 81.1601 107.111 80.6955 107.811 80.0415C107.876 79.999 107.931 79.9431 107.972 79.8774C108.013 79.8118 108.04 79.7381 108.05 79.6612C108.061 79.5844 108.054 79.5062 108.031 79.4321C108.009 79.3579 107.97 79.2895 107.919 79.2315C107.798 79.1505 107.312 79.0155 107.163 79.2315Z" fill="#471280"/>
<path d="M111.118 190.512C109.768 192.051 109.404 193.954 108.54 195.655C108.51 195.7 108.498 195.755 108.508 195.808C108.518 195.862 108.549 195.909 108.594 195.939C108.639 195.969 108.694 195.981 108.747 195.971C108.8 195.961 108.847 195.93 108.877 195.885C110.164 194.397 111.055 192.61 111.469 190.687C111.479 190.644 111.474 190.598 111.454 190.557C111.435 190.516 111.402 190.484 111.362 190.463C111.322 190.443 111.276 190.437 111.232 190.446C111.188 190.455 111.148 190.478 111.118 190.512Z" fill="#471280"/>
<path d="M169.924 74.4255C169.814 74.4339 169.706 74.4686 169.611 74.5266C169.516 74.5847 169.437 74.6645 169.379 74.7594C169.321 74.8543 169.286 74.9617 169.278 75.0726C169.269 75.1836 169.287 75.2949 169.33 75.3975C169.639 76.4418 170.328 77.3328 171.261 77.895C171.336 77.955 171.426 77.9945 171.521 78.0094C171.616 78.0244 171.713 78.0144 171.803 77.9803C171.893 77.9462 171.972 77.8893 172.033 77.8152C172.095 77.741 172.136 77.6522 172.152 77.5575C172.476 76.7475 170.869 74.3985 169.924 74.4255Z" fill="#471280"/>
</svg>
