<svg width="39" height="39" viewBox="0 0 39 39" fill="none" xmlns="http://www.w3.org/2000/svg">
<g id="Back">
<rect id="Rectangle 181" x="0.5" y="0.5" width="38" height="38" rx="9.5" stroke="#D8DADC"/>
<path id="Icon / chevron.left" d="M15 19.4958C15 19.6426 15.0265 19.7781 15.0796 19.9023C15.1385 20.0265 15.2269 20.1451 15.3448 20.258L22.2318 26.712C22.4322 26.904 22.6739 27 22.9568 27C23.1513 27 23.3251 26.9548 23.4784 26.8645C23.6375 26.7798 23.7642 26.6612 23.8585 26.5088C23.9528 26.3619 24 26.1982 24 26.0175C24 25.7465 23.891 25.5065 23.6729 25.2976L17.4666 19.4958L23.6729 13.694C23.891 13.485 24 13.2479 24 12.9825C24 12.7962 23.9528 12.6296 23.8585 12.4828C23.7642 12.336 23.6375 12.2202 23.4784 12.1355C23.3251 12.0452 23.1513 12 22.9568 12C22.6739 12 22.4322 12.0932 22.2318 12.2795L15.3448 18.7335C15.2269 18.8464 15.1385 18.965 15.0796 19.0892C15.0265 19.2134 15 19.349 15 19.4958Z" fill="black"/>
</g>
</svg>
