<svg width="177" height="178" viewBox="0 0 177 178" fill="none" xmlns="http://www.w3.org/2000/svg">
<g id="card">
<g id="Rectangle 8" filter="url(#filter0_dd_148_1230)">
<rect x="16" y="8.80322" width="145" height="144.456" rx="16" fill="white"/>
</g>
<path id="Vector" d="M31.5105 21.762H36.1771V26.518H31.5105V21.762ZM36.1771 21.762H40.8437V26.518H36.1771V21.762ZM40.8437 21.762H45.5102V26.518H40.8437V21.762ZM45.5102 21.762H50.1768V26.518H45.5102V21.762ZM50.1768 21.762H54.8434V26.518H50.1768V21.762ZM54.8434 21.762H59.51V26.518H54.8434V21.762ZM59.51 21.762H64.1766V26.518H59.51V21.762ZM82.8429 21.762H87.5095V26.518H82.8429V21.762ZM96.8426 21.762H101.509V26.518H96.8426V21.762ZM101.509 21.762H106.176V26.518H101.509V21.762ZM106.176 21.762H110.842V26.518H106.176V21.762ZM115.509 21.762H120.176V26.518H115.509V21.762ZM120.176 21.762H124.842V26.518H120.176V21.762ZM124.842 21.762H129.509V26.518H124.842V21.762ZM129.509 21.762H134.175V26.518H129.509V21.762ZM134.175 21.762H138.842V26.518H134.175V21.762ZM138.842 21.762H143.508V26.518H138.842V21.762ZM143.508 21.762H148.175V26.518H143.508V21.762ZM31.5105 26.518H36.1771V31.274H31.5105V26.518ZM59.51 26.518H64.1766V31.274H59.51V26.518ZM73.5097 26.518H78.1763V31.274H73.5097V26.518ZM92.1761 26.518H96.8426V31.274H92.1761V26.518ZM96.8426 26.518H101.509V31.274H96.8426V26.518ZM106.176 26.518H110.842V31.274H106.176V26.518ZM115.509 26.518H120.176V31.274H115.509V26.518ZM143.508 26.518H148.175V31.274H143.508V26.518ZM31.5105 31.274H36.1771V36.03H31.5105V31.274ZM40.8437 31.274H45.5102V36.03H40.8437V31.274ZM45.5102 31.274H50.1768V36.03H45.5102V31.274ZM50.1768 31.274H54.8434V36.03H50.1768V31.274ZM59.51 31.274H64.1766V36.03H59.51V31.274ZM73.5097 31.274H78.1763V36.03H73.5097V31.274ZM78.1763 31.274H82.8429V36.03H78.1763V31.274ZM87.5095 31.274H92.1761V36.03H87.5095V31.274ZM96.8426 31.274H101.509V36.03H96.8426V31.274ZM101.509 31.274H106.176V36.03H101.509V31.274ZM115.509 31.274H120.176V36.03H115.509V31.274ZM124.842 31.274H129.509V36.03H124.842V31.274ZM129.509 31.274H134.175V36.03H129.509V31.274ZM134.175 31.274H138.842V36.03H134.175V31.274ZM143.508 31.274H148.175V36.03H143.508V31.274ZM31.5105 36.03H36.1771V40.786H31.5105V36.03ZM40.8437 36.03H45.5102V40.786H40.8437V36.03ZM45.5102 36.03H50.1768V40.786H45.5102V36.03ZM50.1768 36.03H54.8434V40.786H50.1768V36.03ZM59.51 36.03H64.1766V40.786H59.51V36.03ZM68.8432 36.03H73.5097V40.786H68.8432V36.03ZM73.5097 36.03H78.1763V40.786H73.5097V36.03ZM87.5095 36.03H92.1761V40.786H87.5095V36.03ZM96.8426 36.03H101.509V40.786H96.8426V36.03ZM101.509 36.03H106.176V40.786H101.509V36.03ZM115.509 36.03H120.176V40.786H115.509V36.03ZM124.842 36.03H129.509V40.786H124.842V36.03ZM129.509 36.03H134.175V40.786H129.509V36.03ZM134.175 36.03H138.842V40.786H134.175V36.03ZM143.508 36.03H148.175V40.786H143.508V36.03ZM31.5105 40.786H36.1771V45.542H31.5105V40.786ZM40.8437 40.786H45.5102V45.542H40.8437V40.786ZM45.5102 40.786H50.1768V45.542H45.5102V40.786ZM50.1768 40.786H54.8434V45.542H50.1768V40.786ZM59.51 40.786H64.1766V45.542H59.51V40.786ZM78.1763 40.786H82.8429V45.542H78.1763V40.786ZM82.8429 40.786H87.5095V45.542H82.8429V40.786ZM87.5095 40.786H92.1761V45.542H87.5095V40.786ZM92.1761 40.786H96.8426V45.542H92.1761V40.786ZM96.8426 40.786H101.509V45.542H96.8426V40.786ZM115.509 40.786H120.176V45.542H115.509V40.786ZM124.842 40.786H129.509V45.542H124.842V40.786ZM129.509 40.786H134.175V45.542H129.509V40.786ZM134.175 40.786H138.842V45.542H134.175V40.786ZM143.508 40.786H148.175V45.542H143.508V40.786ZM31.5105 45.542H36.1771V50.2981H31.5105V45.542ZM59.51 45.542H64.1766V50.2981H59.51V45.542ZM68.8432 45.542H73.5097V50.2981H68.8432V45.542ZM82.8429 45.542H87.5095V50.2981H82.8429V45.542ZM106.176 45.542H110.842V50.2981H106.176V45.542ZM115.509 45.542H120.176V50.2981H115.509V45.542ZM143.508 45.542H148.175V50.2981H143.508V45.542ZM31.5105 50.2981H36.1771V55.0541H31.5105V50.2981ZM36.1771 50.2981H40.8437V55.0541H36.1771V50.2981ZM40.8437 50.2981H45.5102V55.0541H40.8437V50.2981ZM45.5102 50.2981H50.1768V55.0541H45.5102V50.2981ZM50.1768 50.2981H54.8434V55.0541H50.1768V50.2981ZM54.8434 50.2981H59.51V55.0541H54.8434V50.2981ZM59.51 50.2981H64.1766V55.0541H59.51V50.2981ZM68.8432 50.2981H73.5097V55.0541H68.8432V50.2981ZM78.1763 50.2981H82.8429V55.0541H78.1763V50.2981ZM87.5095 50.2981H92.1761V55.0541H87.5095V50.2981ZM96.8426 50.2981H101.509V55.0541H96.8426V50.2981ZM106.176 50.2981H110.842V55.0541H106.176V50.2981ZM115.509 50.2981H120.176V55.0541H115.509V50.2981ZM120.176 50.2981H124.842V55.0541H120.176V50.2981ZM124.842 50.2981H129.509V55.0541H124.842V50.2981ZM129.509 50.2981H134.175V55.0541H129.509V50.2981ZM134.175 50.2981H138.842V55.0541H134.175V50.2981ZM138.842 50.2981H143.508V55.0541H138.842V50.2981ZM143.508 50.2981H148.175V55.0541H143.508V50.2981ZM68.8432 55.0541H73.5097V59.8101H68.8432V55.0541ZM73.5097 55.0541H78.1763V59.8101H73.5097V55.0541ZM78.1763 55.0541H82.8429V59.8101H78.1763V55.0541ZM96.8426 55.0541H101.509V59.8101H96.8426V55.0541ZM101.509 55.0541H106.176V59.8101H101.509V55.0541ZM106.176 55.0541H110.842V59.8101H106.176V55.0541ZM36.1771 59.8101H40.8437V64.5661H36.1771V59.8101ZM40.8437 59.8101H45.5102V64.5661H40.8437V59.8101ZM59.51 59.8101H64.1766V64.5661H59.51V59.8101ZM92.1761 59.8101H96.8426V64.5661H92.1761V59.8101ZM96.8426 59.8101H101.509V64.5661H96.8426V59.8101ZM106.176 59.8101H110.842V64.5661H106.176V59.8101ZM115.509 59.8101H120.176V64.5661H115.509V59.8101ZM120.176 59.8101H124.842V64.5661H120.176V59.8101ZM129.509 59.8101H134.175V64.5661H129.509V59.8101ZM36.1771 64.5661H40.8437V69.3221H36.1771V64.5661ZM40.8437 64.5661H45.5102V69.3221H40.8437V64.5661ZM50.1768 64.5661H54.8434V69.3221H50.1768V64.5661ZM64.1766 64.5661H68.8432V69.3221H64.1766V64.5661ZM78.1763 64.5661H82.8429V69.3221H78.1763V64.5661ZM82.8429 64.5661H87.5095V69.3221H82.8429V64.5661ZM87.5095 64.5661H92.1761V69.3221H87.5095V64.5661ZM92.1761 64.5661H96.8426V69.3221H92.1761V64.5661ZM96.8426 64.5661H101.509V69.3221H96.8426V64.5661ZM101.509 64.5661H106.176V69.3221H101.509V64.5661ZM106.176 64.5661H110.842V69.3221H106.176V64.5661ZM115.509 64.5661H120.176V69.3221H115.509V64.5661ZM120.176 64.5661H124.842V69.3221H120.176V64.5661ZM129.509 64.5661H134.175V69.3221H129.509V64.5661ZM138.842 64.5661H143.508V69.3221H138.842V64.5661ZM143.508 64.5661H148.175V69.3221H143.508V64.5661ZM59.51 69.3221H64.1766V74.0781H59.51V69.3221ZM82.8429 69.3221H87.5095V74.0781H82.8429V69.3221ZM101.509 69.3221H106.176V74.0781H101.509V69.3221ZM110.842 69.3221H115.509V74.0781H110.842V69.3221ZM120.176 69.3221H124.842V74.0781H120.176V69.3221ZM129.509 69.3221H134.175V74.0781H129.509V69.3221ZM134.175 69.3221H138.842V74.0781H134.175V69.3221ZM143.508 69.3221H148.175V74.0781H143.508V69.3221ZM31.5105 74.0781H36.1771V78.8342H31.5105V74.0781ZM36.1771 74.0781H40.8437V78.8342H36.1771V74.0781ZM50.1768 74.0781H54.8434V78.8342H50.1768V74.0781ZM64.1766 74.0781H68.8432V78.8342H64.1766V74.0781ZM73.5097 74.0781H78.1763V78.8342H73.5097V74.0781ZM78.1763 74.0781H82.8429V78.8342H78.1763V74.0781ZM92.1761 74.0781H96.8426V78.8342H92.1761V74.0781ZM101.509 74.0781H106.176V78.8342H101.509V74.0781ZM110.842 74.0781H115.509V78.8342H110.842V74.0781ZM120.176 74.0781H124.842V78.8342H120.176V74.0781ZM129.509 74.0781H134.175V78.8342H129.509V74.0781ZM31.5105 78.8342H36.1771V83.5902H31.5105V78.8342ZM36.1771 78.8342H40.8437V83.5902H36.1771V78.8342ZM45.5102 78.8342H50.1768V83.5902H45.5102V78.8342ZM59.51 78.8342H64.1766V83.5902H59.51V78.8342ZM64.1766 78.8342H68.8432V83.5902H64.1766V78.8342ZM68.8432 78.8342H73.5097V83.5902H68.8432V78.8342ZM73.5097 78.8342H78.1763V83.5902H73.5097V78.8342ZM78.1763 78.8342H82.8429V83.5902H78.1763V78.8342ZM92.1761 78.8342H96.8426V83.5902H92.1761V78.8342ZM101.509 78.8342H106.176V83.5902H101.509V78.8342ZM106.176 78.8342H110.842V83.5902H106.176V78.8342ZM115.509 78.8342H120.176V83.5902H115.509V78.8342ZM120.176 78.8342H124.842V83.5902H120.176V78.8342ZM143.508 78.8342H148.175V83.5902H143.508V78.8342ZM40.8437 83.5902H45.5102V88.3462H40.8437V83.5902ZM45.5102 83.5902H50.1768V88.3462H45.5102V83.5902ZM50.1768 83.5902H54.8434V88.3462H50.1768V83.5902ZM78.1763 83.5902H82.8429V88.3462H78.1763V83.5902ZM82.8429 83.5902H87.5095V88.3462H82.8429V83.5902ZM87.5095 83.5902H92.1761V88.3462H87.5095V83.5902ZM101.509 83.5902H106.176V88.3462H101.509V83.5902ZM106.176 83.5902H110.842V88.3462H106.176V83.5902ZM115.509 83.5902H120.176V88.3462H115.509V83.5902ZM120.176 83.5902H124.842V88.3462H120.176V83.5902ZM138.842 83.5902H143.508V88.3462H138.842V83.5902ZM143.508 83.5902H148.175V88.3462H143.508V83.5902ZM31.5105 88.3462H36.1771V93.1022H31.5105V88.3462ZM36.1771 88.3462H40.8437V93.1022H36.1771V88.3462ZM45.5102 88.3462H50.1768V93.1022H45.5102V88.3462ZM54.8434 88.3462H59.51V93.1022H54.8434V88.3462ZM59.51 88.3462H64.1766V93.1022H59.51V88.3462ZM68.8432 88.3462H73.5097V93.1022H68.8432V88.3462ZM73.5097 88.3462H78.1763V93.1022H73.5097V88.3462ZM78.1763 88.3462H82.8429V93.1022H78.1763V88.3462ZM87.5095 88.3462H92.1761V93.1022H87.5095V88.3462ZM101.509 88.3462H106.176V93.1022H101.509V88.3462ZM106.176 88.3462H110.842V93.1022H106.176V88.3462ZM115.509 88.3462H120.176V93.1022H115.509V88.3462ZM129.509 88.3462H134.175V93.1022H129.509V88.3462ZM134.175 88.3462H138.842V93.1022H134.175V88.3462ZM143.508 88.3462H148.175V93.1022H143.508V88.3462ZM40.8437 93.1022H45.5102V97.8582H40.8437V93.1022ZM45.5102 93.1022H50.1768V97.8582H45.5102V93.1022ZM50.1768 93.1022H54.8434V97.8582H50.1768V93.1022ZM64.1766 93.1022H68.8432V97.8582H64.1766V93.1022ZM78.1763 93.1022H82.8429V97.8582H78.1763V93.1022ZM96.8426 93.1022H101.509V97.8582H96.8426V93.1022ZM101.509 93.1022H106.176V97.8582H101.509V93.1022ZM106.176 93.1022H110.842V97.8582H106.176V93.1022ZM110.842 93.1022H115.509V97.8582H110.842V93.1022ZM115.509 93.1022H120.176V97.8582H115.509V93.1022ZM120.176 93.1022H124.842V97.8582H120.176V93.1022ZM124.842 93.1022H129.509V97.8582H124.842V93.1022ZM129.509 93.1022H134.175V97.8582H129.509V93.1022ZM31.5105 97.8582H36.1771V102.614H31.5105V97.8582ZM36.1771 97.8582H40.8437V102.614H36.1771V97.8582ZM40.8437 97.8582H45.5102V102.614H40.8437V97.8582ZM50.1768 97.8582H54.8434V102.614H50.1768V97.8582ZM59.51 97.8582H64.1766V102.614H59.51V97.8582ZM68.8432 97.8582H73.5097V102.614H68.8432V97.8582ZM82.8429 97.8582H87.5095V102.614H82.8429V97.8582ZM106.176 97.8582H110.842V102.614H106.176V97.8582ZM110.842 97.8582H115.509V102.614H110.842V97.8582ZM115.509 97.8582H120.176V102.614H115.509V97.8582ZM120.176 97.8582H124.842V102.614H120.176V97.8582ZM124.842 97.8582H129.509V102.614H124.842V97.8582ZM138.842 97.8582H143.508V102.614H138.842V97.8582ZM68.8432 102.614H73.5097V107.37H68.8432V102.614ZM73.5097 102.614H78.1763V107.37H73.5097V102.614ZM78.1763 102.614H82.8429V107.37H78.1763V102.614ZM82.8429 102.614H87.5095V107.37H82.8429V102.614ZM92.1761 102.614H96.8426V107.37H92.1761V102.614ZM96.8426 102.614H101.509V107.37H96.8426V102.614ZM106.176 102.614H110.842V107.37H106.176V102.614ZM124.842 102.614H129.509V107.37H124.842V102.614ZM143.508 102.614H148.175V107.37H143.508V102.614ZM31.5105 107.37H36.1771V112.126H31.5105V107.37ZM36.1771 107.37H40.8437V112.126H36.1771V107.37ZM40.8437 107.37H45.5102V112.126H40.8437V107.37ZM45.5102 107.37H50.1768V112.126H45.5102V107.37ZM50.1768 107.37H54.8434V112.126H50.1768V107.37ZM54.8434 107.37H59.51V112.126H54.8434V107.37ZM59.51 107.37H64.1766V112.126H59.51V107.37ZM78.1763 107.37H82.8429V112.126H78.1763V107.37ZM82.8429 107.37H87.5095V112.126H82.8429V107.37ZM96.8426 107.37H101.509V112.126H96.8426V107.37ZM106.176 107.37H110.842V112.126H106.176V107.37ZM115.509 107.37H120.176V112.126H115.509V107.37ZM124.842 107.37H129.509V112.126H124.842V107.37ZM143.508 107.37H148.175V112.126H143.508V107.37ZM31.5105 112.126H36.1771V116.882H31.5105V112.126ZM59.51 112.126H64.1766V116.882H59.51V112.126ZM73.5097 112.126H78.1763V116.882H73.5097V112.126ZM78.1763 112.126H82.8429V116.882H78.1763V112.126ZM87.5095 112.126H92.1761V116.882H87.5095V112.126ZM92.1761 112.126H96.8426V116.882H92.1761V112.126ZM106.176 112.126H110.842V116.882H106.176V112.126ZM124.842 112.126H129.509V116.882H124.842V112.126ZM138.842 112.126H143.508V116.882H138.842V112.126ZM31.5105 116.882H36.1771V121.638H31.5105V116.882ZM40.8437 116.882H45.5102V121.638H40.8437V116.882ZM45.5102 116.882H50.1768V121.638H45.5102V116.882ZM50.1768 116.882H54.8434V121.638H50.1768V116.882ZM59.51 116.882H64.1766V121.638H59.51V116.882ZM73.5097 116.882H78.1763V121.638H73.5097V116.882ZM78.1763 116.882H82.8429V121.638H78.1763V116.882ZM96.8426 116.882H101.509V121.638H96.8426V116.882ZM101.509 116.882H106.176V121.638H101.509V116.882ZM106.176 116.882H110.842V121.638H106.176V116.882ZM110.842 116.882H115.509V121.638H110.842V116.882ZM115.509 116.882H120.176V121.638H115.509V116.882ZM120.176 116.882H124.842V121.638H120.176V116.882ZM124.842 116.882H129.509V121.638H124.842V116.882ZM138.842 116.882H143.508V121.638H138.842V116.882ZM143.508 116.882H148.175V121.638H143.508V116.882ZM31.5105 121.638H36.1771V126.394H31.5105V121.638ZM40.8437 121.638H45.5102V126.394H40.8437V121.638ZM45.5102 121.638H50.1768V126.394H45.5102V121.638ZM50.1768 121.638H54.8434V126.394H50.1768V121.638ZM59.51 121.638H64.1766V126.394H59.51V121.638ZM73.5097 121.638H78.1763V126.394H73.5097V121.638ZM78.1763 121.638H82.8429V126.394H78.1763V121.638ZM82.8429 121.638H87.5095V126.394H82.8429V121.638ZM87.5095 121.638H92.1761V126.394H87.5095V121.638ZM101.509 121.638H106.176V126.394H101.509V121.638ZM110.842 121.638H115.509V126.394H110.842V121.638ZM124.842 121.638H129.509V126.394H124.842V121.638ZM134.175 121.638H138.842V126.394H134.175V121.638ZM138.842 121.638H143.508V126.394H138.842V121.638ZM31.5105 126.394H36.1771V131.15H31.5105V126.394ZM40.8437 126.394H45.5102V131.15H40.8437V126.394ZM45.5102 126.394H50.1768V131.15H45.5102V126.394ZM50.1768 126.394H54.8434V131.15H50.1768V126.394ZM59.51 126.394H64.1766V131.15H59.51V126.394ZM68.8432 126.394H73.5097V131.15H68.8432V126.394ZM92.1761 126.394H96.8426V131.15H92.1761V126.394ZM96.8426 126.394H101.509V131.15H96.8426V126.394ZM101.509 126.394H106.176V131.15H101.509V126.394ZM106.176 126.394H110.842V131.15H106.176V126.394ZM110.842 126.394H115.509V131.15H110.842V126.394ZM120.176 126.394H124.842V131.15H120.176V126.394ZM124.842 126.394H129.509V131.15H124.842V126.394ZM129.509 126.394H134.175V131.15H129.509V126.394ZM138.842 126.394H143.508V131.15H138.842V126.394ZM143.508 126.394H148.175V131.15H143.508V126.394ZM31.5105 131.15H36.1771V135.906H31.5105V131.15ZM59.51 131.15H64.1766V135.906H59.51V131.15ZM68.8432 131.15H73.5097V135.906H68.8432V131.15ZM73.5097 131.15H78.1763V135.906H73.5097V131.15ZM78.1763 131.15H82.8429V135.906H78.1763V131.15ZM92.1761 131.15H96.8426V135.906H92.1761V131.15ZM106.176 131.15H110.842V135.906H106.176V131.15ZM110.842 131.15H115.509V135.906H110.842V131.15ZM115.509 131.15H120.176V135.906H115.509V131.15ZM120.176 131.15H124.842V135.906H120.176V131.15ZM124.842 131.15H129.509V135.906H124.842V131.15ZM31.5105 135.906H36.1771V140.662H31.5105V135.906ZM36.1771 135.906H40.8437V140.662H36.1771V135.906ZM40.8437 135.906H45.5102V140.662H40.8437V135.906ZM45.5102 135.906H50.1768V140.662H45.5102V135.906ZM50.1768 135.906H54.8434V140.662H50.1768V135.906ZM54.8434 135.906H59.51V140.662H54.8434V135.906ZM59.51 135.906H64.1766V140.662H59.51V135.906ZM78.1763 135.906H82.8429V140.662H78.1763V135.906ZM87.5095 135.906H92.1761V140.662H87.5095V135.906ZM106.176 135.906H110.842V140.662H106.176V135.906ZM115.509 135.906H120.176V140.662H115.509V135.906ZM129.509 135.906H134.175V140.662H129.509V135.906ZM143.508 135.906H148.175V140.662H143.508V135.906Z" fill="black"/>
</g>
<defs>
<filter id="filter0_dd_148_1230" x="0" y="0.803223" width="177" height="176.456" filterUnits="userSpaceOnUse" color-interpolation-filters="sRGB">
<feFlood flood-opacity="0" result="BackgroundImageFix"/>
<feColorMatrix in="SourceAlpha" type="matrix" values="0 0 0 0 0 0 0 0 0 0 0 0 0 0 0 0 0 0 127 0" result="hardAlpha"/>
<feOffset dy="8"/>
<feGaussianBlur stdDeviation="8"/>
<feColorMatrix type="matrix" values="0 0 0 0 0.376471 0 0 0 0 0.380392 0 0 0 0 0.439216 0 0 0 0.16 0"/>
<feBlend mode="normal" in2="BackgroundImageFix" result="effect1_dropShadow_148_1230"/>
<feColorMatrix in="SourceAlpha" type="matrix" values="0 0 0 0 0 0 0 0 0 0 0 0 0 0 0 0 0 0 127 0" result="hardAlpha"/>
<feOffset dy="2"/>
<feGaussianBlur stdDeviation="2"/>
<feColorMatrix type="matrix" values="0 0 0 0 0.156863 0 0 0 0 0.160784 0 0 0 0 0.239216 0 0 0 0.04 0"/>
<feBlend mode="normal" in2="effect1_dropShadow_148_1230" result="effect2_dropShadow_148_1230"/>
<feBlend mode="normal" in="SourceGraphic" in2="effect2_dropShadow_148_1230" result="shape"/>
</filter>
</defs>
</svg>
