<svg width="50" height="50" viewBox="0 0 50 50" fill="none" xmlns="http://www.w3.org/2000/svg">
<g id="phone-number_svgrepo.com" clip-path="url(#clip0_245_2053)">
<path id="Shape" d="M38.4592 35.2346L33.4575 31.8798C33.2465 31.7294 32.9992 31.638 32.741 31.6149C32.4829 31.5918 32.2233 31.638 31.9889 31.7486L30.0686 32.7225C29.8277 32.841 29.5575 32.8865 29.2911 32.8536C29.0246 32.8207 28.7736 32.7107 28.5688 32.5372C24.9786 29.5664 22.5757 25.4044 21.798 20.8098C21.7501 20.5457 21.7804 20.2733 21.8851 20.0261C21.9898 19.7789 22.1644 19.5677 22.3874 19.4182L24.1358 18.1466C24.3525 18.0038 24.5272 17.8058 24.6419 17.573C24.7566 17.3402 24.807 17.081 24.7881 16.8222L24.3835 10.8131L24.2911 9.27395C24.2744 9.05244 24.2079 8.83755 24.0966 8.64533C23.918 8.33337 23.6293 8.09937 23.2872 7.98922C22.3436 7.67516 21.3387 7.59078 20.356 7.74311C19.3733 7.89544 18.4411 8.28008 17.6368 8.86506L17.2441 9.16398L17.0407 9.31993C16.946 9.38825 16.855 9.46163 16.7682 9.53976L16.5176 9.78068C13.2097 13.0136 13.8319 21.1414 18.0946 29.2122L19.3915 31.4584C24.2434 39.1746 30.9711 43.7774 35.4449 42.5969L35.7788 42.5004C35.8892 42.4645 35.9976 42.4228 36.1036 42.3754L36.3414 42.279L36.7967 42.0883C37.7049 41.6839 38.5036 41.0686 39.1264 40.2936C39.7492 39.5186 40.1781 38.6062 40.3775 37.6321C40.4532 37.2807 40.3948 36.9137 40.214 36.6031C40.1032 36.4106 39.9503 36.2455 39.7668 36.1203L38.4592 35.2346Z" stroke="black" stroke-opacity="0.8" stroke-width="3.75" stroke-miterlimit="10"/>
</g>
<defs>
<clipPath id="clip0_245_2053">
<rect width="50" height="50" fill="white"/>
</clipPath>
</defs>
</svg>
