<svg width="84" height="84" viewBox="0 0 84 84" fill="none" xmlns="http://www.w3.org/2000/svg">
<g id="Image">
<rect width="84" height="84" rx="4" fill="#F3F3F3"/>
<path id="Vector" d="M7 8H9.84V10.68H7V8ZM9.84 8H12.68V10.68H9.84V8ZM12.68 8H15.52V10.68H12.68V8ZM15.52 8H18.36V10.68H15.52V8ZM18.36 8H21.2V10.68H18.36V8ZM21.2 8H24.04V10.68H21.2V8ZM24.04 8H26.88V10.68H24.04V8ZM38.24 8H41.08V10.68H38.24V8ZM46.76 8H49.6V10.68H46.76V8ZM49.6 8H52.44V10.68H49.6V8ZM52.44 8H55.28V10.68H52.44V8ZM58.12 8H60.96V10.68H58.12V8ZM60.96 8H63.8V10.68H60.96V8ZM63.8 8H66.64V10.68H63.8V8ZM66.64 8H69.48V10.68H66.64V8ZM69.48 8H72.32V10.68H69.48V8ZM72.32 8H75.16V10.68H72.32V8ZM75.16 8H78V10.68H75.16V8ZM7 10.68H9.84V13.36H7V10.68ZM24.04 10.68H26.88V13.36H24.04V10.68ZM32.56 10.68H35.4V13.36H32.56V10.68ZM43.92 10.68H46.76V13.36H43.92V10.68ZM46.76 10.68H49.6V13.36H46.76V10.68ZM52.44 10.68H55.28V13.36H52.44V10.68ZM58.12 10.68H60.96V13.36H58.12V10.68ZM75.16 10.68H78V13.36H75.16V10.68ZM7 13.36H9.84V16.04H7V13.36ZM12.68 13.36H15.52V16.04H12.68V13.36ZM15.52 13.36H18.36V16.04H15.52V13.36ZM18.36 13.36H21.2V16.04H18.36V13.36ZM24.04 13.36H26.88V16.04H24.04V13.36ZM32.56 13.36H35.4V16.04H32.56V13.36ZM35.4 13.36H38.24V16.04H35.4V13.36ZM41.08 13.36H43.92V16.04H41.08V13.36ZM46.76 13.36H49.6V16.04H46.76V13.36ZM49.6 13.36H52.44V16.04H49.6V13.36ZM58.12 13.36H60.96V16.04H58.12V13.36ZM63.8 13.36H66.64V16.04H63.8V13.36ZM66.64 13.36H69.48V16.04H66.64V13.36ZM69.48 13.36H72.32V16.04H69.48V13.36ZM75.16 13.36H78V16.04H75.16V13.36ZM7 16.04H9.84V18.72H7V16.04ZM12.68 16.04H15.52V18.72H12.68V16.04ZM15.52 16.04H18.36V18.72H15.52V16.04ZM18.36 16.04H21.2V18.72H18.36V16.04ZM24.04 16.04H26.88V18.72H24.04V16.04ZM29.72 16.04H32.56V18.72H29.72V16.04ZM32.56 16.04H35.4V18.72H32.56V16.04ZM41.08 16.04H43.92V18.72H41.08V16.04ZM46.76 16.04H49.6V18.72H46.76V16.04ZM49.6 16.04H52.44V18.72H49.6V16.04ZM58.12 16.04H60.96V18.72H58.12V16.04ZM63.8 16.04H66.64V18.72H63.8V16.04ZM66.64 16.04H69.48V18.72H66.64V16.04ZM69.48 16.04H72.32V18.72H69.48V16.04ZM75.16 16.04H78V18.72H75.16V16.04ZM7 18.72H9.84V21.4H7V18.72ZM12.68 18.72H15.52V21.4H12.68V18.72ZM15.52 18.72H18.36V21.4H15.52V18.72ZM18.36 18.72H21.2V21.4H18.36V18.72ZM24.04 18.72H26.88V21.4H24.04V18.72ZM35.4 18.72H38.24V21.4H35.4V18.72ZM38.24 18.72H41.08V21.4H38.24V18.72ZM41.08 18.72H43.92V21.4H41.08V18.72ZM43.92 18.72H46.76V21.4H43.92V18.72ZM46.76 18.72H49.6V21.4H46.76V18.72ZM58.12 18.72H60.96V21.4H58.12V18.72ZM63.8 18.72H66.64V21.4H63.8V18.72ZM66.64 18.72H69.48V21.4H66.64V18.72ZM69.48 18.72H72.32V21.4H69.48V18.72ZM75.16 18.72H78V21.4H75.16V18.72ZM7 21.4H9.84V24.08H7V21.4ZM24.04 21.4H26.88V24.08H24.04V21.4ZM29.72 21.4H32.56V24.08H29.72V21.4ZM38.24 21.4H41.08V24.08H38.24V21.4ZM52.44 21.4H55.28V24.08H52.44V21.4ZM58.12 21.4H60.96V24.08H58.12V21.4ZM75.16 21.4H78V24.08H75.16V21.4ZM7 24.08H9.84V26.76H7V24.08ZM9.84 24.08H12.68V26.76H9.84V24.08ZM12.68 24.08H15.52V26.76H12.68V24.08ZM15.52 24.08H18.36V26.76H15.52V24.08ZM18.36 24.08H21.2V26.76H18.36V24.08ZM21.2 24.08H24.04V26.76H21.2V24.08ZM24.04 24.08H26.88V26.76H24.04V24.08ZM29.72 24.08H32.56V26.76H29.72V24.08ZM35.4 24.08H38.24V26.76H35.4V24.08ZM41.08 24.08H43.92V26.76H41.08V24.08ZM46.76 24.08H49.6V26.76H46.76V24.08ZM52.44 24.08H55.28V26.76H52.44V24.08ZM58.12 24.08H60.96V26.76H58.12V24.08ZM60.96 24.08H63.8V26.76H60.96V24.08ZM63.8 24.08H66.64V26.76H63.8V24.08ZM66.64 24.08H69.48V26.76H66.64V24.08ZM69.48 24.08H72.32V26.76H69.48V24.08ZM72.32 24.08H75.16V26.76H72.32V24.08ZM75.16 24.08H78V26.76H75.16V24.08ZM29.72 26.76H32.56V29.44H29.72V26.76ZM32.56 26.76H35.4V29.44H32.56V26.76ZM35.4 26.76H38.24V29.44H35.4V26.76ZM46.76 26.76H49.6V29.44H46.76V26.76ZM49.6 26.76H52.44V29.44H49.6V26.76ZM52.44 26.76H55.28V29.44H52.44V26.76ZM9.84 29.44H12.68V32.12H9.84V29.44ZM12.68 29.44H15.52V32.12H12.68V29.44ZM24.04 29.44H26.88V32.12H24.04V29.44ZM43.92 29.44H46.76V32.12H43.92V29.44ZM46.76 29.44H49.6V32.12H46.76V29.44ZM52.44 29.44H55.28V32.12H52.44V29.44ZM58.12 29.44H60.96V32.12H58.12V29.44ZM60.96 29.44H63.8V32.12H60.96V29.44ZM66.64 29.44H69.48V32.12H66.64V29.44ZM9.84 32.12H12.68V34.8H9.84V32.12ZM12.68 32.12H15.52V34.8H12.68V32.12ZM18.36 32.12H21.2V34.8H18.36V32.12ZM26.88 32.12H29.72V34.8H26.88V32.12ZM35.4 32.12H38.24V34.8H35.4V32.12ZM38.24 32.12H41.08V34.8H38.24V32.12ZM41.08 32.12H43.92V34.8H41.08V32.12ZM43.92 32.12H46.76V34.8H43.92V32.12ZM46.76 32.12H49.6V34.8H46.76V32.12ZM49.6 32.12H52.44V34.8H49.6V32.12ZM52.44 32.12H55.28V34.8H52.44V32.12ZM58.12 32.12H60.96V34.8H58.12V32.12ZM60.96 32.12H63.8V34.8H60.96V32.12ZM66.64 32.12H69.48V34.8H66.64V32.12ZM72.32 32.12H75.16V34.8H72.32V32.12ZM75.16 32.12H78V34.8H75.16V32.12ZM24.04 34.8H26.88V37.48H24.04V34.8ZM38.24 34.8H41.08V37.48H38.24V34.8ZM49.6 34.8H52.44V37.48H49.6V34.8ZM55.28 34.8H58.12V37.48H55.28V34.8ZM60.96 34.8H63.8V37.48H60.96V34.8ZM66.64 34.8H69.48V37.48H66.64V34.8ZM69.48 34.8H72.32V37.48H69.48V34.8ZM75.16 34.8H78V37.48H75.16V34.8ZM7 37.48H9.84V40.16H7V37.48ZM9.84 37.48H12.68V40.16H9.84V37.48ZM18.36 37.48H21.2V40.16H18.36V37.48ZM26.88 37.48H29.72V40.16H26.88V37.48ZM32.56 37.48H35.4V40.16H32.56V37.48ZM35.4 37.48H38.24V40.16H35.4V37.48ZM43.92 37.48H46.76V40.16H43.92V37.48ZM49.6 37.48H52.44V40.16H49.6V37.48ZM55.28 37.48H58.12V40.16H55.28V37.48ZM60.96 37.48H63.8V40.16H60.96V37.48ZM66.64 37.48H69.48V40.16H66.64V37.48ZM7 40.16H9.84V42.84H7V40.16ZM9.84 40.16H12.68V42.84H9.84V40.16ZM15.52 40.16H18.36V42.84H15.52V40.16ZM24.04 40.16H26.88V42.84H24.04V40.16ZM26.88 40.16H29.72V42.84H26.88V40.16ZM29.72 40.16H32.56V42.84H29.72V40.16ZM32.56 40.16H35.4V42.84H32.56V40.16ZM35.4 40.16H38.24V42.84H35.4V40.16ZM43.92 40.16H46.76V42.84H43.92V40.16ZM49.6 40.16H52.44V42.84H49.6V40.16ZM52.44 40.16H55.28V42.84H52.44V40.16ZM58.12 40.16H60.96V42.84H58.12V40.16ZM60.96 40.16H63.8V42.84H60.96V40.16ZM75.16 40.16H78V42.84H75.16V40.16ZM12.68 42.84H15.52V45.52H12.68V42.84ZM15.52 42.84H18.36V45.52H15.52V42.84ZM18.36 42.84H21.2V45.52H18.36V42.84ZM35.4 42.84H38.24V45.52H35.4V42.84ZM38.24 42.84H41.08V45.52H38.24V42.84ZM41.08 42.84H43.92V45.52H41.08V42.84ZM49.6 42.84H52.44V45.52H49.6V42.84ZM52.44 42.84H55.28V45.52H52.44V42.84ZM58.12 42.84H60.96V45.52H58.12V42.84ZM60.96 42.84H63.8V45.52H60.96V42.84ZM72.32 42.84H75.16V45.52H72.32V42.84ZM75.16 42.84H78V45.52H75.16V42.84ZM7 45.52H9.84V48.2H7V45.52ZM9.84 45.52H12.68V48.2H9.84V45.52ZM15.52 45.52H18.36V48.2H15.52V45.52ZM21.2 45.52H24.04V48.2H21.2V45.52ZM24.04 45.52H26.88V48.2H24.04V45.52ZM29.72 45.52H32.56V48.2H29.72V45.52ZM32.56 45.52H35.4V48.2H32.56V45.52ZM35.4 45.52H38.24V48.2H35.4V45.52ZM41.08 45.52H43.92V48.2H41.08V45.52ZM49.6 45.52H52.44V48.2H49.6V45.52ZM52.44 45.52H55.28V48.2H52.44V45.52ZM58.12 45.52H60.96V48.2H58.12V45.52ZM66.64 45.52H69.48V48.2H66.64V45.52ZM69.48 45.52H72.32V48.2H69.48V45.52ZM75.16 45.52H78V48.2H75.16V45.52ZM12.68 48.2H15.52V50.88H12.68V48.2ZM15.52 48.2H18.36V50.88H15.52V48.2ZM18.36 48.2H21.2V50.88H18.36V48.2ZM26.88 48.2H29.72V50.88H26.88V48.2ZM35.4 48.2H38.24V50.88H35.4V48.2ZM46.76 48.2H49.6V50.88H46.76V48.2ZM49.6 48.2H52.44V50.88H49.6V48.2ZM52.44 48.2H55.28V50.88H52.44V48.2ZM55.28 48.2H58.12V50.88H55.28V48.2ZM58.12 48.2H60.96V50.88H58.12V48.2ZM60.96 48.2H63.8V50.88H60.96V48.2ZM63.8 48.2H66.64V50.88H63.8V48.2ZM66.64 48.2H69.48V50.88H66.64V48.2ZM7 50.88H9.84V53.56H7V50.88ZM9.84 50.88H12.68V53.56H9.84V50.88ZM12.68 50.88H15.52V53.56H12.68V50.88ZM18.36 50.88H21.2V53.56H18.36V50.88ZM24.04 50.88H26.88V53.56H24.04V50.88ZM29.72 50.88H32.56V53.56H29.72V50.88ZM38.24 50.88H41.08V53.56H38.24V50.88ZM52.44 50.88H55.28V53.56H52.44V50.88ZM55.28 50.88H58.12V53.56H55.28V50.88ZM58.12 50.88H60.96V53.56H58.12V50.88ZM60.96 50.88H63.8V53.56H60.96V50.88ZM63.8 50.88H66.64V53.56H63.8V50.88ZM72.32 50.88H75.16V53.56H72.32V50.88ZM29.72 53.56H32.56V56.24H29.72V53.56ZM32.56 53.56H35.4V56.24H32.56V53.56ZM35.4 53.56H38.24V56.24H35.4V53.56ZM38.24 53.56H41.08V56.24H38.24V53.56ZM43.92 53.56H46.76V56.24H43.92V53.56ZM46.76 53.56H49.6V56.24H46.76V53.56ZM52.44 53.56H55.28V56.24H52.44V53.56ZM63.8 53.56H66.64V56.24H63.8V53.56ZM75.16 53.56H78V56.24H75.16V53.56ZM7 56.24H9.84V58.92H7V56.24ZM9.84 56.24H12.68V58.92H9.84V56.24ZM12.68 56.24H15.52V58.92H12.68V56.24ZM15.52 56.24H18.36V58.92H15.52V56.24ZM18.36 56.24H21.2V58.92H18.36V56.24ZM21.2 56.24H24.04V58.92H21.2V56.24ZM24.04 56.24H26.88V58.92H24.04V56.24ZM35.4 56.24H38.24V58.92H35.4V56.24ZM38.24 56.24H41.08V58.92H38.24V56.24ZM46.76 56.24H49.6V58.92H46.76V56.24ZM52.44 56.24H55.28V58.92H52.44V56.24ZM58.12 56.24H60.96V58.92H58.12V56.24ZM63.8 56.24H66.64V58.92H63.8V56.24ZM75.16 56.24H78V58.92H75.16V56.24ZM7 58.92H9.84V61.6H7V58.92ZM24.04 58.92H26.88V61.6H24.04V58.92ZM32.56 58.92H35.4V61.6H32.56V58.92ZM35.4 58.92H38.24V61.6H35.4V58.92ZM41.08 58.92H43.92V61.6H41.08V58.92ZM43.92 58.92H46.76V61.6H43.92V58.92ZM52.44 58.92H55.28V61.6H52.44V58.92ZM63.8 58.92H66.64V61.6H63.8V58.92ZM72.32 58.92H75.16V61.6H72.32V58.92ZM7 61.6H9.84V64.28H7V61.6ZM12.68 61.6H15.52V64.28H12.68V61.6ZM15.52 61.6H18.36V64.28H15.52V61.6ZM18.36 61.6H21.2V64.28H18.36V61.6ZM24.04 61.6H26.88V64.28H24.04V61.6ZM32.56 61.6H35.4V64.28H32.56V61.6ZM35.4 61.6H38.24V64.28H35.4V61.6ZM46.76 61.6H49.6V64.28H46.76V61.6ZM49.6 61.6H52.44V64.28H49.6V61.6ZM52.44 61.6H55.28V64.28H52.44V61.6ZM55.28 61.6H58.12V64.28H55.28V61.6ZM58.12 61.6H60.96V64.28H58.12V61.6ZM60.96 61.6H63.8V64.28H60.96V61.6ZM63.8 61.6H66.64V64.28H63.8V61.6ZM72.32 61.6H75.16V64.28H72.32V61.6ZM75.16 61.6H78V64.28H75.16V61.6ZM7 64.28H9.84V66.96H7V64.28ZM12.68 64.28H15.52V66.96H12.68V64.28ZM15.52 64.28H18.36V66.96H15.52V64.28ZM18.36 64.28H21.2V66.96H18.36V64.28ZM24.04 64.28H26.88V66.96H24.04V64.28ZM32.56 64.28H35.4V66.96H32.56V64.28ZM35.4 64.28H38.24V66.96H35.4V64.28ZM38.24 64.28H41.08V66.96H38.24V64.28ZM41.08 64.28H43.92V66.96H41.08V64.28ZM49.6 64.28H52.44V66.96H49.6V64.28ZM55.28 64.28H58.12V66.96H55.28V64.28ZM63.8 64.28H66.64V66.96H63.8V64.28ZM69.48 64.28H72.32V66.96H69.48V64.28ZM72.32 64.28H75.16V66.96H72.32V64.28ZM7 66.96H9.84V69.64H7V66.96ZM12.68 66.96H15.52V69.64H12.68V66.96ZM15.52 66.96H18.36V69.64H15.52V66.96ZM18.36 66.96H21.2V69.64H18.36V66.96ZM24.04 66.96H26.88V69.64H24.04V66.96ZM29.72 66.96H32.56V69.64H29.72V66.96ZM43.92 66.96H46.76V69.64H43.92V66.96ZM46.76 66.96H49.6V69.64H46.76V66.96ZM49.6 66.96H52.44V69.64H49.6V66.96ZM52.44 66.96H55.28V69.64H52.44V66.96ZM55.28 66.96H58.12V69.64H55.28V66.96ZM60.96 66.96H63.8V69.64H60.96V66.96ZM63.8 66.96H66.64V69.64H63.8V66.96ZM66.64 66.96H69.48V69.64H66.64V66.96ZM72.32 66.96H75.16V69.64H72.32V66.96ZM75.16 66.96H78V69.64H75.16V66.96ZM7 69.64H9.84V72.32H7V69.64ZM24.04 69.64H26.88V72.32H24.04V69.64ZM29.72 69.64H32.56V72.32H29.72V69.64ZM32.56 69.64H35.4V72.32H32.56V69.64ZM35.4 69.64H38.24V72.32H35.4V69.64ZM43.92 69.64H46.76V72.32H43.92V69.64ZM52.44 69.64H55.28V72.32H52.44V69.64ZM55.28 69.64H58.12V72.32H55.28V69.64ZM58.12 69.64H60.96V72.32H58.12V69.64ZM60.96 69.64H63.8V72.32H60.96V69.64ZM63.8 69.64H66.64V72.32H63.8V69.64ZM7 72.32H9.84V75H7V72.32ZM9.84 72.32H12.68V75H9.84V72.32ZM12.68 72.32H15.52V75H12.68V72.32ZM15.52 72.32H18.36V75H15.52V72.32ZM18.36 72.32H21.2V75H18.36V72.32ZM21.2 72.32H24.04V75H21.2V72.32ZM24.04 72.32H26.88V75H24.04V72.32ZM35.4 72.32H38.24V75H35.4V72.32ZM41.08 72.32H43.92V75H41.08V72.32ZM52.44 72.32H55.28V75H52.44V72.32ZM58.12 72.32H60.96V75H58.12V72.32ZM66.64 72.32H69.48V75H66.64V72.32ZM75.16 72.32H78V75H75.16V72.32Z" fill="black"/>
</g>
</svg>
