<svg width="45" height="33" viewBox="0 0 45 33" fill="none" xmlns="http://www.w3.org/2000/svg">
<path id="Vector" d="M40.8051 0H4.19492C1.87932 0.00305085 0.00305085 1.87932 0 4.19492V28.6017C0.00305085 30.9173 1.87932 32.7936 4.19492 32.7966H40.8051C43.1207 32.7936 44.997 30.9173 45 28.6017V4.19492C44.997 1.87932 43.1207 0.00305085 40.8051 0ZM4.19492 2.28814H40.8051C41.8576 2.28966 42.7103 3.14237 42.7119 4.19492V6.1017H2.28814V4.19492C2.28966 3.14237 3.14237 2.28966 4.19492 2.28814ZM40.8051 30.5085H4.19492C3.14237 30.507 2.28966 29.6542 2.28814 28.6017V8.38983H42.7119V28.6017C42.7103 29.6542 41.8576 30.507 40.8051 30.5085ZM12.8059 18.8817C15.0254 18.8817 16.8254 17.0817 16.8254 14.8622C16.8254 12.6427 15.0254 10.8427 12.8059 10.8427C10.5864 10.8427 8.78644 12.6427 8.78644 14.8622C8.78797 17.0817 10.5864 18.8786 12.8059 18.8817ZM12.8059 13.1308C13.7624 13.1308 14.5373 13.9058 14.5373 14.8622C14.5373 15.8186 13.7624 16.5936 12.8059 16.5936C11.8495 16.5936 11.0746 15.8186 11.0746 14.8622C11.0761 13.9058 11.8495 13.1324 12.8059 13.1308ZM12.8059 20.6863C9.52627 20.7 6.78509 22.9897 6.07881 26.0558L6.06966 26.1031C6.05288 26.1763 6.04373 26.2602 6.04373 26.3471C6.04373 26.9786 6.55627 27.4912 7.1878 27.4912C7.73237 27.4912 8.18847 27.1098 8.30288 26.5988L8.30441 26.5912C8.77576 24.5075 10.6108 22.9744 12.8059 22.9744C15.001 22.9744 16.8361 24.5075 17.3014 26.5607L17.3075 26.5912C17.4249 27.1068 17.8795 27.4866 18.4241 27.4866C19.0556 27.4866 19.5681 26.9741 19.5681 26.3425C19.5681 26.2571 19.559 26.1747 19.5407 26.0939L19.5422 26.1015C18.8268 22.9881 16.0871 20.7 12.809 20.6847H12.8075L12.8059 20.6863ZM37.7542 12.2034H25.5508C24.9193 12.2034 24.4068 12.7159 24.4068 13.3475C24.4068 13.979 24.9193 14.4915 25.5508 14.4915H37.7542C38.3858 14.4915 38.8983 13.979 38.8983 13.3475C38.8983 12.7159 38.3858 12.2034 37.7542 12.2034ZM37.7542 18.3051H25.5508C24.9193 18.3051 24.4068 18.8176 24.4068 19.4492C24.4068 20.0807 24.9193 20.5932 25.5508 20.5932H37.7542C38.3858 20.5932 38.8983 20.0807 38.8983 19.4492C38.8983 18.8176 38.3858 18.3051 37.7542 18.3051ZM37.7542 24.4068H25.5508C24.9193 24.4068 24.4068 24.9193 24.4068 25.5508C24.4068 26.1824 24.9193 26.6949 25.5508 26.6949H37.7542C38.3858 26.6949 38.8983 26.1824 38.8983 25.5508C38.8983 24.9193 38.3858 24.4068 37.7542 24.4068Z" fill="black" fill-opacity="0.8"/>
</svg>
