<svg width="12" height="13" viewBox="0 0 12 13" fill="none" xmlns="http://www.w3.org/2000/svg">
<g id="bi:chevron-down">
<path id="Vector" fill-rule="evenodd" clip-rule="evenodd" d="M1.14034 3.52906C1.17252 3.49369 1.21074 3.46563 1.25283 3.44648C1.29491 3.42734 1.34002 3.41748 1.38559 3.41748C1.43115 3.41748 1.47627 3.42734 1.51835 3.44648C1.56043 3.46563 1.59866 3.49369 1.63083 3.52906L5.54232 7.8184L9.4538 3.52906C9.48601 3.49375 9.52424 3.46574 9.56632 3.44663C9.6084 3.42752 9.6535 3.41768 9.69905 3.41768C9.7446 3.41768 9.7897 3.42752 9.83178 3.44663C9.87386 3.46574 9.91209 3.49375 9.9443 3.52906C9.9765 3.56437 10.002 3.60629 10.0195 3.65243C10.0369 3.69856 10.0459 3.74801 10.0459 3.79795C10.0459 3.84789 10.0369 3.89733 10.0195 3.94347C10.002 3.98961 9.9765 4.03153 9.9443 4.06684L5.78757 8.62431C5.75539 8.65968 5.71716 8.68774 5.67508 8.70689C5.633 8.72603 5.58788 8.73589 5.54232 8.73589C5.49676 8.73589 5.45164 8.72603 5.40956 8.70689C5.36747 8.68774 5.32925 8.65968 5.29707 8.62431L1.14034 4.06684C1.10808 4.03156 1.08249 3.98965 1.06503 3.94351C1.04756 3.89737 1.03857 3.8479 1.03857 3.79795C1.03857 3.74799 1.04756 3.69853 1.06503 3.65239C1.08249 3.60625 1.10808 3.56434 1.14034 3.52906Z" fill="#42A7C3"/>
</g>
</svg>
