<svg width="16" height="17" viewBox="0 0 16 17" fill="none" xmlns="http://www.w3.org/2000/svg">
<g id="ep:location">
<path id="Vector" d="M11.8089 7.1076C11.8089 5.97443 11.361 4.88767 10.5638 4.0864C9.76653 3.28512 8.68522 2.83497 7.55773 2.83497C6.43024 2.83497 5.34893 3.28512 4.55168 4.0864C3.75442 4.88767 3.30653 5.97443 3.30653 7.1076C3.30653 8.86033 4.70187 11.1448 7.55773 13.8811C10.4136 11.1448 11.8089 8.86033 11.8089 7.1076ZM7.55773 15.1781C4.09347 12.0135 2.36182 9.32272 2.36182 7.1076C2.36182 5.72261 2.90924 4.39435 3.88366 3.41502C4.85809 2.43568 6.17969 1.8855 7.55773 1.8855C8.93577 1.8855 10.2574 2.43568 11.2318 3.41502C12.2062 4.39435 12.7536 5.72261 12.7536 7.1076C12.7536 9.32272 11.022 12.0135 7.55773 15.1781Z" fill="#42A7C3"/>
<path id="Vector_2" d="M7.55758 8.53178C7.93341 8.53178 8.29385 8.38173 8.5596 8.11464C8.82535 7.84755 8.97465 7.48529 8.97465 7.10757C8.97465 6.72985 8.82535 6.36759 8.5596 6.1005C8.29385 5.83341 7.93341 5.68336 7.55758 5.68336C7.18175 5.68336 6.82131 5.83341 6.55556 6.1005C6.28981 6.36759 6.14051 6.72985 6.14051 7.10757C6.14051 7.48529 6.28981 7.84755 6.55556 8.11464C6.82131 8.38173 7.18175 8.53178 7.55758 8.53178ZM7.55758 9.48125C6.9312 9.48125 6.33047 9.23117 5.88755 8.78602C5.44463 8.34087 5.1958 7.73711 5.1958 7.10757C5.1958 6.47803 5.44463 5.87427 5.88755 5.42912C6.33047 4.98397 6.9312 4.73389 7.55758 4.73389C8.18396 4.73389 8.78469 4.98397 9.22761 5.42912C9.67053 5.87427 9.91936 6.47803 9.91936 7.10757C9.91936 7.73711 9.67053 8.34087 9.22761 8.78602C8.78469 9.23117 8.18396 9.48125 7.55758 9.48125Z" fill="#42A7C3"/>
</g>
</svg>
