<svg width="349" height="158" viewBox="0 0 349 158" fill="none" xmlns="http://www.w3.org/2000/svg">
<path d="M5.472 19.126C4.632 19.126 3.876 18.982 3.204 18.694C2.532 18.394 2.004 17.974 1.62 17.434C1.236 16.894 1.044 16.264 1.044 15.544H3.24C3.288 16.084 3.498 16.528 3.87 16.876C4.254 17.224 4.788 17.398 5.472 17.398C6.18 17.398 6.732 17.23 7.128 16.894C7.524 16.546 7.722 16.102 7.722 15.562C7.722 15.142 7.596 14.8 7.344 14.536C7.104 14.272 6.798 14.068 6.426 13.924C6.066 13.78 5.562 13.624 4.914 13.456C4.098 13.24 3.432 13.024 2.916 12.808C2.412 12.58 1.98 12.232 1.62 11.764C1.26 11.296 1.08 10.672 1.08 9.892C1.08 9.172 1.26 8.542 1.62 8.002C1.98 7.462 2.484 7.048 3.132 6.76C3.78 6.472 4.53 6.328 5.382 6.328C6.594 6.328 7.584 6.634 8.352 7.246C9.132 7.846 9.564 8.674 9.648 9.73H7.38C7.344 9.274 7.128 8.884 6.732 8.56C6.336 8.236 5.814 8.074 5.166 8.074C4.578 8.074 4.098 8.224 3.726 8.524C3.354 8.824 3.168 9.256 3.168 9.82C3.168 10.204 3.282 10.522 3.51 10.774C3.75 11.014 4.05 11.206 4.41 11.35C4.77 11.494 5.262 11.65 5.886 11.818C6.714 12.046 7.386 12.274 7.902 12.502C8.43 12.73 8.874 13.084 9.234 13.564C9.606 14.032 9.792 14.662 9.792 15.454C9.792 16.09 9.618 16.69 9.27 17.254C8.934 17.818 8.436 18.274 7.776 18.622C7.128 18.958 6.36 19.126 5.472 19.126ZM21.2295 13.798C21.2295 14.17 21.2055 14.506 21.1575 14.806H13.5795C13.6395 15.598 13.9335 16.234 14.4615 16.714C14.9895 17.194 15.6375 17.434 16.4055 17.434C17.5095 17.434 18.2895 16.972 18.7455 16.048H20.9595C20.6595 16.96 20.1135 17.71 19.3215 18.298C18.5415 18.874 17.5695 19.162 16.4055 19.162C15.4575 19.162 14.6055 18.952 13.8495 18.532C13.1055 18.1 12.5175 17.5 12.0855 16.732C11.6655 15.952 11.4555 15.052 11.4555 14.032C11.4555 13.012 11.6595 12.118 12.0675 11.35C12.4875 10.57 13.0695 9.97 13.8135 9.55C14.5695 9.13 15.4335 8.92 16.4055 8.92C17.3415 8.92 18.1755 9.124 18.9075 9.532C19.6395 9.94 20.2095 10.516 20.6175 11.26C21.0255 11.992 21.2295 12.838 21.2295 13.798ZM19.0875 13.15C19.0755 12.394 18.8055 11.788 18.2775 11.332C17.7495 10.876 17.0955 10.648 16.3155 10.648C15.6075 10.648 15.0015 10.876 14.4975 11.332C13.9935 11.776 13.6935 12.382 13.5975 13.15H19.0875ZM25.2271 10.522C25.5271 10.018 25.9231 9.628 26.4151 9.352C26.9191 9.064 27.5131 8.92 28.1971 8.92V11.044H27.6751C26.8711 11.044 26.2591 11.248 25.8391 11.656C25.4311 12.064 25.2271 12.772 25.2271 13.78V19H23.1751V9.082H25.2271V10.522ZM33.8435 17.164L36.6515 9.082H38.8295L35.0495 19H32.6015L28.8395 9.082H31.0355L33.8435 17.164ZM41.3508 7.768C40.9788 7.768 40.6668 7.642 40.4148 7.39C40.1628 7.138 40.0368 6.826 40.0368 6.454C40.0368 6.082 40.1628 5.77 40.4148 5.518C40.6668 5.266 40.9788 5.14 41.3508 5.14C41.7108 5.14 42.0168 5.266 42.2688 5.518C42.5208 5.77 42.6468 6.082 42.6468 6.454C42.6468 6.826 42.5208 7.138 42.2688 7.39C42.0168 7.642 41.7108 7.768 41.3508 7.768ZM42.3588 9.082V19H40.3068V9.082H42.3588ZM44.295 14.032C44.295 13.012 44.499 12.118 44.907 11.35C45.327 10.57 45.903 9.97 46.635 9.55C47.367 9.13 48.207 8.92 49.155 8.92C50.355 8.92 51.345 9.208 52.125 9.784C52.917 10.348 53.451 11.158 53.727 12.214H51.513C51.333 11.722 51.045 11.338 50.649 11.062C50.253 10.786 49.755 10.648 49.155 10.648C48.315 10.648 47.643 10.948 47.139 11.548C46.647 12.136 46.401 12.964 46.401 14.032C46.401 15.1 46.647 15.934 47.139 16.534C47.643 17.134 48.315 17.434 49.155 17.434C50.343 17.434 51.129 16.912 51.513 15.868H53.727C53.439 16.876 52.899 17.68 52.107 18.28C51.315 18.868 50.331 19.162 49.155 19.162C48.207 19.162 47.367 18.952 46.635 18.532C45.903 18.1 45.327 17.5 44.907 16.732C44.499 15.952 44.295 15.052 44.295 14.032ZM64.7882 13.798C64.7882 14.17 64.7642 14.506 64.7162 14.806H57.1382C57.1982 15.598 57.4922 16.234 58.0202 16.714C58.5482 17.194 59.1962 17.434 59.9642 17.434C61.0682 17.434 61.8482 16.972 62.3042 16.048H64.5182C64.2182 16.96 63.6722 17.71 62.8802 18.298C62.1002 18.874 61.1282 19.162 59.9642 19.162C59.0162 19.162 58.1642 18.952 57.4082 18.532C56.6642 18.1 56.0762 17.5 55.6442 16.732C55.2242 15.952 55.0142 15.052 55.0142 14.032C55.0142 13.012 55.2182 12.118 55.6262 11.35C56.0462 10.57 56.6282 9.97 57.3722 9.55C58.1282 9.13 58.9922 8.92 59.9642 8.92C60.9002 8.92 61.7342 9.124 62.4662 9.532C63.1982 9.94 63.7682 10.516 64.1762 11.26C64.5842 11.992 64.7882 12.838 64.7882 13.798ZM62.6462 13.15C62.6342 12.394 62.3642 11.788 61.8362 11.332C61.3082 10.876 60.6542 10.648 59.8742 10.648C59.1662 10.648 58.5602 10.876 58.0562 11.332C57.5522 11.776 57.2522 12.382 57.1562 13.15H62.6462ZM70.3338 19.162C69.5538 19.162 68.8518 19.024 68.2278 18.748C67.6158 18.46 67.1298 18.076 66.7698 17.596C66.4098 17.104 66.2178 16.558 66.1938 15.958H68.3178C68.3538 16.378 68.5518 16.732 68.9118 17.02C69.2838 17.296 69.7458 17.434 70.2978 17.434C70.8738 17.434 71.3178 17.326 71.6298 17.11C71.9538 16.882 72.1158 16.594 72.1158 16.246C72.1158 15.874 71.9358 15.598 71.5758 15.418C71.2278 15.238 70.6698 15.04 69.9018 14.824C69.1578 14.62 68.5518 14.422 68.0838 14.23C67.6158 14.038 67.2078 13.744 66.8598 13.348C66.5238 12.952 66.3558 12.43 66.3558 11.782C66.3558 11.254 66.5118 10.774 66.8238 10.342C67.1358 9.898 67.5798 9.55 68.1558 9.298C68.7438 9.046 69.4158 8.92 70.1718 8.92C71.2998 8.92 72.2058 9.208 72.8898 9.784C73.5858 10.348 73.9578 11.122 74.0058 12.106H71.9538C71.9178 11.662 71.7378 11.308 71.4138 11.044C71.0898 10.78 70.6518 10.648 70.0998 10.648C69.5598 10.648 69.1458 10.75 68.8578 10.954C68.5698 11.158 68.4258 11.428 68.4258 11.764C68.4258 12.028 68.5218 12.25 68.7138 12.43C68.9058 12.61 69.1398 12.754 69.4158 12.862C69.6918 12.958 70.0998 13.084 70.6398 13.24C71.3598 13.432 71.9478 13.63 72.4038 13.834C72.8718 14.026 73.2738 14.314 73.6098 14.698C73.9458 15.082 74.1198 15.592 74.1318 16.228C74.1318 16.792 73.9758 17.296 73.6638 17.74C73.3518 18.184 72.9078 18.532 72.3318 18.784C71.7678 19.036 71.1018 19.162 70.3338 19.162ZM86.5832 19.126C85.4192 19.126 84.3452 18.856 83.3612 18.316C82.3892 17.764 81.6152 17.002 81.0392 16.03C80.4752 15.046 80.1932 13.942 80.1932 12.718C80.1932 11.494 80.4752 10.396 81.0392 9.424C81.6152 8.452 82.3892 7.696 83.3612 7.156C84.3452 6.604 85.4192 6.328 86.5832 6.328C87.7592 6.328 88.8332 6.604 89.8052 7.156C90.7892 7.696 91.5632 8.452 92.1272 9.424C92.6912 10.396 92.9732 11.494 92.9732 12.718C92.9732 13.942 92.6912 15.046 92.1272 16.03C91.5632 17.002 90.7892 17.764 89.8052 18.316C88.8332 18.856 87.7592 19.126 86.5832 19.126ZM86.5832 17.344C87.4112 17.344 88.1492 17.158 88.7972 16.786C89.4452 16.402 89.9492 15.862 90.3092 15.166C90.6812 14.458 90.8672 13.642 90.8672 12.718C90.8672 11.794 90.6812 10.984 90.3092 10.288C89.9492 9.592 89.4452 9.058 88.7972 8.686C88.1492 8.314 87.4112 8.128 86.5832 8.128C85.7552 8.128 85.0172 8.314 84.3692 8.686C83.7212 9.058 83.2112 9.592 82.8392 10.288C82.4792 10.984 82.2992 11.794 82.2992 12.718C82.2992 13.642 82.4792 14.458 82.8392 15.166C83.2112 15.862 83.7212 16.402 84.3692 16.786C85.0172 17.158 85.7552 17.344 86.5832 17.344ZM99.0766 10.756H97.2406V19H95.1706V10.756H94.0006V9.082H95.1706V8.38C95.1706 7.24 95.4706 6.412 96.0706 5.896C96.6826 5.368 97.6366 5.104 98.9326 5.104V6.814C98.3086 6.814 97.8706 6.934 97.6186 7.174C97.3666 7.402 97.2406 7.804 97.2406 8.38V9.082H99.0766V10.756ZM104.979 10.756H103.143V19H101.073V10.756H99.9034V9.082H101.073V8.38C101.073 7.24 101.373 6.412 101.973 5.896C102.585 5.368 103.539 5.104 104.835 5.104V6.814C104.211 6.814 103.773 6.934 103.521 7.174C103.269 7.402 103.143 7.804 103.143 8.38V9.082H104.979V10.756ZM115.814 13.798C115.814 14.17 115.79 14.506 115.742 14.806H108.164C108.224 15.598 108.518 16.234 109.046 16.714C109.574 17.194 110.222 17.434 110.99 17.434C112.094 17.434 112.874 16.972 113.33 16.048H115.544C115.244 16.96 114.698 17.71 113.906 18.298C113.126 18.874 112.154 19.162 110.99 19.162C110.042 19.162 109.19 18.952 108.434 18.532C107.69 18.1 107.102 17.5 106.67 16.732C106.25 15.952 106.04 15.052 106.04 14.032C106.04 13.012 106.244 12.118 106.652 11.35C107.072 10.57 107.654 9.97 108.398 9.55C109.154 9.13 110.018 8.92 110.99 8.92C111.926 8.92 112.76 9.124 113.492 9.532C114.224 9.94 114.794 10.516 115.202 11.26C115.61 11.992 115.814 12.838 115.814 13.798ZM113.672 13.15C113.66 12.394 113.39 11.788 112.862 11.332C112.334 10.876 111.68 10.648 110.9 10.648C110.192 10.648 109.586 10.876 109.082 11.332C108.578 11.776 108.278 12.382 108.182 13.15H113.672ZM119.812 10.522C120.112 10.018 120.508 9.628 121 9.352C121.504 9.064 122.098 8.92 122.782 8.92V11.044H122.26C121.456 11.044 120.844 11.248 120.424 11.656C120.016 12.064 119.812 12.772 119.812 13.78V19H117.76V9.082H119.812V10.522ZM133.684 13.798C133.684 14.17 133.66 14.506 133.612 14.806H126.034C126.094 15.598 126.388 16.234 126.916 16.714C127.444 17.194 128.092 17.434 128.86 17.434C129.964 17.434 130.744 16.972 131.2 16.048H133.414C133.114 16.96 132.568 17.71 131.776 18.298C130.996 18.874 130.024 19.162 128.86 19.162C127.912 19.162 127.06 18.952 126.304 18.532C125.56 18.1 124.972 17.5 124.54 16.732C124.12 15.952 123.91 15.052 123.91 14.032C123.91 13.012 124.114 12.118 124.522 11.35C124.942 10.57 125.524 9.97 126.268 9.55C127.024 9.13 127.888 8.92 128.86 8.92C129.796 8.92 130.63 9.124 131.362 9.532C132.094 9.94 132.664 10.516 133.072 11.26C133.48 11.992 133.684 12.838 133.684 13.798ZM131.542 13.15C131.53 12.394 131.26 11.788 130.732 11.332C130.204 10.876 129.55 10.648 128.77 10.648C128.062 10.648 127.456 10.876 126.952 11.332C126.448 11.776 126.148 12.382 126.052 13.15H131.542ZM134.946 13.996C134.946 13 135.15 12.118 135.558 11.35C135.978 10.582 136.542 9.988 137.25 9.568C137.97 9.136 138.768 8.92 139.644 8.92C140.292 8.92 140.928 9.064 141.552 9.352C142.188 9.628 142.692 10 143.064 10.468V5.68H145.134V19H143.064V17.506C142.728 17.986 142.26 18.382 141.66 18.694C141.072 19.006 140.394 19.162 139.626 19.162C138.762 19.162 137.97 18.946 137.25 18.514C136.542 18.07 135.978 17.458 135.558 16.678C135.15 15.886 134.946 14.992 134.946 13.996ZM143.064 14.032C143.064 13.348 142.92 12.754 142.632 12.25C142.356 11.746 141.99 11.362 141.534 11.098C141.078 10.834 140.586 10.702 140.058 10.702C139.53 10.702 139.038 10.834 138.582 11.098C138.126 11.35 137.754 11.728 137.466 12.232C137.19 12.724 137.052 13.312 137.052 13.996C137.052 14.68 137.19 15.28 137.466 15.796C137.754 16.312 138.126 16.708 138.582 16.984C139.05 17.248 139.542 17.38 140.058 17.38C140.586 17.38 141.078 17.248 141.534 16.984C141.99 16.72 142.356 16.336 142.632 15.832C142.92 15.316 143.064 14.716 143.064 14.032Z" fill="black"/>
<rect y="41" width="67" height="67" rx="12" fill="#38D79F" fill-opacity="0.08"/>
<path fill-rule="evenodd" clip-rule="evenodd" d="M19 61H27.75V68.3684H19V61ZM21.625 63.2105V66.1579H25.125V63.2105H21.625ZM33 63.9474H47V66.8947H33V63.9474ZM19 71.3158H27.75V78.6842H19V71.3158ZM21.625 73.5263V76.4737H25.125V73.5263H21.625ZM33 74.2632H47V77.2105H33V74.2632ZM19 81.6316H27.75V89H19V81.6316ZM21.625 83.8421V86.7895H25.125V83.8421H21.625ZM33 84.5789H47V87.5263H33V84.5789Z" fill="#38D79F"/>
<path d="M15.4369 121.312V131H14.1629V123.776L10.9429 131H10.0469L6.81294 123.762V131H5.53894V121.312H6.91094L10.4949 129.32L14.0789 121.312H15.4369ZM17.1215 127.136C17.1215 126.352 17.2802 125.666 17.5975 125.078C17.9149 124.481 18.3489 124.019 18.8995 123.692C19.4595 123.365 20.0802 123.202 20.7615 123.202C21.4335 123.202 22.0169 123.347 22.5115 123.636C23.0062 123.925 23.3749 124.289 23.6175 124.728V123.328H24.9055V131H23.6175V129.572C23.3655 130.02 22.9875 130.393 22.4835 130.692C21.9889 130.981 21.4102 131.126 20.7475 131.126C20.0662 131.126 19.4502 130.958 18.8995 130.622C18.3489 130.286 17.9149 129.815 17.5975 129.208C17.2802 128.601 17.1215 127.911 17.1215 127.136ZM23.6175 127.15C23.6175 126.571 23.5009 126.067 23.2675 125.638C23.0342 125.209 22.7169 124.882 22.3155 124.658C21.9235 124.425 21.4895 124.308 21.0135 124.308C20.5375 124.308 20.1035 124.42 19.7115 124.644C19.3195 124.868 19.0069 125.195 18.7735 125.624C18.5402 126.053 18.4235 126.557 18.4235 127.136C18.4235 127.724 18.5402 128.237 18.7735 128.676C19.0069 129.105 19.3195 129.437 19.7115 129.67C20.1035 129.894 20.5375 130.006 21.0135 130.006C21.4895 130.006 21.9235 129.894 22.3155 129.67C22.7169 129.437 23.0342 129.105 23.2675 128.676C23.5009 128.237 23.6175 127.729 23.6175 127.15ZM30.7965 123.188C31.7298 123.188 32.4858 123.473 33.0645 124.042C33.6431 124.602 33.9325 125.414 33.9325 126.478V131H32.6725V126.66C32.6725 125.895 32.4811 125.311 32.0985 124.91C31.7158 124.499 31.1931 124.294 30.5305 124.294C29.8585 124.294 29.3218 124.504 28.9205 124.924C28.5285 125.344 28.3325 125.955 28.3325 126.758V131H27.0585V123.328H28.3325V124.42C28.5845 124.028 28.9251 123.725 29.3545 123.51C29.7931 123.295 30.2738 123.188 30.7965 123.188ZM35.5375 127.136C35.5375 126.352 35.6962 125.666 36.0135 125.078C36.3309 124.481 36.7649 124.019 37.3155 123.692C37.8755 123.365 38.4962 123.202 39.1775 123.202C39.8495 123.202 40.4329 123.347 40.9275 123.636C41.4222 123.925 41.7909 124.289 42.0335 124.728V123.328H43.3215V131H42.0335V129.572C41.7815 130.02 41.4035 130.393 40.8995 130.692C40.4049 130.981 39.8262 131.126 39.1635 131.126C38.4822 131.126 37.8662 130.958 37.3155 130.622C36.7649 130.286 36.3309 129.815 36.0135 129.208C35.6962 128.601 35.5375 127.911 35.5375 127.136ZM42.0335 127.15C42.0335 126.571 41.9169 126.067 41.6835 125.638C41.4502 125.209 41.1329 124.882 40.7315 124.658C40.3395 124.425 39.9055 124.308 39.4295 124.308C38.9535 124.308 38.5195 124.42 38.1275 124.644C37.7355 124.868 37.4229 125.195 37.1895 125.624C36.9562 126.053 36.8395 126.557 36.8395 127.136C36.8395 127.724 36.9562 128.237 37.1895 128.676C37.4229 129.105 37.7355 129.437 38.1275 129.67C38.5195 129.894 38.9535 130.006 39.4295 130.006C39.9055 130.006 40.3395 129.894 40.7315 129.67C41.1329 129.437 41.4502 129.105 41.6835 128.676C41.9169 128.237 42.0335 127.729 42.0335 127.15ZM48.6385 123.202C49.3012 123.202 49.8798 123.347 50.3745 123.636C50.8785 123.925 51.2518 124.289 51.4945 124.728V123.328H52.7825V131.168C52.7825 131.868 52.6332 132.489 52.3345 133.03C52.0358 133.581 51.6065 134.01 51.0465 134.318C50.4958 134.626 49.8518 134.78 49.1145 134.78C48.1065 134.78 47.2665 134.542 46.5945 134.066C45.9225 133.59 45.5258 132.941 45.4045 132.12H46.6645C46.8045 132.587 47.0938 132.96 47.5325 133.24C47.9712 133.529 48.4985 133.674 49.1145 133.674C49.8145 133.674 50.3838 133.455 50.8225 133.016C51.2705 132.577 51.4945 131.961 51.4945 131.168V129.558C51.2425 130.006 50.8692 130.379 50.3745 130.678C49.8798 130.977 49.3012 131.126 48.6385 131.126C47.9572 131.126 47.3365 130.958 46.7765 130.622C46.2258 130.286 45.7918 129.815 45.4745 129.208C45.1572 128.601 44.9985 127.911 44.9985 127.136C44.9985 126.352 45.1572 125.666 45.4745 125.078C45.7918 124.481 46.2258 124.019 46.7765 123.692C47.3365 123.365 47.9572 123.202 48.6385 123.202ZM51.4945 127.15C51.4945 126.571 51.3778 126.067 51.1445 125.638C50.9112 125.209 50.5938 124.882 50.1925 124.658C49.8005 124.425 49.3665 124.308 48.8905 124.308C48.4145 124.308 47.9805 124.42 47.5885 124.644C47.1965 124.868 46.8838 125.195 46.6505 125.624C46.4172 126.053 46.3005 126.557 46.3005 127.136C46.3005 127.724 46.4172 128.237 46.6505 128.676C46.8838 129.105 47.1965 129.437 47.5885 129.67C47.9805 129.894 48.4145 130.006 48.8905 130.006C49.3665 130.006 49.8005 129.894 50.1925 129.67C50.5938 129.437 50.9112 129.105 51.1445 128.676C51.3778 128.237 51.4945 127.729 51.4945 127.15ZM61.9354 126.87C61.9354 127.113 61.9214 127.369 61.8934 127.64H55.7614C55.8081 128.396 56.0648 128.989 56.5314 129.418C57.0074 129.838 57.5814 130.048 58.2534 130.048C58.8041 130.048 59.2614 129.922 59.6254 129.67C59.9988 129.409 60.2601 129.063 60.4094 128.634H61.7814C61.5761 129.371 61.1654 129.973 60.5494 130.44C59.9334 130.897 59.1681 131.126 58.2534 131.126C57.5254 131.126 56.8721 130.963 56.2934 130.636C55.7241 130.309 55.2761 129.847 54.9494 129.25C54.6228 128.643 54.4594 127.943 54.4594 127.15C54.4594 126.357 54.6181 125.661 54.9354 125.064C55.2528 124.467 55.6961 124.009 56.2654 123.692C56.8441 123.365 57.5068 123.202 58.2534 123.202C58.9814 123.202 59.6254 123.361 60.1854 123.678C60.7454 123.995 61.1748 124.434 61.4734 124.994C61.7814 125.545 61.9354 126.17 61.9354 126.87ZM60.6194 126.604C60.6194 126.119 60.5121 125.703 60.2974 125.358C60.0828 125.003 59.7888 124.737 59.4154 124.56C59.0514 124.373 58.6454 124.28 58.1974 124.28C57.5534 124.28 57.0028 124.485 56.5454 124.896C56.0974 125.307 55.8408 125.876 55.7754 126.604H60.6194ZM32.6286 153.848L30.6826 151.902C30.2066 152.033 29.7213 152.098 29.2266 152.098C28.3213 152.098 27.4953 151.888 26.7486 151.468C26.0019 151.039 25.4093 150.446 24.9706 149.69C24.5413 148.925 24.3266 148.066 24.3266 147.114C24.3266 146.162 24.5413 145.308 24.9706 144.552C25.4093 143.787 26.0019 143.194 26.7486 142.774C27.4953 142.345 28.3213 142.13 29.2266 142.13C30.1413 142.13 30.9719 142.345 31.7186 142.774C32.4653 143.194 33.0533 143.782 33.4826 144.538C33.9119 145.294 34.1266 146.153 34.1266 147.114C34.1266 148.047 33.9213 148.887 33.5106 149.634C33.0999 150.381 32.5353 150.969 31.8166 151.398L34.2806 153.848H32.6286ZM25.6286 147.114C25.6286 147.889 25.7826 148.57 26.0906 149.158C26.4079 149.746 26.8373 150.199 27.3786 150.516C27.9293 150.833 28.5453 150.992 29.2266 150.992C29.9079 150.992 30.5193 150.833 31.0606 150.516C31.6113 150.199 32.0406 149.746 32.3486 149.158C32.6659 148.57 32.8246 147.889 32.8246 147.114C32.8246 146.33 32.6659 145.649 32.3486 145.07C32.0406 144.482 31.6159 144.029 31.0746 143.712C30.5333 143.395 29.9173 143.236 29.2266 143.236C28.5359 143.236 27.9199 143.395 27.3786 143.712C26.8373 144.029 26.4079 144.482 26.0906 145.07C25.7826 145.649 25.6286 146.33 25.6286 147.114ZM40.9738 152L38.6498 148.01H37.1098V152H35.8358V142.242H38.9858C39.7231 142.242 40.3438 142.368 40.8478 142.62C41.3611 142.872 41.7438 143.213 41.9958 143.642C42.2478 144.071 42.3738 144.561 42.3738 145.112C42.3738 145.784 42.1778 146.377 41.7858 146.89C41.4031 147.403 40.8245 147.744 40.0498 147.912L42.4998 152H40.9738ZM37.1098 146.988H38.9858C39.6765 146.988 40.1945 146.82 40.5398 146.484C40.8851 146.139 41.0578 145.681 41.0578 145.112C41.0578 144.533 40.8851 144.085 40.5398 143.768C40.2038 143.451 39.6858 143.292 38.9858 143.292H37.1098V146.988Z" fill="black" fill-opacity="0.7"/>
<rect x="95.5" y="41" width="67" height="67" rx="12" fill="#FF6E66" fill-opacity="0.08"/>
<path d="M129 71.9601V82.784M123.707 77.3721H134.293M126.702 60.6687C124.754 61.892 121.874 63.9118 119.296 66.5481C113.706 72.2639 114.003 75.5681 114.003 80.9801C114.003 83.5233 114.198 85.6683 114.404 87.2275C114.621 88.868 116.021 90 117.64 90H140.36C141.979 90 143.378 88.8682 143.596 87.2275C143.802 85.6683 143.997 83.5233 143.997 80.9801C143.997 75.5681 144.294 72.2637 138.704 66.5481C136.126 63.9118 133.246 61.892 131.298 60.6687C129.878 59.7771 128.122 59.7771 126.702 60.6687Z" stroke="#FF6E66" stroke-width="3.75" stroke-linecap="round" stroke-linejoin="round"/>
<path d="M112.471 131H111.197L106.073 123.23V131H104.799V121.228H106.073L111.197 128.984V121.228H112.471V131ZM121.642 126.87C121.642 127.113 121.628 127.369 121.6 127.64H115.468C115.515 128.396 115.772 128.989 116.238 129.418C116.714 129.838 117.288 130.048 117.96 130.048C118.511 130.048 118.968 129.922 119.332 129.67C119.706 129.409 119.967 129.063 120.116 128.634H121.488C121.283 129.371 120.872 129.973 120.256 130.44C119.64 130.897 118.875 131.126 117.96 131.126C117.232 131.126 116.579 130.963 116 130.636C115.431 130.309 114.983 129.847 114.656 129.25C114.33 128.643 114.166 127.943 114.166 127.15C114.166 126.357 114.325 125.661 114.642 125.064C114.96 124.467 115.403 124.009 115.972 123.692C116.551 123.365 117.214 123.202 117.96 123.202C118.688 123.202 119.332 123.361 119.892 123.678C120.452 123.995 120.882 124.434 121.18 124.994C121.488 125.545 121.642 126.17 121.642 126.87ZM120.326 126.604C120.326 126.119 120.219 125.703 120.004 125.358C119.79 125.003 119.496 124.737 119.122 124.56C118.758 124.373 118.352 124.28 117.904 124.28C117.26 124.28 116.71 124.485 116.252 124.896C115.804 125.307 115.548 125.876 115.482 126.604H120.326ZM122.848 127.136C122.848 126.352 123.007 125.666 123.324 125.078C123.641 124.481 124.075 124.019 124.626 123.692C125.186 123.365 125.807 123.202 126.488 123.202C127.16 123.202 127.743 123.347 128.238 123.636C128.733 123.925 129.101 124.289 129.344 124.728V123.328H130.632V131H129.344V129.572C129.092 130.02 128.714 130.393 128.21 130.692C127.715 130.981 127.137 131.126 126.474 131.126C125.793 131.126 125.177 130.958 124.626 130.622C124.075 130.286 123.641 129.815 123.324 129.208C123.007 128.601 122.848 127.911 122.848 127.136ZM129.344 127.15C129.344 126.571 129.227 126.067 128.994 125.638C128.761 125.209 128.443 124.882 128.042 124.658C127.65 124.425 127.216 124.308 126.74 124.308C126.264 124.308 125.83 124.42 125.438 124.644C125.046 124.868 124.733 125.195 124.5 125.624C124.267 126.053 124.15 126.557 124.15 127.136C124.15 127.724 124.267 128.237 124.5 128.676C124.733 129.105 125.046 129.437 125.438 129.67C125.83 129.894 126.264 130.006 126.74 130.006C127.216 130.006 127.65 129.894 128.042 129.67C128.443 129.437 128.761 129.105 128.994 128.676C129.227 128.237 129.344 127.729 129.344 127.15ZM134.059 124.574C134.283 124.135 134.6 123.795 135.011 123.552C135.431 123.309 135.94 123.188 136.537 123.188V124.504H136.201C134.773 124.504 134.059 125.279 134.059 126.828V131H132.785V123.328H134.059V124.574ZM139.282 124.756C139.543 124.299 139.926 123.925 140.43 123.636C140.934 123.347 141.508 123.202 142.152 123.202C142.842 123.202 143.463 123.365 144.014 123.692C144.564 124.019 144.998 124.481 145.316 125.078C145.633 125.666 145.792 126.352 145.792 127.136C145.792 127.911 145.633 128.601 145.316 129.208C144.998 129.815 144.56 130.286 144 130.622C143.449 130.958 142.833 131.126 142.152 131.126C141.489 131.126 140.906 130.981 140.402 130.692C139.907 130.403 139.534 130.034 139.282 129.586V131H138.008V120.64H139.282V124.756ZM144.49 127.136C144.49 126.557 144.373 126.053 144.14 125.624C143.906 125.195 143.589 124.868 143.188 124.644C142.796 124.42 142.362 124.308 141.886 124.308C141.419 124.308 140.985 124.425 140.584 124.658C140.192 124.882 139.874 125.213 139.632 125.652C139.398 126.081 139.282 126.581 139.282 127.15C139.282 127.729 139.398 128.237 139.632 128.676C139.874 129.105 140.192 129.437 140.584 129.67C140.985 129.894 141.419 130.006 141.886 130.006C142.362 130.006 142.796 129.894 143.188 129.67C143.589 129.437 143.906 129.105 144.14 128.676C144.373 128.237 144.49 127.724 144.49 127.136ZM154.077 123.328L149.457 134.612H148.141L149.653 130.916L146.559 123.328H147.973L150.381 129.544L152.761 123.328H154.077ZM105.501 142.242V152H104.227V147.576H99.2573V152H97.9833V142.242H99.2573V146.526H104.227V142.242H105.501ZM111.023 152.126C110.304 152.126 109.651 151.963 109.063 151.636C108.484 151.309 108.027 150.847 107.691 150.25C107.364 149.643 107.201 148.943 107.201 148.15C107.201 147.366 107.369 146.675 107.705 146.078C108.05 145.471 108.517 145.009 109.105 144.692C109.693 144.365 110.351 144.202 111.079 144.202C111.807 144.202 112.465 144.365 113.053 144.692C113.641 145.009 114.103 145.467 114.439 146.064C114.784 146.661 114.957 147.357 114.957 148.15C114.957 148.943 114.779 149.643 114.425 150.25C114.079 150.847 113.608 151.309 113.011 151.636C112.413 151.963 111.751 152.126 111.023 152.126ZM111.023 151.006C111.48 151.006 111.909 150.899 112.311 150.684C112.712 150.469 113.034 150.147 113.277 149.718C113.529 149.289 113.655 148.766 113.655 148.15C113.655 147.534 113.533 147.011 113.291 146.582C113.048 146.153 112.731 145.835 112.339 145.63C111.947 145.415 111.522 145.308 111.065 145.308C110.598 145.308 110.169 145.415 109.777 145.63C109.394 145.835 109.086 146.153 108.853 146.582C108.619 147.011 108.503 147.534 108.503 148.15C108.503 148.775 108.615 149.303 108.839 149.732C109.072 150.161 109.38 150.483 109.763 150.698C110.145 150.903 110.565 151.006 111.023 151.006ZM119.348 152.126C118.76 152.126 118.232 152.028 117.766 151.832C117.299 151.627 116.93 151.347 116.66 150.992C116.389 150.628 116.24 150.213 116.212 149.746H117.528C117.565 150.129 117.742 150.441 118.06 150.684C118.386 150.927 118.811 151.048 119.334 151.048C119.819 151.048 120.202 150.941 120.482 150.726C120.762 150.511 120.902 150.241 120.902 149.914C120.902 149.578 120.752 149.331 120.454 149.172C120.155 149.004 119.693 148.841 119.068 148.682C118.498 148.533 118.032 148.383 117.668 148.234C117.313 148.075 117.005 147.847 116.744 147.548C116.492 147.24 116.366 146.839 116.366 146.344C116.366 145.952 116.482 145.593 116.716 145.266C116.949 144.939 117.28 144.683 117.71 144.496C118.139 144.3 118.629 144.202 119.18 144.202C120.029 144.202 120.715 144.417 121.238 144.846C121.76 145.275 122.04 145.863 122.078 146.61H120.804C120.776 146.209 120.612 145.887 120.314 145.644C120.024 145.401 119.632 145.28 119.138 145.28C118.68 145.28 118.316 145.378 118.046 145.574C117.775 145.77 117.64 146.027 117.64 146.344C117.64 146.596 117.719 146.806 117.878 146.974C118.046 147.133 118.251 147.263 118.494 147.366C118.746 147.459 119.091 147.567 119.53 147.688C120.08 147.837 120.528 147.987 120.874 148.136C121.219 148.276 121.513 148.491 121.756 148.78C122.008 149.069 122.138 149.447 122.148 149.914C122.148 150.334 122.031 150.712 121.798 151.048C121.564 151.384 121.233 151.65 120.804 151.846C120.384 152.033 119.898 152.126 119.348 152.126ZM125.22 145.742C125.472 145.303 125.845 144.939 126.34 144.65C126.844 144.351 127.427 144.202 128.09 144.202C128.771 144.202 129.387 144.365 129.938 144.692C130.498 145.019 130.937 145.481 131.254 146.078C131.571 146.666 131.73 147.352 131.73 148.136C131.73 148.911 131.571 149.601 131.254 150.208C130.937 150.815 130.498 151.286 129.938 151.622C129.387 151.958 128.771 152.126 128.09 152.126C127.437 152.126 126.858 151.981 126.354 151.692C125.859 151.393 125.481 151.025 125.22 150.586V155.64H123.946V144.328H125.22V145.742ZM130.428 148.136C130.428 147.557 130.311 147.053 130.078 146.624C129.845 146.195 129.527 145.868 129.126 145.644C128.734 145.42 128.3 145.308 127.824 145.308C127.357 145.308 126.923 145.425 126.522 145.658C126.13 145.882 125.813 146.213 125.57 146.652C125.337 147.081 125.22 147.581 125.22 148.15C125.22 148.729 125.337 149.237 125.57 149.676C125.813 150.105 126.13 150.437 126.522 150.67C126.923 150.894 127.357 151.006 127.824 151.006C128.3 151.006 128.734 150.894 129.126 150.67C129.527 150.437 129.845 150.105 130.078 149.676C130.311 149.237 130.428 148.724 130.428 148.136ZM134.065 143.082C133.822 143.082 133.617 142.998 133.449 142.83C133.281 142.662 133.197 142.457 133.197 142.214C133.197 141.971 133.281 141.766 133.449 141.598C133.617 141.43 133.822 141.346 134.065 141.346C134.298 141.346 134.494 141.43 134.653 141.598C134.821 141.766 134.905 141.971 134.905 142.214C134.905 142.457 134.821 142.662 134.653 142.83C134.494 142.998 134.298 143.082 134.065 143.082ZM134.681 144.328V152H133.407V144.328H134.681ZM138.406 145.378V149.9C138.406 150.273 138.486 150.539 138.644 150.698C138.803 150.847 139.078 150.922 139.47 150.922H140.408V152H139.26C138.551 152 138.019 151.837 137.664 151.51C137.31 151.183 137.132 150.647 137.132 149.9V145.378H136.138V144.328H137.132V142.396H138.406V144.328H140.408V145.378H138.406ZM141.476 148.136C141.476 147.352 141.635 146.666 141.952 146.078C142.269 145.481 142.703 145.019 143.254 144.692C143.814 144.365 144.435 144.202 145.116 144.202C145.788 144.202 146.371 144.347 146.866 144.636C147.361 144.925 147.729 145.289 147.972 145.728V144.328H149.26V152H147.972V150.572C147.72 151.02 147.342 151.393 146.838 151.692C146.343 151.981 145.765 152.126 145.102 152.126C144.421 152.126 143.805 151.958 143.254 151.622C142.703 151.286 142.269 150.815 141.952 150.208C141.635 149.601 141.476 148.911 141.476 148.136ZM147.972 148.15C147.972 147.571 147.855 147.067 147.622 146.638C147.389 146.209 147.071 145.882 146.67 145.658C146.278 145.425 145.844 145.308 145.368 145.308C144.892 145.308 144.458 145.42 144.066 145.644C143.674 145.868 143.361 146.195 143.128 146.624C142.895 147.053 142.778 147.557 142.778 148.136C142.778 148.724 142.895 149.237 143.128 149.676C143.361 150.105 143.674 150.437 144.066 150.67C144.458 150.894 144.892 151.006 145.368 151.006C145.844 151.006 146.278 150.894 146.67 150.67C147.071 150.437 147.389 150.105 147.622 149.676C147.855 149.237 147.972 148.729 147.972 148.15ZM152.687 141.64V152H151.413V141.64H152.687ZM157.574 152.126C156.986 152.126 156.459 152.028 155.992 151.832C155.526 151.627 155.157 151.347 154.886 150.992C154.616 150.628 154.466 150.213 154.438 149.746H155.754C155.792 150.129 155.969 150.441 156.286 150.684C156.613 150.927 157.038 151.048 157.56 151.048C158.046 151.048 158.428 150.941 158.708 150.726C158.988 150.511 159.128 150.241 159.128 149.914C159.128 149.578 158.979 149.331 158.68 149.172C158.382 149.004 157.92 148.841 157.294 148.682C156.725 148.533 156.258 148.383 155.894 148.234C155.54 148.075 155.232 147.847 154.97 147.548C154.718 147.24 154.592 146.839 154.592 146.344C154.592 145.952 154.709 145.593 154.942 145.266C155.176 144.939 155.507 144.683 155.936 144.496C156.366 144.3 156.856 144.202 157.406 144.202C158.256 144.202 158.942 144.417 159.464 144.846C159.987 145.275 160.267 145.863 160.304 146.61H159.03C159.002 146.209 158.839 145.887 158.54 145.644C158.251 145.401 157.859 145.28 157.364 145.28C156.907 145.28 156.543 145.378 156.272 145.574C156.002 145.77 155.866 146.027 155.866 146.344C155.866 146.596 155.946 146.806 156.104 146.974C156.272 147.133 156.478 147.263 156.72 147.366C156.972 147.459 157.318 147.567 157.756 147.688C158.307 147.837 158.755 147.987 159.1 148.136C159.446 148.276 159.74 148.491 159.982 148.78C160.234 149.069 160.365 149.447 160.374 149.914C160.374 150.334 160.258 150.712 160.024 151.048C159.791 151.384 159.46 151.65 159.03 151.846C158.61 152.033 158.125 152.126 157.574 152.126Z" fill="black" fill-opacity="0.7"/>
<rect x="191" y="41" width="67" height="67" rx="12" fill="#FFC633" fill-opacity="0.08"/>
<path fill-rule="evenodd" clip-rule="evenodd" d="M211.667 64.1516C211.667 63.3244 211.667 62.9108 211.841 62.6557C211.993 62.4329 212.229 62.281 212.495 62.2346C212.799 62.1816 213.176 62.3527 213.929 62.695L234.591 72.0869C236.627 73.0124 237.645 73.4751 237.961 74.1164C238.235 74.6736 238.235 75.3266 237.961 75.8838C237.645 76.525 236.627 76.9878 234.591 77.9133L213.929 87.3052C213.176 87.6475 212.799 87.8186 212.495 87.7656C212.229 87.7192 211.993 87.5673 211.841 87.3444C211.667 87.0893 211.667 86.6758 211.667 85.8486V81.6018C211.667 80.2001 211.667 79.4992 211.918 78.9248C212.139 78.4182 212.496 77.9827 212.95 77.6662C213.464 77.3074 214.151 77.1699 215.525 76.895L225 75.0001L215.525 73.1051C214.151 72.8302 213.464 72.6928 212.95 72.334C212.496 72.0175 212.139 71.582 211.918 71.0754C211.667 70.5009 211.667 69.8001 211.667 68.3984V64.1516Z" fill="#FFC633"/>
<path d="M208.403 131.098C207.759 131.098 207.181 130.986 206.667 130.762C206.163 130.529 205.767 130.211 205.477 129.81C205.188 129.399 205.039 128.928 205.029 128.396H206.387C206.434 128.853 206.621 129.241 206.947 129.558C207.283 129.866 207.769 130.02 208.403 130.02C209.01 130.02 209.486 129.871 209.831 129.572C210.186 129.264 210.363 128.872 210.363 128.396C210.363 128.023 210.261 127.719 210.055 127.486C209.85 127.253 209.593 127.075 209.285 126.954C208.977 126.833 208.562 126.702 208.039 126.562C207.395 126.394 206.877 126.226 206.485 126.058C206.103 125.89 205.771 125.629 205.491 125.274C205.221 124.91 205.085 124.425 205.085 123.818C205.085 123.286 205.221 122.815 205.491 122.404C205.762 121.993 206.14 121.676 206.625 121.452C207.12 121.228 207.685 121.116 208.319 121.116C209.234 121.116 209.981 121.345 210.559 121.802C211.147 122.259 211.479 122.866 211.553 123.622H210.153C210.107 123.249 209.911 122.922 209.565 122.642C209.22 122.353 208.763 122.208 208.193 122.208C207.661 122.208 207.227 122.348 206.891 122.628C206.555 122.899 206.387 123.281 206.387 123.776C206.387 124.131 206.485 124.42 206.681 124.644C206.887 124.868 207.134 125.041 207.423 125.162C207.722 125.274 208.137 125.405 208.669 125.554C209.313 125.731 209.831 125.909 210.223 126.086C210.615 126.254 210.951 126.52 211.231 126.884C211.511 127.239 211.651 127.724 211.651 128.34C211.651 128.816 211.525 129.264 211.273 129.684C211.021 130.104 210.648 130.445 210.153 130.706C209.659 130.967 209.075 131.098 208.403 131.098ZM217.334 123.188C217.913 123.188 218.436 123.314 218.902 123.566C219.369 123.809 219.733 124.177 219.994 124.672C220.265 125.167 220.4 125.769 220.4 126.478V131H219.14V126.66C219.14 125.895 218.949 125.311 218.566 124.91C218.184 124.499 217.661 124.294 216.998 124.294C216.326 124.294 215.79 124.504 215.388 124.924C214.996 125.344 214.8 125.955 214.8 126.758V131H213.526V120.64H214.8V124.42C215.052 124.028 215.398 123.725 215.836 123.51C216.284 123.295 216.784 123.188 217.334 123.188ZM222.005 127.136C222.005 126.352 222.164 125.666 222.481 125.078C222.799 124.481 223.233 124.019 223.783 123.692C224.343 123.365 224.964 123.202 225.645 123.202C226.317 123.202 226.901 123.347 227.395 123.636C227.89 123.925 228.259 124.289 228.501 124.728V123.328H229.789V131H228.501V129.572C228.249 130.02 227.871 130.393 227.367 130.692C226.873 130.981 226.294 131.126 225.631 131.126C224.95 131.126 224.334 130.958 223.783 130.622C223.233 130.286 222.799 129.815 222.481 129.208C222.164 128.601 222.005 127.911 222.005 127.136ZM228.501 127.15C228.501 126.571 228.385 126.067 228.151 125.638C227.918 125.209 227.601 124.882 227.199 124.658C226.807 124.425 226.373 124.308 225.897 124.308C225.421 124.308 224.987 124.42 224.595 124.644C224.203 124.868 223.891 125.195 223.657 125.624C223.424 126.053 223.307 126.557 223.307 127.136C223.307 127.724 223.424 128.237 223.657 128.676C223.891 129.105 224.203 129.437 224.595 129.67C224.987 129.894 225.421 130.006 225.897 130.006C226.373 130.006 226.807 129.894 227.199 129.67C227.601 129.437 227.918 129.105 228.151 128.676C228.385 128.237 228.501 127.729 228.501 127.15ZM233.216 124.574C233.44 124.135 233.758 123.795 234.168 123.552C234.588 123.309 235.097 123.188 235.694 123.188V124.504H235.358C233.93 124.504 233.216 125.279 233.216 126.828V131H231.942V123.328H233.216V124.574ZM244.165 126.87C244.165 127.113 244.151 127.369 244.123 127.64H237.991C238.038 128.396 238.294 128.989 238.761 129.418C239.237 129.838 239.811 130.048 240.483 130.048C241.034 130.048 241.491 129.922 241.855 129.67C242.228 129.409 242.49 129.063 242.639 128.634H244.011C243.806 129.371 243.395 129.973 242.779 130.44C242.163 130.897 241.398 131.126 240.483 131.126C239.755 131.126 239.102 130.963 238.523 130.636C237.954 130.309 237.506 129.847 237.179 129.25C236.852 128.643 236.689 127.943 236.689 127.15C236.689 126.357 236.848 125.661 237.165 125.064C237.482 124.467 237.926 124.009 238.495 123.692C239.074 123.365 239.736 123.202 240.483 123.202C241.211 123.202 241.855 123.361 242.415 123.678C242.975 123.995 243.404 124.434 243.703 124.994C244.011 125.545 244.165 126.17 244.165 126.87ZM242.849 126.604C242.849 126.119 242.742 125.703 242.527 125.358C242.312 125.003 242.018 124.737 241.645 124.56C241.281 124.373 240.875 124.28 240.427 124.28C239.783 124.28 239.232 124.485 238.775 124.896C238.327 125.307 238.07 125.876 238.005 126.604H242.849ZM223.629 153.848L221.683 151.902C221.207 152.033 220.721 152.098 220.227 152.098C219.321 152.098 218.495 151.888 217.749 151.468C217.002 151.039 216.409 150.446 215.971 149.69C215.541 148.925 215.327 148.066 215.327 147.114C215.327 146.162 215.541 145.308 215.971 144.552C216.409 143.787 217.002 143.194 217.749 142.774C218.495 142.345 219.321 142.13 220.227 142.13C221.141 142.13 221.972 142.345 222.719 142.774C223.465 143.194 224.053 143.782 224.483 144.538C224.912 145.294 225.127 146.153 225.127 147.114C225.127 148.047 224.921 148.887 224.511 149.634C224.1 150.381 223.535 150.969 222.817 151.398L225.281 153.848H223.629ZM216.629 147.114C216.629 147.889 216.783 148.57 217.091 149.158C217.408 149.746 217.837 150.199 218.379 150.516C218.929 150.833 219.545 150.992 220.227 150.992C220.908 150.992 221.519 150.833 222.061 150.516C222.611 150.199 223.041 149.746 223.349 149.158C223.666 148.57 223.825 147.889 223.825 147.114C223.825 146.33 223.666 145.649 223.349 145.07C223.041 144.482 222.616 144.029 222.075 143.712C221.533 143.395 220.917 143.236 220.227 143.236C219.536 143.236 218.92 143.395 218.379 143.712C217.837 144.029 217.408 144.482 217.091 145.07C216.783 145.649 216.629 146.33 216.629 147.114ZM231.974 152L229.65 148.01H228.11V152H226.836V142.242H229.986C230.723 142.242 231.344 142.368 231.848 142.62C232.361 142.872 232.744 143.213 232.996 143.642C233.248 144.071 233.374 144.561 233.374 145.112C233.374 145.784 233.178 146.377 232.786 146.89C232.403 147.403 231.824 147.744 231.05 147.912L233.5 152H231.974ZM228.11 146.988H229.986C230.676 146.988 231.194 146.82 231.54 146.484C231.885 146.139 232.058 145.681 232.058 145.112C232.058 144.533 231.885 144.085 231.54 143.768C231.204 143.451 230.686 143.292 229.986 143.292H228.11V146.988Z" fill="black" fill-opacity="0.7"/>
<rect x="282" y="41" width="67" height="67" rx="12" fill="#3642DA" fill-opacity="0.08"/>
<path d="M321.25 62.5H302.5V87.5H308.75V76.25H321.25V87.5H327.5V68.75L321.25 62.5Z" stroke="#6B75FF" stroke-width="2.5" stroke-linecap="round"/>
<path d="M308.75 68.75H318.75" stroke="#6B75FF" stroke-width="2.5" stroke-linecap="round"/>
<path d="M308.75 87.5H321.25" stroke="#6B75FF" stroke-width="2.5" stroke-linecap="round"/>
<path d="M302.568 131.098C301.924 131.098 301.346 130.986 300.832 130.762C300.328 130.529 299.932 130.211 299.642 129.81C299.353 129.399 299.204 128.928 299.194 128.396H300.552C300.599 128.853 300.786 129.241 301.112 129.558C301.448 129.866 301.934 130.02 302.568 130.02C303.175 130.02 303.651 129.871 303.996 129.572C304.351 129.264 304.528 128.872 304.528 128.396C304.528 128.023 304.426 127.719 304.22 127.486C304.015 127.253 303.758 127.075 303.45 126.954C303.142 126.833 302.727 126.702 302.204 126.562C301.56 126.394 301.042 126.226 300.65 126.058C300.268 125.89 299.936 125.629 299.656 125.274C299.386 124.91 299.25 124.425 299.25 123.818C299.25 123.286 299.386 122.815 299.656 122.404C299.927 121.993 300.305 121.676 300.79 121.452C301.285 121.228 301.85 121.116 302.484 121.116C303.399 121.116 304.146 121.345 304.724 121.802C305.312 122.259 305.644 122.866 305.718 123.622H304.318C304.272 123.249 304.076 122.922 303.73 122.642C303.385 122.353 302.928 122.208 302.358 122.208C301.826 122.208 301.392 122.348 301.056 122.628C300.72 122.899 300.552 123.281 300.552 123.776C300.552 124.131 300.65 124.42 300.846 124.644C301.052 124.868 301.299 125.041 301.588 125.162C301.887 125.274 302.302 125.405 302.834 125.554C303.478 125.731 303.996 125.909 304.388 126.086C304.78 126.254 305.116 126.52 305.396 126.884C305.676 127.239 305.816 127.724 305.816 128.34C305.816 128.816 305.69 129.264 305.438 129.684C305.186 130.104 304.813 130.445 304.318 130.706C303.824 130.967 303.24 131.098 302.568 131.098ZM307.215 127.136C307.215 126.352 307.374 125.666 307.691 125.078C308.009 124.481 308.443 124.019 308.993 123.692C309.553 123.365 310.174 123.202 310.855 123.202C311.527 123.202 312.111 123.347 312.605 123.636C313.1 123.925 313.469 124.289 313.711 124.728V123.328H314.999V131H313.711V129.572C313.459 130.02 313.081 130.393 312.577 130.692C312.083 130.981 311.504 131.126 310.841 131.126C310.16 131.126 309.544 130.958 308.993 130.622C308.443 130.286 308.009 129.815 307.691 129.208C307.374 128.601 307.215 127.911 307.215 127.136ZM313.711 127.15C313.711 126.571 313.595 126.067 313.361 125.638C313.128 125.209 312.811 124.882 312.409 124.658C312.017 124.425 311.583 124.308 311.107 124.308C310.631 124.308 310.197 124.42 309.805 124.644C309.413 124.868 309.101 125.195 308.867 125.624C308.634 126.053 308.517 126.557 308.517 127.136C308.517 127.724 308.634 128.237 308.867 128.676C309.101 129.105 309.413 129.437 309.805 129.67C310.197 129.894 310.631 130.006 311.107 130.006C311.583 130.006 312.017 129.894 312.409 129.67C312.811 129.437 313.128 129.105 313.361 128.676C313.595 128.237 313.711 127.729 313.711 127.15ZM320.008 129.824L322.388 123.328H323.746L320.736 131H319.252L316.242 123.328H317.614L320.008 129.824ZM332 126.87C332 127.113 331.986 127.369 331.958 127.64H325.826C325.873 128.396 326.129 128.989 326.596 129.418C327.072 129.838 327.646 130.048 328.318 130.048C328.869 130.048 329.326 129.922 329.69 129.67C330.063 129.409 330.325 129.063 330.474 128.634H331.846C331.641 129.371 331.23 129.973 330.614 130.44C329.998 130.897 329.233 131.126 328.318 131.126C327.59 131.126 326.937 130.963 326.358 130.636C325.789 130.309 325.341 129.847 325.014 129.25C324.687 128.643 324.524 127.943 324.524 127.15C324.524 126.357 324.683 125.661 325 125.064C325.317 124.467 325.761 124.009 326.33 123.692C326.909 123.365 327.571 123.202 328.318 123.202C329.046 123.202 329.69 123.361 330.25 123.678C330.81 123.995 331.239 124.434 331.538 124.994C331.846 125.545 332 126.17 332 126.87ZM330.684 126.604C330.684 126.119 330.577 125.703 330.362 125.358C330.147 125.003 329.853 124.737 329.48 124.56C329.116 124.373 328.71 124.28 328.262 124.28C327.618 124.28 327.067 124.485 326.61 124.896C326.162 125.307 325.905 125.876 325.84 126.604H330.684ZM314.629 153.848L312.683 151.902C312.207 152.033 311.721 152.098 311.227 152.098C310.321 152.098 309.495 151.888 308.749 151.468C308.002 151.039 307.409 150.446 306.971 149.69C306.541 148.925 306.327 148.066 306.327 147.114C306.327 146.162 306.541 145.308 306.971 144.552C307.409 143.787 308.002 143.194 308.749 142.774C309.495 142.345 310.321 142.13 311.227 142.13C312.141 142.13 312.972 142.345 313.719 142.774C314.465 143.194 315.053 143.782 315.483 144.538C315.912 145.294 316.127 146.153 316.127 147.114C316.127 148.047 315.921 148.887 315.511 149.634C315.1 150.381 314.535 150.969 313.817 151.398L316.281 153.848H314.629ZM307.629 147.114C307.629 147.889 307.783 148.57 308.091 149.158C308.408 149.746 308.837 150.199 309.379 150.516C309.929 150.833 310.545 150.992 311.227 150.992C311.908 150.992 312.519 150.833 313.061 150.516C313.611 150.199 314.041 149.746 314.349 149.158C314.666 148.57 314.825 147.889 314.825 147.114C314.825 146.33 314.666 145.649 314.349 145.07C314.041 144.482 313.616 144.029 313.075 143.712C312.533 143.395 311.917 143.236 311.227 143.236C310.536 143.236 309.92 143.395 309.379 143.712C308.837 144.029 308.408 144.482 308.091 145.07C307.783 145.649 307.629 146.33 307.629 147.114ZM322.974 152L320.65 148.01H319.11V152H317.836V142.242H320.986C321.723 142.242 322.344 142.368 322.848 142.62C323.361 142.872 323.744 143.213 323.996 143.642C324.248 144.071 324.374 144.561 324.374 145.112C324.374 145.784 324.178 146.377 323.786 146.89C323.403 147.403 322.824 147.744 322.05 147.912L324.5 152H322.974ZM319.11 146.988H320.986C321.676 146.988 322.194 146.82 322.54 146.484C322.885 146.139 323.058 145.681 323.058 145.112C323.058 144.533 322.885 144.085 322.54 143.768C322.204 143.451 321.686 143.292 320.986 143.292H319.11V146.988Z" fill="black" fill-opacity="0.7"/>
</svg>
