<svg width="393" height="212" viewBox="0 0 393 212" fill="none" xmlns="http://www.w3.org/2000/svg">
<path d="M29.472 19.126C28.632 19.126 27.876 18.982 27.204 18.694C26.532 18.394 26.004 17.974 25.62 17.434C25.236 16.894 25.044 16.264 25.044 15.544H27.24C27.288 16.084 27.498 16.528 27.87 16.876C28.254 17.224 28.788 17.398 29.472 17.398C30.18 17.398 30.732 17.23 31.128 16.894C31.524 16.546 31.722 16.102 31.722 15.562C31.722 15.142 31.596 14.8 31.344 14.536C31.104 14.272 30.798 14.068 30.426 13.924C30.066 13.78 29.562 13.624 28.914 13.456C28.098 13.24 27.432 13.024 26.916 12.808C26.412 12.58 25.98 12.232 25.62 11.764C25.26 11.296 25.08 10.672 25.08 9.892C25.08 9.172 25.26 8.542 25.62 8.002C25.98 7.462 26.484 7.048 27.132 6.76C27.78 6.472 28.53 6.328 29.382 6.328C30.594 6.328 31.584 6.634 32.352 7.246C33.132 7.846 33.564 8.674 33.648 9.73H31.38C31.344 9.274 31.128 8.884 30.732 8.56C30.336 8.236 29.814 8.074 29.166 8.074C28.578 8.074 28.098 8.224 27.726 8.524C27.354 8.824 27.168 9.256 27.168 9.82C27.168 10.204 27.282 10.522 27.51 10.774C27.75 11.014 28.05 11.206 28.41 11.35C28.77 11.494 29.262 11.65 29.886 11.818C30.714 12.046 31.386 12.274 31.902 12.502C32.43 12.73 32.874 13.084 33.234 13.564C33.606 14.032 33.792 14.662 33.792 15.454C33.792 16.09 33.618 16.69 33.27 17.254C32.934 17.818 32.436 18.274 31.776 18.622C31.128 18.958 30.36 19.126 29.472 19.126ZM38.1915 10.54C38.5395 10.084 39.0135 9.7 39.6135 9.388C40.2135 9.076 40.8915 8.92 41.6475 8.92C42.5115 8.92 43.2975 9.136 44.0055 9.568C44.7255 9.988 45.2895 10.582 45.6975 11.35C46.1055 12.118 46.3095 13 46.3095 13.996C46.3095 14.992 46.1055 15.886 45.6975 16.678C45.2895 17.458 44.7255 18.07 44.0055 18.514C43.2975 18.946 42.5115 19.162 41.6475 19.162C40.8915 19.162 40.2195 19.012 39.6315 18.712C39.0435 18.4 38.5635 18.016 38.1915 17.56V23.716H36.1395V9.082H38.1915V10.54ZM44.2215 13.996C44.2215 13.312 44.0775 12.724 43.7895 12.232C43.5135 11.728 43.1415 11.35 42.6735 11.098C42.2175 10.834 41.7255 10.702 41.1975 10.702C40.6815 10.702 40.1895 10.834 39.7215 11.098C39.2655 11.362 38.8935 11.746 38.6055 12.25C38.3295 12.754 38.1915 13.348 38.1915 14.032C38.1915 14.716 38.3295 15.316 38.6055 15.832C38.8935 16.336 39.2655 16.72 39.7215 16.984C40.1895 17.248 40.6815 17.38 41.1975 17.38C41.7255 17.38 42.2175 17.248 42.6735 16.984C43.1415 16.708 43.5135 16.312 43.7895 15.796C44.0775 15.28 44.2215 14.68 44.2215 13.996ZM57.3549 13.798C57.3549 14.17 57.3309 14.506 57.2829 14.806H49.7049C49.7649 15.598 50.0589 16.234 50.5869 16.714C51.1149 17.194 51.7629 17.434 52.5309 17.434C53.6349 17.434 54.4149 16.972 54.8709 16.048H57.0849C56.7849 16.96 56.2389 17.71 55.4469 18.298C54.6669 18.874 53.6949 19.162 52.5309 19.162C51.5829 19.162 50.7309 18.952 49.9749 18.532C49.2309 18.1 48.6429 17.5 48.2109 16.732C47.7909 15.952 47.5809 15.052 47.5809 14.032C47.5809 13.012 47.7849 12.118 48.1929 11.35C48.6129 10.57 49.1949 9.97 49.9389 9.55C50.6949 9.13 51.5589 8.92 52.5309 8.92C53.4669 8.92 54.3009 9.124 55.0329 9.532C55.7649 9.94 56.3349 10.516 56.7429 11.26C57.1509 11.992 57.3549 12.838 57.3549 13.798ZM55.2129 13.15C55.2009 12.394 54.9309 11.788 54.4029 11.332C53.8749 10.876 53.2209 10.648 52.4409 10.648C51.7329 10.648 51.1269 10.876 50.6229 11.332C50.1189 11.776 49.8189 12.382 49.7229 13.15H55.2129ZM58.6165 14.032C58.6165 13.012 58.8205 12.118 59.2285 11.35C59.6485 10.57 60.2245 9.97 60.9565 9.55C61.6885 9.13 62.5285 8.92 63.4765 8.92C64.6765 8.92 65.6665 9.208 66.4465 9.784C67.2385 10.348 67.7725 11.158 68.0485 12.214H65.8345C65.6545 11.722 65.3665 11.338 64.9705 11.062C64.5745 10.786 64.0765 10.648 63.4765 10.648C62.6365 10.648 61.9645 10.948 61.4605 11.548C60.9685 12.136 60.7225 12.964 60.7225 14.032C60.7225 15.1 60.9685 15.934 61.4605 16.534C61.9645 17.134 62.6365 17.434 63.4765 17.434C64.6645 17.434 65.4505 16.912 65.8345 15.868H68.0485C67.7605 16.876 67.2205 17.68 66.4285 18.28C65.6365 18.868 64.6525 19.162 63.4765 19.162C62.5285 19.162 61.6885 18.952 60.9565 18.532C60.2245 18.1 59.6485 17.5 59.2285 16.732C58.8205 15.952 58.6165 15.052 58.6165 14.032ZM71.0636 7.768C70.6916 7.768 70.3796 7.642 70.1276 7.39C69.8756 7.138 69.7496 6.826 69.7496 6.454C69.7496 6.082 69.8756 5.77 70.1276 5.518C70.3796 5.266 70.6916 5.14 71.0636 5.14C71.4236 5.14 71.7296 5.266 71.9816 5.518C72.2336 5.77 72.3596 6.082 72.3596 6.454C72.3596 6.826 72.2336 7.138 71.9816 7.39C71.7296 7.642 71.4236 7.768 71.0636 7.768ZM72.0716 9.082V19H70.0196V9.082H72.0716ZM74.0079 13.996C74.0079 13 74.2119 12.118 74.6199 11.35C75.0399 10.582 75.6039 9.988 76.3119 9.568C77.0319 9.136 77.8239 8.92 78.6879 8.92C79.4679 8.92 80.1459 9.076 80.7219 9.388C81.3099 9.688 81.7779 10.066 82.1259 10.522V9.082H84.1959V19H82.1259V17.524C81.7779 17.992 81.3039 18.382 80.7039 18.694C80.1039 19.006 79.4199 19.162 78.6519 19.162C77.7999 19.162 77.0199 18.946 76.3119 18.514C75.6039 18.07 75.0399 17.458 74.6199 16.678C74.2119 15.886 74.0079 14.992 74.0079 13.996ZM82.1259 14.032C82.1259 13.348 81.9819 12.754 81.6939 12.25C81.4179 11.746 81.0519 11.362 80.5959 11.098C80.1399 10.834 79.6479 10.702 79.1199 10.702C78.5919 10.702 78.0999 10.834 77.6439 11.098C77.1879 11.35 76.8159 11.728 76.5279 12.232C76.2519 12.724 76.1139 13.312 76.1139 13.996C76.1139 14.68 76.2519 15.28 76.5279 15.796C76.8159 16.312 77.1879 16.708 77.6439 16.984C78.1119 17.248 78.6039 17.38 79.1199 17.38C79.6479 17.38 80.1399 17.248 80.5959 16.984C81.0519 16.72 81.4179 16.336 81.6939 15.832C81.9819 15.316 82.1259 14.716 82.1259 14.032ZM88.8694 5.68V19H86.8174V5.68H88.8694ZM100.214 19.126C99.3736 19.126 98.6176 18.982 97.9456 18.694C97.2736 18.394 96.7456 17.974 96.3616 17.434C95.9776 16.894 95.7856 16.264 95.7856 15.544H97.9816C98.0296 16.084 98.2396 16.528 98.6116 16.876C98.9956 17.224 99.5296 17.398 100.214 17.398C100.922 17.398 101.474 17.23 101.87 16.894C102.266 16.546 102.464 16.102 102.464 15.562C102.464 15.142 102.338 14.8 102.086 14.536C101.846 14.272 101.54 14.068 101.168 13.924C100.808 13.78 100.304 13.624 99.6556 13.456C98.8396 13.24 98.1736 13.024 97.6576 12.808C97.1536 12.58 96.7216 12.232 96.3616 11.764C96.0016 11.296 95.8216 10.672 95.8216 9.892C95.8216 9.172 96.0016 8.542 96.3616 8.002C96.7216 7.462 97.2256 7.048 97.8736 6.76C98.5216 6.472 99.2716 6.328 100.124 6.328C101.336 6.328 102.326 6.634 103.094 7.246C103.874 7.846 104.306 8.674 104.39 9.73H102.122C102.086 9.274 101.87 8.884 101.474 8.56C101.078 8.236 100.556 8.074 99.9076 8.074C99.3196 8.074 98.8396 8.224 98.4676 8.524C98.0956 8.824 97.9096 9.256 97.9096 9.82C97.9096 10.204 98.0236 10.522 98.2516 10.774C98.4916 11.014 98.7916 11.206 99.1516 11.35C99.5116 11.494 100.004 11.65 100.628 11.818C101.456 12.046 102.128 12.274 102.644 12.502C103.172 12.73 103.616 13.084 103.976 13.564C104.348 14.032 104.534 14.662 104.534 15.454C104.534 16.09 104.36 16.69 104.012 17.254C103.676 17.818 103.178 18.274 102.518 18.622C101.87 18.958 101.102 19.126 100.214 19.126ZM115.971 13.798C115.971 14.17 115.947 14.506 115.899 14.806H108.321C108.381 15.598 108.675 16.234 109.203 16.714C109.731 17.194 110.379 17.434 111.147 17.434C112.251 17.434 113.031 16.972 113.487 16.048H115.701C115.401 16.96 114.855 17.71 114.063 18.298C113.283 18.874 112.311 19.162 111.147 19.162C110.199 19.162 109.347 18.952 108.591 18.532C107.847 18.1 107.259 17.5 106.827 16.732C106.407 15.952 106.197 15.052 106.197 14.032C106.197 13.012 106.401 12.118 106.809 11.35C107.229 10.57 107.811 9.97 108.555 9.55C109.311 9.13 110.175 8.92 111.147 8.92C112.083 8.92 112.917 9.124 113.649 9.532C114.381 9.94 114.951 10.516 115.359 11.26C115.767 11.992 115.971 12.838 115.971 13.798ZM113.829 13.15C113.817 12.394 113.547 11.788 113.019 11.332C112.491 10.876 111.837 10.648 111.057 10.648C110.349 10.648 109.743 10.876 109.239 11.332C108.735 11.776 108.435 12.382 108.339 13.15H113.829ZM119.969 10.522C120.269 10.018 120.665 9.628 121.157 9.352C121.661 9.064 122.255 8.92 122.939 8.92V11.044H122.417C121.613 11.044 121.001 11.248 120.581 11.656C120.173 12.064 119.969 12.772 119.969 13.78V19H117.917V9.082H119.969V10.522ZM128.585 17.164L131.393 9.082H133.571L129.791 19H127.343L123.581 9.082H125.777L128.585 17.164ZM136.092 7.768C135.72 7.768 135.408 7.642 135.156 7.39C134.904 7.138 134.778 6.826 134.778 6.454C134.778 6.082 134.904 5.77 135.156 5.518C135.408 5.266 135.72 5.14 136.092 5.14C136.452 5.14 136.758 5.266 137.01 5.518C137.262 5.77 137.388 6.082 137.388 6.454C137.388 6.826 137.262 7.138 137.01 7.39C136.758 7.642 136.452 7.768 136.092 7.768ZM137.1 9.082V19H135.048V9.082H137.1ZM139.037 14.032C139.037 13.012 139.241 12.118 139.649 11.35C140.069 10.57 140.645 9.97 141.377 9.55C142.109 9.13 142.949 8.92 143.897 8.92C145.097 8.92 146.087 9.208 146.867 9.784C147.659 10.348 148.193 11.158 148.469 12.214H146.255C146.075 11.722 145.787 11.338 145.391 11.062C144.995 10.786 144.497 10.648 143.897 10.648C143.057 10.648 142.385 10.948 141.881 11.548C141.389 12.136 141.143 12.964 141.143 14.032C141.143 15.1 141.389 15.934 141.881 16.534C142.385 17.134 143.057 17.434 143.897 17.434C145.085 17.434 145.871 16.912 146.255 15.868H148.469C148.181 16.876 147.641 17.68 146.849 18.28C146.057 18.868 145.073 19.162 143.897 19.162C142.949 19.162 142.109 18.952 141.377 18.532C140.645 18.1 140.069 17.5 139.649 16.732C139.241 15.952 139.037 15.052 139.037 14.032ZM159.53 13.798C159.53 14.17 159.506 14.506 159.458 14.806H151.88C151.94 15.598 152.234 16.234 152.762 16.714C153.29 17.194 153.938 17.434 154.706 17.434C155.81 17.434 156.59 16.972 157.046 16.048H159.26C158.96 16.96 158.414 17.71 157.622 18.298C156.842 18.874 155.87 19.162 154.706 19.162C153.758 19.162 152.906 18.952 152.15 18.532C151.406 18.1 150.818 17.5 150.386 16.732C149.966 15.952 149.756 15.052 149.756 14.032C149.756 13.012 149.96 12.118 150.368 11.35C150.788 10.57 151.37 9.97 152.114 9.55C152.87 9.13 153.734 8.92 154.706 8.92C155.642 8.92 156.476 9.124 157.208 9.532C157.94 9.94 158.51 10.516 158.918 11.26C159.326 11.992 159.53 12.838 159.53 13.798ZM157.388 13.15C157.376 12.394 157.106 11.788 156.578 11.332C156.05 10.876 155.396 10.648 154.616 10.648C153.908 10.648 153.302 10.876 152.798 11.332C152.294 11.776 151.994 12.382 151.898 13.15H157.388ZM165.075 19.162C164.295 19.162 163.593 19.024 162.969 18.748C162.357 18.46 161.871 18.076 161.511 17.596C161.151 17.104 160.959 16.558 160.935 15.958H163.059C163.095 16.378 163.293 16.732 163.653 17.02C164.025 17.296 164.487 17.434 165.039 17.434C165.615 17.434 166.059 17.326 166.371 17.11C166.695 16.882 166.857 16.594 166.857 16.246C166.857 15.874 166.677 15.598 166.317 15.418C165.969 15.238 165.411 15.04 164.643 14.824C163.899 14.62 163.293 14.422 162.825 14.23C162.357 14.038 161.949 13.744 161.601 13.348C161.265 12.952 161.097 12.43 161.097 11.782C161.097 11.254 161.253 10.774 161.565 10.342C161.877 9.898 162.321 9.55 162.897 9.298C163.485 9.046 164.157 8.92 164.913 8.92C166.041 8.92 166.947 9.208 167.631 9.784C168.327 10.348 168.699 11.122 168.747 12.106H166.695C166.659 11.662 166.479 11.308 166.155 11.044C165.831 10.78 165.393 10.648 164.841 10.648C164.301 10.648 163.887 10.75 163.599 10.954C163.311 11.158 163.167 11.428 163.167 11.764C163.167 12.028 163.263 12.25 163.455 12.43C163.647 12.61 163.881 12.754 164.157 12.862C164.433 12.958 164.841 13.084 165.381 13.24C166.101 13.432 166.689 13.63 167.145 13.834C167.613 14.026 168.015 14.314 168.351 14.698C168.687 15.082 168.861 15.592 168.873 16.228C168.873 16.792 168.717 17.296 168.405 17.74C168.093 18.184 167.649 18.532 167.073 18.784C166.509 19.036 165.843 19.162 165.075 19.162Z" fill="black"/>
<g filter="url(#filter0_d_152_1403)">
<rect x="24" y="41" width="164" height="125" rx="16" fill="#FBFBFB"/>
<rect x="42" y="63" width="45" height="45" rx="12" fill="#FDEEEA"/>
<path d="M78.6268 76.6094C78.3127 76.2473 77.8425 76.0368 77.3466 76.0368H55.7847L55.0499 73.6546V73.655C54.7127 72.59 53.7872 71.7831 52.6361 71.5503L49.9998 71.0176C49.5539 70.927 49.1144 71.1956 49.0184 71.617C48.9231 72.0383 49.2071 72.4532 49.6541 72.5432L52.2893 73.0765C52.85 73.1899 53.3012 73.5828 53.4657 74.1022L58.2829 89.7202C58.1743 89.7679 58.0694 89.8196 57.9682 89.8768C57.4491 90.1689 57.0327 90.5788 56.7535 91.0573C56.4862 91.512 56.3444 92.0273 56.3308 92.5591H56.3287V92.6402H56.3308C56.3413 93.0556 56.4351 93.454 56.598 93.8177C56.8588 94.3992 57.2921 94.8912 57.8381 95.2394C58.3836 95.5881 59.0471 95.7925 59.7534 95.792H75.2464C75.7034 95.792 76.0733 95.4428 76.0733 95.012C76.0733 94.5812 75.7033 94.232 75.2464 94.232L59.7534 94.2316C59.5067 94.2316 59.2759 94.1848 59.064 94.1007C58.7473 93.9744 58.4747 93.7615 58.284 93.4938C58.1006 93.2366 57.992 92.9337 57.9836 92.6014C57.993 92.2049 58.1269 91.8607 58.3619 91.5856C58.4837 91.4438 58.6338 91.3195 58.8162 91.2165C58.9965 91.115 59.209 91.0344 59.4582 90.9837L75.0303 88.5914C76.0475 88.4347 76.857 87.7005 77.0626 86.7468L78.9673 77.9086V77.9077C78.9894 77.8052 79 77.7007 79 77.5973C79 77.2401 78.8703 76.891 78.6268 76.6094ZM75.4424 86.436C75.3739 86.7544 75.104 86.9991 74.7646 87.0509L59.8861 89.3372L56.2653 77.5973H77.3466H77.3472L75.4424 86.436Z" fill="#F66F47"/>
<path d="M61.6664 97.0614C61.3032 96.8296 60.8611 96.6928 60.3909 96.6934C60.0773 96.6934 59.7753 96.7535 59.5023 96.863C59.0923 97.0266 58.7455 97.2987 58.4994 97.6425C58.2533 97.9852 58.1088 98.4026 58.1099 98.8463C58.1094 99.1418 58.1731 99.4269 58.2891 99.6846C58.463 100.072 58.7507 100.399 59.1144 100.631C59.4781 100.864 59.9208 101 60.3909 101C60.704 101 61.0055 100.94 61.2785 100.83C61.6891 100.667 62.0358 100.394 62.282 100.051C62.5276 99.7079 62.672 99.2901 62.672 98.8464C62.672 98.551 62.6076 98.2664 62.4922 98.0082C62.3184 97.6205 62.0301 97.2932 61.6664 97.0614ZM61.2384 99.1841C61.1689 99.3393 61.0513 99.4731 60.9043 99.5666C60.7567 99.6601 60.5839 99.7143 60.3909 99.7149C60.2618 99.7143 60.1422 99.6905 60.033 99.6462C59.8691 99.5816 59.7268 99.4701 59.6277 99.3318C59.5286 99.192 59.4712 99.0284 59.4707 98.8463C59.4712 98.7249 59.497 98.6125 59.5428 98.5085C59.6119 98.3538 59.73 98.22 59.877 98.126C60.0246 98.0325 60.198 97.9787 60.3909 97.9783C60.5195 97.9783 60.6386 98.0027 60.7482 98.0464C60.9126 98.1116 61.0539 98.2225 61.1529 98.3618C61.2526 98.5011 61.31 98.6643 61.31 98.8463C61.3101 98.9681 61.2843 99.0806 61.2384 99.1841Z" fill="#F66F47"/>
<path d="M74.1771 97.0614C73.8134 96.8296 73.3713 96.6928 72.9012 96.6934C72.5881 96.6934 72.2861 96.7535 72.0131 96.863C71.6025 97.0266 71.2557 97.2987 71.0096 97.6425C70.764 97.9852 70.6196 98.4026 70.6196 98.8463C70.6196 99.1418 70.6839 99.4269 70.7993 99.6846C70.9727 100.072 71.2616 100.399 71.6253 100.632C71.9884 100.864 72.4311 101 72.9012 101C73.2142 101 73.5163 100.94 73.7893 100.83C74.1993 100.667 74.5461 100.394 74.7922 100.051C75.0383 99.7079 75.1827 99.2901 75.1822 98.8464C75.1822 98.551 75.1185 98.2664 75.0025 98.0082C74.8285 97.6205 74.5408 97.2932 74.1771 97.0614ZM73.7486 99.1841C73.6795 99.3393 73.5615 99.4731 73.415 99.5666C73.2674 99.6601 73.0935 99.7143 72.9012 99.7149C72.772 99.7143 72.6529 99.6905 72.5433 99.6462C72.3788 99.5816 72.2376 99.4701 72.1385 99.3318C72.0384 99.192 71.9815 99.0284 71.9815 98.8463C71.9815 98.7249 72.0068 98.6125 72.0532 98.5085C72.1227 98.3538 72.2402 98.22 72.3873 98.126C72.5348 98.0325 72.7082 97.9787 72.9012 97.9783C73.0303 97.9783 73.1494 98.0027 73.259 98.0464C73.4229 98.1116 73.5647 98.2225 73.6638 98.3618C73.7628 98.5011 73.8203 98.6643 73.8209 98.8463C73.8208 98.9681 73.795 99.0806 73.7486 99.1841Z" fill="#F66F47"/>
<path d="M61.1269 79.3216C60.992 78.8833 60.5061 78.632 60.0417 78.7599C59.5774 78.8877 59.3118 79.3464 59.4468 79.7842L61.7141 87.1116C61.85 87.5493 62.336 87.8011 62.7998 87.6727C63.2636 87.5453 63.5303 87.0862 63.3943 86.648L61.1269 79.3216Z" fill="#F66F47"/>
<path d="M64.9552 79.3076C64.8203 78.8694 64.3344 78.6181 63.8701 78.7455C63.4057 78.8738 63.1396 79.3325 63.2751 79.7703L65.3779 86.5664C65.5139 87.0047 65.9998 87.2559 66.4636 87.128C66.9274 87.0002 67.1941 86.5416 67.0582 86.1033L64.9552 79.3076Z" fill="#F66F47"/>
<path d="M68.7843 79.2937C68.6489 78.8554 68.1629 78.6042 67.6992 78.7325C67.2348 78.8599 66.9687 79.3191 67.1042 79.7567L69.0474 86.0376C69.1828 86.4758 69.6693 86.727 70.1331 86.5992C70.5969 86.4714 70.8636 86.0122 70.7275 85.5744L68.7843 79.2937Z" fill="#F66F47"/>
<path d="M72.6115 79.279C72.4766 78.8408 71.9902 78.5901 71.5258 78.7175C71.062 78.8459 70.7959 79.3045 70.9313 79.7422L72.7043 85.4734C72.8403 85.9117 73.3262 86.1629 73.79 86.035C74.2538 85.9067 74.5205 85.4485 74.385 85.0103L72.6115 79.279Z" fill="#F66F47"/>
<path d="M48.272 137.112C47.2373 137.112 46.2827 136.872 45.408 136.392C44.544 135.901 43.856 135.224 43.344 134.36C42.8427 133.485 42.592 132.504 42.592 131.416C42.592 130.328 42.8427 129.352 43.344 128.488C43.856 127.624 44.544 126.952 45.408 126.472C46.2827 125.981 47.2373 125.736 48.272 125.736C49.3173 125.736 50.272 125.981 51.136 126.472C52.0107 126.952 52.6987 127.624 53.2 128.488C53.7013 129.352 53.952 130.328 53.952 131.416C53.952 132.504 53.7013 133.485 53.2 134.36C52.6987 135.224 52.0107 135.901 51.136 136.392C50.272 136.872 49.3173 137.112 48.272 137.112ZM48.272 135.528C49.008 135.528 49.664 135.363 50.24 135.032C50.816 134.691 51.264 134.211 51.584 133.592C51.9147 132.963 52.08 132.237 52.08 131.416C52.08 130.595 51.9147 129.875 51.584 129.256C51.264 128.637 50.816 128.163 50.24 127.832C49.664 127.501 49.008 127.336 48.272 127.336C47.536 127.336 46.88 127.501 46.304 127.832C45.728 128.163 45.2747 128.637 44.944 129.256C44.624 129.875 44.464 130.595 44.464 131.416C44.464 132.237 44.624 132.963 44.944 133.592C45.2747 134.211 45.728 134.691 46.304 135.032C46.88 135.363 47.536 135.528 48.272 135.528ZM57.5709 129.464C57.8375 129.016 58.1895 128.669 58.6269 128.424C59.0749 128.168 59.6029 128.04 60.2109 128.04V129.928H59.7469C59.0322 129.928 58.4882 130.109 58.1149 130.472C57.7522 130.835 57.5709 131.464 57.5709 132.36V137H55.7469V128.184H57.5709V129.464ZM61.2795 132.552C61.2795 131.667 61.4608 130.883 61.8235 130.2C62.1968 129.517 62.6982 128.989 63.3275 128.616C63.9675 128.232 64.6768 128.04 65.4555 128.04C66.0315 128.04 66.5968 128.168 67.1515 128.424C67.7168 128.669 68.1648 129 68.4955 129.416V125.16H70.3355V137H68.4955V135.672C68.1968 136.099 67.7808 136.451 67.2475 136.728C66.7248 137.005 66.1222 137.144 65.4395 137.144C64.6715 137.144 63.9675 136.952 63.3275 136.568C62.6982 136.173 62.1968 135.629 61.8235 134.936C61.4608 134.232 61.2795 133.437 61.2795 132.552ZM68.4955 132.584C68.4955 131.976 68.3675 131.448 68.1115 131C67.8662 130.552 67.5408 130.211 67.1355 129.976C66.7302 129.741 66.2928 129.624 65.8235 129.624C65.3542 129.624 64.9168 129.741 64.5115 129.976C64.1062 130.2 63.7755 130.536 63.5195 130.984C63.2742 131.421 63.1515 131.944 63.1515 132.552C63.1515 133.16 63.2742 133.693 63.5195 134.152C63.7755 134.611 64.1062 134.963 64.5115 135.208C64.9275 135.443 65.3648 135.56 65.8235 135.56C66.2928 135.56 66.7302 135.443 67.1355 135.208C67.5408 134.973 67.8662 134.632 68.1115 134.184C68.3675 133.725 68.4955 133.192 68.4955 132.584ZM80.8113 132.376C80.8113 132.707 80.7899 133.005 80.7473 133.272H74.0113C74.0646 133.976 74.3259 134.541 74.7953 134.968C75.2646 135.395 75.8406 135.608 76.5233 135.608C77.5046 135.608 78.1979 135.197 78.6033 134.376H80.5712C80.3046 135.187 79.8193 135.853 79.1153 136.376C78.4219 136.888 77.5579 137.144 76.5233 137.144C75.6806 137.144 74.9233 136.957 74.2513 136.584C73.5899 136.2 73.0673 135.667 72.6833 134.984C72.3099 134.291 72.1233 133.491 72.1233 132.584C72.1233 131.677 72.3046 130.883 72.6673 130.2C73.0406 129.507 73.5579 128.973 74.2193 128.6C74.8913 128.227 75.6593 128.04 76.5233 128.04C77.3553 128.04 78.0966 128.221 78.7473 128.584C79.3979 128.947 79.9046 129.459 80.2673 130.12C80.6299 130.771 80.8113 131.523 80.8113 132.376ZM78.9073 131.8C78.8966 131.128 78.6566 130.589 78.1873 130.184C77.7179 129.779 77.1366 129.576 76.4433 129.576C75.8139 129.576 75.2753 129.779 74.8273 130.184C74.3793 130.579 74.1126 131.117 74.0273 131.8H78.9073ZM84.4303 129.464C84.6969 129.016 85.0489 128.669 85.4863 128.424C85.9343 128.168 86.4623 128.04 87.0703 128.04V129.928H86.6063C85.8916 129.928 85.3476 130.109 84.9743 130.472C84.6116 130.835 84.4303 131.464 84.4303 132.36V137H82.6063V128.184H84.4303V129.464ZM101.511 139.016L99.5591 136.904C99.0791 137.043 98.5511 137.112 97.9751 137.112C96.9405 137.112 95.9858 136.872 95.1111 136.392C94.2471 135.901 93.5591 135.224 93.0471 134.36C92.5458 133.485 92.2951 132.504 92.2951 131.416C92.2951 130.328 92.5458 129.352 93.0471 128.488C93.5591 127.624 94.2471 126.952 95.1111 126.472C95.9858 125.981 96.9405 125.736 97.9751 125.736C99.0205 125.736 99.9751 125.981 100.839 126.472C101.714 126.952 102.402 127.624 102.903 128.488C103.404 129.352 103.655 130.328 103.655 131.416C103.655 132.44 103.431 133.368 102.983 134.2C102.546 135.021 101.938 135.683 101.159 136.184L103.831 139.016H101.511ZM94.1671 131.416C94.1671 132.237 94.3271 132.963 94.6471 133.592C94.9778 134.211 95.4311 134.691 96.0071 135.032C96.5831 135.363 97.2391 135.528 97.9751 135.528C98.7111 135.528 99.3671 135.363 99.9431 135.032C100.519 134.691 100.967 134.211 101.287 133.592C101.618 132.963 101.783 132.237 101.783 131.416C101.783 130.595 101.618 129.875 101.287 129.256C100.967 128.637 100.519 128.163 99.9431 127.832C99.3671 127.501 98.7111 127.336 97.9751 127.336C97.2391 127.336 96.5831 127.501 96.0071 127.832C95.4311 128.163 94.9778 128.637 94.6471 129.256C94.3271 129.875 94.1671 130.595 94.1671 131.416ZM111.273 137L108.713 132.552H107.321V137H105.497V125.88H109.337C110.19 125.88 110.91 126.029 111.497 126.328C112.094 126.627 112.537 127.027 112.825 127.528C113.124 128.029 113.273 128.589 113.273 129.208C113.273 129.933 113.06 130.595 112.633 131.192C112.217 131.779 111.572 132.179 110.697 132.392L113.449 137H111.273ZM107.321 131.096H109.337C110.02 131.096 110.532 130.925 110.873 130.584C111.225 130.243 111.401 129.784 111.401 129.208C111.401 128.632 111.23 128.184 110.889 127.864C110.548 127.533 110.03 127.368 109.337 127.368H107.321V131.096Z" fill="black" fill-opacity="0.7"/>
</g>
<g filter="url(#filter1_d_152_1403)">
<rect x="205" y="41" width="164" height="125" rx="16" fill="#FBFBFB"/>
<rect x="223" y="63" width="45" height="45" rx="12" fill="#FDEAEC"/>
<path fill-rule="evenodd" clip-rule="evenodd" d="M248.017 85.5H242.012C240.353 85.5 239.01 84.1948 239.01 82.5833V79.6667C239.01 78.0552 240.353 76.75 242.012 76.75H248.017C249.676 76.75 251.02 78.0552 251.02 79.6667V82.5833C251.02 84.1948 249.676 85.5 248.017 85.5Z" stroke="#FF364A" stroke-linecap="round" stroke-linejoin="round"/>
<path fill-rule="evenodd" clip-rule="evenodd" d="M252.521 98.625H237.509C235.021 98.625 233.005 96.6665 233.005 94.25V94.25C233.005 91.8335 235.021 89.875 237.509 89.875H252.521C255.008 89.875 257.024 91.8335 257.024 94.25V94.25C257.024 96.6665 255.008 98.625 252.521 98.625Z" stroke="#FF364A" stroke-linecap="round" stroke-linejoin="round"/>
<path d="M242.763 94.25C242.758 94.25 242.755 94.2529 242.755 94.2572C242.755 94.2616 242.758 94.2645 242.763 94.2645C242.767 94.2645 242.77 94.2616 242.77 94.2572C242.77 94.2529 242.767 94.25 242.763 94.25" stroke="#FF364A" stroke-width="1.5" stroke-linecap="round" stroke-linejoin="round"/>
<path d="M247.259 94.2426C247.255 94.2426 247.252 94.2455 247.252 94.2499C247.252 94.2543 247.255 94.2572 247.259 94.2572C247.264 94.2572 247.267 94.2543 247.267 94.2499C247.267 94.2455 247.264 94.2426 247.259 94.2426" stroke="#FF364A" stroke-width="1.5" stroke-linecap="round" stroke-linejoin="round"/>
<path d="M251.763 94.2426C251.758 94.2426 251.755 94.2455 251.755 94.2499C251.755 94.2543 251.758 94.2572 251.763 94.2572C251.767 94.2572 251.77 94.2543 251.77 94.2499C251.77 94.2455 251.767 94.2426 251.763 94.2426" stroke="#FF364A" stroke-width="1.5" stroke-linecap="round" stroke-linejoin="round"/>
<path d="M248.017 76.7501V73.6511C248.017 72.1403 246.674 70.9167 245.015 70.9167C243.356 70.9167 242.012 72.1403 242.012 73.6511V76.7501" stroke="#FF364A" stroke-linecap="round" stroke-linejoin="round"/>
<path d="M230.904 134.728H226.248L225.448 137H223.544L227.528 125.864H229.64L233.624 137H231.704L230.904 134.728ZM230.392 133.24L228.584 128.072L226.76 133.24H230.392ZM243.34 128.184V137H241.516V135.96C241.228 136.323 240.85 136.611 240.38 136.824C239.922 137.027 239.431 137.128 238.908 137.128C238.215 137.128 237.591 136.984 237.036 136.696C236.492 136.408 236.06 135.981 235.74 135.416C235.431 134.851 235.276 134.168 235.276 133.368V128.184H237.084V133.096C237.084 133.885 237.282 134.493 237.676 134.92C238.071 135.336 238.61 135.544 239.292 135.544C239.975 135.544 240.514 135.336 240.908 134.92C241.314 134.493 241.516 133.885 241.516 133.096V128.184H243.34ZM247.875 129.672V134.552C247.875 134.883 247.95 135.123 248.099 135.272C248.259 135.411 248.526 135.48 248.899 135.48H250.019V137H248.579C247.758 137 247.128 136.808 246.691 136.424C246.254 136.04 246.035 135.416 246.035 134.552V129.672H244.995V128.184H246.035V125.992H247.875V128.184H250.019V129.672H247.875ZM256.26 128.04C256.932 128.04 257.529 128.184 258.052 128.472C258.585 128.76 259.001 129.187 259.3 129.752C259.609 130.317 259.764 131 259.764 131.8V137H257.956V132.072C257.956 131.283 257.759 130.68 257.364 130.264C256.969 129.837 256.431 129.624 255.748 129.624C255.065 129.624 254.521 129.837 254.116 130.264C253.721 130.68 253.524 131.283 253.524 132.072V137H251.7V125.16H253.524V129.208C253.833 128.835 254.223 128.547 254.692 128.344C255.172 128.141 255.695 128.04 256.26 128.04ZM265.915 137.144C265.083 137.144 264.331 136.957 263.659 136.584C262.987 136.2 262.459 135.667 262.075 134.984C261.691 134.291 261.499 133.491 261.499 132.584C261.499 131.688 261.696 130.893 262.091 130.2C262.485 129.507 263.024 128.973 263.707 128.6C264.389 128.227 265.152 128.04 265.995 128.04C266.837 128.04 267.6 128.227 268.283 128.6C268.965 128.973 269.504 129.507 269.899 130.2C270.293 130.893 270.491 131.688 270.491 132.584C270.491 133.48 270.288 134.275 269.883 134.968C269.477 135.661 268.923 136.2 268.219 136.584C267.525 136.957 266.757 137.144 265.915 137.144ZM265.915 135.56C266.384 135.56 266.821 135.448 267.227 135.224C267.643 135 267.979 134.664 268.235 134.216C268.491 133.768 268.619 133.224 268.619 132.584C268.619 131.944 268.496 131.405 268.251 130.968C268.005 130.52 267.68 130.184 267.275 129.96C266.869 129.736 266.432 129.624 265.963 129.624C265.493 129.624 265.056 129.736 264.651 129.96C264.256 130.184 263.941 130.52 263.707 130.968C263.472 131.405 263.355 131.944 263.355 132.584C263.355 133.533 263.595 134.269 264.075 134.792C264.565 135.304 265.179 135.56 265.915 135.56ZM274.118 129.464C274.384 129.016 274.736 128.669 275.174 128.424C275.622 128.168 276.15 128.04 276.758 128.04V129.928H276.294C275.579 129.928 275.035 130.109 274.662 130.472C274.299 130.835 274.118 131.464 274.118 132.36V137H272.294V128.184H274.118V129.464ZM279.362 127.016C279.032 127.016 278.754 126.904 278.53 126.68C278.306 126.456 278.194 126.179 278.194 125.848C278.194 125.517 278.306 125.24 278.53 125.016C278.754 124.792 279.032 124.68 279.362 124.68C279.682 124.68 279.954 124.792 280.178 125.016C280.402 125.24 280.514 125.517 280.514 125.848C280.514 126.179 280.402 126.456 280.178 126.68C279.954 126.904 279.682 127.016 279.362 127.016ZM280.258 128.184V137H278.434V128.184H280.258ZM284.269 135.512H288.269V137H282.157V135.512L286.173 129.672H282.157V128.184H288.269V129.672L284.269 135.512ZM289.576 132.552C289.576 131.667 289.758 130.883 290.12 130.2C290.494 129.517 290.995 128.989 291.624 128.616C292.264 128.232 292.968 128.04 293.736 128.04C294.43 128.04 295.032 128.179 295.544 128.456C296.067 128.723 296.483 129.059 296.792 129.464V128.184H298.632V137H296.792V135.688C296.483 136.104 296.062 136.451 295.528 136.728C294.995 137.005 294.387 137.144 293.704 137.144C292.947 137.144 292.254 136.952 291.624 136.568C290.995 136.173 290.494 135.629 290.12 134.936C289.758 134.232 289.576 133.437 289.576 132.552ZM296.792 132.584C296.792 131.976 296.664 131.448 296.408 131C296.163 130.552 295.838 130.211 295.432 129.976C295.027 129.741 294.59 129.624 294.12 129.624C293.651 129.624 293.214 129.741 292.808 129.976C292.403 130.2 292.072 130.536 291.816 130.984C291.571 131.421 291.448 131.944 291.448 132.552C291.448 133.16 291.571 133.693 291.816 134.152C292.072 134.611 292.403 134.963 292.808 135.208C293.224 135.443 293.662 135.56 294.12 135.56C294.59 135.56 295.027 135.443 295.432 135.208C295.838 134.973 296.163 134.632 296.408 134.184C296.664 133.725 296.792 133.192 296.792 132.584ZM303.156 129.672V134.552C303.156 134.883 303.231 135.123 303.38 135.272C303.54 135.411 303.807 135.48 304.18 135.48H305.3V137H303.86C303.039 137 302.409 136.808 301.972 136.424C301.535 136.04 301.316 135.416 301.316 134.552V129.672H300.276V128.184H301.316V125.992H303.156V128.184H305.3V129.672H303.156ZM307.909 127.016C307.579 127.016 307.301 126.904 307.077 126.68C306.853 126.456 306.741 126.179 306.741 125.848C306.741 125.517 306.853 125.24 307.077 125.016C307.301 124.792 307.579 124.68 307.909 124.68C308.229 124.68 308.501 124.792 308.725 125.016C308.949 125.24 309.061 125.517 309.061 125.848C309.061 126.179 308.949 126.456 308.725 126.68C308.501 126.904 308.229 127.016 307.909 127.016ZM308.805 128.184V137H306.981V128.184H308.805ZM315.024 137.144C314.192 137.144 313.44 136.957 312.768 136.584C312.096 136.2 311.568 135.667 311.184 134.984C310.8 134.291 310.608 133.491 310.608 132.584C310.608 131.688 310.805 130.893 311.2 130.2C311.595 129.507 312.133 128.973 312.816 128.6C313.499 128.227 314.261 128.04 315.104 128.04C315.947 128.04 316.709 128.227 317.392 128.6C318.075 128.973 318.613 129.507 319.008 130.2C319.403 130.893 319.6 131.688 319.6 132.584C319.6 133.48 319.397 134.275 318.992 134.968C318.587 135.661 318.032 136.2 317.328 136.584C316.635 136.957 315.867 137.144 315.024 137.144ZM315.024 135.56C315.493 135.56 315.931 135.448 316.336 135.224C316.752 135 317.088 134.664 317.344 134.216C317.6 133.768 317.728 133.224 317.728 132.584C317.728 131.944 317.605 131.405 317.36 130.968C317.115 130.52 316.789 130.184 316.384 129.96C315.979 129.736 315.541 129.624 315.072 129.624C314.603 129.624 314.165 129.736 313.76 129.96C313.365 130.184 313.051 130.52 312.816 130.968C312.581 131.405 312.464 131.944 312.464 132.584C312.464 133.533 312.704 134.269 313.184 134.792C313.675 135.304 314.288 135.56 315.024 135.56ZM325.851 128.04C326.544 128.04 327.163 128.184 327.707 128.472C328.262 128.76 328.694 129.187 329.003 129.752C329.312 130.317 329.467 131 329.467 131.8V137H327.659V132.072C327.659 131.283 327.462 130.68 327.067 130.264C326.672 129.837 326.134 129.624 325.451 129.624C324.768 129.624 324.224 129.837 323.819 130.264C323.424 130.68 323.227 131.283 323.227 132.072V137H321.403V128.184H323.227V129.192C323.526 128.829 323.904 128.547 324.363 128.344C324.832 128.141 325.328 128.04 325.851 128.04Z" fill="black" fill-opacity="0.7"/>
</g>
<defs>
<filter id="filter0_d_152_1403" x="-6" y="27" width="224" height="185" filterUnits="userSpaceOnUse" color-interpolation-filters="sRGB">
<feFlood flood-opacity="0" result="BackgroundImageFix"/>
<feColorMatrix in="SourceAlpha" type="matrix" values="0 0 0 0 0 0 0 0 0 0 0 0 0 0 0 0 0 0 127 0" result="hardAlpha"/>
<feOffset dy="16"/>
<feGaussianBlur stdDeviation="15"/>
<feColorMatrix type="matrix" values="0 0 0 0 0.105556 0 0 0 0 0.122338 0 0 0 0 0.266667 0 0 0 0.08 0"/>
<feBlend mode="normal" in2="BackgroundImageFix" result="effect1_dropShadow_152_1403"/>
<feBlend mode="normal" in="SourceGraphic" in2="effect1_dropShadow_152_1403" result="shape"/>
</filter>
<filter id="filter1_d_152_1403" x="175" y="27" width="224" height="185" filterUnits="userSpaceOnUse" color-interpolation-filters="sRGB">
<feFlood flood-opacity="0" result="BackgroundImageFix"/>
<feColorMatrix in="SourceAlpha" type="matrix" values="0 0 0 0 0 0 0 0 0 0 0 0 0 0 0 0 0 0 127 0" result="hardAlpha"/>
<feOffset dy="16"/>
<feGaussianBlur stdDeviation="15"/>
<feColorMatrix type="matrix" values="0 0 0 0 0.105556 0 0 0 0 0.122338 0 0 0 0 0.266667 0 0 0 0.08 0"/>
<feBlend mode="normal" in2="BackgroundImageFix" result="effect1_dropShadow_152_1403"/>
<feBlend mode="normal" in="SourceGraphic" in2="effect1_dropShadow_152_1403" result="shape"/>
</filter>
</defs>
</svg>
