<svg width="37" height="35" viewBox="0 0 37 35" fill="none" xmlns="http://www.w3.org/2000/svg">
<g id="Group">
<g id="Group_2">
<path id="Path" fill-rule="evenodd" clip-rule="evenodd" d="M21.0171 17.5H15.0122C13.3534 17.5 12.0098 16.1948 12.0098 14.5833V11.6667C12.0098 10.0552 13.3534 8.75 15.0122 8.75H21.0171C22.676 8.75 24.0196 10.0552 24.0196 11.6667V14.5833C24.0196 16.1948 22.676 17.5 21.0171 17.5Z" stroke="#FF364A" stroke-linecap="round" stroke-linejoin="round"/>
<path id="Path_2" fill-rule="evenodd" clip-rule="evenodd" d="M25.5208 30.625H10.5086C8.02103 30.625 6.00488 28.6665 6.00488 26.25V26.25C6.00488 23.8335 8.02103 21.875 10.5086 21.875H25.5208C28.0083 21.875 30.0245 23.8335 30.0245 26.25V26.25C30.0245 28.6665 28.0083 30.625 25.5208 30.625Z" stroke="#FF364A" stroke-linecap="round" stroke-linejoin="round"/>
<path id="Path_3" d="M15.7628 26.25C15.7583 26.25 15.7553 26.2529 15.7553 26.2572C15.7553 26.2616 15.7583 26.2645 15.7628 26.2645C15.7673 26.2645 15.7703 26.2616 15.7703 26.2572C15.7703 26.2529 15.7673 26.25 15.7628 26.25" stroke="#FF364A" stroke-width="1.5" stroke-linecap="round" stroke-linejoin="round"/>
<path id="Path_4" d="M20.2592 26.2426C20.2547 26.2426 20.2517 26.2455 20.2517 26.2499C20.2517 26.2543 20.2547 26.2572 20.2592 26.2572C20.2637 26.2572 20.2667 26.2543 20.2667 26.2499C20.2667 26.2455 20.2637 26.2426 20.2592 26.2426" stroke="#FF364A" stroke-width="1.5" stroke-linecap="round" stroke-linejoin="round"/>
<path id="Path_5" d="M24.7628 26.2426C24.7583 26.2426 24.7553 26.2455 24.7553 26.2499C24.7553 26.2543 24.7583 26.2572 24.7628 26.2572C24.7673 26.2572 24.7703 26.2543 24.7703 26.2499C24.7703 26.2455 24.7673 26.2426 24.7628 26.2426" stroke="#FF364A" stroke-width="1.5" stroke-linecap="round" stroke-linejoin="round"/>
<path id="Path_6" d="M21.0171 8.75008V5.65112C21.0171 4.14029 19.6735 2.91675 18.0147 2.91675C16.3558 2.91675 15.0122 4.14029 15.0122 5.65112V8.75008" stroke="#FF364A" stroke-linecap="round" stroke-linejoin="round"/>
</g>
</g>
</svg>
