<svg width="34" height="34" viewBox="0 0 34 34" fill="none" xmlns="http://www.w3.org/2000/svg">
<path id="Vector" d="M16.9998 13.9601V24.784M11.7067 19.3721H22.293M14.7019 2.66867C12.7541 3.89199 9.87425 5.91185 7.29587 8.5481C1.70562 14.2639 2.00274 17.5681 2.00274 22.9801C2.00274 25.5233 2.19757 27.6683 2.40411 29.2275C2.62142 30.868 4.02088 32 5.64011 32H28.3598C29.9792 32 31.3785 30.8682 31.5959 29.2275C31.8025 27.6683 31.9973 25.5233 31.9973 22.9801C31.9973 17.5681 32.2944 14.2637 26.7041 8.5481C24.1256 5.91185 21.2458 3.89199 19.2981 2.66869C17.8785 1.77711 16.1215 1.77711 14.7019 2.66867Z" stroke="#FF6E66" stroke-width="3.75" stroke-linecap="round" stroke-linejoin="round"/>
</svg>
