<svg width="32" height="32" viewBox="0 0 32 32" fill="none" xmlns="http://www.w3.org/2000/svg">
<g id="Icons / Paperplane / Filled">
<path id="Shape" fill-rule="evenodd" clip-rule="evenodd" d="M2.66675 5.15156C2.66675 4.32441 2.66675 3.91084 2.84098 3.65575C2.99321 3.43285 3.22909 3.28097 3.495 3.23461C3.79933 3.18156 4.17583 3.35269 4.92883 3.69497L25.5911 13.0869C27.6272 14.0124 28.6452 14.4751 28.961 15.1164C29.2355 15.6736 29.2355 16.3266 28.961 16.8838C28.6452 17.525 27.6272 17.9878 25.5911 18.9133L4.92883 28.3052C4.17583 28.6475 3.79933 28.8186 3.495 28.7656C3.22909 28.7192 2.99321 28.5673 2.84098 28.3444C2.66675 28.0893 2.66675 27.6758 2.66675 26.8486V22.6018C2.66675 21.2001 2.66675 20.4992 2.91781 19.9248C3.1392 19.4182 3.49626 18.9827 3.94958 18.6662C4.46365 18.3074 5.1509 18.1699 6.52539 17.895L16.0001 16.0001L6.52539 14.1051C5.1509 13.8302 4.46365 13.6928 3.94958 13.334C3.49626 13.0175 3.1392 12.582 2.91781 12.0754C2.66675 11.5009 2.66675 10.8001 2.66675 9.39836V5.15156Z" fill="#FFC633"/>
</g>
</svg>
