<svg width="125" height="125" viewBox="0 0 125 125" fill="none" xmlns="http://www.w3.org/2000/svg">
<path d="M82.1891 62.374H74.7415C70.0424 62.374 66.23 66.5817 66.23 71.7679V79.9876C66.23 81.064 67.0279 81.9447 68.0032 81.9447C68.9785 81.9447 69.7764 81.064 69.7764 79.9876V71.6281C69.7764 70.356 70.3211 69.0141 71.2584 67.9656C72.2083 66.9032 73.4369 66.2881 74.6148 66.2881H82.1891C83.1643 66.2881 83.9623 65.4075 83.9623 64.3311C83.9623 63.2547 83.1643 62.374 82.1891 62.374ZM110.535 62.374H102.961C101.986 62.374 101.188 63.2547 101.188 64.3311C101.188 65.4075 101.986 66.2881 102.961 66.2881H110.535C111.713 66.2881 112.942 66.9032 113.892 67.9656C114.829 69.0141 115.374 70.356 115.374 71.6281V79.9876C115.374 81.064 116.172 81.9447 117.147 81.9447C118.122 81.9447 118.92 81.064 118.92 79.9876V71.6281C118.92 66.5258 115.159 62.374 110.535 62.374ZM82.1891 112.139H74.6148C73.4369 112.139 72.2083 111.524 71.2584 110.462C70.3211 109.413 69.7764 108.071 69.7764 106.799V98.4399C69.7764 97.3635 68.9785 96.4828 68.0032 96.4828C67.0279 96.4828 66.23 97.3635 66.23 98.4399V106.799C66.23 111.902 69.9918 116.053 74.6148 116.053H82.1891C83.1643 116.053 83.9623 115.173 83.9623 114.096C83.9623 113.02 83.1643 112.139 82.1891 112.139ZM117.147 96.4828C116.172 96.4828 115.374 97.3635 115.374 98.4399V106.799C115.374 108.071 114.829 109.413 113.892 110.462C112.942 111.524 111.713 112.139 110.535 112.139H102.961C101.986 112.139 101.188 113.02 101.188 114.096C101.188 115.173 101.986 116.053 102.961 116.053H110.409C115.095 116.053 118.92 111.846 118.92 106.66V98.4399C118.92 97.3635 118.122 96.4828 117.147 96.4828Z" fill="#ABABAB"/>
<path d="M73.3081 70.5645H74.8495V72.0967H73.3081V70.5645ZM74.8495 70.5645H76.3908V72.0967H74.8495V70.5645ZM76.3908 70.5645H77.9322V72.0967H76.3908V70.5645ZM77.9322 70.5645H79.4735V72.0967H77.9322V70.5645ZM79.4735 70.5645H81.0149V72.0967H79.4735V70.5645ZM81.0149 70.5645H82.5562V72.0967H81.0149V70.5645ZM82.5562 70.5645H84.0976V72.0967H82.5562V70.5645ZM90.263 70.5645H91.8043V72.0967H90.263V70.5645ZM94.8871 70.5645H96.4284V72.0967H94.8871V70.5645ZM96.4284 70.5645H97.9698V72.0967H96.4284V70.5645ZM97.9698 70.5645H99.5111V72.0967H97.9698V70.5645ZM101.052 70.5645H102.594V72.0967H101.052V70.5645ZM102.594 70.5645H104.135V72.0967H102.594V70.5645ZM104.135 70.5645H105.677V72.0967H104.135V70.5645ZM105.677 70.5645H107.218V72.0967H105.677V70.5645ZM107.218 70.5645H108.759V72.0967H107.218V70.5645ZM108.759 70.5645H110.301V72.0967H108.759V70.5645ZM110.301 70.5645H111.842V72.0967H110.301V70.5645ZM73.3081 72.0967H74.8495V73.629H73.3081V72.0967ZM82.5562 72.0967H84.0976V73.629H82.5562V72.0967ZM87.1803 72.0967H88.7216V73.629H87.1803V72.0967ZM93.3457 72.0967H94.8871V73.629H93.3457V72.0967ZM94.8871 72.0967H96.4284V73.629H94.8871V72.0967ZM97.9698 72.0967H99.5111V73.629H97.9698V72.0967ZM101.052 72.0967H102.594V73.629H101.052V72.0967ZM110.301 72.0967H111.842V73.629H110.301V72.0967ZM73.3081 73.629H74.8495V75.1612H73.3081V73.629ZM76.3908 73.629H77.9322V75.1612H76.3908V73.629ZM77.9322 73.629H79.4735V75.1612H77.9322V73.629ZM79.4735 73.629H81.0149V75.1612H79.4735V73.629ZM82.5562 73.629H84.0976V75.1612H82.5562V73.629ZM87.1803 73.629H88.7216V75.1612H87.1803V73.629ZM88.7216 73.629H90.263V75.1612H88.7216V73.629ZM91.8043 73.629H93.3457V75.1612H91.8043V73.629ZM94.8871 73.629H96.4284V75.1612H94.8871V73.629ZM96.4284 73.629H97.9698V75.1612H96.4284V73.629ZM101.052 73.629H102.594V75.1612H101.052V73.629ZM104.135 73.629H105.677V75.1612H104.135V73.629ZM105.677 73.629H107.218V75.1612H105.677V73.629ZM107.218 73.629H108.759V75.1612H107.218V73.629ZM110.301 73.629H111.842V75.1612H110.301V73.629ZM73.3081 75.1612H74.8495V76.6935H73.3081V75.1612ZM76.3908 75.1612H77.9322V76.6935H76.3908V75.1612ZM77.9322 75.1612H79.4735V76.6935H77.9322V75.1612ZM79.4735 75.1612H81.0149V76.6935H79.4735V75.1612ZM82.5562 75.1612H84.0976V76.6935H82.5562V75.1612ZM85.6389 75.1612H87.1803V76.6935H85.6389V75.1612ZM87.1803 75.1612H88.7216V76.6935H87.1803V75.1612ZM91.8043 75.1612H93.3457V76.6935H91.8043V75.1612ZM94.8871 75.1612H96.4284V76.6935H94.8871V75.1612ZM96.4284 75.1612H97.9698V76.6935H96.4284V75.1612ZM101.052 75.1612H102.594V76.6935H101.052V75.1612ZM104.135 75.1612H105.677V76.6935H104.135V75.1612ZM105.677 75.1612H107.218V76.6935H105.677V75.1612ZM107.218 75.1612H108.759V76.6935H107.218V75.1612ZM110.301 75.1612H111.842V76.6935H110.301V75.1612ZM73.3081 76.6935H74.8495V78.2257H73.3081V76.6935ZM76.3908 76.6935H77.9322V78.2257H76.3908V76.6935ZM77.9322 76.6935H79.4735V78.2257H77.9322V76.6935ZM79.4735 76.6935H81.0149V78.2257H79.4735V76.6935ZM82.5562 76.6935H84.0976V78.2257H82.5562V76.6935ZM88.7216 76.6935H90.263V78.2257H88.7216V76.6935ZM90.263 76.6935H91.8043V78.2257H90.263V76.6935ZM91.8043 76.6935H93.3457V78.2257H91.8043V76.6935ZM93.3457 76.6935H94.8871V78.2257H93.3457V76.6935ZM94.8871 76.6935H96.4284V78.2257H94.8871V76.6935ZM101.052 76.6935H102.594V78.2257H101.052V76.6935ZM104.135 76.6935H105.677V78.2257H104.135V76.6935ZM105.677 76.6935H107.218V78.2257H105.677V76.6935ZM107.218 76.6935H108.759V78.2257H107.218V76.6935ZM110.301 76.6935H111.842V78.2257H110.301V76.6935ZM73.3081 78.2257H74.8495V79.758H73.3081V78.2257ZM82.5562 78.2257H84.0976V79.758H82.5562V78.2257ZM85.6389 78.2257H87.1803V79.758H85.6389V78.2257ZM90.263 78.2257H91.8043V79.758H90.263V78.2257ZM97.9698 78.2257H99.5111V79.758H97.9698V78.2257ZM101.052 78.2257H102.594V79.758H101.052V78.2257ZM110.301 78.2257H111.842V79.758H110.301V78.2257ZM73.3081 79.758H74.8495V81.2903H73.3081V79.758ZM74.8495 79.758H76.3908V81.2903H74.8495V79.758ZM76.3908 79.758H77.9322V81.2903H76.3908V79.758ZM77.9322 79.758H79.4735V81.2903H77.9322V79.758ZM79.4735 79.758H81.0149V81.2903H79.4735V79.758ZM81.0149 79.758H82.5562V81.2903H81.0149V79.758ZM82.5562 79.758H84.0976V81.2903H82.5562V79.758ZM85.6389 79.758H87.1803V81.2903H85.6389V79.758ZM88.7216 79.758H90.263V81.2903H88.7216V79.758ZM91.8043 79.758H93.3457V81.2903H91.8043V79.758ZM94.8871 79.758H96.4284V81.2903H94.8871V79.758ZM97.9698 79.758H99.5111V81.2903H97.9698V79.758ZM101.052 79.758H102.594V81.2903H101.052V79.758ZM102.594 79.758H104.135V81.2903H102.594V79.758ZM104.135 79.758H105.677V81.2903H104.135V79.758ZM105.677 79.758H107.218V81.2903H105.677V79.758ZM107.218 79.758H108.759V81.2903H107.218V79.758ZM108.759 79.758H110.301V81.2903H108.759V79.758ZM110.301 79.758H111.842V81.2903H110.301V79.758ZM85.6389 81.2903H87.1803V82.8225H85.6389V81.2903ZM87.1803 81.2903H88.7216V82.8225H87.1803V81.2903ZM88.7216 81.2903H90.263V82.8225H88.7216V81.2903ZM94.8871 81.2903H96.4284V82.8225H94.8871V81.2903ZM96.4284 81.2903H97.9698V82.8225H96.4284V81.2903ZM97.9698 81.2903H99.5111V82.8225H97.9698V81.2903ZM74.8495 82.8225H76.3908V84.3548H74.8495V82.8225ZM76.3908 82.8225H77.9322V84.3548H76.3908V82.8225ZM82.5562 82.8225H84.0976V84.3548H82.5562V82.8225ZM93.3457 82.8225H94.8871V84.3548H93.3457V82.8225ZM94.8871 82.8225H96.4284V84.3548H94.8871V82.8225ZM97.9698 82.8225H99.5111V84.3548H97.9698V82.8225ZM101.052 82.8225H102.594V84.3548H101.052V82.8225ZM102.594 82.8225H104.135V84.3548H102.594V82.8225ZM105.677 82.8225H107.218V84.3548H105.677V82.8225ZM74.8495 84.3548H76.3908V85.887H74.8495V84.3548ZM76.3908 84.3548H77.9322V85.887H76.3908V84.3548ZM79.4735 84.3548H81.0149V85.887H79.4735V84.3548ZM84.0976 84.3548H85.6389V85.887H84.0976V84.3548ZM88.7216 84.3548H90.263V85.887H88.7216V84.3548ZM90.263 84.3548H91.8043V85.887H90.263V84.3548ZM91.8043 84.3548H93.3457V85.887H91.8043V84.3548ZM93.3457 84.3548H94.8871V85.887H93.3457V84.3548ZM94.8871 84.3548H96.4284V85.887H94.8871V84.3548ZM96.4284 84.3548H97.9698V85.887H96.4284V84.3548ZM97.9698 84.3548H99.5111V85.887H97.9698V84.3548ZM101.052 84.3548H102.594V85.887H101.052V84.3548ZM102.594 84.3548H104.135V85.887H102.594V84.3548ZM105.677 84.3548H107.218V85.887H105.677V84.3548ZM108.759 84.3548H110.301V85.887H108.759V84.3548ZM110.301 84.3548H111.842V85.887H110.301V84.3548ZM82.5562 85.887H84.0976V87.4193H82.5562V85.887ZM90.263 85.887H91.8043V87.4193H90.263V85.887ZM96.4284 85.887H97.9698V87.4193H96.4284V85.887ZM99.5111 85.887H101.052V87.4193H99.5111V85.887ZM102.594 85.887H104.135V87.4193H102.594V85.887ZM105.677 85.887H107.218V87.4193H105.677V85.887ZM107.218 85.887H108.759V87.4193H107.218V85.887ZM110.301 85.887H111.842V87.4193H110.301V85.887ZM73.3081 87.4193H74.8495V88.9515H73.3081V87.4193ZM74.8495 87.4193H76.3908V88.9515H74.8495V87.4193ZM79.4735 87.4193H81.0149V88.9515H79.4735V87.4193ZM84.0976 87.4193H85.6389V88.9515H84.0976V87.4193ZM87.1803 87.4193H88.7216V88.9515H87.1803V87.4193ZM88.7216 87.4193H90.263V88.9515H88.7216V87.4193ZM93.3457 87.4193H94.8871V88.9515H93.3457V87.4193ZM96.4284 87.4193H97.9698V88.9515H96.4284V87.4193ZM99.5111 87.4193H101.052V88.9515H99.5111V87.4193ZM102.594 87.4193H104.135V88.9515H102.594V87.4193ZM105.677 87.4193H107.218V88.9515H105.677V87.4193ZM73.3081 88.9515H74.8495V90.4838H73.3081V88.9515ZM74.8495 88.9515H76.3908V90.4838H74.8495V88.9515ZM77.9322 88.9515H79.4735V90.4838H77.9322V88.9515ZM82.5562 88.9515H84.0976V90.4838H82.5562V88.9515ZM84.0976 88.9515H85.6389V90.4838H84.0976V88.9515ZM85.6389 88.9515H87.1803V90.4838H85.6389V88.9515ZM87.1803 88.9515H88.7216V90.4838H87.1803V88.9515ZM88.7216 88.9515H90.263V90.4838H88.7216V88.9515ZM93.3457 88.9515H94.8871V90.4838H93.3457V88.9515ZM96.4284 88.9515H97.9698V90.4838H96.4284V88.9515ZM97.9698 88.9515H99.5111V90.4838H97.9698V88.9515ZM101.052 88.9515H102.594V90.4838H101.052V88.9515ZM102.594 88.9515H104.135V90.4838H102.594V88.9515ZM110.301 88.9515H111.842V90.4838H110.301V88.9515ZM76.3908 90.4838H77.9322V92.0161H76.3908V90.4838ZM77.9322 90.4838H79.4735V92.0161H77.9322V90.4838ZM79.4735 90.4838H81.0149V92.0161H79.4735V90.4838ZM88.7216 90.4838H90.263V92.0161H88.7216V90.4838ZM90.263 90.4838H91.8043V92.0161H90.263V90.4838ZM91.8043 90.4838H93.3457V92.0161H91.8043V90.4838ZM96.4284 90.4838H97.9698V92.0161H96.4284V90.4838ZM97.9698 90.4838H99.5111V92.0161H97.9698V90.4838ZM101.052 90.4838H102.594V92.0161H101.052V90.4838ZM102.594 90.4838H104.135V92.0161H102.594V90.4838ZM108.759 90.4838H110.301V92.0161H108.759V90.4838ZM110.301 90.4838H111.842V92.0161H110.301V90.4838ZM73.3081 92.0161H74.8495V93.5483H73.3081V92.0161ZM74.8495 92.0161H76.3908V93.5483H74.8495V92.0161ZM77.9322 92.0161H79.4735V93.5483H77.9322V92.0161ZM81.0149 92.0161H82.5562V93.5483H81.0149V92.0161ZM82.5562 92.0161H84.0976V93.5483H82.5562V92.0161ZM85.6389 92.0161H87.1803V93.5483H85.6389V92.0161ZM87.1803 92.0161H88.7216V93.5483H87.1803V92.0161ZM88.7216 92.0161H90.263V93.5483H88.7216V92.0161ZM91.8043 92.0161H93.3457V93.5483H91.8043V92.0161ZM96.4284 92.0161H97.9698V93.5483H96.4284V92.0161ZM97.9698 92.0161H99.5111V93.5483H97.9698V92.0161ZM101.052 92.0161H102.594V93.5483H101.052V92.0161ZM105.677 92.0161H107.218V93.5483H105.677V92.0161ZM107.218 92.0161H108.759V93.5483H107.218V92.0161ZM110.301 92.0161H111.842V93.5483H110.301V92.0161ZM76.3908 93.5483H77.9322V95.0806H76.3908V93.5483ZM77.9322 93.5483H79.4735V95.0806H77.9322V93.5483ZM79.4735 93.5483H81.0149V95.0806H79.4735V93.5483ZM84.0976 93.5483H85.6389V95.0806H84.0976V93.5483ZM88.7216 93.5483H90.263V95.0806H88.7216V93.5483ZM94.8871 93.5483H96.4284V95.0806H94.8871V93.5483ZM96.4284 93.5483H97.9698V95.0806H96.4284V93.5483ZM97.9698 93.5483H99.5111V95.0806H97.9698V93.5483ZM99.5111 93.5483H101.052V95.0806H99.5111V93.5483ZM101.052 93.5483H102.594V95.0806H101.052V93.5483ZM102.594 93.5483H104.135V95.0806H102.594V93.5483ZM104.135 93.5483H105.677V95.0806H104.135V93.5483ZM105.677 93.5483H107.218V95.0806H105.677V93.5483ZM73.3081 95.0806H74.8495V96.6128H73.3081V95.0806ZM74.8495 95.0806H76.3908V96.6128H74.8495V95.0806ZM76.3908 95.0806H77.9322V96.6128H76.3908V95.0806ZM79.4735 95.0806H81.0149V96.6128H79.4735V95.0806ZM82.5562 95.0806H84.0976V96.6128H82.5562V95.0806ZM85.6389 95.0806H87.1803V96.6128H85.6389V95.0806ZM90.263 95.0806H91.8043V96.6128H90.263V95.0806ZM97.9698 95.0806H99.5111V96.6128H97.9698V95.0806ZM99.5111 95.0806H101.052V96.6128H99.5111V95.0806ZM101.052 95.0806H102.594V96.6128H101.052V95.0806ZM102.594 95.0806H104.135V96.6128H102.594V95.0806ZM104.135 95.0806H105.677V96.6128H104.135V95.0806ZM108.759 95.0806H110.301V96.6128H108.759V95.0806ZM85.6389 96.6128H87.1803V98.1451H85.6389V96.6128ZM87.1803 96.6128H88.7216V98.1451H87.1803V96.6128ZM88.7216 96.6128H90.263V98.1451H88.7216V96.6128ZM90.263 96.6128H91.8043V98.1451H90.263V96.6128ZM93.3457 96.6128H94.8871V98.1451H93.3457V96.6128ZM94.8871 96.6128H96.4284V98.1451H94.8871V96.6128ZM97.9698 96.6128H99.5111V98.1451H97.9698V96.6128ZM104.135 96.6128H105.677V98.1451H104.135V96.6128ZM110.301 96.6128H111.842V98.1451H110.301V96.6128ZM73.3081 98.1451H74.8495V99.6774H73.3081V98.1451ZM74.8495 98.1451H76.3908V99.6774H74.8495V98.1451ZM76.3908 98.1451H77.9322V99.6774H76.3908V98.1451ZM77.9322 98.1451H79.4735V99.6774H77.9322V98.1451ZM79.4735 98.1451H81.0149V99.6774H79.4735V98.1451ZM81.0149 98.1451H82.5562V99.6774H81.0149V98.1451ZM82.5562 98.1451H84.0976V99.6774H82.5562V98.1451ZM88.7216 98.1451H90.263V99.6774H88.7216V98.1451ZM90.263 98.1451H91.8043V99.6774H90.263V98.1451ZM94.8871 98.1451H96.4284V99.6774H94.8871V98.1451ZM97.9698 98.1451H99.5111V99.6774H97.9698V98.1451ZM101.052 98.1451H102.594V99.6774H101.052V98.1451ZM104.135 98.1451H105.677V99.6774H104.135V98.1451ZM110.301 98.1451H111.842V99.6774H110.301V98.1451ZM73.3081 99.6774H74.8495V101.21H73.3081V99.6774ZM82.5562 99.6774H84.0976V101.21H82.5562V99.6774ZM87.1803 99.6774H88.7216V101.21H87.1803V99.6774ZM88.7216 99.6774H90.263V101.21H88.7216V99.6774ZM91.8043 99.6774H93.3457V101.21H91.8043V99.6774ZM93.3457 99.6774H94.8871V101.21H93.3457V99.6774ZM97.9698 99.6774H99.5111V101.21H97.9698V99.6774ZM104.135 99.6774H105.677V101.21H104.135V99.6774ZM108.759 99.6774H110.301V101.21H108.759V99.6774ZM73.3081 101.21H74.8495V102.742H73.3081V101.21ZM76.3908 101.21H77.9322V102.742H76.3908V101.21ZM77.9322 101.21H79.4735V102.742H77.9322V101.21ZM79.4735 101.21H81.0149V102.742H79.4735V101.21ZM82.5562 101.21H84.0976V102.742H82.5562V101.21ZM87.1803 101.21H88.7216V102.742H87.1803V101.21ZM88.7216 101.21H90.263V102.742H88.7216V101.21ZM94.8871 101.21H96.4284V102.742H94.8871V101.21ZM96.4284 101.21H97.9698V102.742H96.4284V101.21ZM97.9698 101.21H99.5111V102.742H97.9698V101.21ZM99.5111 101.21H101.052V102.742H99.5111V101.21ZM101.052 101.21H102.594V102.742H101.052V101.21ZM102.594 101.21H104.135V102.742H102.594V101.21ZM104.135 101.21H105.677V102.742H104.135V101.21ZM108.759 101.21H110.301V102.742H108.759V101.21ZM110.301 101.21H111.842V102.742H110.301V101.21ZM73.3081 102.742H74.8495V104.274H73.3081V102.742ZM76.3908 102.742H77.9322V104.274H76.3908V102.742ZM77.9322 102.742H79.4735V104.274H77.9322V102.742ZM79.4735 102.742H81.0149V104.274H79.4735V102.742ZM82.5562 102.742H84.0976V104.274H82.5562V102.742ZM87.1803 102.742H88.7216V104.274H87.1803V102.742ZM88.7216 102.742H90.263V104.274H88.7216V102.742ZM90.263 102.742H91.8043V104.274H90.263V102.742ZM91.8043 102.742H93.3457V104.274H91.8043V102.742ZM96.4284 102.742H97.9698V104.274H96.4284V102.742ZM99.5111 102.742H101.052V104.274H99.5111V102.742ZM104.135 102.742H105.677V104.274H104.135V102.742ZM107.218 102.742H108.759V104.274H107.218V102.742ZM108.759 102.742H110.301V104.274H108.759V102.742ZM73.3081 104.274H74.8495V105.806H73.3081V104.274ZM76.3908 104.274H77.9322V105.806H76.3908V104.274ZM77.9322 104.274H79.4735V105.806H77.9322V104.274ZM79.4735 104.274H81.0149V105.806H79.4735V104.274ZM82.5562 104.274H84.0976V105.806H82.5562V104.274ZM85.6389 104.274H87.1803V105.806H85.6389V104.274ZM93.3457 104.274H94.8871V105.806H93.3457V104.274ZM94.8871 104.274H96.4284V105.806H94.8871V104.274ZM96.4284 104.274H97.9698V105.806H96.4284V104.274ZM97.9698 104.274H99.5111V105.806H97.9698V104.274ZM99.5111 104.274H101.052V105.806H99.5111V104.274ZM102.594 104.274H104.135V105.806H102.594V104.274ZM104.135 104.274H105.677V105.806H104.135V104.274ZM105.677 104.274H107.218V105.806H105.677V104.274ZM108.759 104.274H110.301V105.806H108.759V104.274ZM110.301 104.274H111.842V105.806H110.301V104.274ZM73.3081 105.806H74.8495V107.339H73.3081V105.806ZM82.5562 105.806H84.0976V107.339H82.5562V105.806ZM85.6389 105.806H87.1803V107.339H85.6389V105.806ZM87.1803 105.806H88.7216V107.339H87.1803V105.806ZM88.7216 105.806H90.263V107.339H88.7216V105.806ZM93.3457 105.806H94.8871V107.339H93.3457V105.806ZM97.9698 105.806H99.5111V107.339H97.9698V105.806ZM99.5111 105.806H101.052V107.339H99.5111V105.806ZM101.052 105.806H102.594V107.339H101.052V105.806ZM102.594 105.806H104.135V107.339H102.594V105.806ZM104.135 105.806H105.677V107.339H104.135V105.806ZM73.3081 107.339H74.8495V108.871H73.3081V107.339ZM74.8495 107.339H76.3908V108.871H74.8495V107.339ZM76.3908 107.339H77.9322V108.871H76.3908V107.339ZM77.9322 107.339H79.4735V108.871H77.9322V107.339ZM79.4735 107.339H81.0149V108.871H79.4735V107.339ZM81.0149 107.339H82.5562V108.871H81.0149V107.339ZM82.5562 107.339H84.0976V108.871H82.5562V107.339ZM88.7216 107.339H90.263V108.871H88.7216V107.339ZM91.8043 107.339H93.3457V108.871H91.8043V107.339ZM97.9698 107.339H99.5111V108.871H97.9698V107.339ZM101.052 107.339H102.594V108.871H101.052V107.339ZM105.677 107.339H107.218V108.871H105.677V107.339ZM110.301 107.339H111.842V108.871H110.301V107.339Z" fill="#FF7A00"/>
<path d="M15.9591 0H8.51151C3.81245 0 0 4.20768 0 9.3939V17.6136C0 18.6899 0.797954 19.5706 1.77323 19.5706C2.74851 19.5706 3.54646 18.6899 3.54646 17.6136V9.25411C3.54646 7.98202 4.0911 6.64003 5.02838 5.59161C5.97832 4.5292 7.20692 3.91413 8.38485 3.91413H15.9591C16.9344 3.91413 17.7323 3.03345 17.7323 1.95706C17.7323 0.880678 16.9344 0 15.9591 0ZM44.3055 0H36.7312C35.756 0 34.958 0.880678 34.958 1.95706C34.958 3.03345 35.756 3.91413 36.7312 3.91413H44.3055C45.4834 3.91413 46.712 4.5292 47.6619 5.59161C48.5992 6.64003 49.1439 7.98202 49.1439 9.25411V17.6136C49.1439 18.6899 49.9418 19.5706 50.9171 19.5706C51.8924 19.5706 52.6903 18.6899 52.6903 17.6136V9.25411C52.6903 4.15177 48.9285 0 44.3055 0ZM15.9591 49.7653H8.38485C7.20692 49.7653 5.97832 49.1502 5.02838 48.0878C4.0911 47.0394 3.54646 45.6974 3.54646 44.4253V36.0659C3.54646 34.9895 2.74851 34.1088 1.77323 34.1088C0.797954 34.1088 0 34.9895 0 36.0659V44.4253C0 49.5277 3.76178 53.6794 8.38485 53.6794H15.9591C16.9344 53.6794 17.7323 52.7988 17.7323 51.7224C17.7323 50.646 16.9344 49.7653 15.9591 49.7653ZM50.9171 34.1088C49.9418 34.1088 49.1439 34.9895 49.1439 36.0659V44.4253C49.1439 45.6974 48.5992 47.0394 47.6619 48.0878C46.712 49.1502 45.4834 49.7653 44.3055 49.7653H36.7312C35.756 49.7653 34.958 50.646 34.958 51.7224C34.958 52.7988 35.756 53.6794 36.7312 53.6794H44.1788C48.8652 53.6794 52.6903 49.4717 52.6903 44.2855V36.0659C52.6903 34.9895 51.8924 34.1088 50.9171 34.1088Z" fill="#ABABAB"/>
<path d="M15.9591 62.5H8.51151C3.81245 62.5 0 66.7077 0 71.8939V80.1136C0 81.1899 0.797954 82.0706 1.77323 82.0706C2.74851 82.0706 3.54646 81.1899 3.54646 80.1136V71.7541C3.54646 70.482 4.0911 69.14 5.02838 68.0916C5.97832 67.0292 7.20692 66.4141 8.38485 66.4141H15.9591C16.9344 66.4141 17.7323 65.5334 17.7323 64.4571C17.7323 63.3807 16.9344 62.5 15.9591 62.5ZM44.3055 62.5H36.7312C35.756 62.5 34.958 63.3807 34.958 64.4571C34.958 65.5334 35.756 66.4141 36.7312 66.4141H44.3055C45.4834 66.4141 46.712 67.0292 47.6619 68.0916C48.5992 69.14 49.1439 70.482 49.1439 71.7541V80.1136C49.1439 81.1899 49.9418 82.0706 50.9171 82.0706C51.8924 82.0706 52.6903 81.1899 52.6903 80.1136V71.7541C52.6903 66.6518 48.9285 62.5 44.3055 62.5ZM15.9591 112.265H8.38485C7.20692 112.265 5.97832 111.65 5.02838 110.588C4.0911 109.539 3.54646 108.197 3.54646 106.925V98.5659C3.54646 97.4895 2.74851 96.6088 1.77323 96.6088C0.797954 96.6088 0 97.4895 0 98.5659V106.925C0 112.028 3.76178 116.179 8.38485 116.179H15.9591C16.9344 116.179 17.7323 115.299 17.7323 114.222C17.7323 113.146 16.9344 112.265 15.9591 112.265ZM50.9171 96.6088C49.9418 96.6088 49.1439 97.4895 49.1439 98.5659V106.925C49.1439 108.197 48.5992 109.539 47.6619 110.588C46.712 111.65 45.4834 112.265 44.3055 112.265H36.7312C35.756 112.265 34.958 113.146 34.958 114.222C34.958 115.299 35.756 116.179 36.7312 116.179H44.1788C48.8652 116.179 52.6903 111.972 52.6903 106.786V98.5659C52.6903 97.4895 51.8924 96.6088 50.9171 96.6088Z" fill="#ABABAB"/>
<path d="M81.7486 0H74.3011C69.602 0 65.7896 4.20768 65.7896 9.3939V17.6136C65.7896 18.6899 66.5875 19.5706 67.5628 19.5706C68.5381 19.5706 69.336 18.6899 69.336 17.6136V9.25411C69.336 7.98202 69.8806 6.64003 70.8179 5.59161C71.7679 4.5292 72.9965 3.91413 74.1744 3.91413H81.7486C82.7239 3.91413 83.5219 3.03345 83.5219 1.95706C83.5219 0.880678 82.7239 0 81.7486 0ZM110.095 0H102.521C101.546 0 100.748 0.880678 100.748 1.95706C100.748 3.03345 101.546 3.91413 102.521 3.91413H110.095C111.273 3.91413 112.502 4.5292 113.451 5.59161C114.389 6.64003 114.933 7.98202 114.933 9.25411V17.6136C114.933 18.6899 115.731 19.5706 116.707 19.5706C117.682 19.5706 118.48 18.6899 118.48 17.6136V9.25411C118.48 4.15177 114.718 0 110.095 0ZM81.7486 49.7653H74.1744C72.9965 49.7653 71.7679 49.1502 70.8179 48.0878C69.8806 47.0394 69.336 45.6974 69.336 44.4253V36.0659C69.336 34.9895 68.5381 34.1088 67.5628 34.1088C66.5875 34.1088 65.7896 34.9895 65.7896 36.0659V44.4253C65.7896 49.5277 69.5513 53.6794 74.1744 53.6794H81.7486C82.7239 53.6794 83.5219 52.7988 83.5219 51.7224C83.5219 50.646 82.7239 49.7653 81.7486 49.7653ZM116.707 34.1088C115.731 34.1088 114.933 34.9895 114.933 36.0659V44.4253C114.933 45.6974 114.389 47.0394 113.451 48.0878C112.502 49.1502 111.273 49.7653 110.095 49.7653H102.521C101.546 49.7653 100.748 50.646 100.748 51.7224C100.748 52.7988 101.546 53.6794 102.521 53.6794H109.968C114.655 53.6794 118.48 49.4717 118.48 44.2855V36.0659C118.48 34.9895 117.682 34.1088 116.707 34.1088Z" fill="#ABABAB"/>
<path d="M7.51855 8.06445H9.05991V9.59671H7.51855V8.06445ZM9.05991 8.06445H10.6013V9.59671H9.05991V8.06445ZM10.6013 8.06445H12.1426V9.59671H10.6013V8.06445ZM12.1426 8.06445H13.684V9.59671H12.1426V8.06445ZM13.684 8.06445H15.2253V9.59671H13.684V8.06445ZM15.2253 8.06445H16.7667V9.59671H15.2253V8.06445ZM16.7667 8.06445H18.308V9.59671H16.7667V8.06445ZM24.4734 8.06445H26.0148V9.59671H24.4734V8.06445ZM29.0975 8.06445H30.6389V9.59671H29.0975V8.06445ZM30.6389 8.06445H32.1802V9.59671H30.6389V8.06445ZM32.1802 8.06445H33.7216V9.59671H32.1802V8.06445ZM35.2629 8.06445H36.8043V9.59671H35.2629V8.06445ZM36.8043 8.06445H38.3456V9.59671H36.8043V8.06445ZM38.3456 8.06445H39.887V9.59671H38.3456V8.06445ZM39.887 8.06445H41.4283V9.59671H39.887V8.06445ZM41.4283 8.06445H42.9697V9.59671H41.4283V8.06445ZM42.9697 8.06445H44.511V9.59671H42.9697V8.06445ZM44.511 8.06445H46.0524V9.59671H44.511V8.06445ZM7.51855 9.59671H9.05991V11.129H7.51855V9.59671ZM16.7667 9.59671H18.308V11.129H16.7667V9.59671ZM21.3907 9.59671H22.9321V11.129H21.3907V9.59671ZM27.5562 9.59671H29.0975V11.129H27.5562V9.59671ZM29.0975 9.59671H30.6389V11.129H29.0975V9.59671ZM32.1802 9.59671H33.7216V11.129H32.1802V9.59671ZM35.2629 9.59671H36.8043V11.129H35.2629V9.59671ZM44.511 9.59671H46.0524V11.129H44.511V9.59671ZM7.51855 11.129H9.05991V12.6612H7.51855V11.129ZM10.6013 11.129H12.1426V12.6612H10.6013V11.129ZM12.1426 11.129H13.684V12.6612H12.1426V11.129ZM13.684 11.129H15.2253V12.6612H13.684V11.129ZM16.7667 11.129H18.308V12.6612H16.7667V11.129ZM21.3907 11.129H22.9321V12.6612H21.3907V11.129ZM22.9321 11.129H24.4734V12.6612H22.9321V11.129ZM26.0148 11.129H27.5562V12.6612H26.0148V11.129ZM29.0975 11.129H30.6389V12.6612H29.0975V11.129ZM30.6389 11.129H32.1802V12.6612H30.6389V11.129ZM35.2629 11.129H36.8043V12.6612H35.2629V11.129ZM38.3456 11.129H39.887V12.6612H38.3456V11.129ZM39.887 11.129H41.4283V12.6612H39.887V11.129ZM41.4283 11.129H42.9697V12.6612H41.4283V11.129ZM44.511 11.129H46.0524V12.6612H44.511V11.129ZM7.51855 12.6612H9.05991V14.1935H7.51855V12.6612ZM10.6013 12.6612H12.1426V14.1935H10.6013V12.6612ZM12.1426 12.6612H13.684V14.1935H12.1426V12.6612ZM13.684 12.6612H15.2253V14.1935H13.684V12.6612ZM16.7667 12.6612H18.308V14.1935H16.7667V12.6612ZM19.8494 12.6612H21.3907V14.1935H19.8494V12.6612ZM21.3907 12.6612H22.9321V14.1935H21.3907V12.6612ZM26.0148 12.6612H27.5562V14.1935H26.0148V12.6612ZM29.0975 12.6612H30.6389V14.1935H29.0975V12.6612ZM30.6389 12.6612H32.1802V14.1935H30.6389V12.6612ZM35.2629 12.6612H36.8043V14.1935H35.2629V12.6612ZM38.3456 12.6612H39.887V14.1935H38.3456V12.6612ZM39.887 12.6612H41.4283V14.1935H39.887V12.6612ZM41.4283 12.6612H42.9697V14.1935H41.4283V12.6612ZM44.511 12.6612H46.0524V14.1935H44.511V12.6612ZM7.51855 14.1935H9.05991V15.7257H7.51855V14.1935ZM10.6013 14.1935H12.1426V15.7257H10.6013V14.1935ZM12.1426 14.1935H13.684V15.7257H12.1426V14.1935ZM13.684 14.1935H15.2253V15.7257H13.684V14.1935ZM16.7667 14.1935H18.308V15.7257H16.7667V14.1935ZM22.9321 14.1935H24.4734V15.7257H22.9321V14.1935ZM24.4734 14.1935H26.0148V15.7257H24.4734V14.1935ZM26.0148 14.1935H27.5562V15.7257H26.0148V14.1935ZM27.5562 14.1935H29.0975V15.7257H27.5562V14.1935ZM29.0975 14.1935H30.6389V15.7257H29.0975V14.1935ZM35.2629 14.1935H36.8043V15.7257H35.2629V14.1935ZM38.3456 14.1935H39.887V15.7257H38.3456V14.1935ZM39.887 14.1935H41.4283V15.7257H39.887V14.1935ZM41.4283 14.1935H42.9697V15.7257H41.4283V14.1935ZM44.511 14.1935H46.0524V15.7257H44.511V14.1935ZM7.51855 15.7257H9.05991V17.258H7.51855V15.7257ZM16.7667 15.7257H18.308V17.258H16.7667V15.7257ZM19.8494 15.7257H21.3907V17.258H19.8494V15.7257ZM24.4734 15.7257H26.0148V17.258H24.4734V15.7257ZM32.1802 15.7257H33.7216V17.258H32.1802V15.7257ZM35.2629 15.7257H36.8043V17.258H35.2629V15.7257ZM44.511 15.7257H46.0524V17.258H44.511V15.7257ZM7.51855 17.258H9.05991V18.7903H7.51855V17.258ZM9.05991 17.258H10.6013V18.7903H9.05991V17.258ZM10.6013 17.258H12.1426V18.7903H10.6013V17.258ZM12.1426 17.258H13.684V18.7903H12.1426V17.258ZM13.684 17.258H15.2253V18.7903H13.684V17.258ZM15.2253 17.258H16.7667V18.7903H15.2253V17.258ZM16.7667 17.258H18.308V18.7903H16.7667V17.258ZM19.8494 17.258H21.3907V18.7903H19.8494V17.258ZM22.9321 17.258H24.4734V18.7903H22.9321V17.258ZM26.0148 17.258H27.5562V18.7903H26.0148V17.258ZM29.0975 17.258H30.6389V18.7903H29.0975V17.258ZM32.1802 17.258H33.7216V18.7903H32.1802V17.258ZM35.2629 17.258H36.8043V18.7903H35.2629V17.258ZM36.8043 17.258H38.3456V18.7903H36.8043V17.258ZM38.3456 17.258H39.887V18.7903H38.3456V17.258ZM39.887 17.258H41.4283V18.7903H39.887V17.258ZM41.4283 17.258H42.9697V18.7903H41.4283V17.258ZM42.9697 17.258H44.511V18.7903H42.9697V17.258ZM44.511 17.258H46.0524V18.7903H44.511V17.258ZM19.8494 18.7903H21.3907V20.3225H19.8494V18.7903ZM21.3907 18.7903H22.9321V20.3225H21.3907V18.7903ZM22.9321 18.7903H24.4734V20.3225H22.9321V18.7903ZM29.0975 18.7903H30.6389V20.3225H29.0975V18.7903ZM30.6389 18.7903H32.1802V20.3225H30.6389V18.7903ZM32.1802 18.7903H33.7216V20.3225H32.1802V18.7903ZM9.05991 20.3225H10.6013V21.8548H9.05991V20.3225ZM10.6013 20.3225H12.1426V21.8548H10.6013V20.3225ZM16.7667 20.3225H18.308V21.8548H16.7667V20.3225ZM27.5562 20.3225H29.0975V21.8548H27.5562V20.3225ZM29.0975 20.3225H30.6389V21.8548H29.0975V20.3225ZM32.1802 20.3225H33.7216V21.8548H32.1802V20.3225ZM35.2629 20.3225H36.8043V21.8548H35.2629V20.3225ZM36.8043 20.3225H38.3456V21.8548H36.8043V20.3225ZM39.887 20.3225H41.4283V21.8548H39.887V20.3225ZM9.05991 21.8548H10.6013V23.387H9.05991V21.8548ZM10.6013 21.8548H12.1426V23.387H10.6013V21.8548ZM13.684 21.8548H15.2253V23.387H13.684V21.8548ZM18.308 21.8548H19.8494V23.387H18.308V21.8548ZM22.9321 21.8548H24.4734V23.387H22.9321V21.8548ZM24.4734 21.8548H26.0148V23.387H24.4734V21.8548ZM26.0148 21.8548H27.5562V23.387H26.0148V21.8548ZM27.5562 21.8548H29.0975V23.387H27.5562V21.8548ZM29.0975 21.8548H30.6389V23.387H29.0975V21.8548ZM30.6389 21.8548H32.1802V23.387H30.6389V21.8548ZM32.1802 21.8548H33.7216V23.387H32.1802V21.8548ZM35.2629 21.8548H36.8043V23.387H35.2629V21.8548ZM36.8043 21.8548H38.3456V23.387H36.8043V21.8548ZM39.887 21.8548H41.4283V23.387H39.887V21.8548ZM42.9697 21.8548H44.511V23.387H42.9697V21.8548ZM44.511 21.8548H46.0524V23.387H44.511V21.8548ZM16.7667 23.387H18.308V24.9193H16.7667V23.387ZM24.4734 23.387H26.0148V24.9193H24.4734V23.387ZM30.6389 23.387H32.1802V24.9193H30.6389V23.387ZM33.7216 23.387H35.2629V24.9193H33.7216V23.387ZM36.8043 23.387H38.3456V24.9193H36.8043V23.387ZM39.887 23.387H41.4283V24.9193H39.887V23.387ZM41.4283 23.387H42.9697V24.9193H41.4283V23.387ZM44.511 23.387H46.0524V24.9193H44.511V23.387ZM7.51855 24.9193H9.05991V26.4515H7.51855V24.9193ZM9.05991 24.9193H10.6013V26.4515H9.05991V24.9193ZM13.684 24.9193H15.2253V26.4515H13.684V24.9193ZM18.308 24.9193H19.8494V26.4515H18.308V24.9193ZM21.3907 24.9193H22.9321V26.4515H21.3907V24.9193ZM22.9321 24.9193H24.4734V26.4515H22.9321V24.9193ZM27.5562 24.9193H29.0975V26.4515H27.5562V24.9193ZM30.6389 24.9193H32.1802V26.4515H30.6389V24.9193ZM33.7216 24.9193H35.2629V26.4515H33.7216V24.9193ZM36.8043 24.9193H38.3456V26.4515H36.8043V24.9193ZM39.887 24.9193H41.4283V26.4515H39.887V24.9193ZM7.51855 26.4515H9.05991V27.9838H7.51855V26.4515ZM9.05991 26.4515H10.6013V27.9838H9.05991V26.4515ZM12.1426 26.4515H13.684V27.9838H12.1426V26.4515ZM16.7667 26.4515H18.308V27.9838H16.7667V26.4515ZM18.308 26.4515H19.8494V27.9838H18.308V26.4515ZM19.8494 26.4515H21.3907V27.9838H19.8494V26.4515ZM21.3907 26.4515H22.9321V27.9838H21.3907V26.4515ZM22.9321 26.4515H24.4734V27.9838H22.9321V26.4515ZM27.5562 26.4515H29.0975V27.9838H27.5562V26.4515ZM30.6389 26.4515H32.1802V27.9838H30.6389V26.4515ZM32.1802 26.4515H33.7216V27.9838H32.1802V26.4515ZM35.2629 26.4515H36.8043V27.9838H35.2629V26.4515ZM36.8043 26.4515H38.3456V27.9838H36.8043V26.4515ZM44.511 26.4515H46.0524V27.9838H44.511V26.4515ZM10.6013 27.9838H12.1426V29.5161H10.6013V27.9838ZM12.1426 27.9838H13.684V29.5161H12.1426V27.9838ZM13.684 27.9838H15.2253V29.5161H13.684V27.9838ZM22.9321 27.9838H24.4734V29.5161H22.9321V27.9838ZM24.4734 27.9838H26.0148V29.5161H24.4734V27.9838ZM26.0148 27.9838H27.5562V29.5161H26.0148V27.9838ZM30.6389 27.9838H32.1802V29.5161H30.6389V27.9838ZM32.1802 27.9838H33.7216V29.5161H32.1802V27.9838ZM35.2629 27.9838H36.8043V29.5161H35.2629V27.9838ZM36.8043 27.9838H38.3456V29.5161H36.8043V27.9838ZM42.9697 27.9838H44.511V29.5161H42.9697V27.9838ZM44.511 27.9838H46.0524V29.5161H44.511V27.9838ZM7.51855 29.5161H9.05991V31.0483H7.51855V29.5161ZM9.05991 29.5161H10.6013V31.0483H9.05991V29.5161ZM12.1426 29.5161H13.684V31.0483H12.1426V29.5161ZM15.2253 29.5161H16.7667V31.0483H15.2253V29.5161ZM16.7667 29.5161H18.308V31.0483H16.7667V29.5161ZM19.8494 29.5161H21.3907V31.0483H19.8494V29.5161ZM21.3907 29.5161H22.9321V31.0483H21.3907V29.5161ZM22.9321 29.5161H24.4734V31.0483H22.9321V29.5161ZM26.0148 29.5161H27.5562V31.0483H26.0148V29.5161ZM30.6389 29.5161H32.1802V31.0483H30.6389V29.5161ZM32.1802 29.5161H33.7216V31.0483H32.1802V29.5161ZM35.2629 29.5161H36.8043V31.0483H35.2629V29.5161ZM39.887 29.5161H41.4283V31.0483H39.887V29.5161ZM41.4283 29.5161H42.9697V31.0483H41.4283V29.5161ZM44.511 29.5161H46.0524V31.0483H44.511V29.5161ZM10.6013 31.0483H12.1426V32.5806H10.6013V31.0483ZM12.1426 31.0483H13.684V32.5806H12.1426V31.0483ZM13.684 31.0483H15.2253V32.5806H13.684V31.0483ZM18.308 31.0483H19.8494V32.5806H18.308V31.0483ZM22.9321 31.0483H24.4734V32.5806H22.9321V31.0483ZM29.0975 31.0483H30.6389V32.5806H29.0975V31.0483ZM30.6389 31.0483H32.1802V32.5806H30.6389V31.0483ZM32.1802 31.0483H33.7216V32.5806H32.1802V31.0483ZM33.7216 31.0483H35.2629V32.5806H33.7216V31.0483ZM35.2629 31.0483H36.8043V32.5806H35.2629V31.0483ZM36.8043 31.0483H38.3456V32.5806H36.8043V31.0483ZM38.3456 31.0483H39.887V32.5806H38.3456V31.0483ZM39.887 31.0483H41.4283V32.5806H39.887V31.0483ZM7.51855 32.5806H9.05991V34.1128H7.51855V32.5806ZM9.05991 32.5806H10.6013V34.1128H9.05991V32.5806ZM10.6013 32.5806H12.1426V34.1128H10.6013V32.5806ZM13.684 32.5806H15.2253V34.1128H13.684V32.5806ZM16.7667 32.5806H18.308V34.1128H16.7667V32.5806ZM19.8494 32.5806H21.3907V34.1128H19.8494V32.5806ZM24.4734 32.5806H26.0148V34.1128H24.4734V32.5806ZM32.1802 32.5806H33.7216V34.1128H32.1802V32.5806ZM33.7216 32.5806H35.2629V34.1128H33.7216V32.5806ZM35.2629 32.5806H36.8043V34.1128H35.2629V32.5806ZM36.8043 32.5806H38.3456V34.1128H36.8043V32.5806ZM38.3456 32.5806H39.887V34.1128H38.3456V32.5806ZM42.9697 32.5806H44.511V34.1128H42.9697V32.5806ZM19.8494 34.1128H21.3907V35.6451H19.8494V34.1128ZM21.3907 34.1128H22.9321V35.6451H21.3907V34.1128ZM22.9321 34.1128H24.4734V35.6451H22.9321V34.1128ZM24.4734 34.1128H26.0148V35.6451H24.4734V34.1128ZM27.5562 34.1128H29.0975V35.6451H27.5562V34.1128ZM29.0975 34.1128H30.6389V35.6451H29.0975V34.1128ZM32.1802 34.1128H33.7216V35.6451H32.1802V34.1128ZM38.3456 34.1128H39.887V35.6451H38.3456V34.1128ZM44.511 34.1128H46.0524V35.6451H44.511V34.1128ZM7.51855 35.6451H9.05991V37.1774H7.51855V35.6451ZM9.05991 35.6451H10.6013V37.1774H9.05991V35.6451ZM10.6013 35.6451H12.1426V37.1774H10.6013V35.6451ZM12.1426 35.6451H13.684V37.1774H12.1426V35.6451ZM13.684 35.6451H15.2253V37.1774H13.684V35.6451ZM15.2253 35.6451H16.7667V37.1774H15.2253V35.6451ZM16.7667 35.6451H18.308V37.1774H16.7667V35.6451ZM22.9321 35.6451H24.4734V37.1774H22.9321V35.6451ZM24.4734 35.6451H26.0148V37.1774H24.4734V35.6451ZM29.0975 35.6451H30.6389V37.1774H29.0975V35.6451ZM32.1802 35.6451H33.7216V37.1774H32.1802V35.6451ZM35.2629 35.6451H36.8043V37.1774H35.2629V35.6451ZM38.3456 35.6451H39.887V37.1774H38.3456V35.6451ZM44.511 35.6451H46.0524V37.1774H44.511V35.6451ZM7.51855 37.1774H9.05991V38.7096H7.51855V37.1774ZM16.7667 37.1774H18.308V38.7096H16.7667V37.1774ZM21.3907 37.1774H22.9321V38.7096H21.3907V37.1774ZM22.9321 37.1774H24.4734V38.7096H22.9321V37.1774ZM26.0148 37.1774H27.5562V38.7096H26.0148V37.1774ZM27.5562 37.1774H29.0975V38.7096H27.5562V37.1774ZM32.1802 37.1774H33.7216V38.7096H32.1802V37.1774ZM38.3456 37.1774H39.887V38.7096H38.3456V37.1774ZM42.9697 37.1774H44.511V38.7096H42.9697V37.1774ZM7.51855 38.7096H9.05991V40.2419H7.51855V38.7096ZM10.6013 38.7096H12.1426V40.2419H10.6013V38.7096ZM12.1426 38.7096H13.684V40.2419H12.1426V38.7096ZM13.684 38.7096H15.2253V40.2419H13.684V38.7096ZM16.7667 38.7096H18.308V40.2419H16.7667V38.7096ZM21.3907 38.7096H22.9321V40.2419H21.3907V38.7096ZM22.9321 38.7096H24.4734V40.2419H22.9321V38.7096ZM29.0975 38.7096H30.6389V40.2419H29.0975V38.7096ZM30.6389 38.7096H32.1802V40.2419H30.6389V38.7096ZM32.1802 38.7096H33.7216V40.2419H32.1802V38.7096ZM33.7216 38.7096H35.2629V40.2419H33.7216V38.7096ZM35.2629 38.7096H36.8043V40.2419H35.2629V38.7096ZM36.8043 38.7096H38.3456V40.2419H36.8043V38.7096ZM38.3456 38.7096H39.887V40.2419H38.3456V38.7096ZM42.9697 38.7096H44.511V40.2419H42.9697V38.7096ZM44.511 38.7096H46.0524V40.2419H44.511V38.7096ZM7.51855 40.2419H9.05991V41.7741H7.51855V40.2419ZM10.6013 40.2419H12.1426V41.7741H10.6013V40.2419ZM12.1426 40.2419H13.684V41.7741H12.1426V40.2419ZM13.684 40.2419H15.2253V41.7741H13.684V40.2419ZM16.7667 40.2419H18.308V41.7741H16.7667V40.2419ZM21.3907 40.2419H22.9321V41.7741H21.3907V40.2419ZM22.9321 40.2419H24.4734V41.7741H22.9321V40.2419ZM24.4734 40.2419H26.0148V41.7741H24.4734V40.2419ZM26.0148 40.2419H27.5562V41.7741H26.0148V40.2419ZM30.6389 40.2419H32.1802V41.7741H30.6389V40.2419ZM33.7216 40.2419H35.2629V41.7741H33.7216V40.2419ZM38.3456 40.2419H39.887V41.7741H38.3456V40.2419ZM41.4283 40.2419H42.9697V41.7741H41.4283V40.2419ZM42.9697 40.2419H44.511V41.7741H42.9697V40.2419ZM7.51855 41.7741H9.05991V43.3064H7.51855V41.7741ZM10.6013 41.7741H12.1426V43.3064H10.6013V41.7741ZM12.1426 41.7741H13.684V43.3064H12.1426V41.7741ZM13.684 41.7741H15.2253V43.3064H13.684V41.7741ZM16.7667 41.7741H18.308V43.3064H16.7667V41.7741ZM19.8494 41.7741H21.3907V43.3064H19.8494V41.7741ZM27.5562 41.7741H29.0975V43.3064H27.5562V41.7741ZM29.0975 41.7741H30.6389V43.3064H29.0975V41.7741ZM30.6389 41.7741H32.1802V43.3064H30.6389V41.7741ZM32.1802 41.7741H33.7216V43.3064H32.1802V41.7741ZM33.7216 41.7741H35.2629V43.3064H33.7216V41.7741ZM36.8043 41.7741H38.3456V43.3064H36.8043V41.7741ZM38.3456 41.7741H39.887V43.3064H38.3456V41.7741ZM39.887 41.7741H41.4283V43.3064H39.887V41.7741ZM42.9697 41.7741H44.511V43.3064H42.9697V41.7741ZM44.511 41.7741H46.0524V43.3064H44.511V41.7741ZM7.51855 43.3064H9.05991V44.8386H7.51855V43.3064ZM16.7667 43.3064H18.308V44.8386H16.7667V43.3064ZM19.8494 43.3064H21.3907V44.8386H19.8494V43.3064ZM21.3907 43.3064H22.9321V44.8386H21.3907V43.3064ZM22.9321 43.3064H24.4734V44.8386H22.9321V43.3064ZM27.5562 43.3064H29.0975V44.8386H27.5562V43.3064ZM32.1802 43.3064H33.7216V44.8386H32.1802V43.3064ZM33.7216 43.3064H35.2629V44.8386H33.7216V43.3064ZM35.2629 43.3064H36.8043V44.8386H35.2629V43.3064ZM36.8043 43.3064H38.3456V44.8386H36.8043V43.3064ZM38.3456 43.3064H39.887V44.8386H38.3456V43.3064ZM7.51855 44.8386H9.05991V46.3709H7.51855V44.8386ZM9.05991 44.8386H10.6013V46.3709H9.05991V44.8386ZM10.6013 44.8386H12.1426V46.3709H10.6013V44.8386ZM12.1426 44.8386H13.684V46.3709H12.1426V44.8386ZM13.684 44.8386H15.2253V46.3709H13.684V44.8386ZM15.2253 44.8386H16.7667V46.3709H15.2253V44.8386ZM16.7667 44.8386H18.308V46.3709H16.7667V44.8386ZM22.9321 44.8386H24.4734V46.3709H22.9321V44.8386ZM26.0148 44.8386H27.5562V46.3709H26.0148V44.8386ZM32.1802 44.8386H33.7216V46.3709H32.1802V44.8386ZM35.2629 44.8386H36.8043V46.3709H35.2629V44.8386ZM39.887 44.8386H41.4283V46.3709H39.887V44.8386ZM44.511 44.8386H46.0524V46.3709H44.511V44.8386Z" fill="#42A7C3"/>
</svg>
