<svg width="45" height="45" viewBox="0 0 45 45" fill="none" xmlns="http://www.w3.org/2000/svg">
<g id="youtube-168_svgrepo.com" clip-path="url(#clip0_180_1661)">
<g id="Page-1">
<g id="Dribbble-Light-Preview">
<g id="icons">
<path id="youtube-[#168]" fill-rule="evenodd" clip-rule="evenodd" d="M17.974 28.3188V15.6922C22.4565 17.8014 25.9281 19.8389 30.034 22.0357C26.6475 23.9138 22.4565 26.0211 17.974 28.3188ZM42.9548 9.41239C42.1815 8.39368 40.8637 7.6007 39.4607 7.33817C35.3368 6.55506 9.60972 6.55283 5.48809 7.33817C4.36299 7.54909 3.36113 8.0589 2.5005 8.85099C-1.12582 12.2168 0.0104989 30.2663 0.884581 33.1901C1.25214 34.4556 1.7273 35.3683 2.32571 35.9674C3.0967 36.7595 4.1523 37.3049 5.36481 37.5495C8.76027 38.2518 26.2531 38.6445 39.389 37.6549C40.5992 37.444 41.6705 36.8811 42.5155 36.0553C45.8683 32.703 45.6398 13.6398 42.9548 9.41239Z" fill="#FF0202"/>
</g>
</g>
</g>
</g>
<defs>
<clipPath id="clip0_180_1661">
<rect width="45" height="45" fill="white"/>
</clipPath>
</defs>
</svg>
