<svg width="77" height="24" viewBox="0 0 77 24" fill="none" xmlns="http://www.w3.org/2000/svg">
<path d="M6.808 18.52H16.472V23H0.6V18.84L10.2 5.016H0.6V0.535999H16.472V4.696L6.808 18.52ZM25.4225 0.535999V13.976C25.4225 15.32 25.7532 16.3547 26.4145 17.08C27.0758 17.8053 28.0465 18.168 29.3265 18.168C30.6065 18.168 31.5878 17.8053 32.2705 17.08C32.9532 16.3547 33.2945 15.32 33.2945 13.976V0.535999H38.7665V13.944C38.7665 15.9493 38.3398 17.6453 37.4865 19.032C36.6332 20.4187 35.4812 21.464 34.0305 22.168C32.6012 22.872 31.0012 23.224 29.2305 23.224C27.4598 23.224 25.8705 22.8827 24.4625 22.2C23.0758 21.496 21.9772 20.4507 21.1665 19.064C20.3558 17.656 19.9505 15.9493 19.9505 13.944V0.535999H25.4225ZM48.081 18.776H55.249V23H42.609V0.535999H48.081V18.776ZM63.235 0.535999V13.976C63.235 15.32 63.5657 16.3547 64.227 17.08C64.8883 17.8053 65.859 18.168 67.139 18.168C68.419 18.168 69.4003 17.8053 70.083 17.08C70.7657 16.3547 71.107 15.32 71.107 13.976V0.535999H76.579V13.944C76.579 15.9493 76.1523 17.6453 75.299 19.032C74.4457 20.4187 73.2937 21.464 71.843 22.168C70.4137 22.872 68.8137 23.224 67.043 23.224C65.2723 23.224 63.683 22.8827 62.275 22.2C60.8883 21.496 59.7897 20.4507 58.979 19.064C58.1683 17.656 57.763 15.9493 57.763 13.944V0.535999H63.235Z" fill="white"/>
</svg>
